<svg xmlns="http://www.w3.org/2000/svg" viewBox="0 0 48 48" id="FinancialBasket"><g fill="#000000" class="color000000 svgShape"><g fill="#000000" class="color000000 svgShape"><g fill="#000000" class="color000000 svgShape"><g fill="#000000" class="color000000 svgShape"><g fill="#000000" class="color000000 svgShape"><path fill="#3f858b" d="m39.2 27.1 6.7-20.6c.2-.5-.1-1-.6-1.2L28.9 0c-.5-.2-1 .1-1.2.6L21 21.2l18.2 5.9z" class="color638b3f svgShape"></path><path fill="#ffffff" d="m37.4 26.6 5.5-17C41.5 9 40.7 7.5 41.1 6l-9.3-3c-.5 1.5-2.1 2.3-3.5 1.8l-5.5 17 14.6 4.8z" class="colorffffff svgShape"></path></g><ellipse cx="32.1" cy="17.9" fill="#3f858b" rx="3.9" ry="4.8" transform="rotate(-72.031 32.148 17.886)" class="color638b3f svgShape"></ellipse><circle cx="34.9" cy="9.3" r="1.6" fill="#3f858b" transform="rotate(-72.031 34.943 9.267)" class="color638b3f svgShape"></circle><path fill="#ffffff" d="M29.4 17c0-.1.1-.1.1-.1h.2l.4.1c.2-.4.4-.8.7-1.1 0-.1.1-.1.2-.1h.2c.1 0 .2.1.2.2s.1.2 0 .3c0 .1 0 .1-.1.1-.2.2-.4.5-.5.8l1.1.4c.1-.2.3-.4.4-.6.1-.2.3-.3.5-.4.2-.1.4-.1.7 0 .2.1.4.2.6.4l.3.6v.7l.4.1c.1 0 .1.1.1.1v.2c0 .1-.1.1-.1.1h-.2l-.3-.1c-.1.3-.3.6-.5.9-.1.1-.2.2-.4.1-.1 0-.2-.1-.2-.2s-.1-.2 0-.3c0 0 0-.1.1-.1.2-.2.3-.4.4-.7l-1.2-.4c-.1.2-.3.4-.4.6-.1.2-.3.3-.5.4-.2.1-.5.1-.7 0-.2-.1-.4-.2-.5-.4l-.3-.6v-.7l-.4-.1c-.1 0-.1-.1-.1-.1-.2 0-.2 0-.2-.1zm1.2.7c-.1.6.1.7.3.8.1 0 .2 0 .3-.1.1-.1.2-.2.3-.4l-.9-.3zm3.1.5v-.5c-.1-.2-.2-.3-.3-.3-.1 0-.3 0-.4.1-.1.1-.2.2-.3.4l1 .3z" class="colorffffff svgShape"></path></g></g></g><g fill="#000000" class="color000000 svgShape"><g fill="#000000" class="color000000 svgShape"><g fill="#000000" class="color000000 svgShape"><g fill="#000000" class="color000000 svgShape"><path fill="#2cb1bc" d="M29.1 20.4 19.2 1.1C19 .7 18.4.5 18 .7L2.6 8.6c-.5.2-.7.8-.4 1.2L12 29.1l17.1-8.7z" class="color88c057 svgShape"></path><path fill="#ffffff" d="m27.4 21.3-8.1-16c-1.4.7-3.1.2-3.8-1.2L6.8 8.5c.7 1.4.2 3.1-1.2 3.8l8.1 16 13.7-7z" class="colorffffff svgShape"></path></g><ellipse cx="17.5" cy="18.9" fill="#2cb1bc" rx="4.8" ry="3.9" transform="rotate(-27.034 17.527 18.86)" class="color88c057 svgShape"></ellipse><circle cx="13.4" cy="10.8" r="1.6" fill="#2cb1bc" transform="rotate(-27.034 13.409 10.79)" class="color88c057 svgShape"></circle><path fill="#ffffff" d="M15 20.2V20c0-.1.1-.1.1-.1l.3-.2c-.2-.4-.3-.8-.3-1.2v-.2c0-.1.1-.1.1-.2.1 0 .2-.1.3 0 .1 0 .2.1.2.2v.2c0 .3.1.6.2.9l1.1-.5c-.1-.3-.1-.5-.1-.7 0-.2 0-.4.1-.6.1-.2.3-.4.5-.5.2-.1.4-.2.7-.1.2 0 .4.1.7.2.2.1.4.3.5.5l.3-.2h.2c.1 0 .1.1.1.1v.2c0 .1-.1.1-.1.1l-.3.2c.1.3.2.7.3 1 0 .2 0 .3-.2.4h-.3c-.1 0-.2-.1-.2-.2v-.1c0-.3-.1-.5-.2-.7l-1.1.6c.1.3.1.5.1.7 0 .2 0 .4-.1.6-.1.2-.3.4-.5.5-.2.1-.4.1-.7.1-.2 0-.4-.1-.6-.3-.2-.1-.3-.3-.5-.5l-.3.2h-.2c0-.1-.1-.2-.1-.2zm1.3-.4c.3.5.6.4.8.3.1-.1.2-.1.2-.3v-.5l-1 .5zm2.5-1.8c-.1-.2-.2-.3-.4-.3-.1-.1-.3-.1-.4 0-.1.1-.2.2-.2.3v.5l1-.5z" class="colorffffff svgShape"></path></g></g></g><g fill="#000000" class="color000000 svgShape"><path fill="#e6e6e6" d="m1.9 24.7 3.7 20.1c.4 1.9 2 3.3 3.9 3.3h29c1.9 0 3.6-1.4 3.9-3.3l3.7-20.1H1.9z" class="colore6e6e6 svgShape"></path><path fill="#61e2ed" d="M47.1 19.8H.9c-.5 0-.9.4-.9.9v3.8c0 .5.4.9.9.9h46.2c.5 0 .9-.4.9-.9v-3.8c0-.5-.4-.9-.9-.9z" class="colored7161 svgShape"></path><g fill="#000000" class="color000000 svgShape"><path fill="#ffffff" d="M9.6 28.4c-.7 0-1.1.6-1 1.4l2 14.6c.1.6.6 1.1 1.2 1.1s1-.5.9-1.1L11 29.8c-.1-.8-.7-1.4-1.4-1.4zM16.8 28.4c-.7 0-1.1.6-1.1 1.4l1.1 14.6c0 .6.5 1.1 1.1 1.1.6 0 1-.5 1-1.1l-.8-14.6c-.1-.8-.6-1.4-1.3-1.4zM24 28.4c-.7 0-1.2.6-1.2 1.4l.2 14.6c0 .6.5 1.1 1 1.1.6 0 1-.5 1-1.1l.1-14.6c.1-.8-.4-1.4-1.1-1.4zM31.2 28.4c-.7 0-1.2.6-1.3 1.4l-.8 14.6c0 .6.4 1.1 1 1.1s1.1-.5 1.1-1.1l1.1-14.6c0-.8-.4-1.4-1.1-1.4zM38.4 28.4c-.7 0-1.3.6-1.4 1.4l-1.7 14.6c-.1.6.3 1.1.9 1.1.6 0 1.1-.5 1.2-1.1l2-14.6c.1-.8-.4-1.4-1-1.4z" class="colorffffff svgShape"></path></g></g></g></svg>