<svg xmlns="http://www.w3.org/2000/svg" enable-background="new 0 0 6297 5000" viewBox="0 0 6297 5000" id="Homelessmanbegformoney"><g fill="#000000" class="color000000 svgShape"><g fill="#000000" class="color000000 svgShape"><ellipse cx="3148.5" cy="4348.323" fill="#d1d1d1" rx="1582.204" ry="86.677" class="colord1d1d1 svgShape"></ellipse></g><g fill="#000000" class="color000000 svgShape"><g fill="#000000" class="color000000 svgShape"><g fill="#000000" class="color000000 svgShape"><g fill="#000000" class="color000000 svgShape"><path fill="#82b8bd" d="M3237.695,1840.697l-147.077-557.614c-58.003,64.866-96.975,249.325-143.533,416.387
						c-4.75,17.045-10.246,36.092-15.042,54.157c-1.498,5.645-20.035,49.632-23.966,61.79c-4.797,14.835-11.745,29.72,2.825,44.289
						c0,0-22.632,5.465-39.968,13.076c-17.335,7.611-19.656,32.745-18.547,36.938c0,0-25.6-12.835-40.979-10.797
						c-15.38,2.035-35.278,19.253-35.278,19.253l-197.67,8.51c50.644-1.39,127.651,140.443,137.267,276.314
						c0,0,281.962,21.159,399.324-68.364c74.267-56.651,107.021-122.349,122.48-205.422L3237.695,1840.697z" class="colorbd9e82 svgShape"></path></g><g fill="#000000" class="color000000 svgShape"><path fill="#5e888c" d="M3074.488,2158.632c28.988-149.668-53.264-591.679,44.843-622.23l91.803,480.292
						C3190.172,2087.133,3126.674,2134.307,3074.488,2158.632z" class="color8c6f5e svgShape"></path></g></g><g fill="#000000" class="color000000 svgShape"><path fill="#5e888c" d="M2910.902,1859.705c56.573,22.328,89.029,46.6,110.322,98.825
					c-11.953-76.657-58.675-111.165-117.76-128.266C2899.777,1844.661,2904.467,1852.832,2910.902,1859.705z" class="color8c6f5e svgShape"></path></g><g fill="#000000" class="color000000 svgShape"><path fill="#4f777a" d="M2578.46,1926.688c142.416,10.721,104.834,267.439,43.028,320.18
					C2574.862,2246.876,2502.522,1977.694,2578.46,1926.688z" class="color7a5c4f svgShape"></path></g><g fill="#000000" class="color000000 svgShape"><g fill="#000000" class="color000000 svgShape"><path fill="#8bd9e0" d="M2487.548,1934.679c7.406,2.533,208.608,2.038,216.418,1.512
						c28.558-1.921,27.162,147.116,22.188,146.75l-220.17,13.073L2487.548,1934.679z" class="colore09c8b svgShape"></path></g><g fill="#000000" class="color000000 svgShape"><g fill="#000000" class="color000000 svgShape"><g fill="#000000" class="color000000 svgShape"><polygon fill="#99e7ee" points="2444.723 2166.858 2261.745 2205.181 2162.239 1849.95 2393.321 1801.553" class="coloreec099 svgShape"></polygon></g><g fill="#000000" class="color000000 svgShape"><path fill="#cef5f8" d="M2261.734,2213.374c-3.792,0-7.198-2.653-8.01-6.514c-0.924-4.432,1.911-8.772,6.338-9.701
								l182.981-38.318c4.447-0.919,8.767,1.916,9.701,6.338c0.923,4.432-1.911,8.771-6.338,9.7l-182.981,38.318
								C2262.858,2213.315,2262.292,2213.374,2261.734,2213.374z" class="colorf8e8ce svgShape"></path></g><g fill="#000000" class="color000000 svgShape"><path fill="#cef5f8" d="M2162.227,1858.144c-3.792,0-7.199-2.653-8.01-6.514c-0.923-4.428,1.911-8.772,6.338-9.7
								l231.083-48.396c4.422-0.924,8.771,1.916,9.7,6.338c0.924,4.427-1.911,8.772-6.338,9.701l-231.083,48.395
								C2163.351,1858.085,2162.784,1858.144,2162.227,1858.144z" class="colorf8e8ce svgShape"></path></g></g><g fill="#000000" class="color000000 svgShape"><path fill="#8bd9e0" d="M2554.287,1938.347c-8.888-15.237-52.99-38.779-86.733-45.059l-96.528-5.01l-81.224,46.291
							c8.734,34.028,69.903,25.421,98.806,11.516l29.07,28.564l19.586,139.199c89.265-4.217,127.04-18.335,141.197-32.493
							L2554.287,1938.347z" class="colore09c8b svgShape"></path></g><g fill="#000000" class="color000000 svgShape"><path fill="#8bd9e0" d="M2213.014,1979.637c35.917-5.514,43.468,46.913,18.623,54.241
							c27.317-5.599,46.208,34.12,12.034,51.679c33.825-2.716,18.074,49.245-0.897,49.245c-11.215,0-18.094,3.694-21.929-14.427
							c-5.905-27.906,7.549-34.254,7.549-34.254s-18.232,1.993-24.18-18.559c-6.578-22.732,5.236-31.392,5.236-31.392
							s-13.136-3.99-17.626-20.755c-6.802-25.395,7.697-32.373,7.697-32.373L2213.014,1979.637z" class="colore09c8b svgShape"></path></g><g fill="#000000" class="color000000 svgShape"><path fill="#8bd9e0" d="M2190.616,1930.357c38.12,13.636,18.548,44.663-4.326,40.994
							c-6.209-0.252-23.267-8.144-18.246-29.726c3.641-15.648,13.43-23.005,13.43-23.005L2190.616,1930.357z" class="colore09c8b svgShape"></path></g><g fill="#000000" class="color000000 svgShape"><path fill="#66b3b9" d="M2417.677,1974.648l34.897,46.282l27.189,89.816c-14.46,1.601-28.675,2.725-42.5,3.101
							L2417.677,1974.648z" class="colorb96f66 svgShape"></path></g></g></g><g fill="#000000" class="color000000 svgShape"><path fill="#82b8bd" d="M2578.46,1926.688l178.356-7.679c58.918,58.918,72.656,155.814,72.656,312.709l-80.695-5.171
					l-127.289,20.32C2623.093,2105.547,2619.243,1928.037,2578.46,1926.688z" class="colorbd9e82 svgShape"></path></g><g fill="#000000" class="color000000 svgShape"><path fill="#699397" d="M2834.477,2231.725l-10.009-0.01c0.078-124.064-8.425-257.902-72.111-309.909l6.333-7.75
					C2825.44,1968.564,2834.56,2098.947,2834.477,2231.725z" class="color977a69 svgShape"></path></g></g><g fill="#000000" class="color000000 svgShape"><path fill="#4f777a" d="M3083.709,2943.303c283.973-272.851,720.235-196.05,1040.594,65.259
				c-83.018,67.74-209.064,71.505-375.584,62.444C3471.187,3055.904,3122.834,2982.428,3083.709,2943.303z" class="color7a5c4f svgShape"></path></g><g fill="#000000" class="color000000 svgShape"><g fill="#000000" class="color000000 svgShape"><g fill="#000000" class="color000000 svgShape"><path fill="#ffffff" d="M3475.836,3945.103l4.482,44.95c2.967,29.747,15.35,58.001,35.576,81.177l9.331,10.69
						c0,91.908-108.898,127.17-197.835,32.346l14.166-258.383L3475.836,3945.103z" class="colorffffff svgShape"></path></g><g fill="#000000" class="color000000 svgShape"><g fill="#000000" class="color000000 svgShape"><path fill="#599a9f" d="M3525.226,4081.92c30.841,32.008,55.782,83.14,55.782,162.906
							c-306.808,0-410.539,46.012-613.615-14.166c12.063-82.791,37.208-75.785,183.171-82.791
							c161.424-7.746,139.888-102.941,190.993-65.949C3437.169,4153.449,3516.369,4163.807,3525.226,4081.92z" class="color9f5959 svgShape"></path></g><g fill="#000000" class="color000000 svgShape"><path fill="#26575b" d="M3590.208,4304.694c-88.728,13.872-127.382-5.208-156.817-1.916
							c-84.494,9.452-188.004,12.81-253.521,12.68c-146.166-0.29-212.478-16.322-212.478-27.62v-57.178
							c158.282,35.35,375.013,14.165,613.617,14.165C3587.489,4251.305,3593.804,4283.49,3590.208,4304.694z" class="color5b2626 svgShape"></path></g></g></g><g fill="#000000" class="color000000 svgShape"><g fill="#000000" class="color000000 svgShape"><path fill="#2f2f2f" d="M3237.695,2096.014l8.896,286.795l-8.896,742.18l19.551,92.33l2.139,861.271
						c89.75,41.634,233.518,35.129,312.5,1.562l15.637-901.04l93.431-1073.641L3237.695,2096.014z" class="color2f2f2f svgShape"></path></g><g fill="#000000" class="color000000 svgShape"><path fill="#393939" d="M3220.613,4133.572c112.347,40.385,235.592,49.273,370.641,24.035l-19.369-77.457l14.424-76.826
						c-106.497,16.238-215.269,12.187-348.613-9.411l10.2,79.999L3220.613,4133.572z" class="color393939 svgShape"></path></g></g></g><g fill="#000000" class="color000000 svgShape"><g fill="#000000" class="color000000 svgShape"><g fill="#000000" class="color000000 svgShape"><path fill="#26575b" d="M3640.102,4320.514c93.234,9.304,227.41,10.905,358.728,0v-64.377
						c-123.663,6.115-261.099,8.49-358.728,0V4320.514z" class="color5b2626 svgShape"></path></g><g fill="#000000" class="color000000 svgShape"><path fill="#599a9f" d="M3998.829,4256.139c0-118.389-91.394-104.189-113.433-182.226l-188.052,7.414l-37.574,71.661
						c-21.631,24.105-19.669,56.348-19.669,103.15C3758.454,4266.459,3890.193,4268.057,3998.829,4256.139z" class="color9f5959 svgShape"></path></g></g><g fill="#000000" class="color000000 svgShape"><g fill="#000000" class="color000000 svgShape"><path fill="#393939" d="M3449.25,2112.861l118.571,1067.737l62.208,871.758
						c77.861,25.047,253.241,55.803,298.029,28.091l12.178-674.577v-219.888l-11.699-1073.121H3449.25z" class="color393939 svgShape"></path></g><g fill="#000000" class="color000000 svgShape"><path fill="#505050" d="M3616.162,4042.889c115.799-41.882,268.524-41.422,330.667-11.556l-0.975,64.53l15.932,58.354
						c-90.222-14.777-204.051-11.407-321.73,17.92l-3.769-59.746L3616.162,4042.889z" class="color505050 svgShape"></path></g></g><g fill="#000000" class="color000000 svgShape"><path fill="#2f2f2f" d="M3736.93,3534.314c-123.885,27.967-125.953,382.204-23.024,413.898
					c102.929,31.695,78.503-171.525,78.503-171.525s-28.568,132.302,43.387,104.407s43.387-214.407,0-249.831
					s-43.387,59.729-43.387,59.729S3860.813,3506.349,3736.93,3534.314z" class="color2f2f2f svgShape"></path></g><g fill="#000000" class="color000000 svgShape"><path fill="#2f2f2f" d="M3671.924,3410.107c119.558-32.557,33.938,194.946,33.938,194.946
					S3552.365,3442.665,3671.924,3410.107z" class="color2f2f2f svgShape"></path></g></g><g fill="#000000" class="color000000 svgShape"><polygon fill="#626767" points="3748.719 2580.043 3290.313 2580.043 3290.313 1146.978 3734.032 1098.597" class="color676462 svgShape"></polygon></g><g fill="#000000" class="color000000 svgShape"><path fill="#8bd9e0" d="M3673.313,924.778l25.666,158.782l77.043,24.016c0,0-81.065,84.731-275.127,71.849
				c-122.425-8.127-214.892-15.417-214.892-15.417l128.037-85.574L3673.313,924.778z" class="colore09c8b svgShape"></path></g><g fill="#000000" class="color000000 svgShape"><g fill="#000000" class="color000000 svgShape"><path fill="#82b8bd" d="M3362.748,1460.074c-13.587-135.958-31.129-300.587-31.129-300.587l8.47-37.02
					c-81.811,31.769-200.567,111.713-249.469,160.616c-33.77,40.805-11.385,428.531,38.087,812.932l-44.998,847.288
					c35.596-35.596,188.976-59.195,316.865-66.782c-5.848-392.714-0.909-1046.604-0.909-1046.604
					S3369.603,1528.662,3362.748,1460.074z" class="colorbd9e82 svgShape"></path></g><g fill="#000000" class="color000000 svgShape"><path fill="#82b8bd" d="M3931.008,1175.989c-116.144-58.015-154.986-68.413-154.986-68.413l-31.922-9.951
					c-13.232,47.876-162.902,189.876-222.225,523.505c-17.09,96.107-33.111,255.963-31.858,370.652
					c0.229,20.943,18.256,42.128,18.539,63.515c0.301,22.675-17.139,45.58-16.782,68.708c0.215,13.96,13.696,27.999,13.93,42.111
					c0.18,10.892-12.893,21.826-12.703,32.803c3.734,215.897,9.344,447.793,14.253,677.881
					c132.788,17.434,309.267,46.956,454.523,82.896c4.449,1.1,27.112-44.927,31.5-43.813c10.646,2.699,2.864,52.566,13.11,55.333
					c11.059,2.985,21.866-19.758,32.384-16.701c7.796,2.267,15.433,30.318,22.894,32.622c22.639,6.987,43.664,14.139,62.638,21.421
					C4122.682,2812.971,4155.795,1288.272,3931.008,1175.989z" class="colorbd9e82 svgShape"></path></g><g fill="#000000" class="color000000 svgShape"><path fill="#699397" d="M3507.253,2876.803l-3.516-161c49.268,40.715,74.155,76.057,69.111,104.808
					c0,0,40.337-85.509,108.104-49.73c67.767,35.779,38.042,105.923,38.042,105.923c50.924-0.276,104.107,33.868,156.97,63.12
					C3755.533,2914.736,3632.995,2893.082,3507.253,2876.803z" class="color977a69 svgShape"></path></g><g fill="#000000" class="color000000 svgShape"><ellipse cx="3664.394" cy="2731.594" fill="#699397" rx="26.092" ry="76.284" transform="scale(-1) rotate(18.089 17159.863 -23020.043)" class="color977a69 svgShape"></ellipse></g><g fill="#000000" class="color000000 svgShape"><ellipse cx="3602.889" cy="2696.662" fill="#699397" rx="18.798" ry="34.932" transform="rotate(-12.562 3603.247 2696.852)" class="color977a69 svgShape"></ellipse></g><g fill="#000000" class="color000000 svgShape"><ellipse cx="3777.744" cy="2839.617" fill="#699397" rx="27.789" ry="19.638" transform="rotate(142.111 3777.83 2839.533)" class="color977a69 svgShape"></ellipse></g><g fill="#000000" class="color000000 svgShape"><path fill="#699397" d="M3400.574,2876.52l-1.299-94.025l-108.962,69.849c0,0-57.249-36.007-87.662-12.726
					s-36.558,36.903-36.558,36.903l-42.459,17.248l-38.313,19.182l-1.612,30.352
					C3138.106,2904.668,3256.92,2886.547,3400.574,2876.52z" class="color977a69 svgShape"></path></g><g fill="#000000" class="color000000 svgShape"><ellipse cx="3199.716" cy="2835.521" fill="#699397" rx="19.095" ry="27.378" transform="scale(-1) rotate(18.089 17812.87 -20100.78)" class="color977a69 svgShape"></ellipse></g></g><g fill="#000000" class="color000000 svgShape"><g fill="#000000" class="color000000 svgShape"><path fill="#5e888c" d="M4124.115,2706.424c0,0-149.146,142.174-133.31-11.938l-9.12-36.384l-24.713-37.141
					l18.242-136.987l-34.979-38.619l-41.384-484.415c-43.626-149.521-42.612-229.665-25.187-351.391l250.449,464.483V2706.424z" class="color8c6f5e svgShape"></path></g><g fill="#000000" class="color000000 svgShape"><g fill="#000000" class="color000000 svgShape"><path fill="#8bd9e0" d="M4031.57,2366.516l11.903-68.846l142.617-13.105l-14.505,83.889l28.272,175.969l-23.873,87.641
						l-39.847,37.389c-11.041,18.167-67.89,56.447-110.536,74.454l6.706-49.212l-29.355,57.061c-0.108,0.027-0.217,0.054-0.326,0.08
						c-11.808,2.886-22.7-7.471-20.703-19.461c3.242-19.458,10.702-51.809,27.244-82.977c3.748-17.239,5.851-33.396,7.367-49.198
						c-9.491,8.477-21.747,16.094-35.527,22.635l-15.805-72.605l16.766-110.949
						C3981.969,2439.28,4015.166,2385.303,4031.57,2366.516z" class="colore09c8b svgShape"></path></g><g fill="#000000" class="color000000 svgShape"><path fill="#66b3b9" d="M4009.168,2649.397c44.572,19.05,97.691,18.871,166.817-17.334
						c0,0-60.563,82.386-150.383,111.843l6.706-49.212l-29.355,57.061c-0.108,0.027-0.217,0.054-0.326,0.08
						c-11.808,2.886-22.7-7.471-20.703-19.461C3985.166,2712.916,3992.626,2680.565,4009.168,2649.397z" class="colorb96f66 svgShape"></path></g><g fill="#000000" class="color000000 svgShape"><path fill="#66b3b9" d="M4016.604,2600.188l2.688-116.215l-22.561,130.49
						C4003.722,2610.427,4010.346,2605.668,4016.604,2600.188z" class="colorb96f66 svgShape"></path></g></g><g fill="#000000" class="color000000 svgShape"><path fill="#82b8bd" d="M3824.635,1134.073c292.457,89.358,311.336,227.71,395.314,757.81l-20.943,484.851
					c-52.421,26.679-192.042,25.569-243.881,3.478l-29.777-445.026l-70.561-301.662
					C3841.782,1537.751,3743.886,1244.87,3824.635,1134.073z" class="colorbd9e82 svgShape"></path></g><g fill="#000000" class="color000000 svgShape"><path fill="#82b8bd" d="M3946.234,2247.326l8.891,183.14c127.081,44.366,234.427,54.136,283.091,5.472l-18.267-85.296
					l-0.001-103.316C4181.73,2272.602,4065.314,2260.599,3946.234,2247.326z" class="colorbd9e82 svgShape"></path></g><g fill="#000000" class="color000000 svgShape"><path fill="#699397" d="M4238.216,2435.938c-48.664,48.664-156.01,38.895-283.091-5.472l-2.133-43.928
					c9.706-20.558,30.494,5.515,53.494,40.89c0,0-17.703-82.358,35.708-78.467c53.409,3.891,50.03,79.829,50.03,79.829
					s-0.52-26.702,26.697-20.149s-17.641,44.642,47.192,39.179s16.627-17.929,31.726-39.179c15.099-21.25,34.529,0,34.529,0
					L4238.216,2435.938z" class="color977a69 svgShape"></path></g><g fill="#000000" class="color000000 svgShape"><ellipse cx="4083.091" cy="2348.827" fill="#699397" rx="26.483" ry="36.113" class="color977a69 svgShape"></ellipse></g><g fill="#000000" class="color000000 svgShape"><path fill="#699397" d="M4134.577,2267.077c-49.949,0-115.097-6.553-188.894-14.778l1.104-9.95
					c103.56,11.548,232.441,25.906,270.398,0.802l5.522,8.347C4205.691,2262.752,4175.148,2267.077,4134.577,2267.077z" class="color977a69 svgShape"></path></g><g fill="#000000" class="color000000 svgShape"><polygon fill="#699397" points="4189.289 1701.519 4109.574 1790.262 4211.174 2095.04 4219.949 1891.883" class="color977a69 svgShape"></polygon></g><g fill="#000000" class="color000000 svgShape"><rect width="44.501" height="9.601" x="4144.258" y="1709.317" fill="#699397" transform="rotate(67.127 4166.266 1713.904)" class="color977a69 svgShape"></rect></g><g fill="#000000" class="color000000 svgShape"><polygon fill="#699397" points="4141.986 1782.993 4119.779 1736.138 4128.449 1732.022 4150.655 1778.878" class="color977a69 svgShape"></polygon></g><g fill="#000000" class="color000000 svgShape"><rect width="9.594" height="55.32" x="4122.667" y="1813.038" fill="#699397" transform="rotate(76.149 4127.524 1840.65)" class="color977a69 svgShape"></rect></g><g fill="#000000" class="color000000 svgShape"><rect width="9.595" height="62.939" x="4148.226" y="1897.745" fill="#699397" transform="rotate(65.883 4153.191 1929.384)" class="color977a69 svgShape"></rect></g><g fill="#000000" class="color000000 svgShape"><rect width="9.598" height="64.208" x="4172.874" y="1959.68" fill="#699397" transform="rotate(50.163 4177.446 1991.675)" class="color977a69 svgShape"></rect></g><g fill="#000000" class="color000000 svgShape"><polygon fill="#699397" points="4199.598 2096.943 4190.186 2095.086 4200.468 2042.85 4209.88 2044.707" class="color977a69 svgShape"></polygon></g></g><g fill="#000000" class="color000000 svgShape"><polygon fill="#5e888c" points="3504.766 1821.214 3495.97 1816.444 3662.291 1509.331 3578.505 1425.549 3721.34 1369.394 3869.486 1144.835 3877.843 1150.348 3727.946 1377.545 3596.381 1429.273 3674.645 1507.532" class="color8c6f5e svgShape"></polygon></g><g fill="#000000" class="color000000 svgShape"><polygon fill="#5e888c" points="3390.686 1835.914 3277.314 1525.506 3331.339 1428.096 3233.43 1393.55 3189.633 1200.814 3199.397 1198.596 3241.962 1385.946 3345.834 1422.593 3288.28 1526.366 3400.088 1832.483" class="color8c6f5e svgShape"></polygon></g><g fill="#000000" class="color000000 svgShape"><polygon fill="#699397" points="3966.242 2528.321 3740.662 2490.277 3736.758 2373.064 3746.756 2372.731 3750.397 2481.764 3967.904 2518.45" class="color977a69 svgShape"></polygon></g><g fill="#000000" class="color000000 svgShape"><polygon fill="#699397" points="3106.741 2535.104 3104.552 2525.341 3232.691 2496.64 3232.691 2391.703 3242.7 2391.703 3242.7 2504.654" class="color977a69 svgShape"></polygon></g><g fill="#000000" class="color000000 svgShape"><polygon fill="#5e888c" points="3668.466 1501.469 3685.922 1517.814 3500.365 1818.829" class="color8c6f5e svgShape"></polygon></g><g fill="#000000" class="color000000 svgShape"><polygon fill="#5e888c" points="3596.932 1427.411 3729.389 1384.196 3884.628 1152.292 3873.666 1147.593 3716.093 1379.594" class="color8c6f5e svgShape"></polygon></g><g fill="#000000" class="color000000 svgShape"><g fill="#000000" class="color000000 svgShape"><path fill="#ccd6d7" d="M3281.297,846.752c0,0,3.935,7.888,5.569,9.974c1.636,2.086,2.055,4.864,2.194,7.512
					c0.345,6.556-0.691,13.182-3.022,19.319c1.128-0.058,2.257-0.116,3.386-0.174c1.098,6.947,1.584,13.991,1.449,21.024
					c1.68,0.083,3.36,0.167,5.039,0.251c2.621,9.834-6.346,19.229-6.385,29.407c1.271,0.044,2.544,0.089,3.816,0.134
					c-1.051,5.499-1.633,11.087-1.738,16.685c1.949-0.471,4.026-0.405,5.942,0.188c-1.147,8.37-1.948,16.787-2.402,25.222
					c1.62,1.863,5.136-0.775,7.038,0.797c0.632,0.522,0.871,1.372,1.055,2.171c2.259,9.847,1.088,20.447-3.266,29.564
					c2.576,3.133,8.104,1.615,10.264-1.817c2.16-3.433,1.955-7.791,1.676-11.837c-1.711-24.832-3.422-49.663-5.134-74.495
					c-0.36-5.235-0.788-10.689-3.476-15.196c-1.19-1.995,2.208-4.255,0.86-6.147c-5.201-7.3-1.163-16.509-1.232-25.472
					s-2.868-18.296-4.013-27.187c-0.783-6.077,1.377-20.252-4.499-23.417C3294.444,833.167,3281.297,846.752,3281.297,846.752z" class="colord7d1cc svgShape"></path></g><g fill="#000000" class="color000000 svgShape"><path fill="#8bd9e0" d="M3298.125,784.485c-9.09,140.925,47.62,306.012,55.031,315.375
					c19.721,24.915,78.411,40.709,108.616,38.181c95.064-7.955,193.578-98.127,178.985-164.971l-37.627-331.776
					c-167.818-67.626-259.711-14.452-290.909,51.45C3291.132,727.243,3298.776,755.521,3298.125,784.485z" class="colore09c8b svgShape"></path></g><g fill="#000000" class="color000000 svgShape"><path fill="#ccd6d7" d="M3594.068,807.796c-6.49,10.155-4.309,77.004,4.298,89.252
					c8.606,12.248,49.448,59.95,82.919,40.73c51.603-29.631,42.607-159.305,31.37-213.639
					C3705.875,691.36,3600.557,797.641,3594.068,807.796z" class="colord7d1cc svgShape"></path></g><g fill="#000000" class="color000000 svgShape"><path fill="#ccd6d7" d="M3288.13,842.922c14.78,137.225,31.054,309.843,31.054,309.843
					c6.282,58.331,178.781,138.096,288.66,1.691c70.037-86.945,50.081-180.221,50.351-202.114l-33.188-49.433l-18.549,0.656
					c6.468,60.052-17.2,121.918-69.193,86.287c-13.458-9.223-51.876-7.53-60.041-6.387l-65.702,5.359
					c-24.966,2.689-24.081,24.849-45.568,27.164c-14.585,1.571-35.347-10.465-41.969-46.917L3288.13,842.922z" class="colord7d1cc svgShape"></path></g><g fill="#000000" class="color000000 svgShape"><path fill="#66b3b9" d="M3440.852,848.714c2.711,28.316,11.112,59.228,48.438,56.104l18.905-14.196l31.359-48.686
					L3440.852,848.714z" class="colorb96f66 svgShape"></path></g><g fill="#000000" class="color000000 svgShape"><path fill="#ccd6d7" d="M3323.983,969.071l-6.287-115.289c-24.429-98.111,1.101-193.447,67.626-196.403l-16.887-32.029
					C3285.709,622.514,3264.301,826.502,3323.983,969.071z" class="colord7d1cc svgShape"></path></g><g fill="#000000" class="color000000 svgShape"><path fill="#ccd6d7" d="M3712.51,770.581l-118.441,37.216c30.894-59.425-1.434-188.314-98.618-154.904
					c-91.645,31.505-105.889,49.918-137.964,14.86c-17.137-21.096-24.131-58.631,26.418-78.77
					c11.101-4.422,40.975,2.858,40.975,2.858s29.903-29.136,63.713-26.695C3748.457,583.91,3712.51,770.581,3712.51,770.581z" class="colord7d1cc svgShape"></path></g><g fill="#000000" class="color000000 svgShape"><path fill="#8bd9e0" d="M3389.836,1032.043c-4.375,24.041,9.207,18.243,69.081,11.794
					c52.055-5.607,58.265-31.836,58.265-31.836S3397.305,991.011,3389.836,1032.043z" class="colore09c8b svgShape"></path></g><g fill="#000000" class="color000000 svgShape"><path fill="#2cb1bc" d="M3352.674,1000.24c-8.691,4.66-16.246,11.407-19.001,19.553c8.28-0.443,16.552-1.267,24.76-2.466
					c-7.775,6.473-12.319,15.48-12.298,24.378c7.649-3.126,15.299-6.253,22.947-9.379c1.223-0.5,2.772-0.982,3.803-0.31
					c0.539,0.352,0.764,0.934,0.931,1.489c0.871,2.907,0.861,6.019-0.03,8.984c12.499-4.049,24.619-8.969,36.182-14.69
					c1.601,2.719,3.201,5.437,4.801,8.156c3.637-1.152,7.045-2.842,10.005-4.962c2.343,1.822,4.686,3.643,7.028,5.464
					c0.701,0.545,1.479,1.119,2.458,1.177c1.009,0.06,1.954-0.442,2.808-0.923c2.778-1.562,5.557-3.125,8.334-4.687
					c1.49-0.838,3.141-1.714,4.898-1.606c1.382,0.084,2.558,0.768,3.658,1.428c8.324,4.99,17.036,10.132,27.348,11.488
					c1.771,0.233,3.703,0.329,5.313-0.406c5.363-2.446,2.017-10.797,7.492-13.056c1.77-0.729,3.832-0.459,5.73-0.172
					c7.925,1.201,15.849,2.402,23.772,3.602c1.693-1.409,0.224-3.666-1.269-5.115c-3.404-3.306-6.809-6.612-10.213-9.917
					c9.493-1.55,18.985-3.101,28.479-4.651c2.209-0.36,5.121-1.642,4.338-3.334c-0.313-0.678-1.16-1.058-1.963-1.356
					c-6.195-2.305-13.716-3.115-18.031-7.4c-0.66-0.656-1.235-1.591-0.687-2.353c0.465-0.645,1.488-0.813,2.38-0.912
					c2.601-0.29,5.203-0.579,7.805-0.868c1.554-2.023-1.376-4.184-3.917-5.165c-7.256-2.803-14.762-5.198-22.45-7.163
					c2.343-3.534,5.659-4.974,5.659-4.974s-20.049-5.689-24.837-5.136c-23.983,2.768-47.938,6.219-72.033,7.293
					c-1.585,0.071-3.178,0.132-4.737,0.419c-1.511,0.278-2.962,0.763-4.405,1.242c-9.473,3.143-18.601,6.255-28.61,7.594
					C3369.739,992.759,3360.737,995.88,3352.674,1000.24z" class="colora99d9d svgShape"></path></g><g fill="#000000" class="color000000 svgShape"><path fill="#ccd6d7" d="M3300.196,1029.382c1.55-1.101,3.099-2.202,4.648-3.302c5.729,9.425,4.298,21.589,0.64,31.995
					s-9.331,20.12-11.814,30.867c4.286-2.78,8.573-5.56,12.86-8.34c-1.154,6.972-2.309,13.943-3.463,20.915
					c2.564-1.545,5.13-3.091,7.694-4.636c2.369,9.358,1.959,19.401-1.165,28.535c4.721-0.117,9.367-2.152,12.655-5.542
					c-5.674,20.113-13.927,39.496-24.492,57.526c11.887-4.054,23.346-9.357,34.129-15.794c1.586,11.901-3.886,24.477-13.674,31.429
					c8.762-3.019,17.524-6.038,26.286-9.057c4.069,7.657-6.148,17.629-1.732,25.091c2.332,3.94,7.929,4.849,12.22,3.252
					s7.575-5.056,10.697-8.405c-0.676,6.627,0.68,14.019,5.785,18.297s14.488,3.255,16.792-2.995
					c2.172,5.775,4.887,11.346,8.098,16.614c6.719-5.278,12.564-11.664,17.229-18.821c1.359,8.905,1.98,17.922,1.856,26.929
					c10.894-5.372,20.198-13.915,26.479-24.31c-1.048,5.509,4.048,10.852,9.619,11.492c5.571,0.64,11.023-2.391,14.88-6.463
					c-0.329,5.657,6.251,9.554,11.901,9.124c5.65-0.43,10.65-3.621,15.904-5.743c16.369-6.612,37.033-3.556,49.896-15.647
					c3.283-3.086,5.763-6.959,9.129-9.954c3.365-2.995,8.145-5.068,12.371-3.505c-0.952-9.277,3.735-18.909,11.623-23.883
					c2.713,4.27,4.564,9.084,5.412,14.071c11.796-12.333,20.272-27.811,24.311-44.392c3.937,7.348,5.712,15.838,5.051,24.148
					c10.959-14.461,16.568-32.884,15.53-50.998c1.074,4.83,3.685,9.306,7.361,12.618c-0.894-6.785-0.719-13.708,0.515-20.439
					c3.923,2.55,6.744,6.739,7.631,11.333c-2.283-12.417-1.598-25.37,1.984-37.476c3.939,4.132,7.878,8.264,11.816,12.396
					c-4.292-15.528-6.583-31.608-6.798-47.718c4.933,0.283,9.864,0.566,14.796,0.85c-0.47-7.395-0.939-14.79-1.41-22.185
					c-0.092,1.49,2.524,1.618,3.179,0.276c0.654-1.342-0.041-2.927-0.778-4.225c-4.021-7.073-9.625-13.241-16.28-17.922
					c-25.223,17.579-36.972,48.326-54.815,73.361c-12.971,18.198-29.421,33.609-46.152,48.423
					c-11.214,9.928-22.816,19.784-36.471,25.937c-14.516,6.541-30.678,8.573-46.596,8.9c-24.847,0.51-49.848-2.988-73.32-11.152
					c-24.779-8.618-49.388-24.386-57.935-49.189c-2.755-7.997-3.79-16.775-8.521-23.786c-2.739-4.059-6.596-7.312-9.027-11.562
					c-4.277-7.479-3.49-16.666-3.436-25.281c0.053-8.129,0.461-36.293-7.582-40.394
					C3304.719,1006.435,3305.46,1025.643,3300.196,1029.382z" class="colord7d1cc svgShape"></path></g><g fill="#000000" class="color000000 svgShape"><path fill="#66b3b9" d="M3385.026,851.28c19.124,27.29,26.357,66.949,26.357,66.949s-3.685,30.341-6.618,51.322
					c-0.586,4.193,5.689,10.506,11.467,10.563c0,0,19.854,0.164,34.906-1.357s22.12-4.696,22.12-4.696s4.994,5.293-1.474,11.094
					c-6.468,5.801-64.053,5.936-64.053,5.936c-10.269,0.844-18.398-11.363-16.965-18.791c8.042-41.673-1.239-79.162-59.803-95.07
					C3331.078,872.695,3352.114,855.879,3385.026,851.28z" class="colorb96f66 svgShape"></path></g><g fill="#000000" class="color000000 svgShape"><path fill="#66b3b9" d="M3479.333,904.821c0,0,42.533,2.858,52.556,3.989c6.352,0.717,12.811,1.373,19.103,0.245
					c-11.744-7.567-26.335-8.994-39.263-14.291c-0.26-0.107-0.534-0.226-0.695-0.457c-0.25-0.358-0.144-0.846-0.018-1.264
					c1.725-5.718,17.241-33.569,17.241-33.569l-14.036,8.204c0,0-16.338,15.872-27.037,19.455
					c-2.48,0.831-14.363,3.485-15.049,6.065c-0.818,3.082,12.069,7.473,12.069,7.473L3479.333,904.821z" class="colorb96f66 svgShape"></path></g><g fill="#000000" class="color000000 svgShape"><ellipse cx="3484.168" cy="868.245" fill="#103c40" rx="17.428" ry="19.556" transform="rotate(-41.286 3484.33 868.265)" class="color401022 svgShape"></ellipse></g><g fill="#000000" class="color000000 svgShape"><path fill="#66b3b9" d="M3387.828,850.978c6.816,28.161,6.606,60-20.013,63.764l-15.789-10.46l-34.318-41.899
					L3387.828,850.978z" class="colorb96f66 svgShape"></path></g><g fill="#000000" class="color000000 svgShape"><path fill="#66b3b9" d="M3374.764,912.924c0,0-29.159,10.58-35.946,13.522c-4.302,1.864-8.69,3.688-13.287,3.733
					c6.813-9.566,16.733-13.633,24.787-21.19c0.162-0.152,0.331-0.319,0.401-0.575c0.109-0.396-0.055-0.855-0.219-1.242
					c-2.249-5.291-17.912-26.623-17.912-26.623l10.981,5.509c0,0,14.359,9.405,22.481,10.961c1.883,0.36,10.66,0.789,11.61,3.193
					c1.135,2.872-7.056,9.533-7.056,9.533L3374.764,912.924z" class="colorb96f66 svgShape"></path></g><g fill="#000000" class="color000000 svgShape"><ellipse cx="3364.022" cy="878.474" fill="#103c40" rx="15.885" ry="19.556" transform="scale(-1) rotate(-23.771 -4173.831 15982.755)" class="color401022 svgShape"></ellipse></g><g fill="#000000" class="color000000 svgShape"><path fill="#5a6667" d="M3429.167,847.324c-0.026-0.387,0.526-0.66,0.817-0.404c2.49,2.081,5.428,3.621,8.556,4.485
					c0.089-0.724,0.179-1.447,0.268-2.171c2.032,2.722,4.704,4.963,7.738,6.49c-0.604-1.931-1.21-3.862-1.815-5.793
					c8.336,0.889,6.592,3.209,14.947,2.538c-3.3-1.655,2.97-0.29,0.58-3.104c6.689,1.712,13.488,3,20.341,3.854
					c-0.252-0.568-0.505-1.136-0.757-1.704c4.125,1.617,8.25,3.234,12.374,4.852c0.343-4.14,5.254-7.192,9.118-5.666
					c1.139,0.45,2.146,1.209,3.321,1.553c2.962,0.866,5.942-1.078,8.419-2.918c0.468,1.68,0.166,3.559-0.805,5.008
					c3.695-1.308,7.391-2.616,11.085-3.925c0.936-0.331,1.891-0.666,2.882-0.685c3.871-0.076,6.396,4.428,10.201,5.144
					c0.496,0.094,1.052,0.106,1.457-0.194c0.426-0.315,0.566-0.878,0.679-1.396c0.55-2.539,1.1-5.077,1.649-7.616
					c4.54,1.285,9.079,2.57,13.619,3.855c2.604,0.737,5.343,1.48,7.984,0.886c-2.803-0.907-5.24-2.897-6.689-5.462
					c2.392-0.7,4.892-1.028,7.383-0.969c-1.174-0.86-2.381-1.755-3.127-3.005c-0.747-1.25-0.924-2.959-0.03-4.109
					c0.609-0.783,1.722-1.541,1.353-2.462c-4.018-1.338-8.318-1.818-12.531-1.399c-1.297,0.129-2.623,0.34-3.889,0.028
					c-1.265-0.312-2.473-1.317-2.535-2.618c-0.029-0.595,0.179-1.2,0.034-1.778c-0.397-1.59-2.692-1.451-4.25-0.94
					c-3.008,0.984-6.015,1.969-9.022,2.953c-1.006,0.329-2.068,0.662-3.103,0.44c-0.675-0.145-1.274-0.514-1.883-0.839
					c-5.179-2.771-11.382-2.536-17.247-2.23c0.016,0.534,0.03,1.068,0.046,1.603c-7.51-7.167-18.508-8.959-28.786-10.416
					c1.713,0.724,2.389,3.18,1.287,4.679c-7.856-1.933-15.536-4.586-22.91-7.917c0.784,2.866,2.818,5.367,5.465,6.719
					c-0.494,2.607-4.016,3.126-6.633,2.689c-3.676-0.614-7.213-1.897-10.881-2.557s-7.648-0.637-10.886,1.211
					c0.724,0.913,1.937,1.413,3.093,1.275c-3.064,0.404-6.129,0.808-9.193,1.212c-0.452,0.06-0.957,0.149-1.223,0.521
					c-0.613,0.858,0.644,1.811,1.651,2.123c5.336,1.652,4.099,2.61,2.272,7.203C3428.229,839.793,3427.061,843.931,3429.167,847.324
					z" class="color675b5a svgShape"></path></g><g fill="#000000" class="color000000 svgShape"><path fill="#5a6667" d="M3397.829,850.429c-0.047-0.33-0.509-0.469-0.685-0.206c-1.512,2.157-3.455,3.933-5.656,5.171
					c-0.192-0.594-0.384-1.188-0.576-1.782c-1.058,2.621-2.68,4.942-4.696,6.723c0.121-1.723,0.242-3.445,0.364-5.168
					c-6.112,2.11-4.904,5.56-11.301,6.362c2.194-1.932-1.779-1.542-0.469-4.299c-4.734,2.534-9.622,4.729-14.625,6.567
					c0.091-0.519,0.183-1.038,0.273-1.557c-2.82,2.035-5.642,4.069-8.463,6.104c-0.973-3.426-5.191-5.189-7.833-3.274
					c-0.778,0.564-1.405,1.368-2.229,1.849c-2.077,1.213-4.653,0.066-6.833-1.077c-0.062,1.489,0.49,3.02,1.47,4.08
					c-3.003-0.496-6.007-0.992-9.011-1.487c-0.76-0.125-1.536-0.251-2.285-0.105c-2.922,0.569-4.043,4.77-6.779,5.994
					c-0.356,0.16-0.771,0.261-1.129,0.075c-0.375-0.195-0.578-0.646-0.752-1.063c-0.852-2.045-1.703-4.09-2.555-6.135
					c-3.19,1.823-6.381,3.646-9.571,5.469c-1.831,1.046-3.762,2.119-5.85,2.051c1.95-1.221,3.438-3.293,4.085-5.688
					c-1.918-0.197-3.854-0.064-5.717,0.393c0.734-0.916,1.486-1.865,1.832-3.038s0.183-2.64-0.688-3.46
					c-0.594-0.559-1.561-1.014-1.441-1.849c2.788-1.782,5.938-2.89,9.178-3.226c0.997-0.104,2.03-0.143,2.928-0.612
					c0.897-0.469,1.632-1.512,1.454-2.617c-0.081-0.505-0.342-0.98-0.333-1.489c0.023-1.402,1.773-1.66,3.033-1.486
					c2.431,0.336,4.861,0.672,7.292,1.008c0.813,0.112,1.669,0.218,2.408-0.138c0.481-0.231,0.869-0.64,1.271-1.013
					c3.414-3.176,8.117-3.993,12.58-4.696c0.08,0.452,0.161,0.903,0.242,1.355c4.406-7.256,12.365-10.561,19.84-13.466
					c-1.162,0.889-1.246,3.065-0.159,4.145c5.572-2.91,10.887-6.397,15.854-10.404c-0.095,2.539-1.191,4.975-2.948,6.544
					c0.822,2.111,3.56,1.972,5.451,1.177c2.657-1.118,5.095-2.775,7.737-3.93c2.645-1.154,5.641-1.786,8.393-0.762
					c-0.387,0.886-1.211,1.504-2.104,1.578c2.373-0.162,4.746-0.323,7.119-0.484c0.351-0.024,0.746-0.031,1.01,0.237
					c0.609,0.621-0.171,1.628-0.874,2.056c-3.727,2.262-2.631,2.865-0.465,6.429
					C3397.234,843.943,3398.827,847.231,3397.829,850.429z" class="color675b5a svgShape"></path></g><g fill="#000000" class="color000000 svgShape"><path fill="#ccd6d7" d="M3595.027,763.622c1.488-1.289,2.976-2.577,4.464-3.866c-1.021,8.927-6.862,27.676-9.808,36.165
					c3.23-0.481,9.306-2.942,9.306-2.942l-16.371,21.118c0,0,0.024,5.242,3.351,6.425c-2.074,6.185-4.334,12.308-6.774,18.358
					c3.267-3.645,8.501-5.407,13.307-4.479c-2.344,12.059-4.687,24.118-7.03,36.177c3.588-2.383,6.936-5.126,9.977-8.175
					c-3.367,9.047-6.053,18.347-8.027,27.797c2.619-0.202,5.238-0.403,7.856-0.604c1.527,6.581,1.418,13.535-0.315,20.064
					c4.055,1.413,9.008-0.626,10.893-4.484c-4.393,5.541-3.077,13.48-2.003,20.468s1.111,15.415-4.591,19.593
					c-2.065,1.513-5.056,4.03-3.218,5.813c0.43,0.417,1.03,0.595,1.602,0.771c6.358,1.961,12.218,5.523,16.886,10.266
					c-8.914,1.67-15.497,11.317-13.801,20.227c-5.037,0.271-10.075,0.542-15.113,0.812c-1.306,4.827-2.01,9.816-2.092,14.817
					c-5.912-1.557-10.504-7.225-16.617-7.316c-4.485-0.066-8.76,3.435-9.578,7.845c-2.088-3.52-11.236-5.303-11.236-5.303
					l3.761-9.094c0,0-21.826-4.142-35.643,0.342c4.288,1.009,8.629,2.038,12.532,4.081c4.248,2.223,7.801,5.554,11.211,8.924
					c7.213,7.125,14.562,14.925,24.321,17.67c10.137,2.851,21.325-0.492,29.652-6.937c8.327-6.445,14.113-15.658,18.438-25.258
					c5.129-11.383,8.468-23.853,7.464-36.298c-0.509-6.304-2.113-12.458-3.502-18.628c-3.888-17.274-6.112-34.922-6.636-52.621
					c-0.166-5.594-0.163-11.215-1.001-16.749c-0.636-4.195-1.749-8.305-2.452-12.489c-3.571-21.255,3.457-42.323,8.494-62.724
					c2.549-10.323,4.816-20.83,5.058-31.5c0.097-4.302-0.358-28.787-9.062-23.853c-3.52,1.995-4.629,12.146-5.756,15.604
					C3600.752,750.458,3598.097,757.138,3595.027,763.622z" class="colord7d1cc svgShape"></path></g><g fill="#000000" class="color000000 svgShape"><g fill="#000000" class="color000000 svgShape"><path fill="#8bd9e0" d="M3675.83,816.349c18.084-1.574,37.114,2.867,39.332,56.824
						c1.968,24.668-11.457,48.846-23.766,65.163c-17.889,23.713-0.735,41.967-22.038,43.822
						c-26.536,2.309-26.851-50.645-28.875-75.996C3640.483,906.161,3625.342,820.742,3675.83,816.349z" class="colore09c8b svgShape"></path></g><g fill="#000000" class="color000000 svgShape"><path fill="#66b3b9" d="M3667.666,937.053c-1.334,0-2.668-0.533-3.655-1.583c-1.886-2.009-1.783-5.175,0.226-7.066
						c0.072-0.073,7.677-7.35,6.855-14.983c-0.85-7.888-7.101-12.701-7.164-12.75c-0.879-0.665-1.544-1.627-1.837-2.693
						c-1.564-5.728-14.51-56.238,12.622-65.47c8.44-2.869,14.271-0.562,17.677,1.881c12.031,8.63,12.339,31.555,12.335,34.14
						c-0.006,2.761-2.244,4.99-5.005,4.99h-0.005c-2.762,0-4.999-2.243-4.999-5.004c0-5.229-1.505-21.229-8.166-25.994
						c-1.407-1.012-3.831-2.16-8.611-0.542c-14.929,5.083-9.939,38.528-6.577,51.884c2.795,2.551,8.654,8.938,9.681,18.482
						c1.363,12.652-9.51,22.939-9.975,23.369C3670.105,936.613,3668.883,937.053,3667.666,937.053z" class="colorb96f66 svgShape"></path></g></g><g fill="#000000" class="color000000 svgShape"><path fill="#ccd6d7" d="M3641.505,867.402c2.17,4.146,4.666,8.434,8.76,10.699c-1.872-0.454-3.728,1.216-4.185,3.087
					c-0.456,1.872,0.102,3.826,0.69,5.66c2.248,6.989,5.038,13.805,8.336,20.364c-3.752-0.005-7.504,0.42-11.159,1.265
					c-1.525,14.811,4.042,30.194,14.692,40.599c-0.988,1.456-3.288,1.311-4.526,2.562c-1.443,1.459-0.739,3.895,0.059,5.787
					c3.055,7.232,6.186,14.432,9.315,21.631c0.838,1.927,1.675,3.853,2.513,5.779c1.793,4.123,3.586,8.248,5.591,12.272
					c-6.452-0.259-12.96,0.986-18.86,3.607c-1.99-5.46-4.801-10.576-7.465-15.74c-1.656-3.211-3.268-6.467-4.322-9.922
					c-1.105-3.624-1.581-7.405-2.166-11.148c-3.04-19.443-9.152-38.385-10.92-57.985c-1.123-12.444-0.476-24.971,0.172-37.448
					c0.174-3.339,0.395-12.721,4.584-13.996C3636.732,853.222,3639.884,864.306,3641.505,867.402z" class="colord7d1cc svgShape"></path></g></g></g><g fill="#000000" class="color000000 svgShape"><g fill="#000000" class="color000000 svgShape"><polygon fill="#72c5cc" points="2256.595 4324.575 2716.765 4364.609 3050.176 4324.575 3050.176 3661.635 2716.765 3681.652 2256.595 3661.635" class="colorcc8a72 svgShape"></polygon></g><g fill="#000000" class="color000000 svgShape"><polygon fill="#57999e" points="3050.176 4324.575 2716.765 4364.609 2716.765 3681.652 3050.176 3661.635" class="color9e6357 svgShape"></polygon></g><g fill="#000000" class="color000000 svgShape"><polygon fill="#72c5cc" points="2716.765 3681.652 2912.085 3884.437 3324.976 3851.796 3050.176 3661.635" class="colorcc8a72 svgShape"></polygon></g><g fill="#000000" class="color000000 svgShape"><polygon fill="#57999e" points="2256.595 3661.635 2095.233 3830.015 2256.595 3844.427" class="color9e6357 svgShape"></polygon></g><g fill="#000000" class="color000000 svgShape"><polygon fill="#57999e" points="3050.176 3661.635 2256.595 3661.635 2716.765 3681.652" class="color9e6357 svgShape"></polygon></g><g fill="#000000" class="color000000 svgShape"><polygon fill="#57999e" points="2653.386 3678.896 2653.386 3696.038 2640.428 3687.467 2628.186 3753.031 2621.504 3677.508" class="color9e6357 svgShape"></polygon></g><g fill="#000000" class="color000000 svgShape"><path fill="#68b9c0" d="M2455.811,3670.301c0,0-13.309,16.425-41.813,16.425c-28.504,0-38.525-15.082-38.525-15.082
				s7.707,39.836-40.328,39.836c-48.035,0-32.191-47.828-32.191-47.828L2455.811,3670.301z" class="colorc07e68 svgShape"></path></g><g fill="#000000" class="color000000 svgShape"><ellipse cx="2314.678" cy="3739.358" fill="#68b9c0" rx="24.896" ry="17.613" class="colorc07e68 svgShape"></ellipse></g><g fill="#000000" class="color000000 svgShape"><path fill="#68b9c0" d="M2404.377,4337.432c0,0,50.267-57.822,76.979-47.883s20.193,36.029,20.193,36.029
				s1.901-11.471,29.504-11.471c27.602,0,43.484,24.56,43.484,24.56l84.484,11.144l57.744-26.926v41.725L2404.377,4337.432z" class="colorc07e68 svgShape"></path></g><g fill="#000000" class="color000000 svgShape"><polygon fill="#57999e" points="2963.693 3884.437 2945.311 3843.662 2971.222 3870.035 3014.715 3870.035 3031.598 3877.137" class="color9e6357 svgShape"></polygon></g><g fill="#000000" class="color000000 svgShape"><g fill="#000000" class="color000000 svgShape"><path fill="#48777b" d="M2324.317,4091.404c-1.008-0.402-2.08-0.534-3.206-0.419c-2.005-0.534-3.721-1.97-5.158-4.289
					c-1.426-2.331-2.284-5.087-2.573-8.268c-0.15-1.723-0.193-3.083-0.129-4.077c0.418-0.774,0.697-2.727,0.826-5.833
					c0.129-3.111,0.075-5.873-0.14-8.331c0.344-1.521,0.611-3.088,0.794-4.719c0.171-1.625,0.375-3.938,0.6-6.93
					c0.322-10.915,1.673-29.361,4.064-55.336c2.38-25.974,4.053-39.874,5.039-41.711l-0.364-4.048
					c-0.075-0.735-0.043-2.222,0.086-4.461c0.128-2.239,0.632-4.64,1.544-7.212c0.386-3.002,0.654-5.937,0.793-8.801
					c0.15-2.854,0.247-5.029,0.269-6.518c0.547-1.297,1.297-5.08,2.284-11.367c0.976-6.281,1.619-10.433,1.93-12.441
					c0.708-4.771,1.629-10.381,2.766-16.8c1.126-6.431,1.93-10.656,2.402-12.677l-0.172-1.844c0.279-0.521,0.901-3.117,1.866-7.797
					c0.965-4.679,1.791-8.657,2.466-11.941c0.783-4.036,2.852-14.52,6.208-31.439c0.333-1.77,0.901-3.985,1.727-6.672
					c0.815-2.682,1.179-4.519,1.094-5.5c0.482-1.774,1.544-2.756,3.152-2.917c1.458-0.155,3.013,0.493,4.696,1.923
					c1.673,1.441,3.024,3.336,4.053,5.707l2.949,5.633l-6.326,27.369c-1.855,6.631-3.399,12.964-4.643,19.033
					c-1.244,6.068-1.822,9.594-1.737,10.569c-0.418,2.521-1.222,7.677-2.391,15.462c-1.179,7.791-2.091,14.445-2.723,19.945
					c-0.483,3.767-1.104,7.723-1.866,11.885c-0.761,4.156-1.308,7.125-1.641,8.894c-0.9,4.541-1.319,7.056-1.276,7.544
					c-0.097-0.976,9.542-2.469,28.907-4.467c3.066-0.315,8.502-0.999,16.308-2.05c7.795-1.05,12.652-1.923,14.54-2.618l12.427-3.135
					l4.814-38.72c0.847-8.744,2.895-25.768,6.154-51.099c1.469-10.788,2.799-17.787,3.967-21.008c1.18-3.209,2.81-4.92,4.922-5.139
					c0.804-0.086,2.016,0.339,3.656,1.292c1.619,0.941,2.766,2.245,3.398,3.91c2.016,2.515,3.163,5.242,3.431,8.182
					c0.3,3.438-0.557,8.354-2.595,14.743c-1.458,5.346-3.345,15.313-5.607,29.891c-0.858,6.769-1.405,10.661-1.641,11.672
					c0.461,5.15,0,9.031-1.383,11.649c-0.568,1.045-1.383,4.656-2.455,10.822c-1.072,6.178-1.565,9.761-1.479,10.736
					c0.182,1.958,0.128,4.128-0.15,6.505c-0.268,2.377-0.687,4.1-1.233,5.139l-0.912,9.003c-2.841,31.71-5.34,53.739-7.484,66.072
					c0.118,1.234-0.097,3.485-0.611,6.746c-0.536,3.272-0.729,5.518-0.622,6.746c-0.171,1.745-0.589,5.253-1.244,10.519
					c-0.675,5.259-0.954,8.388-0.868,9.363c-0.086,2.733-0.343,7.08-0.783,13.074c-0.922,16.908-1.318,26.105-1.179,27.576
					c-0.279,0.521-0.74,0.82-1.394,0.884c-0.643,0.068-1.684-0.195-3.12-0.787c-1.437-0.597-2.498-1.108-3.195-1.532
					c-4.149-2.785-6.422-6.265-6.798-10.433c-0.247-2.687,0.172-6.321,1.223-10.88c0.375-1.27,1.19-9.404,2.444-24.372l0.955-13.831
					c0.611-4.02,1.748-15.881,3.399-35.603c1.394-15.227,2.219-23.104,2.509-23.638l-0.332-3.674
					c-0.59-1.172-6.53-1.178-17.831-0.012c-12.749,1.314-24.361,3.502-34.826,6.563l-11.387,1.171l-6.283,0.648
					c-0.568,2.785-2.005,14.377-4.321,34.776c-2.316,20.404-3.484,33.19-3.517,38.393c-0.396,8.204-1.158,19.601-2.294,34.189
					c-1.126,14.59-2.038,25.263-2.734,32.015C2326,4092.088,2325.325,4091.783,2324.317,4091.404z" class="color7b4f48 svgShape"></path></g><g fill="#000000" class="color000000 svgShape"><path fill="#48777b" d="M2480.496,4040.771c-4.031,0.413-7.999-0.666-11.891-3.221
					c-3.893-2.572-7.291-6.304-10.176-11.195c-2.444-3.709-4.375-7.964-5.79-12.77c-1.405-4.8-2.423-10.754-3.067-17.867
					c-0.214-2.445-0.504-7.36-0.847-14.749c-0.322-9.118,0.793-18.758,3.388-28.926c2.584-10.156,6.111-19.365,10.583-27.622
					c4.471-8.25,9.071-14.112,13.811-17.568c2.358-2.71,4.589-4.18,6.69-4.398c1.126-0.114,2.273-0.108,3.42,0.012
					c1.147,0.132,2.38,0.259,3.699,0.368c3.613,0.367,6.401,1.131,8.385,2.284c1.973,1.16,3.731,3.026,5.265,5.575
					c4.578,5.719,7.237,12.62,7.966,20.703c-0.107,5.949-2.005,12.953-5.672,20.997c-3.678,8.055-8.374,14.721-14.089,20.003
					c-2.767,1.773-6.015,2.848-9.725,3.232c-5.007,0.517-9.178-0.654-12.534-3.531c-1.512-0.586-2.681-0.832-3.485-0.752
					c-1.447,0.149-2.401,1.734-2.874,4.748c-0.45,3.02-0.665,8.486-0.59,16.392c-0.011,1.733,0.129,4.197,0.408,7.372
					c1.126,12.505,4.493,19.09,10.089,19.744c3.817,0.851,6.541,1.184,8.149,1.017c1.94-0.2,4.032-1.401,6.283-3.617l4.225-4.523
					c0.9-0.827,1.705-1.901,2.391-3.21c0.708-1.309,1.33-2.486,1.887-3.531c0.278-0.527,0.686-1.372,1.244-2.543
					c0.536-1.166,1.072-1.97,1.619-2.389c0.515-0.431,1.03-0.672,1.512-0.718c0.643-0.069,1.426,0.413,2.327,1.43
					c0.911,1.022,1.63,1.745,2.155,2.188c1.447-0.149,1.908,1.354,1.383,4.495c-0.537,3.158-1.952,6.885-4.246,11.208
					c-2.294,4.312-4.997,8.238-8.106,11.775C2490.747,4036.987,2486.147,4040.186,2480.496,4040.771z M2494.553,3943.207
					c2.434-4.702,3.506-8.521,3.249-11.466c-0.268-2.939-1.211-5.311-2.841-7.125c-1.629-1.809-3.742-2.589-6.315-2.319
					c-1.94,0.201-3.367,0.597-4.289,1.188c-2.177,1.217-4.6,4.128-7.281,8.727c-2.68,4.61-4.954,9.232-6.809,13.877
					c-1.866,4.646-2.52,7.31-1.973,7.998c1.008,2.124,4.257,2.899,9.736,2.331c3.71-0.379,6.712-1.43,9.006-3.152
					C2489.621,3951.268,2492.13,3947.915,2494.553,3943.207z" class="color7b4f48 svgShape"></path></g><g fill="#000000" class="color000000 svgShape"><path fill="#48777b" d="M2538.814,4039.943c-2.584,0.265-4.782-1.475-6.583-5.253c-1.812-3.772-3.013-9.089-3.635-15.955
					c-0.504-5.638-0.611-12.184-0.3-19.63c1.125-7.298,1.555-12.528,1.265-15.721c0.064-4.701,0.965-13.268,2.691-25.698
					c1.737-12.424,2.896-19.905,3.485-22.438c0.643-0.068,1.136-0.918,1.479-2.566c0.332-1.636,0.418-3.433,0.236-5.408
					c-0.193-2.204-0.118-4.495,0.236-6.884c0.365-2.383,0.815-4.105,1.372-5.145c-0.064-0.74,0.021-2.102,0.247-4.11
					c0.225-2.004,0.311-3.37,0.236-4.111c-0.043-0.482,0.085-1.429,0.354-2.813c0.29-1.389,0.397-2.451,0.333-3.191
					c1.898-7.86,4.879-25.418,8.942-52.695c4.053-27.254,5.951-42.354,5.693-45.299c-0.354-3.916,0.762-6.012,3.335-6.275
					c0.708-1.31,1.93-2.062,3.71-2.246l4.406,5.495c1.276,1.591,2.166,3.296,2.659,5.093c0.482,1.814,0.89,4.559,1.223,8.232
					c0.332,3.675,0.3,6.896-0.107,9.658c-0.407,2.767-1.522,8.445-3.356,17.046c-0.322,1.763-0.793,3.858-1.383,6.264
					c-0.601,2.411-1.222,5.386-1.887,8.917c-0.215,1.263-1.104,5.805-2.681,13.629c-1.18,5.07-1.727,7.976-1.662,8.71
					c0.064,0.735-0.118,2.303-0.547,4.696c-0.439,2.4-0.793,4.846-1.062,7.344c-0.933,4.06-2.37,11.189-4.3,21.41
					c-1.93,10.214-2.852,15.823-2.766,16.799c0.247,2.699,0.021,4.696-0.675,6.006c-0.482,0.046-0.761,0.637-0.815,1.757
					c-0.064,1.12-0.075,1.918-0.032,2.411c0.225,2.451-0.493,9.089-2.112,19.883l-1.222,10.891
					c-1.63,16.254-2.724,28.11-3.271,35.586c-0.547,7.475-0.59,13.791-0.128,18.94c0.557,6.126,0.783,10.065,0.697,11.805
					c-0.097,1.739-0.654,3.157-1.694,4.249C2540.723,4039.617,2539.94,4039.829,2538.814,4039.943z" class="color7b4f48 svgShape"></path></g><g fill="#000000" class="color000000 svgShape"><path fill="#48777b" d="M2579.022,4101.475c-2.263,0.235-4.353-1.344-6.294-4.73c-1.93-3.388-3.109-7.539-3.56-12.437
					c-0.193-2.204-0.172-4.679,0.075-7.429c0.064-1,0.3-3.313,0.707-6.937c0.418-3.634,0.579-6.683,0.525-9.146
					c0.076-2.728,0.611-7.733,1.587-15.002c0.965-7.286,1.823-12.189,2.574-14.738c0.611-2.291,1.019-4.995,1.233-8.102
					c0.204-3.117,0.214-5.781,0.011-7.986c0.644-5.512,1.362-9.289,2.155-11.356c0.643-5.506,1.469-9.795,2.509-12.872
					c0.086-0.752,0.14-2.549,0.118-5.397c-0.011-2.83,0.364-4.547,1.125-5.121c0.183-3.479,0.375-5.845,0.59-7.113
					c0.439-7.705,1.673-17.483,3.71-29.327c1.04-6.534,1.276-12.993,0.697-19.366c-0.686-7.596-2.284-11.885-4.825-12.86
					c-1.866-0.793-2.927-2.664-3.185-5.609c-0.161-1.717,0.021-3.336,0.536-4.875c0.515-1.538,1.297-2.732,2.37-3.582
					c1.222-0.873,2.477-1.372,3.764-1.504c1.78-0.185,3.463,0.011,5.061,0.591c1.598,0.574,2.337,1.12,2.23,1.619
					c0.064,0.735,0.193,1.28,0.386,1.636c0.193,0.345,0.536,0.494,1.019,0.448c0.397-1.027,1.791,0.867,4.182,5.69
					c2.38,4.828,3.667,8.215,3.839,10.179c-0.258,0.77-0.333,1.274-0.226,1.511c0.097,0.24,0.397,0.326,0.879,0.275
					c1.062-0.85,3.056-2.722,5.972-5.627c2.906-2.894,4.707-5.121,5.383-6.678c0.3-0.264,0.825-0.758,1.576-1.458
					c0.75-0.688,1.329-1.435,1.758-2.222c1.672-1.154,3.646-1.86,5.908-2.096c2.584-0.264,5.136,0.092,7.677,1.068
					c2.52,0.976,4.696,2.48,6.508,4.523c3.989,6.265,6.24,12.333,6.766,18.224c0.461,5.145-0.054,12.011-1.565,20.565
					c-0.193,1.505-0.943,4.496-2.251,8.957c-1.308,4.467-2.219,7.458-2.723,9.002c-2.659,8.44-6.069,15.835-10.219,22.202
					c-4.149,6.368-9.06,12.442-14.732,18.224c-1.619,1.895-3.313,3.428-5.071,4.604c-1.769,1.171-3.303,1.82-4.6,1.958
					c-0.644,0.063-1.309-0.109-1.995-0.54c-1.962-1.769-3.946-5.775-5.972-11.999c-1.405,7.819-2.155,13.09-2.241,15.823
					c0.075,0.729,0.054,1.905-0.042,3.524c-0.097,1.625-0.439,2.831-1.019,3.629c0.021,0.247-0.043,0.873-0.193,1.883
					c-0.161,1.005-0.558,2.412-1.212,4.197c-1.501,10.547-2.455,17.075-2.884,19.602c-1.684,12.039-2.595,19.929-2.755,23.66
					c0.235,6.154-0.075,12.678-0.922,19.578c-0.847,6.884-1.641,10.742-2.38,11.563
					C2580.695,4100.935,2579.827,4101.395,2579.022,4101.475z M2611.65,3978.074c5.779-8.141,9.35-13.773,10.69-16.885
					c2.552-5.948,4.182-11.432,4.879-16.455c1.051-6.287,1.769-10.943,2.166-13.952c0.343-1.526,0.429-3.255,0.257-5.225
					c-0.246-2.692-0.911-4.725-2.026-6.103c-0.986-0.144-3.056,0.878-6.187,3.055c-3.152,2.182-6.455,5.253-9.929,9.191
					c-3.474,3.944-6.262,8.618-8.385,14.038c-2.37,6.177-4.096,12.792-5.179,19.83c-1.072,7.033-1.383,13.005-0.944,17.902
					c0.547,6.138,1.876,9.083,3.967,8.87C2602.3,3990.97,2605.86,3986.216,2611.65,3978.074z" class="color7b4f48 svgShape"></path></g></g></g></g></svg>