<svg width="201" height="49" viewBox="0 0 201 49" fill="none" xmlns="http://www.w3.org/2000/svg">
<g filter="url(#filter0_d_0_1)">
<path fill-rule="evenodd" clip-rule="evenodd" d="M11 3.05176e-05C6.02944 3.05176e-05 2 4.02946 2 9.00002V35.55C2 40.5206 6.02943 44.55 11 44.55H37.55C42.5206 44.55 46.55 40.5206 46.55 35.55V9.00003C46.55 4.02947 42.5206 3.05176e-05 37.55 3.05176e-05H11ZM28.6191 11.7871C29.5449 12.502 30.0664 13.5039 30.1836 14.793H38.5156C38.4922 12.5547 37.9121 10.586 36.7754 8.88675C35.6387 7.18753 34.0391 5.86917 31.9766 4.93167C29.9258 3.98245 27.5059 3.50784 24.7168 3.50784C21.9863 3.50784 19.5547 3.97659 17.4219 4.91409C15.2891 5.85159 13.6191 7.15823 12.4121 8.83401C11.2051 10.5098 10.6074 12.461 10.6191 14.6875C10.6074 17.418 11.498 19.586 13.291 21.1914C15.084 22.7852 17.5391 23.9395 20.6562 24.6543L24.418 25.5332C25.7305 25.8379 26.8086 26.1719 27.6523 26.5352C28.5078 26.8867 29.1406 27.3086 29.5508 27.8008C29.9609 28.2813 30.1719 28.8614 30.1836 29.541C30.1719 30.2676 29.9434 30.9121 29.498 31.4746C29.0527 32.0371 28.4141 32.4766 27.582 32.793C26.7617 33.1094 25.7656 33.2676 24.5938 33.2676C23.3164 33.2676 22.1914 33.0684 21.2188 32.67C20.2578 32.2715 19.502 31.6856 18.9512 30.9121C18.4004 30.1387 18.0898 29.1719 18.0195 28.0117H9.6875C9.72266 30.8242 10.3613 33.1504 11.6035 34.9903C12.8457 36.8301 14.5859 38.2012 16.8242 39.1035C19.0625 40.0059 21.6875 40.4571 24.6992 40.4571C27.6992 40.4571 30.2598 40.0235 32.3809 39.1563C34.5137 38.2891 36.1484 37.041 37.2852 35.4121C38.4219 33.7832 38.9961 31.8321 39.0078 29.5586C38.9961 28.1172 38.75 26.8164 38.2695 25.6563C37.7891 24.4961 37.0801 23.4707 36.1426 22.5801C35.2168 21.6895 34.0684 20.9219 32.6973 20.2774C31.3379 19.6328 29.7676 19.1172 27.9863 18.7305L24.8926 18.0274C24.0723 17.8516 23.334 17.6465 22.6777 17.4121C22.0215 17.1778 21.459 16.9082 20.9902 16.6035C20.5332 16.2871 20.1816 15.9239 19.9355 15.5137C19.7012 15.1035 19.5957 14.6289 19.6191 14.0899C19.6309 13.4336 19.8242 12.8535 20.1992 12.3496C20.5742 11.834 21.1367 11.4297 21.8867 11.1367C22.6367 10.8438 23.5742 10.6973 24.6992 10.6973C26.3984 10.6973 27.7051 11.0606 28.6191 11.7871ZM55.8 29.08C55.8 28.9467 55.7867 28.68 55.76 28.28V27.48V26.08C55.7867 25.6533 55.8133 25.24 55.84 24.84C55.8667 24.4133 55.8933 23.9733 55.92 23.52C55.9733 23.04 56.0267 22.4933 56.08 21.88C56.2133 21.5067 56.52 21.32 57 21.32C57.4267 21.32 57.8 21.5333 58.12 21.96C58.44 22.36 58.7467 22.84 59.04 23.4L59.92 25.08C60.2133 25.64 60.56 26.0667 60.96 26.36C61.0133 26.4133 61.2133 26.5467 61.56 26.76C61.9333 26.9467 62.4 27.16 62.96 27.4C63.52 27.6133 64.1467 27.8133 64.84 28C65.5333 28.1867 66.24 28.28 66.96 28.28C67.68 28.28 68.3333 28.16 68.92 27.92C69.5067 27.6533 70 27.3067 70.4 26.88C70.8 26.4533 71.1067 25.9467 71.32 25.36C71.5333 24.7733 71.64 24.1467 71.64 23.48C71.64 23.0267 71.4267 22.5333 71 22C70.5733 21.4667 70.0533 20.9733 69.44 20.52C68.8267 20.04 68.1733 19.6533 67.48 19.36C66.8133 19.04 66.24 18.88 65.76 18.88C65.6267 18.88 65.4667 18.9333 65.28 19.04C65.12 19.12 64.9467 19.2267 64.76 19.36L64.2 19.68C64.04 19.76 63.9067 19.8 63.8 19.8C63.8267 19.6667 63.84 19.5467 63.84 19.44V19.16C63.84 18.7867 63.7867 18.4933 63.68 18.28C62.16 17.5067 60.9467 16.8267 60.04 16.24C59.1333 15.6267 58.44 15.0133 57.96 14.4C57.48 13.76 57.1733 13.08 57.04 12.36C56.9067 11.64 56.84 10.7733 56.84 9.76C56.84 8.96 56.9333 8.04 57.12 7C57.3067 5.93333 57.6667 4.94667 58.2 4.04C58.84 2.94667 59.7333 2.17333 60.88 1.72C62.0533 1.24 63.2933 1 64.6 1C65.3467 1 66.04 1.06667 66.68 1.2C67.32 1.33333 67.9333 1.52 68.52 1.76C69.1067 2 69.6933 2.29333 70.28 2.64C70.8667 2.98667 71.4933 3.37333 72.16 3.8H72.48L74.6 1.28H74.8C74.9333 1.25333 75.0267 1.24 75.08 1.24C75.32 1.24 75.5467 1.26667 75.76 1.32C76 1.37333 76.16 1.53333 76.24 1.8C76.3733 2.92 76.5067 4.10667 76.64 5.36C76.7733 6.58667 76.84 7.76 76.84 8.88C76.84 9.01333 76.7867 9.13333 76.68 9.24C76.5733 9.32 76.44 9.38667 76.28 9.44C76.12 9.46667 75.9467 9.49333 75.76 9.52H75.36C75.2 9.52 74.9333 9.36 74.56 9.04C74.1867 8.69333 73.72 8.26667 73.16 7.76C72.6267 7.25333 72.0267 6.72 71.36 6.16C70.72 5.57333 70.0533 5.02667 69.36 4.52C68.6667 4.01333 67.9867 3.6 67.32 3.28C66.6533 2.93333 66.0267 2.76 65.44 2.76C64.8267 2.76 64.2 2.81333 63.56 2.92C62.9467 3.02667 62.3867 3.21333 61.88 3.48C61.3733 3.74667 60.96 4.10667 60.64 4.56C60.32 5.01333 60.16 5.58667 60.16 6.28C60.16 6.68 60.3067 7.12 60.6 7.6C60.8933 8.05333 61.4 8.54667 62.12 9.08C62.84 9.61333 63.8133 10.1733 65.04 10.76C66.2667 11.3467 67.8133 11.96 69.68 12.6C69.7333 12.5467 69.84 12.4133 70 12.2C70.16 11.96 70.3333 11.72 70.52 11.48C70.7067 11.2133 70.8933 10.9867 71.08 10.8C71.2667 10.5867 71.4 10.48 71.48 10.48C71.6933 10.48 71.8533 10.56 71.96 10.72C72.0933 10.8533 72.16 11.0133 72.16 11.2C72.16 11.28 72.12 11.4 72.04 11.56C71.9867 11.72 71.9067 11.8933 71.8 12.08L71.48 12.64C71.4 12.8 71.3467 12.9333 71.32 13.04C72.2267 13.68 73 14.28 73.64 14.84C74.3067 15.4 74.8533 15.9867 75.28 16.6C75.7067 17.2133 76.0133 17.8933 76.2 18.64C76.4133 19.36 76.52 20.2 76.52 21.16C76.52 22.3067 76.2667 23.3867 75.76 24.4C75.2533 25.4133 74.5467 26.3067 73.64 27.08C72.7333 27.8533 71.64 28.4667 70.36 28.92C69.08 29.3733 67.68 29.6 66.16 29.6C64.6667 29.6 63.1867 29.3467 61.72 28.84C60.28 28.36 59.1067 27.5333 58.2 26.36L58.12 26.32C58.0667 26.32 57.9867 26.36 57.88 26.44C57.7733 26.4933 57.72 26.5467 57.72 26.6L57.16 29.32C57.1333 29.4533 57.0667 29.5333 56.96 29.56C56.8533 29.5867 56.7333 29.6 56.6 29.6C56.3867 29.6 56.2267 29.56 56.12 29.48C56.04 29.4267 55.9333 29.2933 55.8 29.08ZM58.44 6.44V7.16C58.44 7.50667 58.4267 7.89333 58.4 8.32V9.52V10.24C58.4 10.5867 58.44 10.9333 58.52 11.28C58.6 11.6 58.6933 11.9067 58.8 12.2C58.9333 12.6267 59.12 13.0667 59.36 13.52C59.6267 13.9733 60.1067 14.4667 60.8 15C61.52 15.5067 62.5333 16.0667 63.84 16.68C65.1467 17.2667 66.92 17.9067 69.16 18.6C70.6533 19.08 71.6533 19.72 72.16 20.52C72.6933 21.32 72.96 22.2133 72.96 23.2C72.96 24.1867 72.7733 25.2133 72.4 26.28C72.64 26.28 72.9067 26.16 73.2 25.92C73.4933 25.6533 73.76 25.28 74 24.8C74.2667 24.2933 74.48 23.68 74.64 22.96C74.8267 22.24 74.92 21.4267 74.92 20.52C74.92 19.16 74.5467 18.0267 73.8 17.12C73.0533 16.2133 72.1067 15.44 70.96 14.8C69.8133 14.1333 68.56 13.5467 67.2 13.04C65.84 12.5333 64.5467 11.9867 63.32 11.4C62.12 10.8133 61.0667 10.1333 60.16 9.36C59.2533 8.58667 58.68 7.61333 58.44 6.44ZM73.08 5.28C73.08 5.33333 73.1733 5.49333 73.36 5.76C73.5467 6 73.7467 6.25333 73.96 6.52C74.1733 6.78667 74.3733 7.02667 74.56 7.24C74.7733 7.45333 74.9067 7.56 74.96 7.56H75.28L75.2 7.12C75.1467 6.82666 75.08 6.49333 75 6.12C74.9467 5.72 74.88 5.33333 74.8 4.96C74.72 4.56 74.6533 4.25333 74.6 4.04C74.4933 4.12 74.3467 4.21333 74.16 4.32C74 4.4 73.84 4.49333 73.68 4.6C73.52 4.70667 73.3733 4.82667 73.24 4.96C73.1333 5.06667 73.08 5.17333 73.08 5.28ZM92.7247 27.28C92.7247 26.9067 92.8847 26.6 93.2047 26.36C93.5247 26.3333 93.8847 26.3067 94.2847 26.28C94.7114 26.2533 95.098 26.2267 95.4447 26.2C95.818 26.1733 96.138 26.1467 96.4047 26.12C96.6714 26.0667 96.8314 26 96.8847 25.92L101.005 14.96V14.84C101.031 14.7867 101.045 14.7333 101.045 14.68C101.045 14.28 100.858 13.96 100.485 13.72C100.138 13.4533 99.7247 13.2667 99.2447 13.16C98.7647 13.0267 98.2847 12.9467 97.8047 12.92C97.3247 12.8667 96.9514 12.84 96.6847 12.84C95.618 12.84 94.6847 13.2133 93.8847 13.96C93.1114 14.68 92.7247 15.6133 92.7247 16.76C92.7247 17.1067 92.818 17.3867 93.0047 17.6C93.1914 17.8133 93.4714 17.92 93.8447 17.92C94.378 17.92 94.7114 17.8 94.8447 17.56C95.0047 17.32 95.0847 17 95.0847 16.6V15.64C95.1647 15.4 95.258 15.2533 95.3647 15.2C95.4714 15.1467 95.6314 15.12 95.8447 15.12C96.0847 15.12 96.2847 15.1867 96.4447 15.32C96.6047 15.4533 96.7247 15.6133 96.8047 15.8C96.9114 15.9867 96.9914 16.2 97.0447 16.44C97.098 16.6533 97.1247 16.8533 97.1247 17.04C97.1247 17.36 97.0314 17.68 96.8447 18C96.6847 18.32 96.4714 18.6133 96.2047 18.88C95.938 19.12 95.6447 19.3333 95.3247 19.52C95.0047 19.68 94.698 19.76 94.4047 19.76C93.3647 19.76 92.5514 19.5067 91.9647 19C91.4047 18.4667 91.1247 17.6933 91.1247 16.68C91.1247 15.9067 91.258 15.1733 91.5247 14.48C91.7914 13.7867 92.1647 13.1867 92.6447 12.68C93.1247 12.1733 93.6847 11.7733 94.3247 11.48C94.9647 11.1867 95.658 11.04 96.4047 11.04C97.418 11.04 98.3247 11.1333 99.1247 11.32C99.9247 11.48 100.778 11.8667 101.685 12.48L101.765 12.52C101.791 12.52 101.858 12.48 101.965 12.4C102.071 12.32 102.125 12.2533 102.125 12.2L105.365 3.76V3.64C105.365 3.58667 105.325 3.52 105.245 3.44C105.191 3.33333 105.138 3.28 105.085 3.28H99.6447C99.5114 3.28 99.4314 3.22667 99.4047 3.12C99.378 3.01333 99.3647 2.92 99.3647 2.84C99.3647 2.68 99.418 2.41333 99.5247 2.04C99.658 1.66666 99.8447 1.48 100.085 1.48C102.725 1.45333 104.925 1.42667 106.685 1.4C108.471 1.34666 109.938 1.30666 111.085 1.28C112.231 1.25333 113.125 1.24 113.765 1.24C114.405 1.21333 114.925 1.2 115.325 1.2C115.751 1.17333 116.098 1.16 116.365 1.16C116.658 1.13333 117.031 1.12 117.485 1.12C117.698 1.12 117.858 1.24 117.965 1.48C118.071 1.69333 118.125 1.92 118.125 2.16C118.125 2.26667 118.098 2.45333 118.045 2.72C117.991 2.96 117.885 3.08 117.725 3.08H114.085L117.005 11.76C117.058 12.0533 117.125 12.2533 117.205 12.36C117.285 12.4667 117.431 12.52 117.645 12.52C118.498 12.52 119.325 12.4 120.125 12.16C120.951 11.8933 121.818 11.76 122.725 11.76C122.938 11.76 123.098 11.84 123.205 12C123.338 12.1333 123.405 12.3067 123.405 12.52C123.405 12.84 123.285 13.0933 123.045 13.28C122.805 13.44 122.538 13.5333 122.245 13.56L118.605 14.04C118.471 14.04 118.351 14.08 118.245 14.16C118.165 14.24 118.125 14.3467 118.125 14.48L122.205 26.28L124.365 26.84C124.578 26.8667 124.711 26.9467 124.765 27.08C124.818 27.1867 124.845 27.32 124.845 27.48C124.845 27.7467 124.765 27.9733 124.605 28.16C124.418 28.1333 124.245 28.12 124.085 28.12H123.645C122.338 28.12 121.085 28.1467 119.885 28.2C118.711 28.28 117.445 28.32 116.085 28.32C115.791 28.32 115.605 28.2667 115.525 28.16C115.445 28.0533 115.405 27.8533 115.405 27.56C115.405 27.1067 115.591 26.8133 115.965 26.68C116.338 26.52 116.778 26.3733 117.285 26.24C117.391 26.2133 117.565 26.2133 117.805 26.24C118.071 26.24 118.351 26.2533 118.645 26.28C118.938 26.3067 119.205 26.3333 119.445 26.36H120.045V25.88L116.525 14.96H116.085C116.058 14.96 115.898 15.08 115.605 15.32C115.311 15.56 114.965 15.8533 114.565 16.2C114.191 16.52 113.791 16.8667 113.365 17.24C112.965 17.6133 112.645 17.92 112.405 18.16C112.111 18.4267 111.911 18.68 111.805 18.92C111.725 19.16 111.471 19.28 111.045 19.28C110.671 19.28 110.365 19.16 110.125 18.92C109.911 18.68 109.698 18.4133 109.485 18.12C109.298 17.8267 109.085 17.56 108.845 17.32C108.631 17.08 108.338 16.96 107.965 16.96C107.938 16.96 107.925 16.9733 107.925 17H107.885H107.845L104.685 25.72C104.658 25.7467 104.631 25.8 104.605 25.88V26.08C104.605 26.2933 104.671 26.4267 104.805 26.48C104.965 26.5333 105.138 26.6 105.325 26.68C105.511 26.7333 105.671 26.8267 105.805 26.96C105.965 27.0933 106.045 27.3333 106.045 27.68C106.045 27.7867 106.031 27.8933 106.005 28C105.978 28.1333 105.898 28.2 105.765 28.2H93.4447C93.2047 28.2 93.018 28.1067 92.8847 27.92C92.778 27.7067 92.7247 27.4933 92.7247 27.28ZM98.8847 25.72C98.8847 25.9067 98.898 26.0667 98.9247 26.2C98.9514 26.3067 99.1114 26.36 99.4047 26.36H102.365C102.391 26.36 102.458 26.3067 102.565 26.2C102.671 26.0933 102.765 25.9733 102.845 25.84C102.951 25.68 103.045 25.5467 103.125 25.44L103.285 25.24L111.045 3.96V3.28H107.165L98.9247 25.24C98.898 25.24 98.8847 25.3067 98.8847 25.44V25.72ZM108.725 14.72C108.725 14.9333 108.751 15.0667 108.805 15.12C108.885 15.1733 109.018 15.2667 109.205 15.4C109.365 15.5067 109.551 15.64 109.765 15.8C110.005 15.96 110.231 16.12 110.445 16.28L111.045 16.68L111.285 16.8L115.405 13.4L115.725 13.24C115.831 13.16 115.885 13.0933 115.885 13.04L115.845 12.96V12.88L112.805 4.24L108.765 14.48C108.765 14.5067 108.751 14.5467 108.725 14.6V14.72ZM137.792 15.92C137.659 15.92 137.579 15.8267 137.552 15.64C137.525 15.4267 137.512 15.2933 137.512 15.24V15.04C137.539 14.9333 137.552 14.8667 137.552 14.84C137.632 14.8133 137.765 14.76 137.952 14.68L138.592 14.44C138.832 14.36 139.059 14.28 139.272 14.2C139.485 14.12 139.632 14.0533 139.712 14C139.739 14 139.805 13.76 139.912 13.28C140.045 12.8 140.179 12.2533 140.312 11.64C140.445 11.0267 140.579 10.4267 140.712 9.84C140.872 9.22667 140.992 8.78667 141.072 8.52C141.525 7.29333 142.125 6.17333 142.872 5.16C143.645 4.14667 144.525 3.28 145.512 2.56C146.499 1.84 147.565 1.29333 148.712 0.919998C149.885 0.519999 151.112 0.319999 152.392 0.319999C153.059 0.319999 153.712 0.386665 154.352 0.519999C154.992 0.653332 155.632 0.799998 156.272 0.959998L158.192 1.36C158.859 1.49333 159.539 1.56 160.232 1.56C160.792 1.56 161.219 1.49333 161.512 1.36C161.832 1.22667 162.085 1.09333 162.272 0.959998C162.485 0.799998 162.685 0.653332 162.872 0.519999C163.059 0.386665 163.312 0.319999 163.632 0.319999C163.685 0.319999 163.752 0.373332 163.832 0.479999C163.939 0.559998 164.045 0.653331 164.152 0.759998L164.552 1.16V6.92C164.552 7.21333 164.419 7.42667 164.152 7.56C163.885 7.69333 163.645 7.76 163.432 7.76C162.499 7.33333 161.605 6.81333 160.752 6.2C159.899 5.56 159.032 4.94667 158.152 4.36C157.299 3.77333 156.419 3.28 155.512 2.88C154.605 2.45333 153.619 2.24 152.552 2.24C152.499 2.24 152.405 2.25333 152.272 2.28H151.992C151.779 4.09333 151.592 5.96 151.432 7.88C151.272 9.77333 151.192 11.6933 151.192 13.64C151.192 15.1867 151.245 16.7333 151.352 18.28C151.485 19.8 151.699 21.32 151.992 22.84C152.019 22.9733 152.072 23.32 152.152 23.88C152.232 24.44 152.312 25.04 152.392 25.68C152.499 26.32 152.592 26.9067 152.672 27.44C152.752 27.9467 152.805 28.2133 152.832 28.24C153.019 28.5333 153.245 28.7067 153.512 28.76C153.779 28.8133 154.059 28.84 154.352 28.84C154.432 28.84 154.645 28.7867 154.992 28.68C155.365 28.6 155.779 28.4933 156.232 28.36C156.685 28.2267 157.152 28.08 157.632 27.92C158.112 27.76 158.512 27.6133 158.832 27.48C159.499 27.0267 160.072 26.4667 160.552 25.8C161.032 25.1333 161.272 24.4267 161.272 23.68C161.272 23.1467 161.205 22.68 161.072 22.28C160.939 21.8533 160.752 21.4533 160.512 21.08C160.299 20.7067 160.045 20.3333 159.752 19.96C159.459 19.5867 159.152 19.1733 158.832 18.72C158.645 18.72 158.419 18.7867 158.152 18.92C157.885 19.0267 157.619 19.1467 157.352 19.28C157.112 19.4133 156.885 19.5467 156.672 19.68C156.459 19.7867 156.312 19.84 156.232 19.84C155.939 19.84 155.645 19.7067 155.352 19.44C155.085 19.1733 154.952 18.8933 154.952 18.6C154.952 18.2 155.152 17.8667 155.552 17.6C155.952 17.3333 156.419 17.1333 156.952 17C157.485 16.84 158.032 16.7333 158.592 16.68C159.179 16.6267 159.632 16.6 159.952 16.6C160.299 16.6 160.805 16.6267 161.472 16.68C162.139 16.7333 162.792 16.76 163.432 16.76C164.285 16.76 165.139 16.6133 165.992 16.32C166.872 16 167.579 15.52 168.112 14.88C168.379 14.88 168.619 14.96 168.832 15.12C169.072 15.2533 169.192 15.4533 169.192 15.72C169.192 16.3333 169.045 16.76 168.752 17C168.459 17.24 168.125 17.4267 167.752 17.56L166.632 17.88C166.285 17.96 166.045 18.1467 165.912 18.44C165.752 18.76 165.645 19.1067 165.592 19.48C165.565 19.8267 165.539 20.1867 165.512 20.56C165.485 20.9333 165.472 21.2933 165.472 21.64C165.472 21.9867 165.432 22.2933 165.352 22.56C165.032 24.0267 164.499 25.2667 163.752 26.28C163.032 27.2933 162.152 28.1067 161.112 28.72C160.072 29.36 158.912 29.8133 157.632 30.08C156.352 30.3733 155.019 30.52 153.632 30.52C151.952 30.52 150.365 30.2 148.872 29.56C147.405 28.9467 146.072 28.04 144.872 26.84C143.699 25.6133 142.685 24.0933 141.832 22.28C140.979 20.44 140.352 18.32 139.952 15.92H137.792ZM142.112 14.36C142.112 15.5333 142.272 16.76 142.592 18.04C142.912 19.2933 143.312 20.48 143.792 21.6C144.272 22.72 144.805 23.72 145.392 24.6C145.979 25.4533 146.539 26.08 147.072 26.48C147.259 26.6133 147.525 26.7867 147.872 27L148.912 27.56C149.259 27.7467 149.565 27.9067 149.832 28.04C150.099 28.1733 150.259 28.24 150.312 28.24H151.032C150.659 25.9733 150.259 23.72 149.832 21.48C149.405 19.2133 149.192 16.9333 149.192 14.64C149.192 14.4533 149.205 14.16 149.232 13.76C149.259 13.3333 149.285 12.8533 149.312 12.32C149.365 11.7867 149.405 11.2267 149.432 10.64C149.485 10.0267 149.512 9.42667 149.512 8.84V5.52C149.512 4.48 149.525 3.76 149.552 3.36C149.392 3.17333 149.245 3.08 149.112 3.08C149.085 3.08 148.899 3.16 148.552 3.32C148.232 3.45333 148.019 3.54667 147.912 3.6C145.992 4.90667 144.539 6.42667 143.552 8.16C142.592 9.86667 142.112 11.9333 142.112 14.36ZM161.032 18.36C161.565 19.2133 162.005 20.04 162.352 20.84C162.699 21.6133 162.885 22.4533 162.912 23.36C162.939 23.2533 163.045 22.8533 163.232 22.16C163.419 21.4667 163.579 20.6933 163.712 19.84C163.712 19.5733 163.605 19.3467 163.392 19.16C163.205 18.9467 162.965 18.7867 162.672 18.68C162.405 18.5733 162.112 18.4933 161.792 18.44C161.499 18.3867 161.245 18.36 161.032 18.36ZM159.192 3.2C159.299 3.28 159.525 3.42667 159.872 3.64C160.245 3.82666 160.645 4.04 161.072 4.28C161.525 4.52 161.952 4.77333 162.352 5.04C162.752 5.28 163.045 5.49333 163.232 5.68V2.92C163.152 2.94667 162.979 2.97333 162.712 3C162.472 3 162.165 3.01333 161.792 3.04C161.419 3.06667 161.005 3.09333 160.552 3.12L159.192 3.2ZM182.677 28C182.677 27.6267 182.864 27.4133 183.237 27.36C183.611 27.3067 184.024 27.3067 184.477 27.36C184.931 27.3867 185.371 27.4 185.797 27.4C186.224 27.4 186.504 27.28 186.637 27.04C186.637 25.9467 186.651 24.9467 186.677 24.04C186.704 23.1333 186.717 22.2667 186.717 21.44V20.52C186.744 20.1467 186.757 19.76 186.757 19.36V18.16C186.784 17.76 186.797 17.4133 186.797 17.12C186.797 16.8267 186.784 16.6267 186.757 16.52C186.597 16.5733 186.477 16.6 186.397 16.6C186.104 16.6 185.837 16.44 185.597 16.12C185.357 15.7733 185.237 15.4533 185.237 15.16C185.237 14.92 185.317 14.76 185.477 14.68C185.637 14.5733 185.811 14.4933 185.997 14.44C186.184 14.3867 186.357 14.3333 186.517 14.28C186.677 14.2267 186.757 14.1333 186.757 14C186.677 13.2 186.624 12.3333 186.597 11.4C186.597 10.44 186.584 9.48 186.557 8.52C186.531 7.53333 186.504 6.56 186.477 5.6C186.477 4.64 186.437 3.74667 186.357 2.92C186.304 2.86667 186.237 2.81333 186.157 2.76C186.104 2.68 186.051 2.64 185.997 2.64H184.477C184.131 2.64 183.757 2.62667 183.357 2.6C183.064 2.6 182.824 2.49333 182.637 2.28C182.451 2.04 182.357 1.78667 182.357 1.52V1.12C182.384 1.01333 182.477 0.919998 182.637 0.839999L186.597 0.639999C186.837 0.666666 187.064 0.693332 187.277 0.719998H187.997H189.917C190.477 0.693332 191.011 0.666666 191.517 0.639999C192.051 0.613331 192.597 0.599998 193.157 0.599998C193.717 0.573331 194.371 0.559998 195.117 0.559998H195.677C195.944 0.559998 196.224 0.573331 196.517 0.599998H197.357H197.957C198.091 0.653332 198.171 0.733332 198.197 0.839999C198.224 0.946666 198.237 1.05333 198.237 1.16C198.237 1.8 198.104 2.21333 197.837 2.4C197.571 2.56 197.077 2.64 196.357 2.64C195.984 2.64 195.624 2.62667 195.277 2.6C194.931 2.57333 194.651 2.56 194.437 2.56C194.437 5.12 194.371 7.73333 194.237 10.4C194.131 13.0667 194.077 15.7333 194.077 18.4C194.077 19.8933 194.104 21.44 194.157 23.04C194.211 24.6133 194.331 26.1067 194.517 27.52C194.944 27.52 195.397 27.56 195.877 27.64C196.357 27.6933 196.811 27.72 197.237 27.72C197.504 27.72 197.717 27.8133 197.877 28C198.03 28.1528 198.11 28.3665 198.117 28.6409C198.09 28.694 198.05 28.747 197.997 28.8L197.837 28.96C197.784 29.0133 197.704 29.0533 197.597 29.08L194.277 29.36H193.917C193.704 29.3867 193.451 29.4 193.157 29.4C192.864 29.4267 192.557 29.44 192.237 29.44H191.517C191.011 29.44 190.597 29.4267 190.277 29.4C189.984 29.3733 189.704 29.3333 189.437 29.28C189.171 29.2533 188.891 29.2133 188.597 29.16C188.304 29.1333 187.904 29.12 187.397 29.12H184.037C183.584 29.12 183.251 29.0533 183.037 28.92C182.851 28.7867 182.731 28.48 182.677 28ZM198.117 28.6409L198.117 28.64V28.68C198.117 28.6668 198.117 28.6538 198.117 28.6409ZM188.117 3.08V6.8C188.144 8.34667 188.157 10.0267 188.157 11.84C188.184 13.6267 188.211 15.4533 188.237 17.32C188.264 19.1867 188.291 20.88 188.317 22.4C188.371 23.8933 188.411 25.12 188.437 26.08C188.491 27.04 188.544 27.52 188.597 27.52H192.277L192.517 27.28V26.88C192.544 26.6133 192.557 26.4133 192.557 26.28V25.96C192.557 25.8 192.544 25.64 192.517 25.48V25.04V24.8C192.517 23.7333 192.531 22.44 192.557 20.92C192.584 19.3733 192.611 17.7867 192.637 16.16C192.691 14.5067 192.731 12.8933 192.757 11.32C192.784 9.72 192.797 8.33333 192.797 7.16C192.797 6.57333 192.784 6.01333 192.757 5.48C192.731 4.92 192.677 4.42666 192.597 4C192.544 3.57333 192.464 3.22666 192.357 2.96C192.251 2.69333 192.104 2.56 191.917 2.56H191.277H190.277C189.931 2.56 189.584 2.57333 189.237 2.6C188.891 2.6 188.597 2.61333 188.357 2.64C188.224 2.69333 188.144 2.76 188.117 2.84V3.08ZM54.5893 42.9546H56.2896L56.7202 41.5803H58.9806L59.4121 42.9546H61.1124L58.9039 36.4091H56.7977L54.5893 42.9546ZM58.6033 40.3786L57.8748 38.0583H57.8237L57.0967 40.3786H58.6033ZM66.7883 42.7276C67.159 42.9407 67.6033 43.0472 68.121 43.0472C68.5813 43.0472 68.9786 42.9641 69.3131 42.798C69.6498 42.6296 69.9108 42.3942 70.0962 42.0916C70.2837 41.7891 70.3849 41.4354 70.3998 41.0306H68.9392C68.92 41.2031 68.8742 41.3502 68.8018 41.4716C68.7293 41.5909 68.6367 41.6815 68.5237 41.7433C68.4129 41.8051 68.2851 41.836 68.1402 41.836C67.9591 41.836 67.8004 41.7859 67.664 41.6857C67.5276 41.5835 67.4211 41.4333 67.3444 41.2351C67.2698 41.0348 67.2325 40.7898 67.2325 40.5C67.2325 40.2102 67.2698 39.9673 67.3444 39.7713C67.4211 39.5732 67.5276 39.424 67.664 39.3239C67.8004 39.2216 67.9591 39.1705 68.1402 39.1705C68.3639 39.1705 68.545 39.2418 68.6835 39.3846C68.8242 39.5274 68.9094 39.7244 68.9392 39.9759H70.3998C70.3891 39.5732 70.2879 39.2227 70.0962 38.9244C69.9065 38.6239 69.6423 38.3917 69.3036 38.2276C68.9669 38.0636 68.5717 37.9815 68.1178 37.9815C67.6043 37.9815 67.1622 38.0881 66.7915 38.3012C66.4229 38.5142 66.1384 38.8114 65.9381 39.1928C65.74 39.5721 65.6409 40.0132 65.6409 40.516C65.6409 41.0167 65.74 41.4578 65.9381 41.8391C66.1363 42.2184 66.4197 42.5146 66.7883 42.7276ZM78.2906 39.196V38.0455H77.4053V36.8693H75.8424V38.0455H75.1936V39.196H75.8424V41.5835C75.8381 41.9159 75.9042 42.1918 76.0406 42.4112C76.179 42.6307 76.3783 42.7926 76.6382 42.897C76.9003 42.9993 77.2146 43.0419 77.581 43.0249C77.7685 43.0163 77.9294 42.9961 78.0636 42.9641C78.2 42.9322 78.3055 42.9056 78.38 42.8842L78.1435 41.7561C78.1094 41.7646 78.0583 41.7752 77.9901 41.788C77.9241 41.7987 77.8612 41.804 77.8016 41.804C77.7185 41.804 77.6471 41.7923 77.5874 41.7688C77.5278 41.7433 77.482 41.7017 77.45 41.6442C77.4202 41.5845 77.4053 41.5068 77.4053 41.4109V39.196H78.2906ZM84.9708 38.0455H83.408V42.9546H84.9708V38.0455ZM83.6253 37.2561C83.783 37.4009 83.9715 37.4734 84.191 37.4734C84.4126 37.4734 84.6011 37.4009 84.7567 37.2561C84.9144 37.109 84.9932 36.9322 84.9932 36.7255C84.9932 36.521 84.9144 36.3462 84.7567 36.2014C84.6011 36.0543 84.4126 35.9808 84.191 35.9808C83.9715 35.9808 83.783 36.0543 83.6253 36.2014C83.4676 36.3462 83.3888 36.521 83.3888 36.7255C83.3888 36.9322 83.4676 37.109 83.6253 37.2561ZM91.5736 42.9546H93.3633L95.0476 38.0455H93.4017L92.494 41.4269H92.4429L91.5384 38.0455H89.8925L91.5736 42.9546ZM100.774 42.7436C101.147 42.946 101.59 43.0472 102.103 43.0472C102.532 43.0472 102.909 42.9823 103.235 42.8523C103.561 42.7202 103.824 42.5359 104.024 42.2994C104.227 42.0607 104.358 41.7806 104.417 41.4588L102.982 41.4173C102.942 41.5259 102.881 41.6176 102.8 41.6921C102.719 41.7667 102.622 41.8232 102.509 41.8615C102.396 41.8999 102.271 41.919 102.132 41.919C101.932 41.919 101.759 41.8775 101.614 41.7944C101.47 41.7113 101.358 41.5952 101.279 41.446C101.2 41.2948 101.161 41.119 101.161 40.9187V40.8771H104.433V40.4872C104.433 40.0845 104.375 39.7276 104.258 39.4166C104.14 39.1034 103.976 38.8402 103.765 38.6271C103.554 38.4141 103.304 38.2532 103.014 38.1445C102.725 38.0359 102.405 37.9815 102.056 37.9815C101.561 37.9815 101.132 38.0881 100.768 38.3012C100.403 38.5121 100.121 38.8083 99.9206 39.1896C99.7203 39.5689 99.6201 40.0121 99.6201 40.5192C99.6201 41.0412 99.7192 41.4918 99.9174 41.8711C100.118 42.2482 100.403 42.5391 100.774 42.7436ZM101.162 39.9695C101.169 39.8115 101.212 39.6698 101.288 39.5444C101.369 39.4102 101.479 39.3047 101.618 39.228C101.756 39.1492 101.913 39.1097 102.087 39.1097C102.26 39.1097 102.412 39.147 102.545 39.2216C102.679 39.294 102.784 39.3953 102.861 39.5252C102.938 39.6552 102.977 39.8033 102.979 39.9695H101.162ZM119.059 37.8249C119.227 37.9549 119.322 38.1371 119.343 38.3715H120.858C120.854 37.9645 120.748 37.6065 120.542 37.2976C120.335 36.9887 120.044 36.7489 119.669 36.5785C119.296 36.4059 118.856 36.3196 118.349 36.3196C117.853 36.3196 117.411 36.4048 117.023 36.5753C116.635 36.7458 116.331 36.9833 116.112 37.288C115.893 37.5927 115.784 37.9475 115.786 38.3523C115.784 38.8487 115.946 39.2429 116.272 39.5348C116.598 39.8246 117.044 40.0345 117.611 40.1644L118.295 40.3242C118.533 40.3796 118.73 40.4404 118.883 40.5064C119.038 40.5703 119.154 40.647 119.228 40.7365C119.303 40.8239 119.341 40.9293 119.343 41.0529C119.341 41.185 119.299 41.3022 119.218 41.4045C119.138 41.5068 119.021 41.5867 118.87 41.6442C118.721 41.7017 118.54 41.7305 118.327 41.7305C118.095 41.7305 117.89 41.6943 117.713 41.6218C117.538 41.5494 117.401 41.4428 117.301 41.3022C117.201 41.1616 117.144 40.9858 117.132 40.7749H115.617C115.623 41.2862 115.739 41.7092 115.965 42.0437C116.191 42.3782 116.507 42.6275 116.914 42.7916C117.321 42.9556 117.798 43.0377 118.346 43.0377C118.891 43.0377 119.357 42.9588 119.743 42.8012C120.13 42.6435 120.428 42.4166 120.634 42.1204C120.841 41.8242 120.945 41.4695 120.948 41.0561C120.945 40.794 120.901 40.5575 120.813 40.3466C120.726 40.1357 120.597 39.9492 120.427 39.7873C120.258 39.6254 120.049 39.4858 119.8 39.3686C119.553 39.2514 119.268 39.1577 118.944 39.0874L118.381 38.9595C118.232 38.9276 118.098 38.8903 117.978 38.8477C117.859 38.8051 117.757 38.7561 117.672 38.7007C117.589 38.6431 117.525 38.5771 117.48 38.5025C117.437 38.4279 117.418 38.3416 117.422 38.2436C117.424 38.1243 117.46 38.0188 117.528 37.9272C117.596 37.8335 117.698 37.76 117.835 37.7067C117.971 37.6534 118.141 37.6268 118.346 37.6268C118.655 37.6268 118.893 37.6928 119.059 37.8249ZM127.029 42.7308C127.399 42.9418 127.842 43.0472 128.358 43.0472C128.874 43.0472 129.316 42.9418 129.684 42.7308C130.055 42.5178 130.34 42.2216 130.538 41.8423C130.738 41.461 130.838 41.0188 130.838 40.516C130.838 40.011 130.738 39.5689 130.538 39.1896C130.34 38.8083 130.055 38.5121 129.684 38.3012C129.316 38.0881 128.874 37.9815 128.358 37.9815C127.842 37.9815 127.399 38.0881 127.029 38.3012C126.66 38.5121 126.375 38.8083 126.175 39.1896C125.977 39.5689 125.878 40.011 125.878 40.516C125.878 41.0188 125.977 41.461 126.175 41.8423C126.375 42.2216 126.66 42.5178 127.029 42.7308ZM128.844 41.6953C128.714 41.8104 128.555 41.8679 128.368 41.8679C128.174 41.8679 128.01 41.8104 127.875 41.6953C127.743 41.5803 127.642 41.4205 127.572 41.2159C127.504 41.0114 127.47 40.7749 127.47 40.5064C127.47 40.2337 127.504 39.995 127.572 39.7905C127.642 39.586 127.743 39.4262 127.875 39.3111C128.01 39.196 128.174 39.1385 128.368 39.1385C128.555 39.1385 128.714 39.196 128.844 39.3111C128.974 39.4262 129.073 39.586 129.141 39.7905C129.211 39.995 129.247 40.2337 129.247 40.5064C129.247 40.7749 129.211 41.0114 129.141 41.2159C129.073 41.4205 128.974 41.5803 128.844 41.6953ZM137.522 42.9546V36.4091H135.959V42.9546H137.522ZM144.399 38.0455H142.836V42.9546H144.399V38.0455ZM143.054 37.2561C143.211 37.4009 143.4 37.4734 143.619 37.4734C143.841 37.4734 144.03 37.4009 144.185 37.2561C144.343 37.109 144.422 36.9322 144.422 36.7255C144.422 36.521 144.343 36.3462 144.185 36.2014C144.03 36.0543 143.841 35.9808 143.619 35.9808C143.4 35.9808 143.211 36.0543 143.054 36.2014C142.896 36.3462 142.817 36.521 142.817 36.7255C142.817 36.9322 142.896 37.109 143.054 37.2561ZM150.519 42.7436C150.816 42.9311 151.145 43.0249 151.507 43.0249C151.754 43.0249 151.968 42.9844 152.149 42.9034C152.333 42.8225 152.485 42.7159 152.606 42.5838C152.728 42.4517 152.822 42.31 152.888 42.1587H152.936V42.9546H154.483V36.4091H152.92V38.886H152.888C152.826 38.7369 152.735 38.5931 152.616 38.4546C152.497 38.3161 152.345 38.2031 152.162 38.1158C151.979 38.0263 151.758 37.9815 151.501 37.9815C151.158 37.9815 150.837 38.071 150.539 38.25C150.242 38.429 150.003 38.7049 149.82 39.0778C149.636 39.4507 149.545 39.9258 149.545 40.5032C149.545 41.0593 149.633 41.5249 149.81 41.8999C149.987 42.2749 150.223 42.5561 150.519 42.7436ZM152.536 41.6474C152.402 41.7539 152.24 41.8072 152.05 41.8072C151.856 41.8072 151.692 41.7539 151.558 41.6474C151.426 41.5387 151.325 41.3864 151.255 41.1904C151.184 40.9943 151.149 40.7642 151.149 40.5C151.149 40.2358 151.183 40.0068 151.251 39.8129C151.322 39.619 151.424 39.4688 151.558 39.3622C151.692 39.2557 151.856 39.2024 152.05 39.2024C152.24 39.2024 152.402 39.2546 152.536 39.359C152.673 39.4634 152.776 39.6126 152.846 39.8065C152.919 40.0004 152.955 40.2315 152.955 40.5C152.955 40.7642 152.919 40.9943 152.846 41.1904C152.774 41.3864 152.67 41.5387 152.536 41.6474ZM160.341 42.8811C160.584 42.9855 160.862 43.0377 161.175 43.0377C161.403 43.0377 161.607 43.0089 161.788 42.9514C161.972 42.8938 162.13 42.8075 162.265 42.6925C162.401 42.5774 162.513 42.4368 162.6 42.2706H162.639V42.9546H164.109V39.6179C164.109 39.358 164.054 39.1268 163.946 38.9244C163.839 38.722 163.688 38.5515 163.492 38.413C163.296 38.2724 163.066 38.1659 162.802 38.0934C162.537 38.0188 162.249 37.9815 161.935 37.9815C161.497 37.9815 161.12 38.0497 160.807 38.1861C160.496 38.3203 160.251 38.5057 160.072 38.7422C159.895 38.9766 159.786 39.2429 159.743 39.5412L161.184 39.5923C161.218 39.4347 161.298 39.3111 161.424 39.2216C161.55 39.1321 161.716 39.0874 161.923 39.0874C162.114 39.0874 162.267 39.1321 162.38 39.2216C162.493 39.3111 162.549 39.4379 162.549 39.6019V39.6179C162.549 39.7181 162.51 39.7958 162.431 39.8512C162.354 39.9045 162.231 39.946 162.06 39.9759C161.89 40.0036 161.665 40.0302 161.386 40.0558C161.136 40.0771 160.902 40.1186 160.683 40.1804C160.463 40.2401 160.269 40.3285 160.101 40.4457C159.933 40.5629 159.8 40.7152 159.705 40.9027C159.609 41.0902 159.561 41.3203 159.561 41.5931C159.561 41.9169 159.63 42.1864 159.769 42.4016C159.909 42.6147 160.1 42.7745 160.341 42.8811ZM162.111 41.9127C161.977 41.9808 161.826 42.0149 161.657 42.0149C161.478 42.0149 161.33 41.9723 161.213 41.8871C161.098 41.8019 161.041 41.6783 161.041 41.5163C161.041 41.4098 161.067 41.3182 161.12 41.2415C161.176 41.1627 161.255 41.0987 161.357 41.0497C161.461 41.0007 161.587 40.9645 161.734 40.9411C161.782 40.934 161.831 40.9265 161.882 40.9186C161.908 40.9145 161.934 40.9103 161.961 40.9059C162.04 40.8931 162.117 40.8782 162.191 40.8612C162.266 40.8441 162.334 40.826 162.396 40.8068C162.46 40.7877 162.514 40.7663 162.559 40.7429V41.2095C162.559 41.3693 162.518 41.51 162.437 41.6314C162.356 41.7507 162.248 41.8445 162.111 41.9127ZM170.902 38.0455H169.384V42.9546H170.947V40.2891C170.947 40.0931 170.989 39.9226 171.072 39.7777C171.157 39.6307 171.273 39.5167 171.42 39.4357C171.569 39.3526 171.737 39.3111 171.922 39.3111C172.016 39.3111 172.122 39.3186 172.242 39.3335C172.363 39.3484 172.461 39.3686 172.536 39.3942V38.0359C172.47 38.0167 172.398 38.0029 172.321 37.9943C172.245 37.9837 172.17 37.9784 172.098 37.9784C171.829 37.9784 171.594 38.0583 171.391 38.2181C171.189 38.3757 171.043 38.6165 170.954 38.9404H170.902V38.0455ZM179.055 38.0455H177.492V42.9546H179.055V38.0455ZM177.71 37.2561C177.867 37.4009 178.056 37.4734 178.275 37.4734C178.497 37.4734 178.686 37.4009 178.841 37.2561C178.999 37.109 179.078 36.9322 179.078 36.7255C179.078 36.521 178.999 36.3462 178.841 36.2014C178.686 36.0543 178.497 35.9808 178.275 35.9808C178.056 35.9808 177.867 36.0543 177.71 36.2014C177.552 36.3462 177.473 36.521 177.473 36.7255C177.473 36.9322 177.552 37.109 177.71 37.2561ZM187.141 39.196V38.0455H186.256V36.8693H184.693V38.0455H184.044V39.196H184.693V41.5835C184.689 41.9159 184.755 42.1918 184.891 42.4112C185.029 42.6307 185.229 42.7926 185.489 42.897C185.751 42.9993 186.065 43.0419 186.431 43.0249C186.619 43.0163 186.78 42.9961 186.914 42.9641C187.05 42.9322 187.156 42.9056 187.23 42.8842L186.994 41.7561C186.96 41.7646 186.909 41.7752 186.841 41.788C186.775 41.7987 186.712 41.804 186.652 41.804C186.569 41.804 186.498 41.7923 186.438 41.7688C186.378 41.7433 186.332 41.7017 186.3 41.6442C186.271 41.5845 186.256 41.5068 186.256 41.4109V39.196H187.141ZM192.683 44.7507C192.85 44.7806 193.026 44.7955 193.214 44.7955C193.589 44.7955 193.904 44.7369 194.16 44.6197C194.418 44.5025 194.628 44.3406 194.79 44.1339C194.954 43.9293 195.08 43.6928 195.17 43.4244L197.02 38.0455H195.375L194.457 41.5483H194.406L193.502 38.0455H191.865L193.61 43.1335L193.55 43.2806C193.501 43.402 193.43 43.4862 193.339 43.533C193.249 43.582 193.142 43.6023 193.016 43.5938C192.892 43.5852 192.754 43.5554 192.6 43.5043L192.255 44.6389C192.375 44.6857 192.517 44.723 192.683 44.7507Z" fill="#2CB1BC"/>
</g>
<defs>
<filter id="filter0_d_0_1" x="0.2" y="3.05176e-05" width="199.837" height="48.3954" filterUnits="userSpaceOnUse" color-interpolation-filters="sRGB">
<feFlood flood-opacity="0" result="BackgroundImageFix"/>
<feColorMatrix in="SourceAlpha" type="matrix" values="0 0 0 0 0 0 0 0 0 0 0 0 0 0 0 0 0 0 127 0" result="hardAlpha"/>
<feOffset dy="1.8"/>
<feGaussianBlur stdDeviation="0.9"/>
<feComposite in2="hardAlpha" operator="out"/>
<feColorMatrix type="matrix" values="0 0 0 0 0 0 0 0 0 0 0 0 0 0 0 0 0 0 0.25 0"/>
<feBlend mode="normal" in2="BackgroundImageFix" result="effect1_dropShadow_0_1"/>
<feBlend mode="normal" in="SourceGraphic" in2="effect1_dropShadow_0_1" result="shape"/>
</filter>
</defs>
</svg>
