<svg width="181" height="58" viewBox="0 0 181 58" fill="none" xmlns="http://www.w3.org/2000/svg">
<path fill-rule="evenodd" clip-rule="evenodd" d="M25 50.0001C38.8071 50.0001 50 38.8072 50 25.0001C50 11.1929 38.8071 6.10352e-05 25 6.10352e-05C11.1929 6.10352e-05 0 11.1929 0 25.0001C0 38.8072 11.1929 50.0001 25 50.0001ZM26.9056 21.0004H23.9988C22.7656 21.0004 21.8767 20.6881 21.3322 20.0634C20.7877 19.4228 20.5154 18.582 20.5154 17.541C20.5154 15.2347 22.2371 14.0816 25.6805 14.0816C28.9156 14.0816 31.35 14.5621 32.9836 15.523L31.5902 16.58C30.4691 16.0675 28.4992 15.8113 25.6805 15.8113C24.3031 15.8113 23.3742 15.9634 22.8937 16.2677C22.4293 16.572 22.1971 16.9964 22.1971 17.541C22.1971 18.0855 22.3252 18.5099 22.5814 18.8142C22.8377 19.1185 23.3101 19.2707 23.9988 19.2707H26.9777C29.1398 19.2707 31.0857 19.639 32.8154 20.3757C34.5611 21.1125 35.9945 22.1214 37.1156 23.4027C38.2367 24.6679 39.0935 26.1334 39.6861 27.799C40.2787 29.4486 40.575 31.2183 40.575 33.1082C40.575 34.6457 40.3588 36.1031 39.9264 37.4804C39.4939 38.8578 38.8373 40.123 37.9564 41.2761C37.0916 42.4293 36.0426 43.4302 34.8094 44.2791C33.5922 45.1119 32.1348 45.7605 30.4371 46.225C28.7555 46.7054 26.9297 46.9457 24.9598 46.9457C21.8687 46.9457 18.9699 46.4732 16.2633 45.5283C13.5726 44.5994 11.3305 43.2941 9.53671 41.6125L10.9301 40.5795C12.5637 42.0529 14.6057 43.198 17.056 44.0148C19.5224 44.8156 22.157 45.216 24.9598 45.216C27.1539 45.216 29.1318 44.9037 30.8935 44.2791C32.6713 43.6384 34.1287 42.7656 35.2658 41.6605C36.4189 40.5554 37.2998 39.2742 37.9084 37.8168C38.533 36.3593 38.8453 34.7898 38.8453 33.1082C38.8453 30.882 38.3969 28.872 37.5 27.0783C36.6031 25.2685 35.2338 23.8031 33.392 22.682C31.5662 21.5609 29.4041 21.0004 26.9056 21.0004ZM23.9988 22.73H26.7375C29.9887 22.73 32.5271 23.723 34.3529 25.7089C36.1947 27.6949 37.1156 30.1613 37.1156 33.1082C37.1156 36.1031 36.0506 38.5855 33.9205 40.5554C31.7904 42.5093 28.8035 43.4863 24.9598 43.4863C22.3973 43.4863 20.0029 43.1339 17.7767 42.4293C15.5506 41.7246 13.7008 40.7316 12.2273 39.4504L13.5726 38.3693C14.8859 39.4423 16.5355 40.2752 18.5215 40.8677C20.5234 41.4603 22.6695 41.7566 24.9598 41.7566C28.339 41.7566 30.9176 40.9478 32.6953 39.3302C34.489 37.7127 35.3859 35.6386 35.3859 33.1082C35.3859 30.6097 34.6332 28.5437 33.1277 26.9101C31.6383 25.2765 29.5002 24.4597 26.7135 24.4597H23.9988C21.6605 24.4597 19.9068 23.8191 18.7377 22.5379C17.5685 21.2566 16.984 19.591 16.984 17.541C16.984 15.491 17.7047 13.8254 19.1461 12.5441C20.6035 11.2629 22.7816 10.6222 25.6805 10.6222C27.7144 10.6222 29.6043 10.8625 31.35 11.3429C33.0957 11.8074 34.5371 12.48 35.6742 13.3609L34.3049 14.4179C32.3029 13.0406 29.4281 12.3519 25.6805 12.3519C23.2621 12.3519 21.4924 12.8324 20.3713 13.7933C19.2662 14.7382 18.7137 15.9875 18.7137 17.541C18.7137 19.1105 19.1221 20.3677 19.9389 21.3127C20.7717 22.2576 22.125 22.73 23.9988 22.73ZM23.9988 26.1894H26.6414C28.9797 26.1894 30.7334 26.8381 31.9025 28.1353C33.0717 29.4326 33.6562 31.0902 33.6562 33.1082C33.6562 35.1582 32.9275 36.8238 31.4701 38.105C30.0287 39.3863 27.8586 40.0269 24.9598 40.0269C22.9258 40.0269 21.0279 39.7947 19.2662 39.3302C17.5205 38.8498 16.0791 38.1691 14.942 37.2882L16.3113 36.2312C18.3133 37.6086 21.1961 38.2972 24.9598 38.2972C27.3781 38.2972 29.1398 37.8248 30.2449 36.8798C31.366 35.9189 31.9265 34.6617 31.9265 33.1082C31.9265 31.5547 31.5101 30.3054 30.6773 29.3605C29.8445 28.3996 28.4912 27.9191 26.6174 27.9191H23.9988C20.7156 27.9191 18.1451 26.9422 16.2873 24.9882C14.4455 23.0183 13.5246 20.5359 13.5246 17.541C13.5246 14.5461 14.5896 12.0716 16.7197 10.1177C18.8498 8.14782 21.8367 7.16286 25.6805 7.16286C28.243 7.16286 30.6293 7.5152 32.8394 8.21989C35.0656 8.92457 36.9154 9.91754 38.3889 11.1988L37.0435 12.2798C35.7303 11.2068 34.0807 10.374 32.0947 9.78141C30.1088 9.18883 27.9707 8.89254 25.6805 8.89254C22.3012 8.89254 19.7146 9.70133 17.9209 11.3189C16.1432 12.9365 15.2543 15.0105 15.2543 17.541C15.2543 20.0554 16.007 22.1295 17.5125 23.7631C19.018 25.3806 21.1801 26.1894 23.9988 26.1894ZM23.9988 29.6488H26.6414C27.8746 29.6488 28.7635 29.9691 29.308 30.6097C29.8525 31.2504 30.1248 32.0832 30.1248 33.1082C30.1248 35.4144 28.4031 36.5675 24.9598 36.5675C21.7086 36.5675 19.2662 36.0871 17.6326 35.1261L19.026 34.0691C20.1471 34.5816 22.125 34.8379 24.9598 34.8379C26.3371 34.8379 27.258 34.6857 27.7224 34.3814C28.2029 34.0771 28.4431 33.6527 28.4431 33.1082C28.4431 32.5797 28.307 32.1632 28.0348 31.8589C27.7785 31.5386 27.298 31.3785 26.5933 31.3785H23.9988C21.7887 31.3785 19.7867 31.0181 17.993 30.2974C16.2152 29.5767 14.7498 28.5838 13.5967 27.3185C12.4596 26.0533 11.5867 24.5879 10.9781 22.9222C10.3695 21.2566 10.0652 19.4629 10.0652 17.541C10.0652 16.0035 10.2814 14.5461 10.7139 13.1687C11.1463 11.7914 11.7949 10.5261 12.6598 9.37301C13.5406 8.21989 14.5896 7.22692 15.8068 6.3941C17.04 5.54528 18.4974 4.88864 20.1791 4.42418C21.8767 3.94371 23.7105 3.70348 25.6805 3.70348C28.7715 3.70348 31.6623 4.17594 34.3529 5.12086C37.0435 6.04977 39.2857 7.35504 41.0795 9.03668L39.6861 10.0697C38.0525 8.59625 36.0105 7.45914 33.5601 6.65836C31.1098 5.84157 28.4832 5.43317 25.6805 5.43317C23.4863 5.43317 21.5004 5.75348 19.7226 6.3941C17.9609 7.01871 16.5035 7.88356 15.3504 8.98864C14.2133 10.0937 13.3324 11.375 12.7078 12.8324C12.0992 14.2898 11.7949 15.8593 11.7949 17.541C11.7949 19.7992 12.2514 21.8332 13.1642 23.6429C14.0771 25.4527 15.4705 26.9101 17.3443 28.0152C19.2182 29.1043 21.4363 29.6488 23.9988 29.6488ZM73.4035 33.5406L74.1002 31.8109H80.0099L80.7066 33.5406H73.4035ZM72.0582 37L72.7308 35.2703H81.3553L82.1 37H72.0582ZM70.7129 40.4593L71.3855 38.7297H82.7246L83.4453 40.4593H70.7129ZM56.6592 45.216H54.7853L70.5207 5.43317H72.3945L88.1058 45.216H86.256L71.4576 7.76344L56.6592 45.216ZM71.6738 11.8714L72.6588 14.0816L60.3588 45.216H58.509L71.6738 11.8714ZM73.5957 16.4359L74.5086 18.8142L64.1064 45.216H62.2326L73.5957 16.4359ZM75.4215 21.1925L76.3344 23.6189L67.806 45.216H65.9562L75.4215 21.1925ZM99.2767 45.216H97.4029L81.6916 5.43317H83.5414L99.2767 45.216ZM79.8178 5.43317L95.5531 45.216H93.7033L77.968 5.43317H79.8178ZM76.0941 5.43317L91.8295 45.216H89.9557L74.2443 5.43317H76.0941ZM143.348 24.4357H145.078V45.216H143.348V24.4357ZM150.267 24.4357H151.997V45.216H150.267V24.4357ZM146.808 24.4357H148.537V45.216H146.808V24.4357ZM141.619 24.4357V45.216C138.576 46.3691 135.42 46.9457 132.153 46.9457C129.319 46.9457 126.604 46.4252 124.009 45.3841C121.415 44.3431 119.133 42.9017 117.163 41.0599C115.193 39.2021 113.615 36.9119 112.43 34.1892C111.261 31.4506 110.676 28.4957 110.676 25.3246C110.676 22.3937 111.245 19.599 112.382 16.9404C113.535 14.2658 115.073 11.9675 116.994 10.0457C118.932 8.10778 121.231 6.57028 123.889 5.43317C126.564 4.28004 129.367 3.70348 132.297 3.70348C135.949 3.70348 139.344 4.55231 142.483 6.24996C145.622 7.94762 148.185 10.2539 150.171 13.1687L148.729 14.1056C146.904 11.431 144.541 9.31696 141.643 7.76344C138.76 6.20993 135.645 5.43317 132.297 5.43317C129.607 5.43317 127.028 5.96168 124.562 7.01871C122.111 8.05973 119.997 9.4691 118.22 11.2468C116.442 13.0246 115.025 15.1466 113.968 17.6131C112.927 20.0634 112.406 22.6339 112.406 25.3246C112.406 28.2234 112.943 30.93 114.016 33.4445C115.105 35.959 116.546 38.065 118.34 39.7627C120.15 41.4603 122.248 42.7976 124.634 43.7746C127.02 44.7355 129.503 45.216 132.081 45.216C134.788 45.216 137.39 44.7916 139.889 43.9427V42.2851C137.503 43.0859 134.996 43.4863 132.369 43.4863C130.464 43.4863 128.606 43.222 126.796 42.6935C125.002 42.149 123.337 41.3562 121.799 40.3152C120.278 39.2582 118.94 38.0089 117.787 36.5675C116.65 35.1101 115.753 33.4205 115.097 31.4986C114.456 29.5607 114.136 27.5027 114.136 25.3246C114.136 22.0414 114.945 19.0064 116.562 16.2197C118.196 13.433 120.406 11.2308 123.193 9.61325C125.979 7.97965 129.014 7.16286 132.297 7.16286C135.372 7.16286 138.231 7.88356 140.874 9.32496C143.516 10.7504 145.67 12.6882 147.336 15.1386L145.895 16.0756C144.389 13.8654 142.435 12.1197 140.033 10.8384C137.647 9.54118 135.068 8.89254 132.297 8.89254C130.071 8.89254 127.941 9.32496 125.907 10.1898C123.873 11.0547 122.119 12.2238 120.646 13.6972C119.189 15.1547 118.028 16.9004 117.163 18.9343C116.298 20.9683 115.865 23.0984 115.865 25.3246C115.865 27.3265 116.154 29.2084 116.73 30.9701C117.323 32.7158 118.132 34.2453 119.157 35.5586C120.198 36.8558 121.407 37.9769 122.784 38.9218C124.161 39.8507 125.659 40.5554 127.277 41.0359C128.91 41.5164 130.584 41.7566 132.297 41.7566C134.956 41.7566 137.486 41.3082 139.889 40.4113V38.6816C137.519 39.5945 135.044 40.0509 132.466 40.0509C130.512 40.0509 128.646 39.7226 126.868 39.066C125.09 38.3933 123.505 37.4484 122.111 36.2312C120.734 35.014 119.637 33.4605 118.82 31.5707C118.003 29.6808 117.595 27.5988 117.595 25.3246C117.595 22.666 118.252 20.2076 119.565 17.9494C120.878 15.6912 122.664 13.9054 124.922 12.5922C127.18 11.2789 129.639 10.6222 132.297 10.6222C134.78 10.6222 137.086 11.1988 139.216 12.3519C141.362 13.505 143.108 15.0746 144.453 17.0605L143.012 17.9974C141.827 16.2677 140.289 14.8984 138.399 13.8894C136.526 12.8644 134.492 12.3519 132.297 12.3519C129.943 12.3519 127.773 12.9365 125.787 14.1056C123.801 15.2588 122.224 16.8283 121.054 18.8142C119.901 20.8002 119.325 22.9703 119.325 25.3246C119.325 26.9582 119.557 28.4797 120.021 29.889C120.486 31.2984 121.127 32.5156 121.943 33.5406C122.76 34.5656 123.713 35.4384 124.802 36.1591C125.907 36.8798 127.092 37.4244 128.358 37.7927C129.623 38.1451 130.936 38.3213 132.297 38.3213C135.004 38.3213 137.535 37.7847 139.889 36.7117V35.0541C137.615 36.063 135.156 36.5675 132.514 36.5675C130.992 36.5675 129.559 36.3353 128.213 35.8709C126.868 35.4064 125.651 34.7257 124.562 33.8289C123.489 32.932 122.632 31.7548 121.991 30.2974C121.367 28.824 121.054 27.1664 121.054 25.3246C121.054 23.8031 121.351 22.3537 121.943 20.9763C122.536 19.583 123.337 18.3818 124.346 17.3728C125.355 16.3638 126.548 15.5631 127.925 14.9705C129.319 14.3779 130.776 14.0816 132.297 14.0816C134.203 14.0816 135.973 14.53 137.607 15.4269C139.24 16.3078 140.57 17.5089 141.594 19.0304L140.177 19.9673C139.312 18.6861 138.183 17.6771 136.79 16.9404C135.412 16.1877 133.915 15.8113 132.297 15.8113C129.671 15.8113 127.429 16.7402 125.571 18.598C123.713 20.4558 122.784 22.698 122.784 25.3246C122.784 26.9422 123.048 28.3756 123.577 29.6248C124.105 30.858 124.826 31.8509 125.739 32.6037C126.668 33.3404 127.693 33.9009 128.814 34.2853C129.951 34.6537 131.168 34.8379 132.466 34.8379C135.124 34.8379 137.599 34.2853 139.889 33.1802V24.4357H141.619ZM178.435 5.43317H180.165V45.216H178.435V5.43317ZM174.976 5.43317H176.705V45.216H174.976V5.43317ZM171.516 5.43317H173.246V45.216H171.516V5.43317ZM168.057 5.43317H169.786V45.216H168.057V5.43317ZM11.528 55.592C11.5173 55.7467 11.4347 55.8533 11.28 55.912C11.1307 55.9707 10.8587 56 10.464 56C10.0693 56 9.73866 55.9653 9.472 55.896C9.21066 55.8213 9.08 55.728 9.08 55.616C9.08 55.488 9.31733 54.672 9.792 53.168C10.2667 51.6587 10.5387 50.7893 10.608 50.56C10.6347 50.4907 10.848 50.4347 11.248 50.392C11.6533 50.344 12.0853 50.32 12.544 50.32C13.008 50.32 13.264 50.4 13.312 50.56C14.32 53.9093 14.824 55.6107 14.824 55.664C14.824 55.7173 14.792 55.7707 14.728 55.824C14.5787 55.9413 14.2827 56 13.84 56C12.896 56 12.4133 55.888 12.392 55.664L12.336 55.144H11.568L11.528 55.592ZM12.168 53.624L12.048 52.184H11.872L11.736 53.624H12.168ZM22.097 55.864C21.969 55.8053 21.8303 55.7173 21.681 55.6C21.537 55.4827 21.417 55.344 21.321 55.184C21.097 54.8 20.985 54.2987 20.985 53.68C20.985 53.296 21.0463 52.9547 21.169 52.656C21.2917 52.352 21.441 52.1173 21.617 51.952C21.793 51.7867 21.9957 51.6507 22.225 51.544C22.593 51.3733 22.961 51.288 23.329 51.288C23.9477 51.288 24.377 51.336 24.617 51.432C24.8623 51.528 24.985 51.6907 24.985 51.92C24.985 52.1493 24.9423 52.3947 24.857 52.656C24.777 52.912 24.6703 53.04 24.537 53.04C24.4943 53.04 24.3637 52.9947 24.145 52.904C23.9317 52.8133 23.745 52.768 23.585 52.768C23.4303 52.768 23.3103 52.832 23.225 52.96C23.145 53.0827 23.105 53.3253 23.105 53.688C23.105 54.0453 23.1423 54.2907 23.217 54.424C23.2917 54.552 23.4063 54.616 23.561 54.616C23.721 54.616 23.9183 54.5627 24.153 54.456C24.3877 54.3493 24.5183 54.296 24.545 54.296C24.6463 54.296 24.7423 54.416 24.833 54.656C24.929 54.896 24.977 55.1093 24.977 55.296C24.977 55.584 24.8277 55.7867 24.529 55.904C24.2303 56.016 23.825 56.072 23.313 56.072C22.8063 56.072 22.401 56.0027 22.097 55.864ZM34.7674 55.928C34.6714 56.0187 34.4528 56.064 34.1114 56.064C33.7701 56.064 33.4874 56.0427 33.2634 56C33.0394 55.952 32.8261 55.8613 32.6234 55.728C32.2341 55.4667 32.0394 54.9227 32.0394 54.096V52.848H31.6394C31.5808 52.848 31.5301 52.7867 31.4874 52.664C31.4448 52.5413 31.4234 52.3733 31.4234 52.16C31.4234 51.9467 31.4554 51.76 31.5194 51.6C31.5888 51.4347 31.6768 51.352 31.7834 51.352H32.0394V50.384C32.0394 50.2187 32.1994 50.0853 32.5194 49.984C32.8448 49.8827 33.1621 49.832 33.4714 49.832C33.9568 49.832 34.1994 49.952 34.1994 50.192V51.352H34.7914C34.9301 51.352 34.9994 51.552 34.9994 51.952C34.9994 52.2133 34.9674 52.4293 34.9034 52.6C34.8448 52.7653 34.7674 52.848 34.6714 52.848H34.1994V54.312C34.1994 54.456 34.2608 54.56 34.3834 54.624C34.5061 54.6827 34.6128 54.712 34.7034 54.712C34.7994 54.712 34.8581 54.7573 34.8794 54.848C34.9008 54.9387 34.9114 55.0747 34.9114 55.256C34.9114 55.6133 34.8634 55.8373 34.7674 55.928ZM43.8428 51.864V55.808C43.8428 55.8667 43.6881 55.9147 43.3788 55.952C43.0748 55.984 42.7601 56 42.4348 56C42.1148 56 41.9068 55.9867 41.8108 55.96C41.7201 55.928 41.6748 55.8773 41.6748 55.808V52.008C41.6748 51.8907 41.8241 51.776 42.1228 51.664C42.4268 51.5467 42.7575 51.488 43.1148 51.488C43.6001 51.488 43.8428 51.6133 43.8428 51.864ZM42.7548 49.76C43.1068 49.76 43.3815 49.8133 43.5788 49.92C43.7815 50.0213 43.8828 50.208 43.8828 50.48C43.8828 50.96 43.5095 51.2 42.7628 51.2C42.0161 51.2 41.6428 50.96 41.6428 50.48C41.6428 50 42.0135 49.76 42.7548 49.76ZM50.3597 51.928C50.3597 51.8747 50.437 51.8053 50.5917 51.72C50.7463 51.6293 50.957 51.5467 51.2237 51.472C51.4903 51.3973 51.7517 51.36 52.0077 51.36C52.525 51.36 52.7917 51.4853 52.8077 51.736L53.0077 54.28H53.1117L53.2877 51.864C53.2984 51.7307 53.4823 51.6133 53.8397 51.512C54.197 51.4107 54.5117 51.36 54.7837 51.36C55.0557 51.36 55.2584 51.384 55.3917 51.432C55.5303 51.48 55.6184 51.5307 55.6557 51.584C55.693 51.632 55.7117 51.6747 55.7117 51.712C55.7117 51.7493 55.597 52.024 55.3677 52.536C55.1437 53.048 54.693 54.1387 54.0157 55.808C53.9623 55.936 53.5277 56 52.7117 56C52.4557 56 52.2877 55.9867 52.2077 55.96C52.1277 55.928 52.0743 55.8773 52.0477 55.808C51.6797 54.88 51.3064 54.008 50.9277 53.192C50.549 52.3707 50.3597 51.9493 50.3597 51.928ZM64.2934 54.192C64.2934 54.5387 64.4587 54.712 64.7894 54.712C64.9814 54.712 65.232 54.648 65.5414 54.52C65.8507 54.3867 66.0134 54.32 66.0294 54.32C66.1307 54.32 66.264 54.472 66.4294 54.776C66.5947 55.08 66.6774 55.304 66.6774 55.448C66.6774 55.656 66.464 55.8133 66.0374 55.92C65.6107 56.0267 65.192 56.08 64.7814 56.08C64.376 56.08 64.0347 56.048 63.7574 55.984C63.4854 55.92 63.2614 55.84 63.0854 55.744C62.9147 55.6427 62.7627 55.52 62.6294 55.376C62.5014 55.232 62.4054 55.096 62.3414 54.968C62.2774 54.8347 62.2267 54.688 62.1894 54.528C62.136 54.2933 62.1094 54.0507 62.1094 53.8C62.1094 52.8293 62.3627 52.16 62.8694 51.792C63.12 51.6053 63.4 51.4747 63.7094 51.4C64.0187 51.3253 64.384 51.288 64.8054 51.288C66.1547 51.288 66.8294 51.7573 66.8294 52.696C66.8294 53.6933 66.072 54.192 64.5574 54.192H64.2934ZM64.2774 53.024V53.552C64.432 53.552 64.5574 53.4907 64.6534 53.368C64.7547 53.2453 64.8054 53.096 64.8054 52.92C64.8054 52.6 64.7227 52.44 64.5574 52.44C64.3707 52.44 64.2774 52.6347 64.2774 53.024ZM85.5354 55.664C85.3754 55.7813 85.1514 55.88 84.8634 55.96C84.5808 56.0347 84.2128 56.072 83.7594 56.072C83.3114 56.072 82.8848 56.0347 82.4794 55.96C82.0741 55.8853 81.7834 55.8027 81.6074 55.712C81.4314 55.6213 81.3434 55.5333 81.3434 55.448C81.3434 55.1493 81.3861 54.84 81.4714 54.52C81.5568 54.1947 81.6581 54.032 81.7754 54.032C81.7968 54.032 82.0181 54.104 82.4394 54.248C82.8608 54.392 83.1781 54.464 83.3914 54.464C83.6048 54.464 83.7434 54.4427 83.8074 54.4C83.8714 54.352 83.9034 54.2853 83.9034 54.2C83.9034 54.1147 83.8448 54.04 83.7274 53.976C83.6101 53.9067 83.4634 53.848 83.2874 53.8C83.1114 53.7467 82.9194 53.672 82.7114 53.576C82.5088 53.48 82.3194 53.3733 82.1434 53.256C81.9674 53.1387 81.8208 52.9733 81.7034 52.76C81.5861 52.5413 81.5274 52.2933 81.5274 52.016C81.5274 50.832 82.2341 50.24 83.6474 50.24C84.1754 50.24 84.6314 50.2747 85.0154 50.344C85.3994 50.408 85.6688 50.4827 85.8234 50.568C85.9834 50.648 86.0634 50.728 86.0634 50.808C86.0634 51.0853 85.9968 51.384 85.8634 51.704C85.7354 52.024 85.6101 52.184 85.4874 52.184C85.4661 52.184 85.3968 52.16 85.2794 52.112C84.9274 51.9573 84.6341 51.88 84.3994 51.88C84.1701 51.88 84.0128 51.9013 83.9274 51.944C83.8474 51.9867 83.8074 52.0533 83.8074 52.144C83.8074 52.2293 83.8661 52.3013 83.9834 52.36C84.1008 52.4133 84.2448 52.464 84.4154 52.512C84.5914 52.5547 84.7808 52.624 84.9834 52.72C85.1914 52.8107 85.3834 52.92 85.5594 53.048C85.7354 53.1707 85.8821 53.3467 85.9994 53.576C86.1168 53.8053 86.1754 54.072 86.1754 54.376C86.1754 54.696 86.0928 54.9867 85.9274 55.248C85.8261 55.408 85.6954 55.5467 85.5354 55.664ZM95.2818 56.072C94.8818 56.072 94.5378 56.0373 94.2498 55.968C93.9618 55.8987 93.7005 55.776 93.4658 55.6C92.9805 55.248 92.7378 54.592 92.7378 53.632C92.7378 52.7787 92.9858 52.168 93.4818 51.8C93.9458 51.4587 94.5458 51.288 95.2818 51.288C95.5965 51.288 95.8658 51.304 96.0898 51.336C96.3138 51.3627 96.5405 51.424 96.7698 51.52C97.0045 51.616 97.1911 51.7467 97.3298 51.912C97.4738 52.0773 97.5911 52.3067 97.6818 52.6C97.7725 52.888 97.8178 53.232 97.8178 53.632C97.8178 54.4427 97.5885 55.0533 97.1298 55.464C96.6711 55.8693 96.0551 56.072 95.2818 56.072ZM95.0018 54.512C95.0391 54.704 95.0765 54.8187 95.1138 54.856C95.1565 54.8933 95.2098 54.912 95.2738 54.912C95.3431 54.912 95.3965 54.8933 95.4338 54.856C95.4765 54.8187 95.5138 54.704 95.5458 54.512C95.5831 54.32 95.6018 54.08 95.6018 53.792C95.6018 53.4987 95.5938 53.2747 95.5778 53.12C95.5671 52.96 95.5511 52.8373 95.5298 52.752C95.5138 52.6667 95.4898 52.6 95.4578 52.552C95.4098 52.4827 95.3511 52.448 95.2818 52.448C95.2178 52.448 95.1645 52.4693 95.1218 52.512C95.0791 52.5493 95.0391 52.6667 95.0018 52.864C94.9645 53.056 94.9458 53.3307 94.9458 53.688C94.9458 54.0453 94.9645 54.32 95.0018 54.512ZM106.614 50.128V55.808C106.614 55.8667 106.462 55.9147 106.158 55.952C105.854 55.984 105.54 56 105.214 56C104.894 56 104.686 55.9867 104.59 55.96C104.5 55.928 104.454 55.8773 104.454 55.808V50.272C104.454 50.1547 104.604 50.04 104.902 49.928C105.206 49.816 105.532 49.76 105.878 49.76C106.369 49.76 106.614 49.8827 106.614 50.128ZM115.533 51.864V55.808C115.533 55.8667 115.378 55.9147 115.069 55.952C114.765 55.984 114.45 56 114.125 56C113.805 56 113.597 55.9867 113.501 55.96C113.41 55.928 113.365 55.8773 113.365 55.808V52.008C113.365 51.8907 113.514 51.776 113.813 51.664C114.117 51.5467 114.448 51.488 114.805 51.488C115.29 51.488 115.533 51.6133 115.533 51.864ZM114.445 49.76C114.797 49.76 115.072 49.8133 115.269 49.92C115.472 50.0213 115.573 50.208 115.573 50.48C115.573 50.96 115.2 51.2 114.453 51.2C113.706 51.2 113.333 50.96 113.333 50.48C113.333 50 113.704 49.76 114.445 49.76ZM123.794 56.072C123.597 56.072 123.413 56.0427 123.242 55.984C123.071 55.9253 122.93 55.8533 122.818 55.768C122.711 55.6827 122.618 55.568 122.538 55.424C122.458 55.28 122.397 55.144 122.354 55.016C122.311 54.8827 122.279 54.72 122.258 54.528C122.226 54.2453 122.21 53.9227 122.21 53.56C122.21 52.8187 122.346 52.256 122.618 51.872C122.89 51.4827 123.263 51.288 123.738 51.288C124.223 51.288 124.575 51.4027 124.794 51.632C124.842 51.6853 124.879 51.7493 124.906 51.824H124.97L124.874 51.272V50.272C124.874 50.1547 125.023 50.04 125.322 49.928C125.621 49.816 125.943 49.76 126.29 49.76C126.653 49.76 126.885 49.8293 126.986 49.968C127.023 50.0213 127.042 50.0747 127.042 50.128V55.808C127.042 55.8667 126.893 55.9147 126.594 55.952C126.301 55.984 126.015 56 125.738 56C125.466 56 125.29 55.992 125.21 55.976C125.135 55.9547 125.087 55.9333 125.066 55.912C125.05 55.8907 125.039 55.856 125.034 55.808L124.97 55.352H124.906C124.858 55.5387 124.762 55.696 124.618 55.824C124.437 55.9893 124.162 56.072 123.794 56.072ZM124.69 54.904C124.775 54.904 124.839 54.8507 124.882 54.744V52.608C124.882 52.5547 124.853 52.5147 124.794 52.488C124.741 52.456 124.693 52.44 124.65 52.44C124.469 52.44 124.378 52.856 124.378 53.688C124.378 54.1307 124.402 54.4453 124.45 54.632C124.503 54.8133 124.583 54.904 124.69 54.904ZM135.283 56.072C134.797 56.072 134.416 55.9573 134.138 55.728C134.026 55.632 133.928 55.4907 133.842 55.304C133.762 55.1173 133.722 54.8987 133.722 54.648C133.722 54.3973 133.781 54.1787 133.898 53.992C134.021 53.8053 134.168 53.6613 134.339 53.56C134.509 53.4587 134.709 53.376 134.938 53.312C135.285 53.2213 135.666 53.176 136.083 53.176H136.346C136.346 52.9573 136.272 52.8027 136.122 52.712C136.058 52.6747 135.96 52.656 135.826 52.656C135.699 52.656 135.541 52.6907 135.354 52.76C135.173 52.8293 135.021 52.9013 134.898 52.976C134.776 53.0453 134.693 53.08 134.65 53.08C134.554 53.08 134.424 52.9547 134.258 52.704C134.093 52.448 134.01 52.216 134.01 52.008C134.01 51.9387 134.109 51.848 134.306 51.736C134.504 51.624 134.781 51.5227 135.138 51.432C135.501 51.336 135.853 51.288 136.195 51.288C136.536 51.288 136.829 51.3173 137.074 51.376C137.325 51.4293 137.528 51.496 137.682 51.576C137.842 51.656 137.976 51.7627 138.083 51.896C138.195 52.0293 138.277 52.1493 138.331 52.256C138.389 52.3627 138.432 52.5013 138.458 52.672C138.496 52.8693 138.514 53.112 138.514 53.4V55.808C138.514 55.8667 138.37 55.9147 138.083 55.952C137.8 55.984 137.517 56 137.234 56C136.957 56 136.776 55.992 136.691 55.976C136.611 55.96 136.562 55.9413 136.546 55.92C136.531 55.8987 136.517 55.8613 136.507 55.808L136.443 55.352H136.378C136.245 55.832 135.88 56.072 135.283 56.072ZM136.354 54.744V53.808C136.216 53.808 136.104 53.8667 136.018 53.984C135.933 54.1013 135.89 54.2347 135.89 54.384C135.89 54.736 135.97 54.912 136.13 54.912C136.2 54.912 136.253 54.896 136.29 54.864C136.333 54.8267 136.354 54.7867 136.354 54.744ZM147.395 53.472V55.808C147.395 55.8667 147.243 55.9147 146.939 55.952C146.64 55.984 146.328 56 146.003 56C145.683 56 145.475 55.9867 145.379 55.96C145.283 55.928 145.235 55.8773 145.235 55.808V51.864C145.235 51.7627 145.382 51.6533 145.675 51.536C145.974 51.4187 146.296 51.36 146.643 51.36C146.995 51.36 147.192 51.456 147.235 51.648L147.315 52.016H147.371C147.446 51.8133 147.624 51.6427 147.907 51.504C148.19 51.36 148.472 51.288 148.755 51.288C149.038 51.288 149.235 51.3333 149.347 51.424C149.464 51.5147 149.523 51.632 149.523 51.776C149.523 51.9147 149.512 52.0933 149.491 52.312C149.47 52.5307 149.416 52.768 149.331 53.024C149.251 53.28 149.144 53.408 149.011 53.408C148.958 53.408 148.79 53.368 148.507 53.288C148.224 53.208 147.99 53.168 147.803 53.168C147.622 53.168 147.507 53.1947 147.459 53.248C147.416 53.3013 147.395 53.376 147.395 53.472ZM158.282 51.864V55.808C158.282 55.8667 158.128 55.9147 157.818 55.952C157.514 55.984 157.2 56 156.874 56C156.554 56 156.346 55.9867 156.25 55.96C156.16 55.928 156.114 55.8773 156.114 55.808V52.008C156.114 51.8907 156.264 51.776 156.562 51.664C156.866 51.5467 157.197 51.488 157.554 51.488C158.04 51.488 158.282 51.6133 158.282 51.864ZM157.194 49.76C157.546 49.76 157.821 49.8133 158.018 49.92C158.221 50.0213 158.322 50.208 158.322 50.48C158.322 50.96 157.949 51.2 157.202 51.2C156.456 51.2 156.082 50.96 156.082 50.48C156.082 50 156.453 49.76 157.194 49.76ZM168.183 55.928C168.087 56.0187 167.869 56.064 167.527 56.064C167.186 56.064 166.903 56.0427 166.679 56C166.455 55.952 166.242 55.8613 166.039 55.728C165.65 55.4667 165.455 54.9227 165.455 54.096V52.848H165.055C164.997 52.848 164.946 52.7867 164.903 52.664C164.861 52.5413 164.839 52.3733 164.839 52.16C164.839 51.9467 164.871 51.76 164.935 51.6C165.005 51.4347 165.093 51.352 165.199 51.352H165.455V50.384C165.455 50.2187 165.615 50.0853 165.935 49.984C166.261 49.8827 166.578 49.832 166.887 49.832C167.373 49.832 167.615 49.952 167.615 50.192V51.352H168.207C168.346 51.352 168.415 51.552 168.415 51.952C168.415 52.2133 168.383 52.4293 168.319 52.6C168.261 52.7653 168.183 52.848 168.087 52.848H167.615V54.312C167.615 54.456 167.677 54.56 167.799 54.624C167.922 54.6827 168.029 54.712 168.119 54.712C168.215 54.712 168.274 54.7573 168.295 54.848C168.317 54.9387 168.327 55.0747 168.327 55.256C168.327 55.6133 168.279 55.8373 168.183 55.928ZM177.755 55.48V55.008H177.691C177.664 55.0347 177.624 55.0693 177.571 55.112C177.517 55.1547 177.392 55.2107 177.195 55.28C176.997 55.3493 176.776 55.384 176.531 55.384C176.291 55.384 176.077 55.3467 175.891 55.272C175.709 55.192 175.565 55.088 175.459 54.96C175.352 54.8267 175.269 54.6507 175.211 54.432C175.109 54.0853 175.059 53.5947 175.059 52.96V51.856C175.059 51.744 175.216 51.6347 175.531 51.528C175.845 51.416 176.176 51.36 176.523 51.36C176.987 51.36 177.219 51.48 177.219 51.72V52.728C177.219 53.7947 177.304 54.328 177.475 54.328C177.576 54.328 177.627 54.256 177.627 54.112V51.856C177.627 51.744 177.795 51.6347 178.131 51.528C178.467 51.416 178.827 51.36 179.211 51.36C179.595 51.36 179.787 51.464 179.787 51.672V55.456C179.787 56.6453 178.981 57.24 177.371 57.24C176.523 57.24 175.947 57.1573 175.643 56.992C175.509 56.9173 175.443 56.84 175.443 56.76C175.443 56.632 175.496 56.416 175.603 56.112C175.709 55.8133 175.808 55.664 175.899 55.664C175.92 55.664 175.995 55.68 176.123 55.712C176.517 55.8187 176.845 55.872 177.107 55.872C177.373 55.872 177.547 55.8427 177.627 55.784C177.712 55.7253 177.755 55.624 177.755 55.48Z" fill="#2CB1BC"/>
</svg>
