<svg width="181" height="61" viewBox="0 0 181 61" fill="none" xmlns="http://www.w3.org/2000/svg">
<path fill-rule="evenodd" clip-rule="evenodd" d="M25 50C38.8071 50 50 38.8071 50 25C50 11.1929 38.8071 0 25 0C11.1929 0 0 11.1929 0 25C0 38.8071 11.1929 50 25 50ZM26.9057 21.0003H23.9988C22.7656 21.0003 21.8767 20.688 21.3322 20.0634C20.7877 19.4228 20.5154 18.5819 20.5154 17.5409C20.5154 15.2347 22.2371 14.0815 25.6805 14.0815C28.9156 14.0815 31.35 14.562 32.9836 15.5229L31.5902 16.58C30.4691 16.0675 28.4992 15.8112 25.6805 15.8112C24.3031 15.8112 23.3742 15.9634 22.8937 16.2677C22.4293 16.572 22.1971 16.9964 22.1971 17.5409C22.1971 18.0854 22.3252 18.5099 22.5814 18.8142C22.8377 19.1185 23.3101 19.2706 23.9988 19.2706H26.9777C29.1398 19.2706 31.0857 19.639 32.8154 20.3757C34.5611 21.1124 35.9945 22.1214 37.1156 23.4026C38.2367 24.6679 39.0935 26.1333 39.6861 27.7989C40.2787 29.4485 40.575 31.2183 40.575 33.1081C40.575 34.6456 40.3588 36.103 39.9264 37.4804C39.4939 38.8577 38.8373 40.1229 37.9564 41.2761C37.0916 42.4292 36.0426 43.4302 34.8094 44.279C33.5922 45.1118 32.1348 45.7604 30.4371 46.2249C28.7555 46.7054 26.9297 46.9456 24.9598 46.9456C21.8687 46.9456 18.9699 46.4731 16.2633 45.5282C13.5726 44.5993 11.3305 43.294 9.53671 41.6124L10.9301 40.5794C12.5637 42.0528 14.6057 43.1979 17.056 44.0147C19.5224 44.8155 22.157 45.2159 24.9598 45.2159C27.1539 45.2159 29.1318 44.9036 30.8935 44.279C32.6713 43.6384 34.1287 42.7655 35.2658 41.6604C36.4189 40.5554 37.2998 39.2741 37.9084 37.8167C38.533 36.3593 38.8453 34.7897 38.8453 33.1081C38.8453 30.8819 38.3969 28.872 37.5 27.0782C36.6031 25.2685 35.2338 23.803 33.392 22.6819C31.5662 21.5608 29.4041 21.0003 26.9057 21.0003ZM23.9988 22.73H26.7375C29.9887 22.73 32.5271 23.7229 34.3529 25.7089C36.1947 27.6948 37.1156 30.1612 37.1156 33.1081C37.1156 36.103 36.0506 38.5854 33.9205 40.5554C31.7904 42.5093 28.8035 43.4862 24.9598 43.4862C22.3973 43.4862 20.0029 43.1339 17.7767 42.4292C15.5506 41.7245 13.7008 40.7315 12.2273 39.4503L13.5726 38.3692C14.8859 39.4423 16.5355 40.2751 18.5215 40.8677C20.5234 41.4603 22.6695 41.7565 24.9598 41.7565C28.3391 41.7565 30.9176 40.9478 32.6953 39.3302C34.4891 37.7126 35.3859 35.6386 35.3859 33.1081C35.3859 30.6097 34.6332 28.5436 33.1277 26.9101C31.6383 25.2765 29.5002 24.4597 26.7135 24.4597H23.9988C21.6605 24.4597 19.9068 23.819 18.7377 22.5378C17.5685 21.2565 16.984 19.5909 16.984 17.5409C16.984 15.4909 17.7047 13.8253 19.1461 12.544C20.6035 11.2628 22.7816 10.6222 25.6805 10.6222C27.7144 10.6222 29.6043 10.8624 31.35 11.3429C33.0957 11.8073 34.5371 12.48 35.6742 13.3608L34.3049 14.4179C32.3029 13.0405 29.4281 12.3519 25.6805 12.3519C23.2621 12.3519 21.4924 12.8323 20.3713 13.7933C19.2662 14.7382 18.7137 15.9874 18.7137 17.5409C18.7137 19.1104 19.1221 20.3677 19.9389 21.3126C20.7717 22.2575 22.125 22.73 23.9988 22.73ZM23.9988 26.1894H26.6414C28.9797 26.1894 30.7334 26.838 31.9025 28.1353C33.0717 29.4325 33.6562 31.0901 33.6562 33.1081C33.6562 35.1581 32.9275 36.8237 31.4701 38.105C30.0287 39.3862 27.8586 40.0269 24.9598 40.0269C22.9258 40.0269 21.0279 39.7946 19.2662 39.3302C17.5205 38.8497 16.0791 38.169 14.942 37.2882L16.3113 36.2312C18.3133 37.6085 21.1961 38.2972 24.9598 38.2972C27.3781 38.2972 29.1398 37.8247 30.2449 36.8798C31.366 35.9188 31.9266 34.6616 31.9266 33.1081C31.9266 31.5546 31.5101 30.3054 30.6773 29.3604C29.8445 28.3995 28.4912 27.919 26.6174 27.919H23.9988C20.7156 27.919 18.1451 26.9421 16.2873 24.9882C14.4455 23.0183 13.5246 20.5358 13.5246 17.5409C13.5246 14.546 14.5896 12.0716 16.7197 10.1177C18.8498 8.14775 21.8367 7.16279 25.6805 7.16279C28.243 7.16279 30.6293 7.51513 32.8394 8.21982C35.0656 8.92451 36.9154 9.91748 38.3889 11.1987L37.0435 12.2798C35.7303 11.2067 34.0807 10.3739 32.0947 9.78135C30.1088 9.18877 27.9707 8.89248 25.6805 8.89248C22.3012 8.89248 19.7146 9.70127 17.9209 11.3188C16.1432 12.9364 15.2543 15.0104 15.2543 17.5409C15.2543 20.0554 16.007 22.1294 17.5125 23.763C19.018 25.3806 21.1801 26.1894 23.9988 26.1894ZM23.9988 29.6487H26.6414C27.8746 29.6487 28.7635 29.969 29.308 30.6097C29.8525 31.2503 30.1248 32.0831 30.1248 33.1081C30.1248 35.4144 28.4031 36.5675 24.9598 36.5675C21.7086 36.5675 19.2662 36.087 17.6326 35.1261L19.026 34.069C20.1471 34.5815 22.125 34.8378 24.9598 34.8378C26.3371 34.8378 27.258 34.6856 27.7225 34.3813C28.2029 34.077 28.4432 33.6526 28.4432 33.1081C28.4432 32.5796 28.307 32.1632 28.0348 31.8589C27.7785 31.5386 27.298 31.3784 26.5933 31.3784H23.9988C21.7887 31.3784 19.7867 31.0181 17.993 30.2974C16.2152 29.5767 14.7498 28.5837 13.5967 27.3185C12.4596 26.0532 11.5867 24.5878 10.9781 22.9222C10.3695 21.2565 10.0652 19.4628 10.0652 17.5409C10.0652 16.0034 10.2814 14.546 10.7139 13.1686C11.1463 11.7913 11.7949 10.5261 12.6598 9.37295C13.5406 8.21982 14.5896 7.22685 15.8068 6.39404C17.04 5.54521 18.4974 4.88857 20.1791 4.42412C21.8767 3.94365 23.7105 3.70341 25.6805 3.70341C28.7715 3.70341 31.6623 4.17588 34.3529 5.1208C37.0435 6.0497 39.2857 7.35498 41.0795 9.03662L39.6861 10.0696C38.0525 8.59619 36.0105 7.45908 33.5601 6.6583C31.1098 5.8415 28.4832 5.4331 25.6805 5.4331C23.4863 5.4331 21.5004 5.75342 19.7226 6.39404C17.9609 7.01865 16.5035 7.88349 15.3504 8.98857C14.2133 10.0936 13.3324 11.3749 12.7078 12.8323C12.0992 14.2897 11.7949 15.8593 11.7949 17.5409C11.7949 19.7991 12.2514 21.8331 13.1642 23.6429C14.0771 25.4526 15.4705 26.9101 17.3443 28.0151C19.2182 29.1042 21.4363 29.6487 23.9988 29.6487ZM73.4035 33.5405L74.1002 31.8108H80.0099L80.7066 33.5405H73.4035ZM72.0582 36.9999L72.7309 35.2702H81.3553L82.1 36.9999H72.0582ZM70.7129 40.4593L71.3855 38.7296H82.7246L83.4453 40.4593H70.7129ZM56.6592 45.2159H54.7853L70.5207 5.4331H72.3945L88.1059 45.2159H86.256L71.4576 7.76338L56.6592 45.2159ZM71.6738 11.8714L72.6588 14.0815L60.3588 45.2159H58.509L71.6738 11.8714ZM73.5957 16.4358L74.5086 18.8142L64.1064 45.2159H62.2326L73.5957 16.4358ZM75.4215 21.1925L76.3344 23.6188L67.806 45.2159H65.9562L75.4215 21.1925ZM99.2767 45.2159H97.4029L81.6916 5.4331H83.5414L99.2767 45.2159ZM79.8178 5.4331L95.5531 45.2159H93.7033L77.968 5.4331H79.8178ZM76.0941 5.4331L91.8295 45.2159H89.9557L74.2443 5.4331H76.0941ZM143.348 24.4356H145.078V45.2159H143.348V24.4356ZM150.267 24.4356H151.997V45.2159H150.267V24.4356ZM146.808 24.4356H148.537V45.2159H146.808V24.4356ZM141.619 24.4356V45.2159C138.576 46.369 135.42 46.9456 132.153 46.9456C129.319 46.9456 126.604 46.4251 124.009 45.3841C121.415 44.3431 119.133 42.9017 117.163 41.0599C115.193 39.202 113.615 36.9118 112.43 34.1892C111.261 31.4505 110.676 28.4956 110.676 25.3245C110.676 22.3937 111.245 19.5989 112.382 16.9403C113.535 14.2657 115.073 11.9675 116.995 10.0456C118.932 8.10771 121.231 6.57021 123.889 5.4331C126.564 4.27998 129.367 3.70341 132.297 3.70341C135.949 3.70341 139.344 4.55224 142.483 6.2499C145.622 7.94756 148.185 10.2538 150.171 13.1686L148.729 14.1056C146.904 11.431 144.541 9.31689 141.643 7.76338C138.76 6.20986 135.645 5.4331 132.297 5.4331C129.607 5.4331 127.028 5.96162 124.562 7.01865C122.111 8.05967 119.997 9.46904 118.22 11.2468C116.442 13.0245 115.025 15.1466 113.968 17.613C112.927 20.0634 112.406 22.6339 112.406 25.3245C112.406 28.2233 112.943 30.93 114.016 33.4444C115.105 35.9589 116.546 38.0649 118.34 39.7626C120.15 41.4603 122.248 42.7976 124.634 43.7745C127.02 44.7354 129.503 45.2159 132.081 45.2159C134.788 45.2159 137.39 44.7915 139.889 43.9427V42.2851C137.503 43.0858 134.996 43.4862 132.369 43.4862C130.464 43.4862 128.606 43.222 126.796 42.6935C125.002 42.1489 123.337 41.3562 121.799 40.3151C120.278 39.2581 118.94 38.0089 117.787 36.5675C116.65 35.1101 115.753 33.4204 115.097 31.4985C114.456 29.5606 114.136 27.5026 114.136 25.3245C114.136 22.0413 114.945 19.0063 116.562 16.2196C118.196 13.4329 120.406 11.2308 123.193 9.61318C125.979 7.97959 129.014 7.16279 132.297 7.16279C135.372 7.16279 138.231 7.88349 140.874 9.3249C143.516 10.7503 145.67 12.6882 147.336 15.1386L145.895 16.0755C144.389 13.8653 142.435 12.1196 140.033 10.8384C137.647 9.54111 135.068 8.89248 132.297 8.89248C130.071 8.89248 127.941 9.3249 125.907 10.1897C123.873 11.0546 122.12 12.2237 120.646 13.6972C119.189 15.1546 118.028 16.9003 117.163 18.9343C116.298 20.9683 115.865 23.0983 115.865 25.3245C115.865 27.3265 116.154 29.2083 116.73 30.97C117.323 32.7157 118.132 34.2452 119.157 35.5585C120.198 36.8558 121.407 37.9769 122.784 38.9218C124.161 39.8507 125.659 40.5554 127.277 41.0358C128.91 41.5163 130.584 41.7565 132.297 41.7565C134.956 41.7565 137.486 41.3081 139.889 40.4112V38.6815C137.519 39.5944 135.044 40.0509 132.466 40.0509C130.512 40.0509 128.646 39.7226 126.868 39.0659C125.09 38.3933 123.505 37.4483 122.111 36.2312C120.734 35.014 119.637 33.4604 118.82 31.5706C118.003 29.6808 117.595 27.5987 117.595 25.3245C117.595 22.6659 118.252 20.2075 119.565 17.9493C120.878 15.6911 122.664 13.9054 124.922 12.5921C127.18 11.2788 129.639 10.6222 132.297 10.6222C134.78 10.6222 137.086 11.1987 139.216 12.3519C141.362 13.505 143.108 15.0745 144.453 17.0604L143.012 17.9974C141.827 16.2677 140.289 14.8983 138.399 13.8894C136.526 12.8644 134.492 12.3519 132.297 12.3519C129.943 12.3519 127.773 12.9364 125.787 14.1056C123.801 15.2587 122.224 16.8282 121.054 18.8142C119.901 20.8001 119.325 22.9702 119.325 25.3245C119.325 26.9581 119.557 28.4796 120.021 29.889C120.486 31.2983 121.127 32.5155 121.943 33.5405C122.76 34.5655 123.713 35.4384 124.802 36.1591C125.907 36.8798 127.092 37.4243 128.358 37.7927C129.623 38.145 130.936 38.3212 132.297 38.3212C135.004 38.3212 137.535 37.7847 139.889 36.7116V35.054C137.615 36.063 135.156 36.5675 132.514 36.5675C130.992 36.5675 129.559 36.3353 128.213 35.8708C126.868 35.4063 125.651 34.7257 124.562 33.8288C123.489 32.9319 122.632 31.7548 121.991 30.2974C121.367 28.8239 121.054 27.1663 121.054 25.3245C121.054 23.803 121.351 22.3536 121.943 20.9763C122.536 19.5829 123.337 18.3817 124.346 17.3728C125.355 16.3638 126.548 15.563 127.925 14.9704C129.319 14.3778 130.776 14.0815 132.297 14.0815C134.203 14.0815 135.973 14.53 137.607 15.4269C139.24 16.3077 140.57 17.5089 141.594 19.0304L140.177 19.9673C139.312 18.686 138.183 17.677 136.79 16.9403C135.412 16.1876 133.915 15.8112 132.297 15.8112C129.671 15.8112 127.429 16.7401 125.571 18.5979C123.713 20.4558 122.784 22.6979 122.784 25.3245C122.784 26.9421 123.048 28.3755 123.577 29.6247C124.105 30.8579 124.826 31.8509 125.739 32.6036C126.668 33.3403 127.693 33.9009 128.814 34.2853C129.951 34.6536 131.168 34.8378 132.466 34.8378C135.124 34.8378 137.599 34.2853 139.889 33.1802V24.4356H141.619ZM178.435 5.4331H180.165V45.2159H178.435V5.4331ZM174.976 5.4331H176.705V45.2159H174.976V5.4331ZM171.516 5.4331H173.246V45.2159H171.516V5.4331ZM168.057 5.4331H169.786V45.2159H168.057V5.4331ZM9.10638 56.9696C9.19278 57.1784 9.31518 57.38 9.47358 57.5744C9.63198 57.7616 9.76878 57.902 9.88398 57.9956C9.71118 58.3556 9.49878 58.6184 9.24678 58.784C9.03798 58.9208 8.81478 59 8.57718 59.0216C8.44758 59.036 8.29998 59.0252 8.13438 58.9892C7.96878 58.9532 7.79598 58.8524 7.61598 58.6868C7.44318 58.514 7.27038 58.2404 7.09758 57.866C7.04718 57.7436 6.93558 57.6572 6.76278 57.6068C6.58998 57.5564 6.40638 57.5276 6.21198 57.5204C6.01758 57.506 5.85918 57.4988 5.73678 57.4988C5.61438 57.4988 5.46318 57.5024 5.28318 57.5096C5.11038 57.5168 4.95198 57.5456 4.80798 57.596C4.66398 57.6464 4.57758 57.7364 4.54878 57.866C4.51998 57.9812 4.51638 58.1 4.53798 58.2224C4.55958 58.3448 4.60638 58.424 4.67838 58.46C4.55598 58.5752 4.43358 58.676 4.31118 58.7624C4.19598 58.8488 4.07718 58.9172 3.95478 58.9676C3.80358 59.0324 3.64518 59.0648 3.47958 59.0648C3.32118 59.0648 3.14118 59.0288 2.93958 58.9568C2.84598 58.9208 2.74878 58.856 2.64798 58.7624C2.54718 58.6688 2.47878 58.5392 2.44278 58.3736C2.40678 58.208 2.43558 57.9992 2.52918 57.7472C2.53638 57.7256 2.57238 57.6104 2.63718 57.4016C2.70198 57.1928 2.78478 56.9192 2.88558 56.5808C2.99358 56.2352 3.10878 55.8536 3.23118 55.436C3.36078 55.0184 3.49038 54.59 3.61998 54.1508C3.75678 53.7044 3.88638 53.276 4.00878 52.8656C4.13838 52.4552 4.25358 52.0844 4.35438 51.7532C4.45518 51.422 4.53438 51.1592 4.59198 50.9648L4.67838 50.6732C4.74318 50.6372 4.86198 50.594 5.03478 50.5436C5.21478 50.486 5.40558 50.4536 5.60718 50.4464C5.83038 50.432 6.04638 50.4608 6.25518 50.5328C6.47118 50.6048 6.63678 50.7488 6.75198 50.9648C6.80238 51.0512 6.87798 51.2168 6.97878 51.4616C7.07958 51.7064 7.19838 52.0016 7.33518 52.3472C7.47198 52.6928 7.61598 53.0636 7.76718 53.4596C7.91838 53.8484 8.06598 54.2372 8.20998 54.626C8.36118 55.0076 8.49798 55.364 8.62038 55.6952C8.74278 56.0264 8.84718 56.3072 8.93358 56.5376C9.01998 56.7608 9.07758 56.9048 9.10638 56.9696ZM5.70438 55.5764C5.89158 55.562 5.99958 55.508 6.02838 55.4144C6.06438 55.3208 6.08598 55.2128 6.09318 55.0904C6.09318 55.0112 6.07878 54.914 6.04998 54.7988C6.02838 54.6836 5.99238 54.5828 5.94198 54.4964C5.89878 54.4028 5.84118 54.356 5.76918 54.356C5.66838 54.356 5.55678 54.428 5.43438 54.572C5.31918 54.7088 5.25438 54.8492 5.23998 54.9932C5.21838 55.13 5.22918 55.2632 5.27238 55.3928C5.32278 55.5224 5.46678 55.5836 5.70438 55.5764ZM20.7221 54.3344C20.6933 54.4856 20.6285 54.626 20.5277 54.7556C20.4269 54.8852 20.3081 54.9932 20.1713 55.0796C20.0417 55.1588 19.9157 55.202 19.7933 55.2092C19.6709 55.2164 19.5701 55.1732 19.4909 55.0796C19.6277 54.986 19.6601 54.896 19.5881 54.8096C19.5233 54.7232 19.4117 54.6548 19.2533 54.6044C19.0949 54.554 18.9401 54.5396 18.7889 54.5612C18.4145 54.6188 18.1373 54.7808 17.9573 55.0472C17.7773 55.3064 17.6621 55.6052 17.6117 55.9436C17.5757 56.2316 17.6045 56.4908 17.6981 56.7212C17.7989 56.9444 17.9357 57.1244 18.1085 57.2612C18.2885 57.3908 18.4829 57.4592 18.6917 57.4664C19.1597 57.4736 19.5485 57.4052 19.8581 57.2612C20.1677 57.1172 20.4089 56.9516 20.5817 56.7644C20.7617 56.57 20.8841 56.4116 20.9489 56.2892C21.1217 56.4116 21.2225 56.588 21.2513 56.8184C21.2801 57.0488 21.2441 57.2972 21.1433 57.5636C21.0425 57.83 20.8841 58.0856 20.6681 58.3304C20.4521 58.5752 20.1893 58.7768 19.8797 58.9352C19.5701 59.0864 19.2173 59.162 18.8213 59.162C18.6125 59.162 18.3641 59.1368 18.0761 59.0864C17.7881 59.036 17.4929 58.9424 17.1905 58.8056C16.8953 58.6688 16.6217 58.4708 16.3697 58.2116C16.1249 57.9524 15.9341 57.6176 15.7973 57.2072C15.6677 56.7968 15.6281 56.2928 15.6785 55.6952C15.7145 55.2344 15.8369 54.8276 16.0457 54.4748C16.2617 54.1148 16.5245 53.8124 16.8341 53.5676C17.1437 53.3156 17.4677 53.1248 17.8061 52.9952C18.1517 52.8584 18.4793 52.7864 18.7889 52.7792C19.0985 52.772 19.3793 52.8188 19.6313 52.9196C19.8833 53.0204 20.0957 53.1536 20.2685 53.3192C20.4413 53.4776 20.5673 53.6468 20.6465 53.8268C20.7257 54.0068 20.7509 54.176 20.7221 54.3344ZM30.9828 53.006C31.0548 53.078 31.1088 53.2112 31.1448 53.4056C31.188 53.5928 31.1988 53.8016 31.1772 54.032C31.1628 54.2552 31.1088 54.4604 31.0152 54.6476C30.9288 54.8276 30.7956 54.95 30.6156 55.0148C30.3348 55.1156 30.1296 55.2956 30 55.5548C29.8704 55.814 29.7948 56.1416 29.7732 56.5376V57.4556C29.7876 57.5708 29.8344 57.6644 29.9136 57.7364C30 57.8084 30.0828 57.8588 30.162 57.8876L30.2916 57.9308L30.2484 58.082C30.2268 58.1828 30.1836 58.3016 30.1188 58.4384C30.054 58.5752 29.9604 58.7084 29.838 58.838C29.7156 58.9604 29.5572 59.0468 29.3628 59.0972C29.262 59.1188 29.1252 59.1224 28.9524 59.108C28.7868 59.1008 28.6176 59.0684 28.4448 59.0108C28.272 58.9532 28.128 58.874 28.0128 58.7732C27.948 58.7156 27.894 58.6544 27.8508 58.5896C27.8076 58.5248 27.7752 58.4276 27.7536 58.298C27.7392 58.1684 27.732 57.9848 27.732 57.7472V56.5916C27.7248 56.174 27.6348 55.8284 27.462 55.5548C27.2892 55.274 27.0624 55.0328 26.7816 54.8312C26.652 54.7376 26.5584 54.5864 26.5008 54.3776C26.4504 54.1616 26.418 53.9348 26.4036 53.6972C26.3892 53.4596 26.3856 53.258 26.3928 53.0924C26.4288 53.0996 26.526 53.114 26.6844 53.1356C26.8428 53.1572 26.9796 53.168 27.0948 53.168C27.3252 53.1608 27.4836 53.0708 27.57 52.898C27.6564 52.7252 27.6996 52.5092 27.6996 52.25L27.6888 51.2888C27.7536 51.2816 27.8616 51.2744 28.0128 51.2672C28.1712 51.2528 28.344 51.2528 28.5312 51.2672C28.7184 51.2816 28.8984 51.3176 29.0712 51.3752C29.2512 51.4256 29.4024 51.5084 29.5248 51.6236C29.6544 51.7388 29.73 51.8936 29.7516 52.088V52.1744C29.7588 52.2032 29.7624 52.2392 29.7624 52.2824H29.7732C29.7732 52.376 29.784 52.4876 29.8056 52.6172C29.8344 52.7468 29.874 52.8548 29.9244 52.9412C29.9748 53.0132 30.054 53.0672 30.162 53.1032C30.27 53.132 30.3744 53.15 30.4752 53.1572C30.5832 53.1572 30.6624 53.15 30.7128 53.1356C30.792 53.114 30.8496 53.096 30.8856 53.0816C30.9216 53.06 30.954 53.0348 30.9828 53.006ZM38.1801 52.574C37.9353 52.5812 37.7157 52.5128 37.5213 52.3688C37.3341 52.2248 37.1901 52.0484 37.0893 51.8396C36.9957 51.6236 36.9597 51.4184 36.9813 51.224C37.0173 50.9288 37.1505 50.72 37.3809 50.5976C37.6113 50.4752 37.8525 50.4104 38.1045 50.4032C38.4645 50.3888 38.7453 50.4824 38.9469 50.684C39.1485 50.8856 39.2493 51.116 39.2493 51.3752C39.2493 51.548 39.2097 51.7244 39.1305 51.9044C39.0585 52.0844 38.9433 52.2392 38.7849 52.3688C38.6265 52.4912 38.4249 52.5596 38.1801 52.574ZM39.3249 57.9092C39.3321 58.0388 39.3717 58.1504 39.4437 58.244C39.5229 58.3304 39.6165 58.4132 39.7245 58.4924C39.6741 58.5572 39.6093 58.6256 39.5301 58.6976C39.4509 58.7696 39.3321 58.838 39.1737 58.9028C39.0225 58.9604 38.8029 59.0072 38.5149 59.0432C38.4213 59.0504 38.3025 59.0396 38.1585 59.0108C38.0145 58.9892 37.8705 58.9208 37.7265 58.8056C37.5897 58.6832 37.4781 58.4924 37.3917 58.2332C37.3053 57.9668 37.2693 57.6032 37.2837 57.1424C37.2909 57.0632 37.2909 56.9084 37.2837 56.678C37.2837 56.4476 37.2801 56.174 37.2729 55.8572C37.2729 55.5404 37.2693 55.2128 37.2621 54.8744C37.2621 54.536 37.2585 54.2228 37.2513 53.9348C37.2513 53.6396 37.2477 53.402 37.2405 53.222V52.9412C37.3053 52.934 37.4133 52.9268 37.5645 52.9196C37.7229 52.9052 37.8957 52.9052 38.0829 52.9196C38.2701 52.934 38.4501 52.97 38.6229 53.0276C38.8029 53.078 38.9541 53.1608 39.0765 53.276C39.2061 53.3912 39.2817 53.546 39.3033 53.7404C39.3393 54.014 39.3537 54.3812 39.3465 54.842C39.3393 55.2956 39.3285 55.7924 39.3141 56.3324C39.2997 56.8652 39.3033 57.3908 39.3249 57.9092ZM49.4224 52.79C49.8472 52.8548 50.164 52.9556 50.3728 53.0924C50.5888 53.2292 50.7292 53.3912 50.794 53.5784C50.866 53.7584 50.884 53.96 50.848 54.1832C50.8192 54.4064 50.7652 54.6368 50.686 54.8744C50.6284 55.0544 50.542 55.2812 50.4268 55.5548C50.3188 55.8284 50.2036 56.1092 50.0812 56.3972C49.966 56.6852 49.858 56.9444 49.7572 57.1748C49.6564 57.4052 49.588 57.5672 49.552 57.6608C49.4152 57.9776 49.2928 58.2296 49.1848 58.4168C49.084 58.5968 48.9796 58.73 48.8716 58.8164C48.7636 58.9028 48.6304 58.9568 48.472 58.9784C48.2704 59.0072 48.0904 58.9856 47.932 58.9136C47.7736 58.8344 47.6512 58.7156 47.5648 58.5572C47.5576 58.5428 47.5432 58.4708 47.5216 58.3412C47.5 58.2116 47.4784 58.0784 47.4568 57.9416C47.4352 57.7976 47.4136 57.704 47.392 57.6608C47.3128 57.4376 47.2084 57.1712 47.0788 56.8616C46.9564 56.5448 46.8232 56.2064 46.6792 55.8464C46.5424 55.4864 46.402 55.1336 46.258 54.788C46.1212 54.4424 45.9952 54.1292 45.88 53.8484C45.7648 53.5604 45.6712 53.3336 45.5992 53.168L45.502 52.9088C45.61 52.8944 45.7612 52.8764 45.9556 52.8548C46.15 52.8332 46.3552 52.8296 46.5712 52.844C46.7944 52.8584 47.0032 52.9124 47.1976 53.006C47.392 53.0996 47.5468 53.2508 47.662 53.4596C47.698 53.5316 47.7448 53.6468 47.8024 53.8052C47.8672 53.9564 47.9284 54.0968 47.986 54.2264C48.0292 54.3128 48.0724 54.4136 48.1156 54.5288C48.166 54.644 48.2236 54.7448 48.2884 54.8312C48.3532 54.9176 48.4288 54.9644 48.5152 54.9716C48.6304 54.9788 48.724 54.932 48.796 54.8312C48.8752 54.7304 48.9364 54.6188 48.9796 54.4964C49.0228 54.3668 49.0552 54.2732 49.0768 54.2156C49.1416 54.05 49.2028 53.8772 49.2604 53.6972C49.3252 53.51 49.372 53.3372 49.4008 53.1788C49.4368 53.0132 49.444 52.8836 49.4224 52.79ZM61.66 56.2892C61.84 56.4116 61.9552 56.588 62.0056 56.8184C62.0632 57.0416 62.056 57.2864 61.984 57.5528C61.9192 57.8192 61.786 58.0748 61.5844 58.3196C61.3828 58.5572 61.1092 58.7552 60.7636 58.9136C60.4252 59.072 60.0148 59.1548 59.5324 59.162C59.1292 59.1692 58.7332 59.1188 58.3444 59.0108C57.9628 58.9028 57.6136 58.7372 57.2968 58.514C56.9872 58.2908 56.7352 58.0028 56.5408 57.65C56.3464 57.2972 56.2384 56.876 56.2168 56.3864C56.2096 56.2856 56.2096 56.1812 56.2168 56.0732C56.224 55.9652 56.2312 55.8536 56.2384 55.7384V55.652L56.26 55.5656C56.332 55.1336 56.4796 54.7376 56.7028 54.3776C56.9332 54.0176 57.214 53.7116 57.5452 53.4596C57.8764 53.2076 58.2292 53.024 58.6036 52.9088C58.9852 52.7864 59.3596 52.7432 59.7268 52.7792C60.2956 52.8368 60.7348 52.988 61.0444 53.2328C61.3612 53.4776 61.5664 53.78 61.66 54.14C61.7608 54.4928 61.7644 54.8744 61.6708 55.2848C61.6204 55.4864 61.5052 55.688 61.3252 55.8896C61.1524 56.084 60.9364 56.2604 60.6772 56.4188C60.418 56.57 60.1408 56.6888 59.8456 56.7752C59.5576 56.8544 59.2768 56.8868 59.0032 56.8724C58.8664 56.8652 58.7944 56.9084 58.7872 57.002C58.78 57.0884 58.8196 57.1856 58.906 57.2936C58.9924 57.3944 59.1076 57.4628 59.2516 57.4988C59.59 57.5708 59.9068 57.5744 60.202 57.5096C60.5044 57.4376 60.7348 57.3404 60.8932 57.218C61.0228 57.1172 61.1596 56.984 61.3036 56.8184C61.4476 56.6456 61.5664 56.4692 61.66 56.2892ZM59.2948 55.1984C59.4604 55.184 59.6044 55.1336 59.7268 55.0472C59.8564 54.9536 59.9212 54.8564 59.9212 54.7556C59.9284 54.6116 59.8924 54.4964 59.8132 54.41C59.7412 54.3164 59.6152 54.2732 59.4352 54.2804C59.2336 54.2876 59.0392 54.3164 58.852 54.3668C58.6648 54.4172 58.5532 54.5216 58.5172 54.68C58.4956 54.788 58.528 54.8816 58.6144 54.9608C58.7008 55.04 58.8088 55.1012 58.9384 55.1444C59.068 55.1804 59.1868 55.1984 59.2948 55.1984ZM80.5223 50.3492C80.9471 50.3492 81.3539 50.4248 81.7427 50.576C82.1387 50.72 82.4699 50.9144 82.7363 51.1592C83.0099 51.404 83.1719 51.6668 83.2223 51.9476C83.2583 52.1348 83.2331 52.3436 83.1467 52.574C83.0603 52.7972 82.9235 52.9952 82.7363 53.168C82.5491 53.3336 82.3223 53.4236 82.0559 53.438C81.9623 53.438 81.8435 53.4272 81.6995 53.4056C81.5555 53.384 81.4151 53.3408 81.2783 53.276C81.1487 53.2112 81.0443 53.1176 80.9651 52.9952C81.0731 52.9376 81.1451 52.8764 81.1811 52.8116C81.2171 52.7468 81.2279 52.682 81.2135 52.6172C81.1847 52.4732 81.0983 52.3544 80.9543 52.2608C80.8175 52.1672 80.6483 52.1096 80.4467 52.088C80.3315 52.0736 80.1983 52.0772 80.0471 52.0988C79.8959 52.1132 79.7555 52.1636 79.6259 52.25C79.5035 52.3292 79.4171 52.4624 79.3667 52.6496C79.3379 52.7576 79.3415 52.8764 79.3775 53.006C79.4207 53.1284 79.5215 53.2472 79.6799 53.3624C79.8383 53.4704 80.0795 53.564 80.4035 53.6432C80.9003 53.7584 81.3611 53.8844 81.7859 54.0212C82.2179 54.158 82.5959 54.3272 82.9199 54.5288C83.2439 54.7304 83.4923 54.9824 83.6651 55.2848C83.8451 55.58 83.9279 55.9508 83.9135 56.3972C83.9063 56.6924 83.8271 57.002 83.6759 57.326C83.5247 57.65 83.3051 57.9524 83.0171 58.2332C82.7291 58.5068 82.3763 58.73 81.9587 58.9028C81.5411 59.0756 81.0659 59.162 80.5331 59.162C80.1947 59.162 79.8455 59.1332 79.4855 59.0756C79.1255 59.018 78.7835 58.928 78.4595 58.8056C78.1427 58.6832 77.8619 58.5212 77.6171 58.3196C77.4011 58.1324 77.2463 57.8984 77.1527 57.6176C77.0663 57.3368 77.0483 57.056 77.0987 56.7752C77.1491 56.4872 77.2751 56.2424 77.4767 56.0408C77.6855 55.8392 77.9735 55.7276 78.3407 55.706C78.2687 55.922 78.3083 56.1344 78.4595 56.3432C78.6179 56.5448 78.8519 56.7176 79.1615 56.8616C79.4711 56.9984 79.8095 57.0812 80.1767 57.11C80.5583 57.1388 80.8895 57.1244 81.1703 57.0668C81.4583 57.0092 81.6167 56.8904 81.6455 56.7104C81.6815 56.4944 81.6383 56.3216 81.5159 56.192C81.3935 56.0624 81.2243 55.9652 81.0083 55.9004C80.7923 55.8284 80.5583 55.7708 80.3063 55.7276C80.0543 55.6772 79.8203 55.6268 79.6043 55.5764C79.3163 55.4972 79.0247 55.3964 78.7295 55.274C78.4415 55.1444 78.1751 54.9824 77.9303 54.788C77.6927 54.5936 77.4983 54.356 77.3471 54.0752C77.1959 53.7944 77.1167 53.4668 77.1095 53.0924C77.1023 52.6532 77.1923 52.2644 77.3795 51.926C77.5667 51.5804 77.8223 51.2924 78.1463 51.062C78.4703 50.8244 78.8375 50.648 79.2479 50.5328C79.6655 50.4104 80.0903 50.3492 80.5223 50.3492ZM95.6733 55.706C95.7381 56.3108 95.6913 56.8292 95.5329 57.2612C95.3745 57.6932 95.1405 58.0496 94.8309 58.3304C94.5285 58.6112 94.1865 58.82 93.8049 58.9568C93.4305 59.0864 93.0561 59.1512 92.6817 59.1512C92.3145 59.1512 91.9401 59.0864 91.5585 58.9568C91.1841 58.82 90.8457 58.6112 90.5433 58.3304C90.2481 58.0496 90.0177 57.6932 89.8521 57.2612C89.6937 56.8292 89.6469 56.3108 89.7117 55.706C89.7765 55.1516 89.9421 54.6656 90.2085 54.248C90.4821 53.8304 90.8277 53.5028 91.2453 53.2652C91.6701 53.0204 92.1345 52.8836 92.6385 52.8548C92.6673 52.8476 92.6961 52.826 92.7249 52.79C92.7609 52.7468 92.8185 52.7108 92.8977 52.682C92.9841 52.646 93.1137 52.6352 93.2865 52.6496C93.6969 52.7648 94.0713 52.9628 94.4097 53.2436C94.7481 53.5244 95.0289 53.8736 95.2521 54.2912C95.4825 54.7088 95.6229 55.1804 95.6733 55.706ZM92.5845 57.4232C92.8149 57.4232 93.0129 57.3692 93.1785 57.2612C93.3441 57.1532 93.4773 57.0164 93.5781 56.8508C93.6789 56.678 93.7509 56.498 93.7941 56.3108C93.8445 56.1236 93.8697 55.9544 93.8697 55.8032C93.8697 55.4936 93.8193 55.2524 93.7185 55.0796C93.6177 54.9068 93.3873 54.752 93.0273 54.6152C92.9265 54.572 92.8581 54.5144 92.8221 54.4424C92.7861 54.3704 92.7321 54.3308 92.6601 54.3236C92.4225 54.2948 92.2209 54.3596 92.0553 54.518C91.8897 54.6764 91.7637 54.8888 91.6773 55.1552C91.5909 55.4216 91.5477 55.7096 91.5477 56.0192C91.5477 56.3288 91.6053 56.588 91.7205 56.7968C91.8429 57.0056 91.9833 57.164 92.1417 57.272C92.3073 57.3728 92.4549 57.4232 92.5845 57.4232ZM101.654 58.1144V57.65V56.6888C101.654 56.3072 101.65 55.8896 101.643 55.436V54.0428C101.643 53.5748 101.639 53.132 101.632 52.7144C101.632 52.2896 101.628 51.9224 101.621 51.6128C101.614 51.3176 101.589 51.0728 101.546 50.8784C101.502 50.6768 101.477 50.5544 101.47 50.5112C101.556 50.4968 101.686 50.4932 101.859 50.5004C102.032 50.5004 102.222 50.522 102.431 50.5652C102.647 50.6012 102.852 50.6624 103.047 50.7488C103.241 50.828 103.403 50.9432 103.533 51.0944C103.662 51.2384 103.731 51.422 103.738 51.6452C103.745 51.782 103.749 52.0232 103.749 52.3688C103.756 52.7072 103.76 53.1068 103.76 53.5676C103.767 54.0212 103.774 54.4892 103.781 54.9716C103.788 55.4468 103.792 55.8968 103.792 56.3216C103.799 56.7464 103.803 57.1028 103.803 57.3908C103.81 57.6716 103.814 57.8372 103.814 57.8876C103.814 58.0388 103.853 58.1864 103.932 58.3304C104.019 58.4672 104.109 58.5536 104.202 58.5896C104.159 58.6472 104.062 58.7228 103.911 58.8164C103.76 58.91 103.583 58.9964 103.382 59.0756C103.187 59.1548 102.989 59.2052 102.788 59.2268C102.622 59.2412 102.449 59.2016 102.269 59.108C102.096 59.0216 101.949 58.892 101.826 58.7192C101.711 58.5464 101.654 58.3448 101.654 58.1144ZM111.19 52.574C110.945 52.5812 110.726 52.5128 110.531 52.3688C110.344 52.2248 110.2 52.0484 110.099 51.8396C110.006 51.6236 109.97 51.4184 109.991 51.224C110.027 50.9288 110.161 50.72 110.391 50.5976C110.621 50.4752 110.863 50.4104 111.115 50.4032C111.475 50.3888 111.755 50.4824 111.957 50.684C112.159 50.8856 112.259 51.116 112.259 51.3752C112.259 51.548 112.22 51.7244 112.141 51.9044C112.069 52.0844 111.953 52.2392 111.795 52.3688C111.637 52.4912 111.435 52.5596 111.19 52.574ZM112.335 57.9092C112.342 58.0388 112.382 58.1504 112.454 58.244C112.533 58.3304 112.627 58.4132 112.735 58.4924C112.684 58.5572 112.619 58.6256 112.54 58.6976C112.461 58.7696 112.342 58.838 112.184 58.9028C112.033 58.9604 111.813 59.0072 111.525 59.0432C111.431 59.0504 111.313 59.0396 111.169 59.0108C111.025 58.9892 110.881 58.9208 110.737 58.8056C110.6 58.6832 110.488 58.4924 110.402 58.2332C110.315 57.9668 110.279 57.6032 110.294 57.1424C110.301 57.0632 110.301 56.9084 110.294 56.678C110.294 56.4476 110.29 56.174 110.283 55.8572C110.283 55.5404 110.279 55.2128 110.272 54.8744C110.272 54.536 110.269 54.2228 110.261 53.9348C110.261 53.6396 110.258 53.402 110.251 53.222V52.9412C110.315 52.934 110.423 52.9268 110.575 52.9196C110.733 52.9052 110.906 52.9052 111.093 52.9196C111.28 52.934 111.46 52.97 111.633 53.0276C111.813 53.078 111.964 53.1608 112.087 53.276C112.216 53.3912 112.292 53.546 112.313 53.7404C112.349 54.014 112.364 54.3812 112.357 54.842C112.349 55.2956 112.339 55.7924 112.324 56.3324C112.31 56.8652 112.313 57.3908 112.335 57.9092ZM124.485 57.6608C124.607 57.8048 124.787 57.9056 125.025 57.9632C124.989 58.1144 124.942 58.2764 124.884 58.4492C124.834 58.622 124.751 58.7732 124.636 58.9028C124.528 59.0324 124.369 59.1152 124.161 59.1512C124.067 59.1728 123.948 59.1656 123.804 59.1296L123.286 59C123.156 58.964 122.991 58.9568 122.789 58.9784C122.587 58.9928 122.397 59.0144 122.217 59.0432C122.044 59.072 121.929 59.0936 121.871 59.108C121.792 59.1296 121.713 59.1404 121.633 59.1404C121.554 59.1476 121.475 59.1512 121.396 59.1512C121.021 59.1512 120.651 59.0864 120.283 58.9568C119.923 58.82 119.599 58.6112 119.311 58.3304C119.023 58.0496 118.804 57.6932 118.653 57.2612C118.509 56.8292 118.469 56.3108 118.534 55.706C118.577 55.2884 118.689 54.8996 118.869 54.5396C119.056 54.1796 119.286 53.8664 119.56 53.6C119.833 53.3264 120.125 53.1176 120.435 52.9736C120.751 52.8224 121.061 52.7468 121.363 52.7468H121.547C121.612 52.7468 121.673 52.7432 121.731 52.736C121.86 52.7144 121.986 52.6424 122.109 52.52C122.231 52.3976 122.314 52.2464 122.357 52.0664C122.379 51.9656 122.393 51.8468 122.4 51.71C122.407 51.5732 122.411 51.4904 122.411 51.4616C122.433 51.296 122.494 51.1556 122.595 51.0404C122.695 50.918 122.814 50.8208 122.951 50.7488C123.138 50.648 123.343 50.576 123.567 50.5328C123.79 50.4896 123.995 50.468 124.182 50.468C124.377 50.4608 124.521 50.468 124.614 50.4896C124.607 50.5328 124.593 50.6876 124.571 50.954C124.549 51.2204 124.524 51.5552 124.495 51.9584C124.467 52.3616 124.438 52.8044 124.409 53.2868C124.38 53.762 124.355 54.2408 124.333 54.7232C124.319 55.2056 124.312 55.6556 124.312 56.0732C124.312 56.4908 124.326 56.84 124.355 57.1208C124.384 57.4016 124.427 57.5816 124.485 57.6608ZM120.467 56.0624C120.445 56.3432 120.478 56.5772 120.564 56.7644C120.658 56.9444 120.773 57.0812 120.91 57.1748C121.054 57.2612 121.194 57.308 121.331 57.3152C121.59 57.3224 121.788 57.2576 121.925 57.1208C122.069 56.9768 122.166 56.7896 122.217 56.5592C122.267 56.3216 122.292 56.0696 122.292 55.8032C122.292 55.4 122.213 55.1084 122.055 54.9284C121.896 54.7484 121.648 54.6692 121.309 54.6908C121.093 54.7052 120.906 54.8096 120.748 55.004C120.597 55.1984 120.503 55.5512 120.467 56.0624ZM136.433 57.0452C136.44 57.2036 136.451 57.398 136.465 57.6284C136.487 57.8588 136.534 58.082 136.606 58.298C136.678 58.514 136.793 58.6868 136.951 58.8164C136.771 58.9388 136.588 59.0252 136.401 59.0756C136.213 59.1332 136.03 59.1476 135.85 59.1188C135.799 59.1044 135.745 59.0864 135.688 59.0648C135.63 59.0504 135.551 59.0288 135.45 59C135.285 58.9496 135.09 58.9388 134.867 58.9676C134.644 58.9964 134.41 59.0324 134.165 59.0756C133.927 59.126 133.693 59.1512 133.463 59.1512C133.089 59.1512 132.714 59.0864 132.34 58.9568C131.965 58.82 131.627 58.6112 131.325 58.3304C131.022 58.0496 130.792 57.6932 130.633 57.2612C130.475 56.8292 130.428 56.3108 130.493 55.706C130.536 55.2884 130.655 54.9068 130.849 54.5612C131.044 54.2084 131.281 53.906 131.562 53.654C131.85 53.3948 132.153 53.1968 132.469 53.06C132.793 52.916 133.107 52.8476 133.409 52.8548C133.639 52.862 133.816 52.8692 133.938 52.8764C134.068 52.8836 134.233 52.9016 134.435 52.9304C134.557 52.9448 134.712 52.9268 134.899 52.8764C135.087 52.826 135.274 52.772 135.461 52.7144C135.655 52.6496 135.821 52.6172 135.958 52.6172C136.167 52.61 136.314 52.6172 136.401 52.6388C136.487 52.6532 136.559 52.6676 136.617 52.682C136.573 52.8116 136.537 53.006 136.509 53.2652C136.48 53.5244 136.458 53.8196 136.444 54.1508C136.437 54.4748 136.429 54.8132 136.422 55.166C136.415 55.5188 136.411 55.8572 136.411 56.1812C136.419 56.5052 136.426 56.7932 136.433 57.0452ZM132.372 56.0516C132.387 56.4116 132.451 56.6924 132.567 56.894C132.689 57.0884 132.833 57.2252 132.999 57.3044C133.171 57.3836 133.337 57.4232 133.495 57.4232C133.812 57.4304 134.046 57.308 134.197 57.056C134.349 56.804 134.421 56.4548 134.413 56.0084C134.413 55.886 134.399 55.742 134.37 55.5764C134.349 55.4108 134.305 55.2488 134.241 55.0904C134.183 54.932 134.1 54.7988 133.992 54.6908C133.891 54.5828 133.758 54.5288 133.593 54.5288C133.261 54.5288 132.97 54.6512 132.718 54.896C132.473 55.1408 132.358 55.526 132.372 56.0516ZM146.193 52.7468C146.337 52.7108 146.47 52.7468 146.592 52.8548C146.715 52.9628 146.823 53.1104 146.916 53.2976C147.017 53.4776 147.1 53.6648 147.165 53.8592C147.23 54.0464 147.28 54.2048 147.316 54.3344L147.37 54.5288L147.111 54.5828C146.945 54.6116 146.736 54.6728 146.484 54.7664C146.24 54.8528 145.995 54.986 145.75 55.166C145.606 55.274 145.469 55.4036 145.34 55.5548C145.21 55.706 145.098 55.9004 145.005 56.138C144.911 56.3684 144.843 56.6744 144.8 57.056C144.778 57.2504 144.774 57.452 144.789 57.6608C144.803 57.8696 144.81 58.046 144.81 58.19C144.818 58.3196 144.836 58.4132 144.864 58.4708C144.887 58.5025 144.907 58.5313 144.924 58.5572C144.934 58.5726 144.943 58.587 144.951 58.6004C144.857 58.6868 144.684 58.784 144.432 58.892C144.188 58.9928 143.918 59.0432 143.622 59.0432C143.334 59.0432 143.122 58.9496 142.985 58.7624C142.848 58.5752 142.78 58.316 142.78 57.9848C142.78 57.9056 142.776 57.7328 142.769 57.4664C142.769 57.1928 142.766 56.8652 142.758 56.4836C142.758 56.102 142.755 55.706 142.748 55.2956C142.748 54.8852 142.744 54.5036 142.737 54.1508C142.737 53.7908 142.733 53.4992 142.726 53.276V52.9412C142.798 52.9268 142.92 52.916 143.093 52.9088C143.273 52.9016 143.468 52.9088 143.676 52.9304C143.885 52.952 144.08 53.0024 144.26 53.0816C144.346 53.1176 144.461 53.1536 144.605 53.1896C144.756 53.2184 144.9 53.2328 145.037 53.2328C145.181 53.2328 145.286 53.2112 145.35 53.168C145.487 53.0672 145.624 52.9808 145.761 52.9088C145.905 52.8368 146.049 52.7828 146.193 52.7468ZM154.25 52.574C154.005 52.5812 153.785 52.5128 153.591 52.3688C153.404 52.2248 153.26 52.0484 153.159 51.8396C153.065 51.6236 153.029 51.4184 153.051 51.224C153.087 50.9288 153.22 50.72 153.45 50.5976C153.681 50.4752 153.922 50.4104 154.174 50.4032C154.534 50.3888 154.815 50.4824 155.016 50.684C155.218 50.8856 155.319 51.116 155.319 51.3752C155.319 51.548 155.279 51.7244 155.2 51.9044C155.128 52.0844 155.013 52.2392 154.854 52.3688C154.696 52.4912 154.494 52.5596 154.25 52.574ZM155.394 57.9092C155.402 58.0388 155.441 58.1504 155.513 58.244C155.592 58.3304 155.686 58.4132 155.794 58.4924C155.744 58.5572 155.679 58.6256 155.6 58.6976C155.52 58.7696 155.402 58.838 155.243 58.9028C155.092 58.9604 154.872 59.0072 154.584 59.0432C154.491 59.0504 154.372 59.0396 154.228 59.0108C154.084 58.9892 153.94 58.9208 153.796 58.8056C153.659 58.6832 153.548 58.4924 153.461 58.2332C153.375 57.9668 153.339 57.6032 153.353 57.1424C153.36 57.0632 153.36 56.9084 153.353 56.678C153.353 56.4476 153.35 56.174 153.342 55.8572C153.342 55.5404 153.339 55.2128 153.332 54.8744C153.332 54.536 153.328 54.2228 153.321 53.9348C153.321 53.6396 153.317 53.402 153.31 53.222V52.9412C153.375 52.934 153.483 52.9268 153.634 52.9196C153.792 52.9052 153.965 52.9052 154.152 52.9196C154.34 52.934 154.52 52.97 154.692 53.0276C154.872 53.078 155.024 53.1608 155.146 53.276C155.276 53.3912 155.351 53.546 155.373 53.7404C155.409 54.014 155.423 54.3812 155.416 54.842C155.409 55.2956 155.398 55.7924 155.384 56.3324C155.369 56.8652 155.373 57.3908 155.394 57.9092ZM166.162 53.006C166.234 53.078 166.288 53.2112 166.324 53.4056C166.367 53.5928 166.378 53.8016 166.356 54.032C166.342 54.2552 166.288 54.4604 166.194 54.6476C166.108 54.8276 165.974 54.95 165.794 55.0148C165.514 55.1156 165.308 55.2956 165.179 55.5548C165.049 55.814 164.974 56.1416 164.952 56.5376V57.4556C164.966 57.5708 165.013 57.6644 165.092 57.7364C165.179 57.8084 165.262 57.8588 165.341 57.8876L165.47 57.9308L165.427 58.082C165.406 58.1828 165.362 58.3016 165.298 58.4384C165.233 58.5752 165.139 58.7084 165.017 58.838C164.894 58.9604 164.736 59.0468 164.542 59.0972C164.441 59.1188 164.304 59.1224 164.131 59.108C163.966 59.1008 163.796 59.0684 163.624 59.0108C163.451 58.9532 163.307 58.874 163.192 58.7732C163.127 58.7156 163.073 58.6544 163.03 58.5896C162.986 58.5248 162.954 58.4276 162.932 58.298C162.918 58.1684 162.911 57.9848 162.911 57.7472V56.5916C162.904 56.174 162.814 55.8284 162.641 55.5548C162.468 55.274 162.241 55.0328 161.96 54.8312C161.831 54.7376 161.737 54.5864 161.68 54.3776C161.629 54.1616 161.597 53.9348 161.582 53.6972C161.568 53.4596 161.564 53.258 161.572 53.0924C161.608 53.0996 161.705 53.114 161.863 53.1356C162.022 53.1572 162.158 53.168 162.274 53.168C162.504 53.1608 162.662 53.0708 162.749 52.898C162.835 52.7252 162.878 52.5092 162.878 52.25L162.868 51.2888C162.932 51.2816 163.04 51.2744 163.192 51.2672C163.35 51.2528 163.523 51.2528 163.71 51.2672C163.897 51.2816 164.077 51.3176 164.25 51.3752C164.43 51.4256 164.581 51.5084 164.704 51.6236C164.833 51.7388 164.909 51.8936 164.93 52.088V52.1744C164.938 52.2032 164.941 52.2392 164.941 52.2824H164.952C164.952 52.376 164.963 52.4876 164.984 52.6172C165.013 52.7468 165.053 52.8548 165.103 52.9412C165.154 53.0132 165.233 53.0672 165.341 53.1032C165.449 53.132 165.553 53.15 165.654 53.1572C165.762 53.1572 165.841 53.15 165.892 53.1356C165.971 53.114 166.028 53.096 166.064 53.0816C166.1 53.06 166.133 53.0348 166.162 53.006ZM175.962 52.8008C176.459 52.8656 176.819 53.0096 177.042 53.2328C177.272 53.456 177.402 53.7188 177.431 54.0212C177.467 54.3236 177.434 54.6332 177.333 54.95C177.276 55.13 177.189 55.3604 177.074 55.6412C176.966 55.9148 176.851 56.1956 176.729 56.4836C176.613 56.7716 176.505 57.0308 176.405 57.2612C176.304 57.4844 176.235 57.6428 176.199 57.7364C176.084 58.0028 175.947 58.2872 175.789 58.5896C175.631 58.8848 175.454 59.162 175.26 59.4212C175.073 59.6804 174.875 59.8928 174.666 60.0584C174.464 60.224 174.266 60.3068 174.072 60.3068C173.813 60.3068 173.6 60.242 173.435 60.1124C173.276 59.9828 173.157 59.8208 173.078 59.6264C172.999 59.4392 172.949 59.2556 172.927 59.0756C173.114 59.126 173.287 59.1224 173.445 59.0648C173.604 59.0144 173.741 58.9388 173.856 58.838C173.964 58.7372 174.029 58.622 174.05 58.4924C174.079 58.3628 174.086 58.2476 174.072 58.1468C174.036 57.7436 173.924 57.308 173.737 56.84L172.149 52.9088C172.211 52.9006 172.283 52.8913 172.365 52.8807C172.428 52.8728 172.496 52.8641 172.571 52.8548C172.751 52.826 172.938 52.8224 173.132 52.844C173.334 52.8584 173.521 52.9124 173.694 53.006C173.874 53.0924 174.021 53.24 174.137 53.4488C174.18 53.5208 174.23 53.6324 174.288 53.7836C174.353 53.9276 174.417 54.0824 174.482 54.248C174.554 54.4064 174.612 54.5432 174.655 54.6584C174.734 54.8312 174.817 54.9716 174.903 55.0796C174.997 55.1804 175.091 55.2344 175.184 55.2416C175.263 55.2488 175.343 55.22 175.422 55.1552C175.501 55.0832 175.566 54.9932 175.616 54.8852C175.659 54.7844 175.71 54.6332 175.767 54.4316C175.825 54.23 175.872 54.0608 175.908 53.924C175.973 53.672 176.005 53.456 176.005 53.276C176.012 53.096 175.998 52.9376 175.962 52.8008Z" fill="#2CB1BC"/>
</svg>
