<svg width="152" height="55" viewBox="0 0 152 55" fill="none" xmlns="http://www.w3.org/2000/svg">
<mask id="path-1-outside-1_14_3" maskUnits="userSpaceOnUse" x="0" y="0.428223" width="152" height="55" fill="black">
<rect fill="white" y="0.428223" width="152" height="55"/>
<path fill-rule="evenodd" clip-rule="evenodd" d="M60.7402 38.2022C62.5681 38.9566 64.6861 39.3338 67.0944 39.3338C69.0674 39.3338 70.8227 39.0001 72.3605 38.3328C73.8983 37.6364 75.1024 36.6935 75.9728 35.5039C76.8723 34.2852 77.322 32.907 77.322 31.3693C77.322 30.6439 77.2059 29.9911 76.9738 29.4108C76.7417 28.8015 76.408 28.2502 75.9728 27.757C75.3635 27.1186 74.5656 26.5528 73.5791 26.0596C72.5926 25.5664 71.432 25.1311 70.0974 24.7539C68.9078 24.4348 67.9938 24.1737 67.3555 23.9706C66.7462 23.7384 66.311 23.5498 66.0498 23.4048C65.7307 23.2597 65.4986 23.0711 65.3535 22.839C65.2084 22.6069 65.1359 22.3602 65.1359 22.0991C65.1359 21.896 65.1794 21.7074 65.2664 21.5333C65.3535 21.3592 65.484 21.2142 65.6581 21.0981C65.8322 20.982 66.0498 20.895 66.311 20.837C66.5721 20.7789 66.8913 20.7499 67.2684 20.7499C67.8778 20.7499 68.5306 20.8805 69.2269 21.1416C69.9233 21.3737 70.5906 21.6784 71.2289 22.0556C71.8963 22.4328 72.4766 22.839 72.9698 23.2742L77.1479 18.6609C76.3065 17.9355 75.349 17.3262 74.2755 16.833C73.2309 16.3107 72.0994 15.919 70.8808 15.6579C69.6912 15.3677 68.4145 15.2227 67.0508 15.2227C65.8322 15.2227 64.6426 15.3967 63.482 15.7449C62.3215 16.0641 61.2769 16.5573 60.3485 17.2247C59.42 17.863 58.6946 18.6319 58.1724 19.5313C57.6501 20.4308 57.389 21.4608 57.389 22.6214C57.389 23.5789 57.5631 24.4638 57.9112 25.2762C58.2884 26.0596 58.7962 26.756 59.4345 27.3653C60.1018 27.9746 60.9142 28.5113 61.8717 28.9756C62.8292 29.4108 63.9173 29.788 65.1359 30.1071C66.1224 30.3393 66.9058 30.5569 67.4861 30.76C68.0954 30.9341 68.5306 31.0791 68.7917 31.1952C69.285 31.4563 69.5316 31.8335 69.5316 32.3268C69.5316 32.5299 69.4736 32.7185 69.3575 32.8925C69.2705 33.0376 69.1399 33.1827 68.9658 33.3278C68.8207 33.4438 68.6176 33.5309 68.3565 33.5889C68.0954 33.6469 67.8052 33.6759 67.4861 33.6759C66.5866 33.6759 65.5421 33.4728 64.3525 33.0666C63.1919 32.6604 62.1474 32.0366 61.2189 31.1952L56.475 35.2862C57.4905 36.4758 58.9122 37.4478 60.7402 38.2022ZM84.2399 37.767C85.7777 38.7825 87.5041 39.2903 89.419 39.2903C90.4926 39.2903 91.4646 39.1452 92.335 38.855C93.2345 38.5359 94.0469 38.1152 94.7722 37.5929C95.2233 37.2501 95.6295 36.8736 95.9908 36.4634V38.8986H104.129V15.7014H96.1649V18.2231C95.7748 17.7511 95.3396 17.3168 94.8593 16.92C94.1919 16.3687 93.4085 15.948 92.5091 15.6579C91.6096 15.3677 90.6231 15.2227 89.5496 15.2227C87.5476 15.2227 85.7777 15.7449 84.2399 16.7894C82.7022 17.805 81.4981 19.2122 80.6276 21.0111C79.7572 22.81 79.322 24.899 79.322 27.2782C79.322 29.5994 79.7572 31.6739 80.6276 33.5018C81.5271 35.3007 82.7312 36.7225 84.2399 37.767ZM94.1194 32.0221C93.4521 32.4283 92.6542 32.6314 91.7257 32.6314C90.7972 32.6314 89.9993 32.4283 89.332 32.0221C88.6937 31.5869 88.2004 30.9631 87.8523 30.1507C87.5041 29.3383 87.33 28.3808 87.33 27.2782C87.33 26.1466 87.5041 25.1747 87.8523 24.3622C88.2004 23.5498 88.6937 22.9405 89.332 22.5343C89.9993 22.0991 90.7972 21.8815 91.7257 21.8815C92.6542 21.8815 93.4521 22.0991 94.1194 22.5343C94.7867 22.9405 95.2945 23.5498 95.6427 24.3622C96.0199 25.1747 96.2085 26.1466 96.2085 27.2782C96.2085 28.3808 96.0199 29.3383 95.6427 30.1507C95.2945 30.9631 94.7867 31.5869 94.1194 32.0221ZM115.005 48.0382C116.978 48.6184 118.966 48.9086 120.968 48.9086C122.97 48.9086 124.754 48.633 126.321 48.0817C127.917 47.5594 129.266 46.776 130.369 45.7315C131.5 44.687 132.356 43.4103 132.937 41.9016C133.517 40.4218 133.807 38.71 133.807 36.766V15.7014H126.234L126.068 17.8921C125.905 17.7218 125.728 17.5574 125.538 17.3987C125.016 16.9345 124.406 16.5428 123.71 16.2237C123.043 15.9045 122.317 15.6579 121.534 15.4838C120.75 15.3097 119.923 15.2227 119.053 15.2227C117.022 15.2227 115.223 15.7304 113.656 16.7459C112.09 17.7614 110.842 19.1686 109.913 20.9675C109.014 22.7374 108.564 24.7975 108.564 27.1476C108.564 29.4108 109.028 31.3838 109.957 33.0666C110.885 34.7495 112.148 36.0696 113.743 37.0271C115.339 37.9556 117.182 38.4198 119.271 38.4198C120.547 38.4198 121.766 38.2022 122.926 37.767C124.008 37.3448 124.922 36.8025 125.668 36.1403V36.766C125.668 38.0426 125.451 39.0872 125.016 39.8996C124.609 40.712 123.956 41.3068 123.057 41.684C122.187 42.0902 121.055 42.2933 119.662 42.2933C118.792 42.2933 117.965 42.2207 117.182 42.0757C116.398 41.9306 115.644 41.6985 114.918 41.3793C114.222 41.0892 113.555 40.741 112.916 40.3348L110.175 45.8621C111.422 46.7615 113.033 47.4869 115.005 48.0382ZM123.71 31.848C123.014 32.2832 122.172 32.5008 121.186 32.5008C120.199 32.5008 119.358 32.2832 118.661 31.848C117.965 31.4128 117.428 30.8035 117.051 30.0201C116.703 29.2367 116.529 28.2937 116.529 27.1912C116.529 26.0886 116.703 25.1456 117.051 24.3622C117.428 23.5498 117.965 22.9405 118.661 22.5343C119.358 22.0991 120.199 21.8815 121.186 21.8815C122.172 21.8815 123.014 22.0991 123.71 22.5343C124.406 22.9405 124.943 23.5498 125.32 24.3622C125.697 25.1456 125.886 26.0886 125.886 27.1912C125.886 28.2937 125.697 29.2367 125.32 30.0201C124.943 30.8035 124.406 31.4128 123.71 31.848ZM139.975 15.7014V38.8986H148.071V15.7014H139.975ZM140.585 10.3047C141.397 10.972 142.543 11.3057 144.023 11.3057C145.445 11.3057 146.576 10.943 147.418 10.2176C148.259 9.49227 148.68 8.5493 148.68 7.38871C148.68 6.11207 148.259 5.14009 147.418 4.47275C146.605 3.7764 145.474 3.42822 144.023 3.42822C142.572 3.42822 141.426 3.80541 140.585 4.55979C139.772 5.28516 139.366 6.22813 139.366 7.38871C139.366 8.63634 139.772 9.60833 140.585 10.3047ZM3 10.4037C3 6.96989 5.78363 4.18626 9.21741 4.18626H45.9741C49.4079 4.18626 52.1915 6.9699 52.1915 10.4037V45.7826C52.1915 49.2164 49.4079 52 45.9741 52H9.21741C5.78363 52 3 49.2164 3 45.7826V10.4037ZM26.8959 43.1589C24.7198 43.1589 22.7758 42.9123 21.0639 42.419C19.3811 41.9258 17.8868 41.2149 16.5812 40.2865C15.3045 39.358 14.1585 38.27 13.143 37.0223L18.1915 31.321C19.6422 33.2069 21.1365 34.469 22.6742 35.1074C24.212 35.7167 25.7063 36.0213 27.157 36.0213C27.7953 36.0213 28.3756 35.9633 28.8979 35.8472C29.4201 35.7022 29.8118 35.4846 30.073 35.1944C30.3631 34.8752 30.5082 34.4835 30.5082 34.0193C30.5082 33.6131 30.3921 33.2649 30.16 32.9748C29.9279 32.6846 29.6087 32.438 29.2025 32.2349C28.7963 32.0028 28.3466 31.7997 27.8534 31.6256C27.3601 31.4515 26.8669 31.321 26.3736 31.2339C25.8804 31.1179 25.4016 31.0018 24.9374 30.8857C23.2255 30.5085 21.7313 30.0298 20.4546 29.4495C19.178 28.8692 18.1045 28.1874 17.234 27.404C16.3926 26.5916 15.7543 25.6631 15.319 24.6186C14.9128 23.5741 14.7097 22.399 14.7097 21.0933C14.7097 19.6716 15.0434 18.3659 15.7107 17.1763C16.3781 15.9867 17.263 14.9712 18.3656 14.1298C19.4681 13.2594 20.7303 12.6065 22.152 12.1713C23.6027 11.7071 25.1115 11.475 26.6783 11.475C28.8253 11.475 30.6533 11.6926 32.162 12.1278C33.6708 12.534 34.9329 13.1288 35.9484 13.9122C36.9929 14.6956 37.8924 15.6096 38.6468 16.6541L33.5112 21.6156C32.9019 20.9482 32.2346 20.397 31.5092 19.9617C30.8128 19.5265 30.0875 19.2074 29.3331 19.0043C28.5787 18.7721 27.8098 18.6561 27.0264 18.6561C26.3011 18.6561 25.6628 18.7286 25.1115 18.8737C24.5892 19.0188 24.183 19.2364 23.8929 19.5265C23.6027 19.7877 23.4576 20.1503 23.4576 20.6146C23.4576 21.0208 23.6172 21.3835 23.9364 21.7026C24.2555 21.9928 24.6617 22.2394 25.155 22.4425C25.6482 22.6456 26.1705 22.8197 26.7218 22.9648C27.3021 23.0808 27.8243 23.1824 28.2886 23.2694C29.8844 23.5886 31.3351 24.0093 32.6408 24.5315C33.9754 25.0248 35.136 25.6631 36.1225 26.4465C37.109 27.2009 37.8634 28.1294 38.3856 29.2319C38.9079 30.3345 39.169 31.6256 39.169 33.1054C39.169 35.2814 38.6178 37.1239 37.5152 38.6326C36.4417 40.1124 34.9764 41.2439 33.1195 42.0273C31.2916 42.7817 29.217 43.1589 26.8959 43.1589Z"/>
</mask>
<path fill-rule="evenodd" clip-rule="evenodd" d="M60.7402 38.2022C62.5681 38.9566 64.6861 39.3338 67.0944 39.3338C69.0674 39.3338 70.8227 39.0001 72.3605 38.3328C73.8983 37.6364 75.1024 36.6935 75.9728 35.5039C76.8723 34.2852 77.322 32.907 77.322 31.3693C77.322 30.6439 77.2059 29.9911 76.9738 29.4108C76.7417 28.8015 76.408 28.2502 75.9728 27.757C75.3635 27.1186 74.5656 26.5528 73.5791 26.0596C72.5926 25.5664 71.432 25.1311 70.0974 24.7539C68.9078 24.4348 67.9938 24.1737 67.3555 23.9706C66.7462 23.7384 66.311 23.5498 66.0498 23.4048C65.7307 23.2597 65.4986 23.0711 65.3535 22.839C65.2084 22.6069 65.1359 22.3602 65.1359 22.0991C65.1359 21.896 65.1794 21.7074 65.2664 21.5333C65.3535 21.3592 65.484 21.2142 65.6581 21.0981C65.8322 20.982 66.0498 20.895 66.311 20.837C66.5721 20.7789 66.8913 20.7499 67.2684 20.7499C67.8778 20.7499 68.5306 20.8805 69.2269 21.1416C69.9233 21.3737 70.5906 21.6784 71.2289 22.0556C71.8963 22.4328 72.4766 22.839 72.9698 23.2742L77.1479 18.6609C76.3065 17.9355 75.349 17.3262 74.2755 16.833C73.2309 16.3107 72.0994 15.919 70.8808 15.6579C69.6912 15.3677 68.4145 15.2227 67.0508 15.2227C65.8322 15.2227 64.6426 15.3967 63.482 15.7449C62.3215 16.0641 61.2769 16.5573 60.3485 17.2247C59.42 17.863 58.6946 18.6319 58.1724 19.5313C57.6501 20.4308 57.389 21.4608 57.389 22.6214C57.389 23.5789 57.5631 24.4638 57.9112 25.2762C58.2884 26.0596 58.7962 26.756 59.4345 27.3653C60.1018 27.9746 60.9142 28.5113 61.8717 28.9756C62.8292 29.4108 63.9173 29.788 65.1359 30.1071C66.1224 30.3393 66.9058 30.5569 67.4861 30.76C68.0954 30.9341 68.5306 31.0791 68.7917 31.1952C69.285 31.4563 69.5316 31.8335 69.5316 32.3268C69.5316 32.5299 69.4736 32.7185 69.3575 32.8925C69.2705 33.0376 69.1399 33.1827 68.9658 33.3278C68.8207 33.4438 68.6176 33.5309 68.3565 33.5889C68.0954 33.6469 67.8052 33.6759 67.4861 33.6759C66.5866 33.6759 65.5421 33.4728 64.3525 33.0666C63.1919 32.6604 62.1474 32.0366 61.2189 31.1952L56.475 35.2862C57.4905 36.4758 58.9122 37.4478 60.7402 38.2022ZM84.2399 37.767C85.7777 38.7825 87.5041 39.2903 89.419 39.2903C90.4926 39.2903 91.4646 39.1452 92.335 38.855C93.2345 38.5359 94.0469 38.1152 94.7722 37.5929C95.2233 37.2501 95.6295 36.8736 95.9908 36.4634V38.8986H104.129V15.7014H96.1649V18.2231C95.7748 17.7511 95.3396 17.3168 94.8593 16.92C94.1919 16.3687 93.4085 15.948 92.5091 15.6579C91.6096 15.3677 90.6231 15.2227 89.5496 15.2227C87.5476 15.2227 85.7777 15.7449 84.2399 16.7894C82.7022 17.805 81.4981 19.2122 80.6276 21.0111C79.7572 22.81 79.322 24.899 79.322 27.2782C79.322 29.5994 79.7572 31.6739 80.6276 33.5018C81.5271 35.3007 82.7312 36.7225 84.2399 37.767ZM94.1194 32.0221C93.4521 32.4283 92.6542 32.6314 91.7257 32.6314C90.7972 32.6314 89.9993 32.4283 89.332 32.0221C88.6937 31.5869 88.2004 30.9631 87.8523 30.1507C87.5041 29.3383 87.33 28.3808 87.33 27.2782C87.33 26.1466 87.5041 25.1747 87.8523 24.3622C88.2004 23.5498 88.6937 22.9405 89.332 22.5343C89.9993 22.0991 90.7972 21.8815 91.7257 21.8815C92.6542 21.8815 93.4521 22.0991 94.1194 22.5343C94.7867 22.9405 95.2945 23.5498 95.6427 24.3622C96.0199 25.1747 96.2085 26.1466 96.2085 27.2782C96.2085 28.3808 96.0199 29.3383 95.6427 30.1507C95.2945 30.9631 94.7867 31.5869 94.1194 32.0221ZM115.005 48.0382C116.978 48.6184 118.966 48.9086 120.968 48.9086C122.97 48.9086 124.754 48.633 126.321 48.0817C127.917 47.5594 129.266 46.776 130.369 45.7315C131.5 44.687 132.356 43.4103 132.937 41.9016C133.517 40.4218 133.807 38.71 133.807 36.766V15.7014H126.234L126.068 17.8921C125.905 17.7218 125.728 17.5574 125.538 17.3987C125.016 16.9345 124.406 16.5428 123.71 16.2237C123.043 15.9045 122.317 15.6579 121.534 15.4838C120.75 15.3097 119.923 15.2227 119.053 15.2227C117.022 15.2227 115.223 15.7304 113.656 16.7459C112.09 17.7614 110.842 19.1686 109.913 20.9675C109.014 22.7374 108.564 24.7975 108.564 27.1476C108.564 29.4108 109.028 31.3838 109.957 33.0666C110.885 34.7495 112.148 36.0696 113.743 37.0271C115.339 37.9556 117.182 38.4198 119.271 38.4198C120.547 38.4198 121.766 38.2022 122.926 37.767C124.008 37.3448 124.922 36.8025 125.668 36.1403V36.766C125.668 38.0426 125.451 39.0872 125.016 39.8996C124.609 40.712 123.956 41.3068 123.057 41.684C122.187 42.0902 121.055 42.2933 119.662 42.2933C118.792 42.2933 117.965 42.2207 117.182 42.0757C116.398 41.9306 115.644 41.6985 114.918 41.3793C114.222 41.0892 113.555 40.741 112.916 40.3348L110.175 45.8621C111.422 46.7615 113.033 47.4869 115.005 48.0382ZM123.71 31.848C123.014 32.2832 122.172 32.5008 121.186 32.5008C120.199 32.5008 119.358 32.2832 118.661 31.848C117.965 31.4128 117.428 30.8035 117.051 30.0201C116.703 29.2367 116.529 28.2937 116.529 27.1912C116.529 26.0886 116.703 25.1456 117.051 24.3622C117.428 23.5498 117.965 22.9405 118.661 22.5343C119.358 22.0991 120.199 21.8815 121.186 21.8815C122.172 21.8815 123.014 22.0991 123.71 22.5343C124.406 22.9405 124.943 23.5498 125.32 24.3622C125.697 25.1456 125.886 26.0886 125.886 27.1912C125.886 28.2937 125.697 29.2367 125.32 30.0201C124.943 30.8035 124.406 31.4128 123.71 31.848ZM139.975 15.7014V38.8986H148.071V15.7014H139.975ZM140.585 10.3047C141.397 10.972 142.543 11.3057 144.023 11.3057C145.445 11.3057 146.576 10.943 147.418 10.2176C148.259 9.49227 148.68 8.5493 148.68 7.38871C148.68 6.11207 148.259 5.14009 147.418 4.47275C146.605 3.7764 145.474 3.42822 144.023 3.42822C142.572 3.42822 141.426 3.80541 140.585 4.55979C139.772 5.28516 139.366 6.22813 139.366 7.38871C139.366 8.63634 139.772 9.60833 140.585 10.3047ZM3 10.4037C3 6.96989 5.78363 4.18626 9.21741 4.18626H45.9741C49.4079 4.18626 52.1915 6.9699 52.1915 10.4037V45.7826C52.1915 49.2164 49.4079 52 45.9741 52H9.21741C5.78363 52 3 49.2164 3 45.7826V10.4037ZM26.8959 43.1589C24.7198 43.1589 22.7758 42.9123 21.0639 42.419C19.3811 41.9258 17.8868 41.2149 16.5812 40.2865C15.3045 39.358 14.1585 38.27 13.143 37.0223L18.1915 31.321C19.6422 33.2069 21.1365 34.469 22.6742 35.1074C24.212 35.7167 25.7063 36.0213 27.157 36.0213C27.7953 36.0213 28.3756 35.9633 28.8979 35.8472C29.4201 35.7022 29.8118 35.4846 30.073 35.1944C30.3631 34.8752 30.5082 34.4835 30.5082 34.0193C30.5082 33.6131 30.3921 33.2649 30.16 32.9748C29.9279 32.6846 29.6087 32.438 29.2025 32.2349C28.7963 32.0028 28.3466 31.7997 27.8534 31.6256C27.3601 31.4515 26.8669 31.321 26.3736 31.2339C25.8804 31.1179 25.4016 31.0018 24.9374 30.8857C23.2255 30.5085 21.7313 30.0298 20.4546 29.4495C19.178 28.8692 18.1045 28.1874 17.234 27.404C16.3926 26.5916 15.7543 25.6631 15.319 24.6186C14.9128 23.5741 14.7097 22.399 14.7097 21.0933C14.7097 19.6716 15.0434 18.3659 15.7107 17.1763C16.3781 15.9867 17.263 14.9712 18.3656 14.1298C19.4681 13.2594 20.7303 12.6065 22.152 12.1713C23.6027 11.7071 25.1115 11.475 26.6783 11.475C28.8253 11.475 30.6533 11.6926 32.162 12.1278C33.6708 12.534 34.9329 13.1288 35.9484 13.9122C36.9929 14.6956 37.8924 15.6096 38.6468 16.6541L33.5112 21.6156C32.9019 20.9482 32.2346 20.397 31.5092 19.9617C30.8128 19.5265 30.0875 19.2074 29.3331 19.0043C28.5787 18.7721 27.8098 18.6561 27.0264 18.6561C26.3011 18.6561 25.6628 18.7286 25.1115 18.8737C24.5892 19.0188 24.183 19.2364 23.8929 19.5265C23.6027 19.7877 23.4576 20.1503 23.4576 20.6146C23.4576 21.0208 23.6172 21.3835 23.9364 21.7026C24.2555 21.9928 24.6617 22.2394 25.155 22.4425C25.6482 22.6456 26.1705 22.8197 26.7218 22.9648C27.3021 23.0808 27.8243 23.1824 28.2886 23.2694C29.8844 23.5886 31.3351 24.0093 32.6408 24.5315C33.9754 25.0248 35.136 25.6631 36.1225 26.4465C37.109 27.2009 37.8634 28.1294 38.3856 29.2319C38.9079 30.3345 39.169 31.6256 39.169 33.1054C39.169 35.2814 38.6178 37.1239 37.5152 38.6326C36.4417 40.1124 34.9764 41.2439 33.1195 42.0273C31.2916 42.7817 29.217 43.1589 26.8959 43.1589Z" fill="#2CB1BC"/>
<path d="M72.3605 38.3328L73.3505 40.6142L73.3685 40.6064L73.3864 40.5983L72.3605 38.3328ZM75.9728 35.5039L73.9719 34.0269L73.9658 34.0353L75.9728 35.5039ZM76.9738 29.4108L74.6498 30.2961L74.6571 30.3153L74.6647 30.3344L76.9738 29.4108ZM75.9728 27.757L77.8376 26.1115L77.8054 26.075L77.7718 26.0398L75.9728 27.757ZM73.5791 26.0596L74.6913 23.8352L74.6913 23.8352L73.5791 26.0596ZM70.0974 24.7539L70.7737 22.3607L70.7578 22.3562L70.7418 22.3519L70.0974 24.7539ZM67.3555 23.9706L66.4701 26.2946L66.5351 26.3194L66.6014 26.3404L67.3555 23.9706ZM66.0498 23.4048L67.2576 21.2308L67.1701 21.1822L67.079 21.1407L66.0498 23.4048ZM65.3535 22.839L67.4624 21.5209L67.4624 21.5209L65.3535 22.839ZM65.2664 21.5333L63.042 20.4211L63.042 20.4211L65.2664 21.5333ZM65.6581 21.0981L67.0376 23.1674L67.0377 23.1674L65.6581 21.0981ZM69.2269 21.1416L68.3537 23.4702L68.3968 23.4864L68.4405 23.501L69.2269 21.1416ZM71.2289 22.0556L69.9637 24.1967L69.9844 24.2089L70.0052 24.2206L71.2289 22.0556ZM72.9698 23.2742L71.3244 25.139L73.1652 26.7633L74.8132 24.9436L72.9698 23.2742ZM77.1479 18.6609L78.9913 20.3303L80.7021 18.4413L78.7718 16.7772L77.1479 18.6609ZM74.2755 16.833L73.1633 19.0574L73.1999 19.0757L73.2372 19.0928L74.2755 16.833ZM70.8808 15.6579L70.2915 18.074L70.3255 18.0823L70.3597 18.0896L70.8808 15.6579ZM63.482 15.7449L64.1415 18.1429L64.1692 18.1352L64.1967 18.127L63.482 15.7449ZM60.3485 17.2247L61.7574 19.274L61.7788 19.2593L61.7999 19.2441L60.3485 17.2247ZM58.1724 19.5313L60.3231 20.7801V20.7801L58.1724 19.5313ZM57.9112 25.2762L55.6254 26.2559L55.6468 26.306L55.6705 26.3551L57.9112 25.2762ZM59.4345 27.3653L57.7173 29.1642L57.7373 29.1833L57.7576 29.2018L59.4345 27.3653ZM61.8717 28.9756L60.7867 31.2134L60.8145 31.2268L60.8426 31.2396L61.8717 28.9756ZM65.1359 30.1071L64.5058 32.513L64.5359 32.5209L64.5663 32.528L65.1359 30.1071ZM67.4861 30.76L66.6645 33.1073L66.733 33.1313L66.8028 33.1512L67.4861 30.76ZM68.7917 31.1952L69.9553 28.9972L69.8798 28.9573L69.8018 28.9226L68.7917 31.1952ZM69.3575 32.8925L67.2882 31.513L67.2554 31.5623L67.2249 31.613L69.3575 32.8925ZM68.9658 33.3278L70.5194 35.2698L70.5388 35.2542L70.5579 35.2383L68.9658 33.3278ZM64.3525 33.0666L63.5309 35.414L63.5399 35.4171L63.5488 35.4202L64.3525 33.0666ZM61.2189 31.1952L62.8889 29.3524L61.2598 27.8759L59.5947 29.3118L61.2189 31.1952ZM56.475 35.2862L54.8508 33.4029L52.9769 35.0189L54.5835 36.9009L56.475 35.2862ZM84.2399 37.767L82.8243 39.8118L82.8467 39.8273L82.8695 39.8423L84.2399 37.767ZM92.335 38.855L93.1215 41.2144L93.1441 41.2068L93.1667 41.1988L92.335 38.855ZM94.7722 37.5929L96.2254 39.6112L96.2515 39.5924L96.2771 39.5729L94.7722 37.5929ZM95.9908 36.4634H98.4778V29.8781L94.1247 34.8195L95.9908 36.4634ZM95.9908 38.8986H93.5039V41.3855H95.9908V38.8986ZM104.129 38.8986V41.3855H106.616V38.8986H104.129ZM104.129 15.7014H106.616V13.2144H104.129V15.7014ZM96.1649 15.7014V13.2144H93.678V15.7014H96.1649ZM96.1649 18.2231L94.2481 19.8076L98.6519 25.1348V18.2231H96.1649ZM94.8593 16.92L93.2754 18.8374L93.2754 18.8374L94.8593 16.92ZM84.2399 16.7894L85.6104 18.8647L85.6239 18.8558L85.6373 18.8467L84.2399 16.7894ZM80.6276 21.0111L82.8663 22.0943L80.6276 21.0111ZM80.6276 33.5018L78.3822 34.5711L78.3925 34.5927L78.4032 34.614L80.6276 33.5018ZM94.1194 32.0221L95.4125 34.1465L95.4455 34.1263L95.478 34.1052L94.1194 32.0221ZM89.332 32.0221L87.931 34.0769L87.9841 34.1131L88.0389 34.1465L89.332 32.0221ZM89.332 22.5343L90.6672 24.6325L90.6789 24.625L90.6906 24.6174L89.332 22.5343ZM94.1194 22.5343L92.7609 24.6174L92.7933 24.6386L92.8263 24.6587L94.1194 22.5343ZM95.6427 24.3622L93.3568 25.3419L93.3714 25.3759L93.387 25.4095L95.6427 24.3622ZM95.6427 30.1507L93.387 29.1034L93.3714 29.137L93.3568 29.171L95.6427 30.1507ZM115.005 48.0382L115.707 45.6522L115.691 45.6475L115.675 45.6429L115.005 48.0382ZM126.321 48.0817L125.548 45.7181L125.522 45.7266L125.496 45.7357L126.321 48.0817ZM130.369 45.7315L128.682 43.9041L128.67 43.915L128.658 43.9261L130.369 45.7315ZM132.937 41.9016L130.621 40.9936L130.618 41.0012L130.615 41.0088L132.937 41.9016ZM133.807 15.7014H136.294V13.2144H133.807V15.7014ZM126.234 15.7014V13.2144H123.928L123.754 15.5138L126.234 15.7014ZM126.068 17.8921L124.274 19.6143L128.129 23.6297L128.548 18.0796L126.068 17.8921ZM125.538 17.3987L123.886 19.2575L123.915 19.2839L123.946 19.3093L125.538 17.3987ZM123.71 16.2237L122.637 18.4672L122.655 18.476L122.674 18.4845L123.71 16.2237ZM121.534 15.4838L122.073 13.056L122.073 13.056L121.534 15.4838ZM113.656 16.7459L115.009 18.8329L115.009 18.8329L113.656 16.7459ZM109.913 20.9675L107.703 19.8269L107.7 19.8339L107.696 19.8408L109.913 20.9675ZM113.743 37.0271L112.464 39.1597L112.478 39.1683L112.493 39.1767L113.743 37.0271ZM122.926 37.767L123.8 40.0956L123.815 40.0898L123.831 40.0838L122.926 37.767ZM125.668 36.1403H128.155V30.6066L124.017 34.2805L125.668 36.1403ZM125.016 39.8996L122.823 38.7252L122.807 38.756L122.791 38.7874L125.016 39.8996ZM123.057 41.684L122.095 39.3905L122.05 39.4095L122.005 39.4303L123.057 41.684ZM114.918 41.3793L115.92 39.103L115.898 39.0931L115.875 39.0836L114.918 41.3793ZM112.916 40.3348L114.252 38.2366L111.918 36.7515L110.689 39.2296L112.916 40.3348ZM110.175 45.8621L107.947 44.7569L107.009 46.6461L108.72 47.8794L110.175 45.8621ZM118.661 31.848L117.343 33.9569L117.343 33.957L118.661 31.848ZM117.051 30.0201L114.778 31.0301L114.794 31.0648L114.81 31.099L117.051 30.0201ZM117.051 24.3622L114.795 23.315L114.787 23.3335L114.778 23.3522L117.051 24.3622ZM118.661 22.5343L119.914 24.6825L119.947 24.6634L119.979 24.6433L118.661 22.5343ZM123.71 22.5343L122.392 24.6433L122.424 24.6634L122.457 24.6825L123.71 22.5343ZM125.32 24.3622L123.064 25.4095L123.072 25.4254L123.079 25.4411L125.32 24.3622ZM139.975 38.8986H137.489V41.3855H139.975V38.8986ZM139.975 15.7014V13.2144H137.489V15.7014H139.975ZM148.071 38.8986V41.3855H150.558V38.8986H148.071ZM148.071 15.7014H150.558V13.2144H148.071V15.7014ZM140.585 10.3047L138.966 12.1929L138.986 12.2099L139.006 12.2264L140.585 10.3047ZM147.418 10.2176L149.042 12.1013L149.042 12.1013L147.418 10.2176ZM147.418 4.47275L145.799 6.36099L145.835 6.39183L145.872 6.42127L147.418 4.47275ZM140.585 4.55979L142.241 6.41492L142.245 6.41152L140.585 4.55979ZM21.0639 42.419L20.3644 44.8056L20.3754 44.8088L21.0639 42.419ZM16.5812 40.2865L15.1184 42.2978L15.1291 42.3056L15.1399 42.3132L16.5812 40.2865ZM13.143 37.0223L11.281 35.3736L9.88113 36.9545L11.2142 38.5923L13.143 37.0223ZM18.1915 31.321L20.1627 29.8046L18.3263 27.4173L16.3296 29.6722L18.1915 31.321ZM22.6742 35.1074L21.7208 37.4043L21.7394 37.412L21.7581 37.4194L22.6742 35.1074ZM28.8979 35.8472L29.4374 38.275L29.5009 38.2609L29.5635 38.2435L28.8979 35.8472ZM30.073 35.1944L28.2327 33.5215L28.2244 33.5307L30.073 35.1944ZM30.16 32.9748L32.102 31.4212L32.102 31.4212L30.16 32.9748ZM29.2025 32.2349L27.9687 34.3942L28.0286 34.4285L28.0903 34.4593L29.2025 32.2349ZM27.8534 31.6256L28.6811 29.2804L28.6811 29.2804L27.8534 31.6256ZM26.3736 31.2339L25.804 33.6548L25.8723 33.6708L25.9414 33.683L26.3736 31.2339ZM24.9374 30.8857L25.5406 28.473L25.5067 28.4646L25.4725 28.457L24.9374 30.8857ZM17.234 27.404L15.5066 29.1931L15.5379 29.2234L15.5703 29.2525L17.234 27.404ZM15.319 24.6186L13.0012 25.52L13.012 25.5477L13.0234 25.5751L15.319 24.6186ZM18.3656 14.1298L19.8744 16.1068L19.8906 16.0944L19.9066 16.0818L18.3656 14.1298ZM22.152 12.1713L22.88 14.5494L22.895 14.5448L22.91 14.54L22.152 12.1713ZM32.162 12.1278L31.4727 14.5173L31.494 14.5235L31.5155 14.5293L32.162 12.1278ZM35.9484 13.9122L34.4294 15.8813L34.4427 15.8916L34.4562 15.9018L35.9484 13.9122ZM38.6468 16.6541L40.3748 18.4427L41.9248 16.9452L40.6629 15.198L38.6468 16.6541ZM33.5112 21.6156L31.6746 23.2925L33.3994 25.1816L35.2392 23.4042L33.5112 21.6156ZM31.5092 19.9617L30.1911 22.0707L30.2103 22.0827L30.2297 22.0943L31.5092 19.9617ZM29.3331 19.0043L28.6017 21.3813L28.6439 21.3942L28.6866 21.4057L29.3331 19.0043ZM25.1115 18.8737L24.4786 16.4686L24.4622 16.4729L24.4459 16.4775L25.1115 18.8737ZM23.8929 19.5265L25.5566 21.3751L25.6052 21.3313L25.6514 21.2851L23.8929 19.5265ZM23.9364 21.7026L22.1778 23.4612L22.2197 23.503L22.2635 23.5428L23.9364 21.7026ZM25.155 22.4425L26.1019 20.1429L26.1019 20.1429L25.155 22.4425ZM26.7218 22.9648L26.0889 25.3698L26.161 25.3888L26.234 25.4034L26.7218 22.9648ZM28.2886 23.2694L28.7763 20.8307L28.7616 20.8278L28.7469 20.825L28.2886 23.2694ZM32.6408 24.5315L31.7171 26.8406L31.7477 26.8529L31.7787 26.8643L32.6408 24.5315ZM36.1225 26.4465L34.5759 28.3941L34.5937 28.4082L34.6118 28.422L36.1225 26.4465ZM37.5152 38.6326L35.5072 37.1653L35.5022 37.1722L37.5152 38.6326ZM33.1195 42.0273L34.0682 44.3262L34.0772 44.3225L34.0862 44.3187L33.1195 42.0273ZM67.0944 36.8468C64.9426 36.8468 63.1581 36.5097 61.6889 35.9033L59.7914 40.5011C61.9781 41.4035 64.4297 41.8207 67.0944 41.8207V36.8468ZM71.3705 36.0514C70.1954 36.5613 68.7862 36.8468 67.0944 36.8468V41.8207C69.3485 41.8207 71.45 41.4389 73.3505 40.6142L71.3705 36.0514ZM73.9658 34.0353C73.3831 34.8316 72.5396 35.5216 71.3346 36.0673L73.3864 40.5983C75.257 39.7512 76.8217 38.5553 77.9799 36.9724L73.9658 34.0353ZM74.835 31.3693C74.835 32.3842 74.5505 33.243 73.9719 34.027L77.9738 36.9807C79.1941 35.3274 79.809 33.4299 79.809 31.3693H74.835ZM74.6647 30.3344C74.7621 30.5777 74.835 30.9102 74.835 31.3693H79.809C79.809 30.3776 79.6498 29.4044 79.2829 28.4872L74.6647 30.3344ZM74.108 29.4024C74.3476 29.6739 74.5249 29.9682 74.6498 30.2961L79.2979 28.5254C78.9586 27.6348 78.4685 26.8265 77.8376 26.1115L74.108 29.4024ZM72.4669 28.284C73.2584 28.6798 73.805 29.0877 74.1739 29.4741L77.7718 26.0398C76.922 25.1496 75.8728 24.4259 74.6913 23.8352L72.4669 28.284ZM69.421 27.1472C70.6419 27.4922 71.6503 27.8757 72.4669 28.284L74.6913 23.8352C73.5349 23.257 72.2222 22.7701 70.7737 22.3607L69.421 27.1472ZM66.6014 26.3404C67.2943 26.5609 68.2515 26.8336 69.4529 27.156L70.7418 22.3519C69.564 22.0359 68.6933 21.7864 68.1096 21.6007L66.6014 26.3404ZM64.8421 25.5788C65.27 25.8165 65.848 26.0576 66.4701 26.2946L68.2408 21.6465C67.6443 21.4193 67.352 21.2832 67.2576 21.2308L64.8421 25.5788ZM63.2445 24.1571C63.7126 24.906 64.3806 25.3778 65.0207 25.6688L67.079 21.1407C67.0808 21.1415 67.2845 21.2362 67.4624 21.5209L63.2445 24.1571ZM62.6489 22.0991C62.6489 22.8494 62.8649 23.5497 63.2445 24.1571L67.4624 21.5209C67.5021 21.5843 67.5446 21.6708 67.5762 21.7782C67.608 21.8864 67.6228 21.9959 67.6228 22.0991H62.6489ZM63.042 20.4211C62.7747 20.9557 62.6489 21.5272 62.6489 22.0991H67.6228C67.6228 22.2648 67.584 22.4591 67.4909 22.6455L63.042 20.4211ZM64.2786 19.0288C63.7723 19.3664 63.3371 19.831 63.042 20.4211L67.4908 22.6455C67.3699 22.8875 67.1958 23.062 67.0376 23.1674L64.2786 19.0288ZM65.7715 18.4092C65.2903 18.5161 64.7683 18.7024 64.2786 19.0288L67.0377 23.1674C66.8961 23.2617 66.8093 23.2739 66.8505 23.2647L65.7715 18.4092ZM67.2684 18.263C66.7774 18.263 66.2654 18.2995 65.7715 18.4092L66.8505 23.2647C66.8788 23.2584 67.0051 23.2369 67.2684 23.2369V18.263ZM70.1002 18.813C69.1842 18.4695 68.2337 18.263 67.2684 18.263V23.2369C67.5219 23.2369 67.8769 23.2915 68.3537 23.4702L70.1002 18.813ZM72.4941 19.9145C71.7059 19.4487 70.8783 19.0706 70.0134 18.7823L68.4405 23.501C68.9683 23.6769 69.4753 23.9081 69.9637 24.1967L72.4941 19.9145ZM74.6152 21.4094C73.973 20.8427 73.2466 20.3393 72.4527 19.8905L70.0052 24.2206C70.546 24.5263 70.9801 24.8352 71.3244 25.139L74.6152 21.4094ZM75.3046 16.9914L71.1265 21.6048L74.8132 24.9436L78.9913 20.3303L75.3046 16.9914ZM73.2372 19.0928C74.1123 19.4949 74.8701 19.9808 75.5241 20.5445L78.7718 16.7772C77.7429 15.8903 76.5857 15.1575 75.3138 14.5731L73.2372 19.0928ZM70.3597 18.0896C71.387 18.3098 72.3184 18.6349 73.1633 19.0574L75.3877 14.6086C74.1435 13.9865 72.8118 13.5282 71.4018 13.2261L70.3597 18.0896ZM67.0508 17.7096C68.2381 17.7096 69.3152 17.8359 70.2915 18.074L71.4701 13.2417C70.0671 12.8996 68.5909 12.7357 67.0508 12.7357V17.7096ZM64.1967 18.127C65.1241 17.8488 66.0729 17.7096 67.0508 17.7096V12.7357C65.5916 12.7357 64.1612 12.9447 62.7674 13.3628L64.1967 18.127ZM61.7999 19.2441C62.4765 18.7578 63.2501 18.388 64.1415 18.1429L62.8226 13.347C61.3928 13.7402 60.0774 14.3568 58.897 15.2052L61.7999 19.2441ZM60.3231 20.7801C60.6454 20.225 61.1067 19.7214 61.7574 19.274L58.9395 15.1753C57.7333 16.0046 56.7439 17.0387 56.0217 18.2825L60.3231 20.7801ZM59.8759 22.6214C59.8759 21.8474 60.0458 21.2577 60.3231 20.7801L56.0217 18.2825C55.2544 19.6039 54.902 21.0742 54.902 22.6214H59.8759ZM60.1971 24.2965C59.9923 23.8187 59.8759 23.2704 59.8759 22.6214H54.902C54.902 23.8873 55.1338 25.1089 55.6254 26.2559L60.1971 24.2965ZM61.1517 25.5663C60.7265 25.1604 60.3974 24.7071 60.152 24.1973L55.6705 26.3551C56.1794 27.4121 56.8659 28.3515 57.7173 29.1642L61.1517 25.5663ZM62.9567 26.7378C62.1777 26.36 61.5737 25.9508 61.1114 25.5287L57.7576 29.2018C58.63 29.9984 59.6508 30.6626 60.7867 31.2134L62.9567 26.7378ZM65.766 27.7013C64.6583 27.4112 63.7074 27.0781 62.9008 26.7115L60.8426 31.2396C61.9511 31.7435 63.1762 32.1647 64.5058 32.513L65.766 27.7013ZM68.3076 28.4126C67.6091 28.1681 66.7303 27.9274 65.7055 27.6863L64.5663 32.528C65.5145 32.7511 66.2024 32.9456 66.6645 33.1073L68.3076 28.4126ZM69.8018 28.9226C69.3693 28.7304 68.7894 28.5459 68.1693 28.3687L66.8028 33.1512C67.4013 33.3222 67.6919 33.4279 67.7817 33.4678L69.8018 28.9226ZM72.0185 32.3268C72.0185 31.6442 71.8409 30.9442 71.4281 30.3129C71.0258 29.6977 70.4863 29.2783 69.9553 28.9972L67.6281 33.3931C67.5904 33.3732 67.4208 33.273 67.2651 33.0349C67.099 32.7809 67.0446 32.516 67.0446 32.3268H72.0185ZM71.4268 34.2721C71.8065 33.7025 72.0185 33.0363 72.0185 32.3268H67.0446C67.0446 32.0234 67.1406 31.7344 67.2882 31.513L71.4268 34.2721ZM70.5579 35.2383C70.8781 34.9714 71.2201 34.622 71.4901 34.1721L67.2249 31.613C67.2749 31.5297 67.3202 31.4749 67.3458 31.4464C67.3714 31.418 67.3836 31.4089 67.3737 31.4172L70.5579 35.2383ZM68.896 36.0166C69.3764 35.9099 69.9767 35.7039 70.5194 35.2698L67.4122 31.3858C67.544 31.2804 67.6583 31.2228 67.725 31.1942C67.7914 31.1658 67.827 31.1589 67.817 31.1611L68.896 36.0166ZM67.4861 36.1629C67.953 36.1629 68.4276 36.1207 68.896 36.0166L67.817 31.1611C67.7631 31.1731 67.6574 31.189 67.4861 31.189V36.1629ZM63.5488 35.4202C64.9024 35.8823 66.2284 36.1629 67.4861 36.1629V31.189C66.9448 31.189 66.1818 31.0633 65.1561 30.7131L63.5488 35.4202ZM59.5489 33.038C60.7188 34.0982 62.0506 34.8958 63.5309 35.414L65.174 30.7193C64.3332 30.425 63.576 29.975 62.8889 29.3524L59.5489 33.038ZM58.0992 37.1696L62.8431 33.0785L59.5947 29.3118L54.8508 33.4029L58.0992 37.1696ZM61.6889 35.9033C60.1312 35.2605 59.0678 34.493 58.3665 33.6716L54.5835 36.9009C55.9133 38.4587 57.6933 39.6352 59.7914 40.5011L61.6889 35.9033ZM89.419 36.8033C87.9712 36.8033 86.7251 36.4278 85.6104 35.6917L82.8695 39.8423C84.8304 41.1372 87.0369 41.7772 89.419 41.7772V36.8033ZM91.5486 36.4957C90.9706 36.6883 90.2697 36.8033 89.419 36.8033V41.7772C90.7155 41.7772 91.9585 41.602 93.1215 41.2144L91.5486 36.4957ZM93.3191 35.5746C92.7969 35.9506 92.1963 36.2654 91.5033 36.5113L93.1667 41.1988C94.2726 40.8064 95.2968 40.2797 96.2254 39.6112L93.3191 35.5746ZM94.1247 34.8195C93.8763 35.1015 93.592 35.3662 93.2674 35.6129L96.2771 39.5729C96.8546 39.134 97.3827 38.6457 97.857 38.1074L94.1247 34.8195ZM98.4778 38.8986V36.4634H93.5039V38.8986H98.4778ZM104.129 36.4116H95.9908V41.3855H104.129V36.4116ZM101.642 15.7014V38.8986H106.616V15.7014H101.642ZM96.1649 18.1884H104.129V13.2144H96.1649V18.1884ZM98.6519 18.2231V15.7014H93.678V18.2231H98.6519ZM93.2754 18.8374C93.6366 19.1357 93.9599 19.459 94.2481 19.8076L98.0817 16.6385C97.5897 16.0433 97.0426 15.4978 96.4432 15.0027L93.2754 18.8374ZM91.7456 18.0247C92.3732 18.2272 92.872 18.5041 93.2754 18.8374L96.4432 15.0027C95.5119 14.2333 94.4439 13.6688 93.2726 13.291L91.7456 18.0247ZM89.5496 17.7096C90.3986 17.7096 91.1238 17.8242 91.7456 18.0247L93.2726 13.291C92.0955 12.9113 90.8477 12.7357 89.5496 12.7357V17.7096ZM85.6373 18.8467C86.7308 18.104 88.0057 17.7096 89.5496 17.7096V12.7357C87.0895 12.7357 84.8246 13.3859 82.8426 14.7322L85.6373 18.8467ZM82.8663 22.0943C83.5589 20.663 84.4773 19.613 85.6104 18.8647L82.8695 14.7142C80.927 15.9969 79.4373 17.7613 78.389 19.9278L82.8663 22.0943ZM81.8089 27.2782C81.8089 25.2034 82.1875 23.4971 82.8663 22.0943L78.389 19.9278C77.3269 22.1229 76.835 24.5946 76.835 27.2782H81.8089ZM82.873 32.4326C82.1834 30.9844 81.8089 29.2836 81.8089 27.2782H76.835C76.835 29.9151 77.331 32.3634 78.3822 34.5711L82.873 32.4326ZM85.6555 35.7222C84.5228 34.938 83.5829 33.8514 82.852 32.3896L78.4032 34.614C79.4712 36.7501 80.9396 38.5069 82.8243 39.8118L85.6555 35.7222ZM91.7257 35.1184C93.0236 35.1184 94.2876 34.8312 95.4125 34.1465L92.8263 29.8977C92.6166 30.0254 92.2848 30.1444 91.7257 30.1444V35.1184ZM88.0389 34.1465C89.1638 34.8312 90.4278 35.1184 91.7257 35.1184V30.1444C91.1666 30.1444 90.8348 30.0254 90.6251 29.8977L88.0389 34.1465ZM85.5664 31.1303C86.0736 32.3138 86.8473 33.338 87.931 34.0769L90.733 29.9673C90.54 29.8357 90.3273 29.6124 90.1381 29.171L85.5664 31.1303ZM84.843 27.2782C84.843 28.6369 85.0571 29.9419 85.5664 31.1303L90.1381 29.171C89.9511 28.7346 89.817 28.1246 89.817 27.2782H84.843ZM85.5664 23.3826C85.054 24.5782 84.843 25.9005 84.843 27.2782H89.817C89.817 26.3928 89.9542 25.7711 90.1381 25.3419L85.5664 23.3826ZM87.9968 20.4362C86.8689 21.154 86.0777 22.1896 85.5664 23.3826L90.1381 25.3419C90.3232 24.9101 90.5185 24.7271 90.6672 24.6325L87.9968 20.4362ZM91.7257 19.3945C90.3963 19.3945 89.1081 19.7112 87.9734 20.4512L90.6906 24.6174C90.8905 24.487 91.1982 24.3685 91.7257 24.3685V19.3945ZM95.478 20.4512C94.3433 19.7112 93.0551 19.3945 91.7257 19.3945V24.3685C92.2533 24.3685 92.5609 24.487 92.7609 24.6174L95.478 20.4512ZM97.9286 23.3826C97.4044 22.1597 96.5786 21.1198 95.4125 20.41L92.8263 24.6587C92.9949 24.7613 93.1846 24.94 93.3568 25.3419L97.9286 23.3826ZM98.6954 27.2782C98.6954 25.8772 98.4625 24.53 97.8984 23.315L93.387 25.4095C93.5772 25.8193 93.7215 26.4161 93.7215 27.2782H98.6954ZM97.8984 31.198C98.4589 29.9907 98.6954 28.6609 98.6954 27.2782H93.7215C93.7215 28.1006 93.5808 28.6858 93.387 29.1034L97.8984 31.198ZM95.478 34.1052C96.6009 33.3728 97.409 32.3427 97.9286 31.1303L93.3568 29.171C93.18 29.5834 92.9725 29.8009 92.7609 29.939L95.478 34.1052ZM120.968 46.4216C119.21 46.4216 117.459 46.1674 115.707 45.6522L114.304 50.4241C116.498 51.0695 118.722 51.3956 120.968 51.3956V46.4216ZM125.496 45.7357C124.242 46.1767 122.745 46.4216 120.968 46.4216V51.3956C123.195 51.3956 125.267 51.0892 127.147 50.4277L125.496 45.7357ZM128.658 43.9261C127.85 44.6918 126.831 45.2981 125.548 45.7181L127.095 50.4453C129.003 49.8208 130.682 48.8602 132.079 47.5369L128.658 43.9261ZM130.615 41.0088C130.165 42.1797 129.519 43.1312 128.682 43.9041L132.056 47.5589C133.481 46.2427 134.547 44.641 135.258 42.7943L130.615 41.0088ZM131.32 36.766C131.32 38.4665 131.066 39.8597 130.621 40.9936L135.252 42.8095C135.968 40.9839 136.294 38.9535 136.294 36.766H131.32ZM131.32 15.7014V36.766H136.294V15.7014H131.32ZM126.234 18.1884H133.807V13.2144H126.234V18.1884ZM128.548 18.0796L128.714 15.8889L123.754 15.5138L123.589 17.7045L128.548 18.0796ZM123.946 19.3093C124.069 19.4119 124.178 19.5138 124.274 19.6143L127.863 16.1699C127.632 15.9299 127.388 15.7029 127.13 15.4882L123.946 19.3093ZM122.674 18.4845C123.167 18.7107 123.564 18.972 123.886 19.2575L127.19 15.54C126.467 14.897 125.645 14.3749 124.746 13.9628L122.674 18.4845ZM120.994 17.9115C121.609 18.0481 122.154 18.2361 122.637 18.4672L124.783 13.9801C123.932 13.5729 123.025 13.2676 122.073 13.056L120.994 17.9115ZM119.053 17.7096C119.757 17.7096 120.402 17.78 120.994 17.9115L122.073 13.056C121.099 12.8394 120.09 12.7357 119.053 12.7357V17.7096ZM115.009 18.8329C116.138 18.1013 117.458 17.7096 119.053 17.7096V12.7357C116.586 12.7357 114.309 13.3595 112.304 14.659L115.009 18.8329ZM112.123 22.1082C112.871 20.6606 113.836 19.5933 115.009 18.8329L112.304 14.659C110.343 15.9296 108.813 17.6767 107.703 19.8269L112.123 22.1082ZM111.051 27.1476C111.051 25.1174 111.438 23.4564 112.131 22.0943L107.696 19.8408C106.59 22.0185 106.077 24.4775 106.077 27.1476H111.051ZM112.134 31.8652C111.442 30.6106 111.051 29.0654 111.051 27.1476H106.077C106.077 29.7562 106.615 32.1569 107.779 34.268L112.134 31.8652ZM115.023 34.8946C113.816 34.1704 112.858 33.1771 112.134 31.8652L107.779 34.268C108.913 36.3219 110.479 37.9688 112.464 39.1597L115.023 34.8946ZM119.271 35.9329C117.562 35.9329 116.162 35.5572 114.994 34.8775L112.493 39.1767C114.516 40.354 116.801 40.9068 119.271 40.9068V35.9329ZM122.053 35.4384C121.18 35.7657 120.258 35.9329 119.271 35.9329V40.9068C120.836 40.9068 122.352 40.6387 123.8 40.0956L122.053 35.4384ZM124.017 34.2805C123.524 34.7182 122.874 35.1176 122.022 35.4502L123.831 40.0838C125.142 39.5719 126.321 38.8868 127.319 38L124.017 34.2805ZM128.155 36.766V36.1403H123.181V36.766H128.155ZM127.208 41.074C127.897 39.7881 128.155 38.3028 128.155 36.766H123.181C123.181 37.7825 123.005 38.3862 122.823 38.7252L127.208 41.074ZM124.019 43.9774C125.423 43.3885 126.547 42.3973 127.24 41.0118L122.791 38.7874C122.671 39.0267 122.49 39.225 122.095 39.3905L124.019 43.9774ZM119.662 44.7802C121.267 44.7802 122.795 44.5506 124.109 43.9376L122.005 39.4303C121.578 39.6297 120.843 39.8063 119.662 39.8063V44.7802ZM116.729 44.521C117.674 44.6962 118.654 44.7802 119.662 44.7802V39.8063C118.93 39.8063 118.255 39.7453 117.634 39.6303L116.729 44.521ZM113.917 43.6557C114.819 44.0526 115.758 44.3412 116.729 44.521L117.634 39.6303C117.039 39.52 116.469 39.3444 115.92 39.103L113.917 43.6557ZM111.581 42.4329C112.34 42.9155 113.134 43.3298 113.962 43.675L115.875 39.0836C115.311 38.8485 114.77 38.5665 114.252 38.2366L111.581 42.4329ZM112.402 46.9672L115.144 41.44L110.689 39.2296L107.947 44.7569L112.402 46.9672ZM115.675 45.6429C113.896 45.1458 112.575 44.5267 111.629 43.8447L108.72 47.8794C110.269 48.9964 112.169 49.8279 114.336 50.4334L115.675 45.6429ZM121.186 34.9878C122.544 34.9878 123.863 34.685 125.028 33.957L122.392 29.7391C122.164 29.8815 121.801 30.0139 121.186 30.0139V34.9878ZM117.343 33.957C118.508 34.685 119.828 34.9878 121.186 34.9878V30.0139C120.571 30.0139 120.207 29.8815 119.979 29.7391L117.343 33.957ZM114.81 31.099C115.379 32.28 116.224 33.2576 117.343 33.9569L119.979 29.7391C119.706 29.568 119.478 29.327 119.292 28.9412L114.81 31.099ZM114.042 27.1912C114.042 28.5461 114.255 29.8517 114.778 31.0301L119.324 29.01C119.151 28.6217 119.016 28.0414 119.016 27.1912H114.042ZM114.778 23.3522C114.255 24.5307 114.042 25.8363 114.042 27.1912H119.016C119.016 26.341 119.151 25.7606 119.324 25.3723L114.778 23.3522ZM117.408 20.3861C116.225 21.0764 115.362 22.0952 114.795 23.315L119.307 25.4095C119.495 25.0045 119.705 24.8046 119.914 24.6825L117.408 20.3861ZM121.186 19.3945C119.828 19.3945 118.508 19.6974 117.343 20.4254L119.979 24.6433C120.207 24.5008 120.571 24.3685 121.186 24.3685V19.3945ZM125.028 20.4254C123.863 19.6974 122.544 19.3945 121.186 19.3945V24.3685C121.801 24.3685 122.164 24.5008 122.392 24.6433L125.028 20.4254ZM127.576 23.315C127.01 22.0952 126.146 21.0764 124.963 20.3861L122.457 24.6825C122.666 24.8046 122.876 25.0045 123.064 25.4095L127.576 23.315ZM128.373 27.1912C128.373 25.8122 128.138 24.4811 127.561 23.2834L123.079 25.4411C123.257 25.8102 123.399 26.3651 123.399 27.1912H128.373ZM127.561 31.099C128.138 29.9013 128.373 28.5702 128.373 27.1912H123.399C123.399 28.0173 123.257 28.5721 123.079 28.9412L127.561 31.099ZM125.028 33.957C126.147 33.2576 126.992 32.28 127.561 31.099L123.079 28.9412C122.894 29.327 122.666 29.568 122.392 29.7391L125.028 33.957ZM142.462 38.8986V15.7014H137.489V38.8986H142.462ZM148.071 36.4116H139.975V41.3855H148.071V36.4116ZM145.584 15.7014V38.8986H150.558V15.7014H145.584ZM139.975 18.1884H148.071V13.2144H139.975V18.1884ZM144.023 8.81872C142.888 8.81872 142.38 8.56102 142.163 8.38294L139.006 12.2264C140.414 13.383 142.199 13.7927 144.023 13.7927V8.81872ZM145.794 8.33398C145.519 8.5714 145.02 8.81872 144.023 8.81872V13.7927C145.87 13.7927 147.634 13.3146 149.042 12.1013L145.794 8.33398ZM146.193 7.38871C146.193 7.86269 146.06 8.10465 145.794 8.33399L149.042 12.1013C150.458 10.8799 151.167 9.23591 151.167 7.38871H146.193ZM145.872 6.42127C146.004 6.52569 146.193 6.71131 146.193 7.38871H151.167C151.167 5.51284 150.514 3.75448 148.963 2.52423L145.872 6.42127ZM144.023 5.91519C145.092 5.91519 145.576 6.16967 145.799 6.36099L149.036 2.58451C147.635 1.38313 145.855 0.941258 144.023 0.941258V5.91519ZM142.245 6.41152C142.512 6.17172 143.006 5.91519 144.023 5.91519V0.941258C142.139 0.941258 140.34 1.4391 138.925 2.70807L142.245 6.41152ZM141.853 7.38871C141.853 6.88409 141.995 6.63457 142.241 6.41491L138.928 2.70467C137.55 3.93575 136.879 5.57217 136.879 7.38871H141.853ZM142.203 8.41644C142.036 8.27304 141.853 8.04383 141.853 7.38871H136.879C136.879 9.22885 137.509 10.9436 138.966 12.1929L142.203 8.41644ZM9.21741 1.6993C4.41012 1.6993 0.513035 5.59638 0.513035 10.4037H5.48696C5.48696 8.34341 7.15714 6.67323 9.21741 6.67323V1.6993ZM45.9741 1.6993H9.21741V6.67323H45.9741V1.6993ZM54.6785 10.4037C54.6785 5.59638 50.7814 1.6993 45.9741 1.6993V6.67323C48.0344 6.67323 49.7045 8.34341 49.7045 10.4037H54.6785ZM54.6785 45.7826V10.4037H49.7045V45.7826H54.6785ZM45.9741 54.487C50.7814 54.487 54.6785 50.5899 54.6785 45.7826H49.7045C49.7045 47.8428 48.0344 49.513 45.9741 49.513V54.487ZM9.21741 54.487H45.9741V49.513H9.21741V54.487ZM0.513035 45.7826C0.513035 50.5899 4.41011 54.487 9.21741 54.487V49.513C7.15714 49.513 5.48696 47.8429 5.48696 45.7826H0.513035ZM0.513035 10.4037V45.7826H5.48696V10.4037H0.513035ZM20.3754 44.8088C22.3541 45.3789 24.5363 45.6459 26.8959 45.6459V40.6719C24.9032 40.6719 23.1975 40.4456 21.7525 40.0293L20.3754 44.8088ZM15.1399 42.3132C16.6914 43.4165 18.4411 44.2419 20.3644 44.8056L21.7634 40.0325C20.3211 39.6097 19.0823 39.0134 18.0224 38.2597L15.1399 42.3132ZM11.2142 38.5923C12.3627 40.0033 13.6647 41.2405 15.1184 42.2978L18.0439 38.2752C16.9444 37.4755 15.9542 36.5366 15.0718 35.4524L11.2142 38.5923ZM16.3296 29.6722L11.281 35.3736L15.0049 38.671L20.0534 32.9697L16.3296 29.6722ZM23.6277 32.8104C22.6277 32.3953 21.4555 31.4853 20.1627 29.8046L16.2203 32.8373C17.8289 34.9285 19.6453 36.5428 21.7208 37.4043L23.6277 32.8104ZM27.157 33.5344C26.0608 33.5344 24.877 33.3051 23.5904 32.7953L21.7581 37.4194C23.547 38.1282 25.3518 38.5083 27.157 38.5083V33.5344ZM28.3584 33.4195C28.0433 33.4895 27.6475 33.5344 27.157 33.5344V38.5083C27.9431 38.5083 28.7079 38.4371 29.4374 38.275L28.3584 33.4195ZM28.2244 33.5307C28.3027 33.4437 28.366 33.4065 28.3756 33.4012C28.3799 33.3988 28.3718 33.4037 28.3478 33.4132C28.3237 33.4228 28.286 33.4361 28.2323 33.451L29.5635 38.2435C30.3714 38.0191 31.2433 37.6117 31.9215 36.8581L28.2244 33.5307ZM28.0212 34.0193C28.0212 33.9893 28.0266 33.9072 28.0672 33.7975C28.109 33.6848 28.1707 33.5898 28.2328 33.5215L31.9132 36.8673C32.6528 36.0537 32.9952 35.0508 32.9952 34.0193H28.0212ZM28.218 34.5284C28.1531 34.4473 28.0977 34.3477 28.0618 34.24C28.0268 34.1349 28.0212 34.0552 28.0212 34.0193H32.9952C32.9952 33.1045 32.7204 32.1942 32.102 31.4212L28.218 34.5284ZM28.0903 34.4593C28.2447 34.5365 28.255 34.5746 28.218 34.5284L32.102 31.4212C31.6008 30.7947 30.9728 30.3395 30.3147 30.0105L28.0903 34.4593ZM27.0256 33.9708C27.3944 34.101 27.7061 34.2442 27.9687 34.3942L30.4364 30.0756C29.8865 29.7614 29.2988 29.4984 28.6811 29.2804L27.0256 33.9708ZM25.9414 33.683C26.2944 33.7453 26.6555 33.8402 27.0256 33.9708L28.6811 29.2804C28.0647 29.0629 27.4393 28.8966 26.8058 28.7848L25.9414 33.683ZM24.3342 33.2984C24.8102 33.4175 25.3002 33.5362 25.804 33.6548L26.9432 28.8131C26.4605 28.6995 25.993 28.5861 25.5406 28.473L24.3342 33.2984ZM19.4255 31.7136C20.8941 32.3811 22.5606 32.9087 24.4022 33.3144L25.4725 28.457C23.8904 28.1084 22.5684 27.6785 21.4837 27.1855L19.4255 31.7136ZM15.5703 29.2525C16.6628 30.2358 17.9616 31.0482 19.4255 31.7136L21.4837 27.1855C20.3944 26.6903 19.5461 26.139 18.8977 25.5554L15.5703 29.2525ZM13.0234 25.5751C13.5936 26.9437 14.4293 28.153 15.5066 29.1931L18.9614 25.6149C18.3559 25.0302 17.9149 24.3826 17.6147 23.6621L13.0234 25.5751ZM12.2228 21.0933C12.2228 22.6572 12.4664 24.1448 13.0012 25.52L17.6369 23.7172C17.3593 23.0033 17.1967 22.1407 17.1967 21.0933H12.2228ZM13.5418 15.9596C12.657 17.5369 12.2228 19.2642 12.2228 21.0933H17.1967C17.1967 20.079 17.4299 19.195 17.8797 18.3931L13.5418 15.9596ZM16.8568 12.1528C15.4893 13.1964 14.3779 14.4691 13.5418 15.9596L17.8797 18.3931C18.3783 17.5044 19.0367 16.7461 19.8744 16.1068L16.8568 12.1528ZM21.424 9.79329C19.7246 10.3135 18.1833 11.1052 16.8245 12.1778L19.9066 16.0818C20.753 15.4136 21.7359 14.8996 22.88 14.5494L21.424 9.79329ZM26.6783 8.98801C24.8617 8.98801 23.0968 9.25781 21.394 9.80269L22.91 14.54C24.1087 14.1564 25.3613 13.9619 26.6783 13.9619V8.98801ZM32.8513 9.73827C31.0534 9.21965 28.9794 8.98801 26.6783 8.98801V13.9619C28.6713 13.9619 30.2531 14.1655 31.4727 14.5173L32.8513 9.73827ZM37.4675 11.9431C36.1425 10.9209 34.5665 10.1997 32.8086 9.72636L31.5155 14.5293C32.775 14.8684 33.7234 15.3367 34.4294 15.8813L37.4675 11.9431ZM40.6629 15.198C39.7598 13.9475 38.6829 12.8544 37.4406 11.9226L34.4562 15.9018C35.3029 16.5368 36.025 17.2716 36.6307 18.1102L40.6629 15.198ZM35.2392 23.4042L40.3748 18.4427L36.9188 14.8655L31.7832 19.827L35.2392 23.4042ZM30.2297 22.0943C30.7346 22.3973 31.2168 22.7911 31.6746 23.2925L35.3478 19.9387C34.587 19.1054 33.7345 18.3967 32.7887 17.8292L30.2297 22.0943ZM28.6866 21.4057C29.192 21.5418 29.6923 21.7589 30.1911 22.0707L32.8273 17.8528C31.9334 17.2941 30.9829 16.8729 29.9796 16.6028L28.6866 21.4057ZM27.0264 21.1431C27.56 21.1431 28.0825 21.2215 28.6017 21.3813L30.0645 16.6273C29.075 16.3228 28.0596 16.1691 27.0264 16.1691V21.1431ZM25.7444 21.2788C26.0419 21.2005 26.4597 21.1431 27.0264 21.1431V16.1691C26.1424 16.1691 25.2836 16.2568 24.4786 16.4686L25.7444 21.2788ZM25.6514 21.2851C25.6044 21.3321 25.5753 21.3455 25.5895 21.3379C25.6057 21.3292 25.6625 21.3018 25.7771 21.2699L24.4459 16.4775C23.6388 16.7016 22.8097 17.0925 22.1343 17.768L25.6514 21.2851ZM25.9446 20.6146C25.9446 20.6404 25.9404 20.7559 25.8755 20.918C25.8067 21.0901 25.6948 21.2506 25.5566 21.3751L22.2292 17.678C21.3157 18.5001 20.9707 19.591 20.9707 20.6146H25.9446ZM25.6949 19.9441C25.7233 19.9725 25.7932 20.0523 25.8537 20.1896C25.9163 20.332 25.9446 20.4817 25.9446 20.6146H20.9707C20.9707 21.7566 21.4491 22.7324 22.1778 23.4612L25.6949 19.9441ZM26.1019 20.1429C25.8147 20.0246 25.6712 19.9187 25.6093 19.8624L22.2635 23.5428C22.8399 24.0669 23.5088 24.4542 24.2081 24.7421L26.1019 20.1429ZM27.3547 20.5597C26.9031 20.4408 26.4863 20.3011 26.1019 20.1429L24.2081 24.7421C24.8102 24.9901 25.4379 25.1985 26.0889 25.3698L27.3547 20.5597ZM28.7469 20.825C28.2946 20.7402 27.7823 20.6407 27.2095 20.5261L26.234 25.4034C26.8218 25.521 27.3541 25.6245 27.8303 25.7138L28.7469 20.825ZM33.5644 22.2225C32.0978 21.6358 30.4984 21.1752 28.7763 20.8307L27.8008 25.7081C29.2703 26.002 30.5724 26.3828 31.7171 26.8406L33.5644 22.2225ZM37.6691 24.4989C36.4515 23.532 35.0531 22.7717 33.5029 22.1988L31.7787 26.8643C32.8978 27.2779 33.8205 27.7942 34.5759 28.3941L37.6691 24.4989ZM40.6332 28.1673C39.9382 26.7001 38.9285 25.4615 37.6332 24.471L34.6118 28.422C35.2895 28.9403 35.7885 29.5586 36.1381 30.2965L40.6332 28.1673ZM41.656 33.1054C41.656 31.3344 41.3431 29.6658 40.6332 28.1673L36.1381 30.2965C36.4728 31.0031 36.6821 31.9168 36.6821 33.1054H41.656ZM39.5232 40.1C40.9861 38.0981 41.656 35.7192 41.656 33.1054H36.6821C36.6821 34.8437 36.2494 36.1497 35.5073 37.1653L39.5232 40.1ZM34.0862 44.3187C36.317 43.3776 38.1614 41.977 39.5282 40.0931L35.5022 37.1722C34.7219 38.2478 33.6358 39.1103 32.1528 39.7359L34.0862 44.3187ZM26.8959 45.6459C29.4868 45.6459 31.8919 45.2244 34.0682 44.3262L32.1708 39.7285C30.6913 40.339 28.9472 40.6719 26.8959 40.6719V45.6459Z" fill="#FFE605" fill-opacity="0.85" mask="url(#path-1-outside-1_14_3)"/>
</svg>
