<svg width="164" height="58" viewBox="0 0 164 58" fill="none" xmlns="http://www.w3.org/2000/svg">
<mask id="path-1-outside-1_14_3" maskUnits="userSpaceOnUse" x="0" y="-0.112915" width="164" height="58" fill="black">
<rect fill="white" y="-0.112915" width="164" height="58"/>
<path fill-rule="evenodd" clip-rule="evenodd" d="M65.4952 40.5248C67.4737 41.3413 69.7661 41.7495 72.3727 41.7495C74.5081 41.7495 76.4081 41.3884 78.0725 40.6661C79.7369 39.9124 81.0402 38.8918 81.9823 37.6042C82.9558 36.2853 83.4426 34.7936 83.4426 33.1292C83.4426 32.3441 83.317 31.6375 83.0657 31.0094C82.8145 30.3499 82.4534 29.7532 81.9823 29.2194C81.3228 28.5285 80.4592 27.9161 79.3915 27.3822C78.3237 26.8483 77.0676 26.3773 75.623 25.969C74.3354 25.6236 73.3462 25.341 72.6553 25.1211C71.9958 24.8699 71.5248 24.6658 71.2421 24.5088C70.8967 24.3517 70.6455 24.1476 70.4884 23.8964C70.3314 23.6451 70.2529 23.3782 70.2529 23.0956C70.2529 22.8757 70.3 22.6716 70.3942 22.4832C70.4884 22.2948 70.6298 22.1377 70.8182 22.0121C71.0066 21.8865 71.2421 21.7923 71.5248 21.7295C71.8074 21.6667 72.1528 21.6353 72.5611 21.6353C73.2206 21.6353 73.9272 21.7766 74.6809 22.0592C75.4346 22.3105 76.1569 22.6402 76.8477 23.0485C77.57 23.4567 78.1981 23.8964 78.732 24.3674L83.2542 19.3742C82.3435 18.5891 81.3071 17.9296 80.1452 17.3957C79.0146 16.8305 77.7899 16.4065 76.4709 16.1239C75.1833 15.8098 73.8016 15.6528 72.3256 15.6528C71.0066 15.6528 69.719 15.8412 68.4629 16.2181C67.2067 16.5635 66.0762 17.0974 65.0712 17.8197C64.0663 18.5106 63.2812 19.3428 62.7159 20.3163C62.1507 21.2898 61.868 22.4047 61.868 23.6608C61.868 24.6972 62.0565 25.655 62.4333 26.5343C62.8416 27.3822 63.3911 28.1359 64.082 28.7954C64.8043 29.4549 65.6836 30.0359 66.72 30.5383C67.7563 31.0094 68.9339 31.4176 70.2529 31.7631C71.3206 32.0143 72.1685 32.2498 72.7966 32.4697C73.4561 32.6581 73.9272 32.8151 74.2098 32.9407C74.7437 33.2234 75.0106 33.6316 75.0106 34.1655C75.0106 34.3853 74.9478 34.5894 74.8222 34.7779C74.728 34.9349 74.5867 35.0919 74.3982 35.2489C74.2412 35.3745 74.0214 35.4688 73.7388 35.5316C73.4561 35.5944 73.1421 35.6258 72.7966 35.6258C71.8231 35.6258 70.6926 35.4059 69.405 34.9663C68.1488 34.5266 67.0183 33.8514 66.0134 32.9407L60.8788 37.3687C61.978 38.6563 63.5167 39.7083 65.4952 40.5248ZM90.9302 40.0537C92.5947 41.1529 94.4632 41.7024 96.5359 41.7024C97.6978 41.7024 98.7498 41.5454 99.692 41.2314C100.665 40.8859 101.545 40.4306 102.33 39.8653C102.818 39.4943 103.258 39.0868 103.649 38.6428V41.2785H112.458V16.171H103.837V18.9003C103.415 18.3895 102.944 17.9194 102.424 17.49C101.702 16.8933 100.854 16.4379 99.8804 16.1239C98.9069 15.8098 97.8391 15.6528 96.6772 15.6528C94.5103 15.6528 92.5947 16.2181 90.9302 17.3486C89.2658 18.4478 87.9626 19.9709 87.0204 21.9179C86.0783 23.865 85.6073 26.1261 85.6073 28.7012C85.6073 31.2135 86.0783 33.4589 87.0204 35.4373C87.994 37.3844 89.2972 38.9232 90.9302 40.0537ZM101.623 33.8357C100.901 34.2754 100.037 34.4952 99.0325 34.4952C98.0275 34.4952 97.1639 34.2754 96.4416 33.8357C95.7508 33.3647 95.2169 32.6895 94.84 31.8102C94.4632 30.9309 94.2748 29.8945 94.2748 28.7012C94.2748 27.4764 94.4632 26.4244 94.84 25.5451C95.2169 24.6658 95.7508 24.0063 96.4416 23.5666C97.1639 23.0956 98.0275 22.86 99.0325 22.86C100.037 22.86 100.901 23.0956 101.623 23.5666C102.346 24.0063 102.895 24.6658 103.272 25.5451C103.68 26.4244 103.884 27.4764 103.884 28.7012C103.884 29.8945 103.68 30.9309 103.272 31.8102C102.895 32.6895 102.346 33.3647 101.623 33.8357ZM124.229 51.1708C126.365 51.7988 128.516 52.1129 130.683 52.1129C132.85 52.1129 134.781 51.8145 136.477 51.2179C138.204 50.6526 139.664 49.8047 140.858 48.6741C142.083 47.5436 143.009 46.1618 143.637 44.5288C144.265 42.9272 144.579 41.0744 144.579 38.9703V16.171H136.383L136.203 18.5421C136.027 18.3578 135.835 18.1798 135.629 18.0081C135.064 17.5057 134.404 17.0817 133.651 16.7363C132.928 16.3908 132.143 16.1239 131.295 15.9355C130.447 15.747 129.552 15.6528 128.61 15.6528C126.412 15.6528 124.465 16.2024 122.769 17.3015C121.073 18.4007 119.723 19.9238 118.718 21.8708C117.744 23.7865 117.258 26.0161 117.258 28.5599C117.258 31.0094 117.76 33.1449 118.765 34.9663C119.77 36.7877 121.136 38.2166 122.863 39.2529C124.591 40.2579 126.585 40.7603 128.846 40.7603C130.228 40.7603 131.547 40.5248 132.803 40.0537C133.974 39.5967 134.963 39.0098 135.77 38.293V38.9703C135.77 40.3521 135.535 41.4826 135.064 42.3619C134.624 43.2412 133.918 43.885 132.944 44.2933C132.002 44.7329 130.777 44.9528 129.27 44.9528C128.328 44.9528 127.433 44.8743 126.585 44.7172C125.737 44.5602 124.92 44.309 124.135 43.9635C123.382 43.6495 122.659 43.2726 121.968 42.833L119.001 48.8155C120.351 49.789 122.094 50.5741 124.229 51.1708ZM133.651 33.6473C132.897 34.1184 131.986 34.3539 130.918 34.3539C129.851 34.3539 128.94 34.1184 128.186 33.6473C127.433 33.1763 126.852 32.5168 126.443 31.6689C126.067 30.821 125.878 29.8003 125.878 28.607C125.878 27.4136 126.067 26.393 126.443 25.5451C126.852 24.6658 127.433 24.0063 128.186 23.5666C128.94 23.0956 129.851 22.86 130.918 22.86C131.986 22.86 132.897 23.0956 133.651 23.5666C134.404 24.0063 134.985 24.6658 135.394 25.5451C135.802 26.393 136.006 27.4136 136.006 28.607C136.006 29.8003 135.802 30.821 135.394 31.6689C134.985 32.5168 134.404 33.1763 133.651 33.6473ZM151.256 16.171V41.2785H160.017V16.171H151.256ZM151.915 10.3298C152.795 11.0521 154.035 11.4133 155.637 11.4133C157.175 11.4133 158.4 11.0207 159.311 10.2356C160.222 9.45053 160.677 8.42989 160.677 7.17373C160.677 5.79196 160.222 4.73992 159.311 4.01763C158.432 3.26393 157.207 2.88708 155.637 2.88708C154.066 2.88708 152.826 3.29534 151.915 4.11184C151.036 4.89694 150.596 5.91757 150.596 7.17373C150.596 8.52411 151.036 9.57614 151.915 10.3298ZM3 9.97815C3 6.26159 6.01287 3.24873 9.72943 3.24873H49.5131C53.2297 3.24873 56.2425 6.2616 56.2425 9.97816V48.2706C56.2425 51.9872 53.2297 55 49.5131 55H9.72943C6.01287 55 3 51.9872 3 48.2706V9.97815ZM28.8638 45.8897C26.5085 45.8897 24.4044 45.6227 22.5516 45.0889C20.7301 44.555 19.1128 43.7856 17.6996 42.7807C16.3179 41.7758 15.0774 40.5981 13.9783 39.2477L19.4426 33.0768C21.0128 35.1181 22.6301 36.4842 24.2945 37.1751C25.9589 37.8346 27.5762 38.1643 29.1464 38.1643C29.8373 38.1643 30.4654 38.1015 31.0306 37.9759C31.5959 37.8189 32.0199 37.5833 32.3025 37.2693C32.6166 36.9238 32.7736 36.4999 32.7736 35.9974C32.7736 35.5578 32.648 35.1809 32.3967 34.8669C32.1455 34.5528 31.8 34.2859 31.3604 34.0661C30.9207 33.8148 30.434 33.595 29.9001 33.4066C29.3662 33.2182 28.8324 33.0768 28.2985 32.9826C27.7646 32.857 27.2465 32.7314 26.744 32.6058C24.8912 32.1975 23.2739 31.6794 21.8921 31.0513C20.5103 30.4232 19.3484 29.6852 18.4062 28.8373C17.4955 27.958 16.8046 26.9531 16.3336 25.8225C15.8939 24.692 15.6741 23.4201 15.6741 22.0069C15.6741 20.4681 16.0352 19.055 16.7575 17.7674C17.4798 16.4798 18.4376 15.3807 19.631 14.47C20.8243 13.5278 22.1904 12.8213 23.7292 12.3502C25.2994 11.8477 26.9324 11.5965 28.6282 11.5965C30.9521 11.5965 32.9306 11.832 34.5636 12.3031C36.1966 12.7428 37.5627 13.3865 38.6618 14.2344C39.7924 15.0823 40.7659 16.0716 41.5824 17.2021L36.0239 22.5722C35.3644 21.8499 34.6421 21.2532 33.857 20.7822C33.1033 20.3111 32.3182 19.9657 31.5017 19.7458C30.6852 19.4946 29.853 19.369 29.0051 19.369C28.22 19.369 27.5291 19.4475 26.9324 19.6045C26.3672 19.7615 25.9275 19.9971 25.6135 20.3111C25.2994 20.5938 25.1424 20.9863 25.1424 21.4888C25.1424 21.9284 25.3151 22.321 25.6606 22.6664C26.006 22.9805 26.4457 23.2474 26.9795 23.4672C27.5134 23.687 28.0787 23.8755 28.6753 24.0325C29.3034 24.1581 29.8687 24.268 30.3712 24.3622C32.0984 24.7077 33.6686 25.163 35.0818 25.7283C36.5264 26.2622 37.7825 26.9531 38.8503 27.801C39.918 28.6175 40.7345 29.6224 41.2998 30.8158C41.865 32.0091 42.1477 33.4066 42.1477 35.0082C42.1477 37.3635 41.551 39.3577 40.3576 40.9907C39.1957 42.5923 37.6098 43.817 35.5999 44.6649C33.6215 45.4814 31.3761 45.8897 28.8638 45.8897Z"/>
</mask>
<path fill-rule="evenodd" clip-rule="evenodd" d="M65.4952 40.5248C67.4737 41.3413 69.7661 41.7495 72.3727 41.7495C74.5081 41.7495 76.4081 41.3884 78.0725 40.6661C79.7369 39.9124 81.0402 38.8918 81.9823 37.6042C82.9558 36.2853 83.4426 34.7936 83.4426 33.1292C83.4426 32.3441 83.317 31.6375 83.0657 31.0094C82.8145 30.3499 82.4534 29.7532 81.9823 29.2194C81.3228 28.5285 80.4592 27.9161 79.3915 27.3822C78.3237 26.8483 77.0676 26.3773 75.623 25.969C74.3354 25.6236 73.3462 25.341 72.6553 25.1211C71.9958 24.8699 71.5248 24.6658 71.2421 24.5088C70.8967 24.3517 70.6455 24.1476 70.4884 23.8964C70.3314 23.6451 70.2529 23.3782 70.2529 23.0956C70.2529 22.8757 70.3 22.6716 70.3942 22.4832C70.4884 22.2948 70.6298 22.1377 70.8182 22.0121C71.0066 21.8865 71.2421 21.7923 71.5248 21.7295C71.8074 21.6667 72.1528 21.6353 72.5611 21.6353C73.2206 21.6353 73.9272 21.7766 74.6809 22.0592C75.4346 22.3105 76.1569 22.6402 76.8477 23.0485C77.57 23.4567 78.1981 23.8964 78.732 24.3674L83.2542 19.3742C82.3435 18.5891 81.3071 17.9296 80.1452 17.3957C79.0146 16.8305 77.7899 16.4065 76.4709 16.1239C75.1833 15.8098 73.8016 15.6528 72.3256 15.6528C71.0066 15.6528 69.719 15.8412 68.4629 16.2181C67.2067 16.5635 66.0762 17.0974 65.0712 17.8197C64.0663 18.5106 63.2812 19.3428 62.7159 20.3163C62.1507 21.2898 61.868 22.4047 61.868 23.6608C61.868 24.6972 62.0565 25.655 62.4333 26.5343C62.8416 27.3822 63.3911 28.1359 64.082 28.7954C64.8043 29.4549 65.6836 30.0359 66.72 30.5383C67.7563 31.0094 68.9339 31.4176 70.2529 31.7631C71.3206 32.0143 72.1685 32.2498 72.7966 32.4697C73.4561 32.6581 73.9272 32.8151 74.2098 32.9407C74.7437 33.2234 75.0106 33.6316 75.0106 34.1655C75.0106 34.3853 74.9478 34.5894 74.8222 34.7779C74.728 34.9349 74.5867 35.0919 74.3982 35.2489C74.2412 35.3745 74.0214 35.4688 73.7388 35.5316C73.4561 35.5944 73.1421 35.6258 72.7966 35.6258C71.8231 35.6258 70.6926 35.4059 69.405 34.9663C68.1488 34.5266 67.0183 33.8514 66.0134 32.9407L60.8788 37.3687C61.978 38.6563 63.5167 39.7083 65.4952 40.5248ZM90.9302 40.0537C92.5947 41.1529 94.4632 41.7024 96.5359 41.7024C97.6978 41.7024 98.7498 41.5454 99.692 41.2314C100.665 40.8859 101.545 40.4306 102.33 39.8653C102.818 39.4943 103.258 39.0868 103.649 38.6428V41.2785H112.458V16.171H103.837V18.9003C103.415 18.3895 102.944 17.9194 102.424 17.49C101.702 16.8933 100.854 16.4379 99.8804 16.1239C98.9069 15.8098 97.8391 15.6528 96.6772 15.6528C94.5103 15.6528 92.5947 16.2181 90.9302 17.3486C89.2658 18.4478 87.9626 19.9709 87.0204 21.9179C86.0783 23.865 85.6073 26.1261 85.6073 28.7012C85.6073 31.2135 86.0783 33.4589 87.0204 35.4373C87.994 37.3844 89.2972 38.9232 90.9302 40.0537ZM101.623 33.8357C100.901 34.2754 100.037 34.4952 99.0325 34.4952C98.0275 34.4952 97.1639 34.2754 96.4416 33.8357C95.7508 33.3647 95.2169 32.6895 94.84 31.8102C94.4632 30.9309 94.2748 29.8945 94.2748 28.7012C94.2748 27.4764 94.4632 26.4244 94.84 25.5451C95.2169 24.6658 95.7508 24.0063 96.4416 23.5666C97.1639 23.0956 98.0275 22.86 99.0325 22.86C100.037 22.86 100.901 23.0956 101.623 23.5666C102.346 24.0063 102.895 24.6658 103.272 25.5451C103.68 26.4244 103.884 27.4764 103.884 28.7012C103.884 29.8945 103.68 30.9309 103.272 31.8102C102.895 32.6895 102.346 33.3647 101.623 33.8357ZM124.229 51.1708C126.365 51.7988 128.516 52.1129 130.683 52.1129C132.85 52.1129 134.781 51.8145 136.477 51.2179C138.204 50.6526 139.664 49.8047 140.858 48.6741C142.083 47.5436 143.009 46.1618 143.637 44.5288C144.265 42.9272 144.579 41.0744 144.579 38.9703V16.171H136.383L136.203 18.5421C136.027 18.3578 135.835 18.1798 135.629 18.0081C135.064 17.5057 134.404 17.0817 133.651 16.7363C132.928 16.3908 132.143 16.1239 131.295 15.9355C130.447 15.747 129.552 15.6528 128.61 15.6528C126.412 15.6528 124.465 16.2024 122.769 17.3015C121.073 18.4007 119.723 19.9238 118.718 21.8708C117.744 23.7865 117.258 26.0161 117.258 28.5599C117.258 31.0094 117.76 33.1449 118.765 34.9663C119.77 36.7877 121.136 38.2166 122.863 39.2529C124.591 40.2579 126.585 40.7603 128.846 40.7603C130.228 40.7603 131.547 40.5248 132.803 40.0537C133.974 39.5967 134.963 39.0098 135.77 38.293V38.9703C135.77 40.3521 135.535 41.4826 135.064 42.3619C134.624 43.2412 133.918 43.885 132.944 44.2933C132.002 44.7329 130.777 44.9528 129.27 44.9528C128.328 44.9528 127.433 44.8743 126.585 44.7172C125.737 44.5602 124.92 44.309 124.135 43.9635C123.382 43.6495 122.659 43.2726 121.968 42.833L119.001 48.8155C120.351 49.789 122.094 50.5741 124.229 51.1708ZM133.651 33.6473C132.897 34.1184 131.986 34.3539 130.918 34.3539C129.851 34.3539 128.94 34.1184 128.186 33.6473C127.433 33.1763 126.852 32.5168 126.443 31.6689C126.067 30.821 125.878 29.8003 125.878 28.607C125.878 27.4136 126.067 26.393 126.443 25.5451C126.852 24.6658 127.433 24.0063 128.186 23.5666C128.94 23.0956 129.851 22.86 130.918 22.86C131.986 22.86 132.897 23.0956 133.651 23.5666C134.404 24.0063 134.985 24.6658 135.394 25.5451C135.802 26.393 136.006 27.4136 136.006 28.607C136.006 29.8003 135.802 30.821 135.394 31.6689C134.985 32.5168 134.404 33.1763 133.651 33.6473ZM151.256 16.171V41.2785H160.017V16.171H151.256ZM151.915 10.3298C152.795 11.0521 154.035 11.4133 155.637 11.4133C157.175 11.4133 158.4 11.0207 159.311 10.2356C160.222 9.45053 160.677 8.42989 160.677 7.17373C160.677 5.79196 160.222 4.73992 159.311 4.01763C158.432 3.26393 157.207 2.88708 155.637 2.88708C154.066 2.88708 152.826 3.29534 151.915 4.11184C151.036 4.89694 150.596 5.91757 150.596 7.17373C150.596 8.52411 151.036 9.57614 151.915 10.3298ZM3 9.97815C3 6.26159 6.01287 3.24873 9.72943 3.24873H49.5131C53.2297 3.24873 56.2425 6.2616 56.2425 9.97816V48.2706C56.2425 51.9872 53.2297 55 49.5131 55H9.72943C6.01287 55 3 51.9872 3 48.2706V9.97815ZM28.8638 45.8897C26.5085 45.8897 24.4044 45.6227 22.5516 45.0889C20.7301 44.555 19.1128 43.7856 17.6996 42.7807C16.3179 41.7758 15.0774 40.5981 13.9783 39.2477L19.4426 33.0768C21.0128 35.1181 22.6301 36.4842 24.2945 37.1751C25.9589 37.8346 27.5762 38.1643 29.1464 38.1643C29.8373 38.1643 30.4654 38.1015 31.0306 37.9759C31.5959 37.8189 32.0199 37.5833 32.3025 37.2693C32.6166 36.9238 32.7736 36.4999 32.7736 35.9974C32.7736 35.5578 32.648 35.1809 32.3967 34.8669C32.1455 34.5528 31.8 34.2859 31.3604 34.0661C30.9207 33.8148 30.434 33.595 29.9001 33.4066C29.3662 33.2182 28.8324 33.0768 28.2985 32.9826C27.7646 32.857 27.2465 32.7314 26.744 32.6058C24.8912 32.1975 23.2739 31.6794 21.8921 31.0513C20.5103 30.4232 19.3484 29.6852 18.4062 28.8373C17.4955 27.958 16.8046 26.9531 16.3336 25.8225C15.8939 24.692 15.6741 23.4201 15.6741 22.0069C15.6741 20.4681 16.0352 19.055 16.7575 17.7674C17.4798 16.4798 18.4376 15.3807 19.631 14.47C20.8243 13.5278 22.1904 12.8213 23.7292 12.3502C25.2994 11.8477 26.9324 11.5965 28.6282 11.5965C30.9521 11.5965 32.9306 11.832 34.5636 12.3031C36.1966 12.7428 37.5627 13.3865 38.6618 14.2344C39.7924 15.0823 40.7659 16.0716 41.5824 17.2021L36.0239 22.5722C35.3644 21.8499 34.6421 21.2532 33.857 20.7822C33.1033 20.3111 32.3182 19.9657 31.5017 19.7458C30.6852 19.4946 29.853 19.369 29.0051 19.369C28.22 19.369 27.5291 19.4475 26.9324 19.6045C26.3672 19.7615 25.9275 19.9971 25.6135 20.3111C25.2994 20.5938 25.1424 20.9863 25.1424 21.4888C25.1424 21.9284 25.3151 22.321 25.6606 22.6664C26.006 22.9805 26.4457 23.2474 26.9795 23.4672C27.5134 23.687 28.0787 23.8755 28.6753 24.0325C29.3034 24.1581 29.8687 24.268 30.3712 24.3622C32.0984 24.7077 33.6686 25.163 35.0818 25.7283C36.5264 26.2622 37.7825 26.9531 38.8503 27.801C39.918 28.6175 40.7345 29.6224 41.2998 30.8158C41.865 32.0091 42.1477 33.4066 42.1477 35.0082C42.1477 37.3635 41.551 39.3577 40.3576 40.9907C39.1957 42.5923 37.6098 43.817 35.5999 44.6649C33.6215 45.4814 31.3761 45.8897 28.8638 45.8897Z" fill="#2CB1BC"/>
<path d="M65.4952 40.5248L64.4683 43.013L64.4683 43.013L65.4952 40.5248ZM78.0725 40.6661L79.1441 43.1354L79.1636 43.1269L79.1829 43.1182L78.0725 40.6661ZM81.9823 37.6042L79.8166 36.0057L79.81 36.0147L81.9823 37.6042ZM83.0657 31.0094L80.5503 31.9676L80.5582 31.9884L80.5665 32.0091L83.0657 31.0094ZM81.9823 29.2194L84.0007 27.4384L83.9658 27.3989L83.9294 27.3607L81.9823 29.2194ZM79.3915 27.3822L78.1877 29.7898L78.1877 29.7898L79.3915 27.3822ZM75.623 25.969L76.355 23.3787L76.3378 23.3738L76.3205 23.3692L75.623 25.969ZM72.6553 25.1211L71.6971 27.6366L71.7674 27.6634L71.8392 27.6862L72.6553 25.1211ZM71.2421 24.5088L72.5494 22.1557L72.4546 22.1031L72.356 22.0583L71.2421 24.5088ZM70.4884 23.8964L68.2058 25.323L68.2058 25.323L70.4884 23.8964ZM70.3942 22.4832L72.8018 23.687L72.8018 23.6869L70.3942 22.4832ZM70.8182 22.0121L69.3251 19.7724L69.325 19.7724L70.8182 22.0121ZM71.5248 21.7295L70.9408 19.1018V19.1018L71.5248 21.7295ZM74.6809 22.0592L73.7357 24.5796L73.7824 24.5971L73.8297 24.6129L74.6809 22.0592ZM76.8477 23.0485L75.4784 25.3659L75.5007 25.3791L75.5232 25.3918L76.8477 23.0485ZM78.732 24.3674L76.9511 26.3858L78.9435 28.1438L80.7271 26.1744L78.732 24.3674ZM83.2542 19.3742L85.2493 21.1811L87.101 19.1365L85.0117 17.3354L83.2542 19.3742ZM80.1452 17.3957L78.9414 19.8033L78.981 19.8232L79.0214 19.8417L80.1452 17.3957ZM76.4709 16.1239L75.8331 18.739L75.8699 18.748L75.9069 18.7559L76.4709 16.1239ZM68.4629 16.2181L69.1766 18.8135L69.2066 18.8053L69.2364 18.7963L68.4629 16.2181ZM65.0712 17.8197L66.5962 20.0378L66.6194 20.0219L66.6423 20.0055L65.0712 17.8197ZM62.7159 20.3163L60.3881 18.9647L60.3881 18.9647L62.7159 20.3163ZM62.4333 26.5343L59.9592 27.5947L59.9824 27.6489L60.008 27.702L62.4333 26.5343ZM64.082 28.7954L62.2234 30.7425L62.245 30.7631L62.267 30.7832L64.082 28.7954ZM66.72 30.5383L65.5456 32.9604L65.5757 32.975L65.6061 32.9888L66.72 30.5383ZM70.2529 31.7631L69.5709 34.367L69.6036 34.3756L69.6364 34.3833L70.2529 31.7631ZM72.7966 32.4697L71.9074 35.0103L71.9816 35.0363L72.0572 35.0579L72.7966 32.4697ZM74.2098 32.9407L75.4693 30.5618L75.3875 30.5185L75.303 30.481L74.2098 32.9407ZM74.8222 34.7779L72.5825 33.2847L72.547 33.338L72.514 33.393L74.8222 34.7779ZM74.3982 35.2489L76.0798 37.3509L76.1008 37.334L76.1215 37.3168L74.3982 35.2489ZM73.7388 35.5316L73.1548 32.9039L73.1548 32.9039L73.7388 35.5316ZM69.405 34.9663L68.5158 37.5069L68.5255 37.5103L68.5352 37.5136L69.405 34.9663ZM66.0134 32.9407L67.8209 30.9462L66.0576 29.3481L64.2554 30.9023L66.0134 32.9407ZM60.8788 37.3687L59.1209 35.3302L57.0926 37.0794L58.8315 39.1164L60.8788 37.3687ZM90.9302 40.0537L89.3981 42.2669L89.4223 42.2837L89.4469 42.2999L90.9302 40.0537ZM99.692 41.2314L100.543 43.785L100.568 43.7768L100.592 43.7682L99.692 41.2314ZM102.33 39.8653L103.903 42.0498L103.931 42.0294L103.959 42.0084L102.33 39.8653ZM103.649 38.6428H106.341V31.5152L101.629 36.8635L103.649 38.6428ZM103.649 41.2785H100.957V43.9703H103.649V41.2785ZM112.458 41.2785V43.9703H115.149V41.2785H112.458ZM112.458 16.171H115.149V13.4792H112.458V16.171ZM103.837 16.171V13.4792H101.146V16.171H103.837ZM103.837 18.9003L101.763 20.6154L106.529 26.3812V18.9003H103.837ZM102.424 17.49L104.138 15.4147V15.4147L102.424 17.49ZM99.8804 16.1239L99.054 18.6857V18.6857L99.8804 16.1239ZM90.9302 17.3486L92.4136 19.5948L92.4282 19.5852L92.4427 19.5753L90.9302 17.3486ZM87.0204 21.9179L84.5974 20.7455L84.5974 20.7455L87.0204 21.9179ZM87.0204 35.4373L84.5901 36.5946L84.6013 36.618L84.6128 36.6411L87.0204 35.4373ZM101.623 33.8357L103.023 36.135L103.059 36.1133L103.094 36.0904L101.623 33.8357ZM96.4416 33.8357L94.9253 36.0598L94.9827 36.0989L95.0421 36.1351L96.4416 33.8357ZM96.4416 23.5666L97.8868 25.8376L97.8995 25.8295L97.9121 25.8213L96.4416 23.5666ZM101.623 23.5666L100.153 25.8213L100.188 25.8442L100.224 25.8659L101.623 23.5666ZM103.272 25.5451L100.798 26.6054L100.814 26.6423L100.831 26.6786L103.272 25.5451ZM103.272 31.8102L100.831 30.6766L100.814 30.713L100.798 30.7498L103.272 31.8102ZM124.229 51.1708L124.989 48.5884L124.971 48.5832L124.954 48.5783L124.229 51.1708ZM136.477 51.2179L135.64 48.6596L135.612 48.6688L135.584 48.6787L136.477 51.2179ZM140.858 48.6741L139.032 46.6962L139.019 46.708L139.007 46.72L140.858 48.6741ZM143.637 44.5288L141.131 43.5461L141.128 43.5543L141.125 43.5625L143.637 44.5288ZM144.579 16.171H147.271V13.4792H144.579V16.171ZM136.383 16.171V13.4792H133.887L133.699 15.968L136.383 16.171ZM136.203 18.5421L134.262 20.4061L138.433 24.7521L138.888 18.7451L136.203 18.5421ZM135.629 18.0081L133.841 20.02L133.873 20.0485L133.906 20.076L135.629 18.0081ZM133.651 16.7363L132.489 19.1646L132.509 19.1741L132.529 19.1833L133.651 16.7363ZM131.295 15.9355L131.879 13.3078L131.879 13.3078L131.295 15.9355ZM122.769 17.3015L124.233 19.5603V19.5603L122.769 17.3015ZM118.718 21.8708L116.326 20.6362L116.322 20.6438L116.318 20.6513L118.718 21.8708ZM118.765 34.9663L116.408 36.2666V36.2666L118.765 34.9663ZM122.863 39.2529L121.478 41.5611L121.494 41.5704L121.51 41.5796L122.863 39.2529ZM132.803 40.0537L133.748 42.5741L133.765 42.5678L133.781 42.5613L132.803 40.0537ZM135.77 38.293H138.462V32.3037L133.983 36.2801L135.77 38.293ZM135.064 42.3619L132.691 41.0908L132.673 41.1242L132.656 41.1581L135.064 42.3619ZM132.944 44.2933L131.903 41.8109L131.854 41.8315L131.806 41.854L132.944 44.2933ZM124.135 43.9635L125.219 41.4997L125.195 41.489L125.17 41.4788L124.135 43.9635ZM121.968 42.833L123.413 40.562L120.887 38.9546L119.557 41.6368L121.968 42.833ZM119.001 48.8155L116.589 47.6193L115.575 49.6641L117.426 50.999L119.001 48.8155ZM133.651 33.6473L135.077 35.9299L135.077 35.9299L133.651 33.6473ZM128.186 33.6473L129.613 31.3647L129.613 31.3647L128.186 33.6473ZM126.443 31.6689L123.984 32.7621L124 32.7996L124.018 32.8366L126.443 31.6689ZM126.443 25.5451L124.002 24.4116L123.993 24.4316L123.984 24.4518L126.443 25.5451ZM128.186 23.5666L129.543 25.8917L129.578 25.871L129.613 25.8492L128.186 23.5666ZM133.651 23.5666L132.224 25.8493L132.259 25.871L132.294 25.8917L133.651 23.5666ZM135.394 25.5451L132.952 26.6786L132.96 26.6958L132.968 26.7128L135.394 25.5451ZM151.256 41.2785H148.564V43.9703H151.256V41.2785ZM151.256 16.171V13.4792H148.564V16.171H151.256ZM160.017 41.2785V43.9703H162.709V41.2785H160.017ZM160.017 16.171H162.709V13.4792H160.017V16.171ZM151.915 10.3298L150.163 12.3736L150.185 12.3919L150.207 12.4098L151.915 10.3298ZM159.311 10.2356L157.553 8.19684L157.553 8.19685L159.311 10.2356ZM159.311 4.01763L157.559 6.06138L157.598 6.09476L157.638 6.12663L159.311 4.01763ZM151.915 4.11184L153.708 6.11975L153.712 6.11606L151.915 4.11184ZM22.5516 45.0889L21.7944 47.672L21.8063 47.6754L22.5516 45.0889ZM17.6996 42.7807L16.1164 44.9576L16.128 44.9661L16.1397 44.9744L17.6996 42.7807ZM13.9783 39.2477L11.963 37.4632L10.4478 39.1744L11.8906 40.947L13.9783 39.2477ZM19.4426 33.0768L21.5761 31.4356L19.5885 28.8517L17.4273 31.2924L19.4426 33.0768ZM24.2945 37.1751L23.2625 39.6612L23.2827 39.6695L23.3029 39.6776L24.2945 37.1751ZM31.0306 37.9759L31.6146 40.6035L31.6833 40.5883L31.7511 40.5694L31.0306 37.9759ZM32.3025 37.2693L30.3107 35.4586L30.3017 35.4686L32.3025 37.2693ZM31.3604 34.0661L30.0249 36.4032L30.0898 36.4403L30.1566 36.4737L31.3604 34.0661ZM29.9001 33.4066L29.0042 35.9449L29.0042 35.9449L29.9001 33.4066ZM28.2985 32.9826L27.682 35.6029L27.7559 35.6203L27.8307 35.6334L28.2985 32.9826ZM26.744 32.6058L27.3969 29.9944L27.3602 29.9852L27.3232 29.9771L26.744 32.6058ZM21.8921 31.0513L20.7782 33.5018L20.7782 33.5018L21.8921 31.0513ZM18.4062 28.8373L16.5365 30.7738L16.5705 30.8065L16.6055 30.8381L18.4062 28.8373ZM16.3336 25.8225L13.8248 26.7981L13.8365 26.8281L13.8489 26.8578L16.3336 25.8225ZM16.7575 17.7674L19.1051 19.0843L16.7575 17.7674ZM19.631 14.47L21.264 16.6098L21.2816 16.5964L21.2989 16.5827L19.631 14.47ZM23.7292 12.3502L24.5171 14.9241L24.5334 14.9191L24.5496 14.9139L23.7292 12.3502ZM34.5636 12.3031L33.8175 14.8894L33.8406 14.8961L33.8638 14.9023L34.5636 12.3031ZM38.6618 14.2344L37.0177 16.3657L37.0321 16.3769L37.0468 16.3879L38.6618 14.2344ZM41.5824 17.2021L43.4527 19.138L45.1304 17.5172L43.7646 15.6261L41.5824 17.2021ZM36.0239 22.5722L34.0361 24.3872L35.9029 26.4319L37.8942 24.5081L36.0239 22.5722ZM33.857 20.7822L32.4304 23.0648L32.4511 23.0778L32.4721 23.0904L33.857 20.7822ZM31.5017 19.7458L30.7101 22.3186L30.7558 22.3326L30.8019 22.3451L31.5017 19.7458ZM26.9324 19.6045L26.2474 17.0014L26.2297 17.006L26.212 17.011L26.9324 19.6045ZM25.6135 20.3111L27.4142 22.3119L27.4668 22.2645L27.5168 22.2145L25.6135 20.3111ZM25.6606 22.6664L23.7572 24.5698L23.8025 24.6151L23.8499 24.6582L25.6606 22.6664ZM26.9795 23.4672L28.0044 20.9782L28.0044 20.9782L26.9795 23.4672ZM28.6753 24.0325L27.9903 26.6356L28.0683 26.6562L28.1474 26.672L28.6753 24.0325ZM30.3712 24.3622L30.8991 21.7227L30.8832 21.7196L30.8672 21.7166L30.3712 24.3622ZM35.0818 25.7283L34.0821 28.2276L34.1152 28.2408L34.1487 28.2532L35.0818 25.7283ZM38.8503 27.801L37.1763 29.9089L37.1956 29.9242L37.2151 29.9392L38.8503 27.801ZM41.2998 30.8158L43.7324 29.6635L43.7324 29.6634L41.2998 30.8158ZM40.3576 40.9907L38.1843 39.4025L38.1789 39.41L40.3576 40.9907ZM35.5999 44.6649L36.6268 47.1531L36.6365 47.1491L36.6462 47.145L35.5999 44.6649ZM72.3727 39.0578C70.0437 39.0578 68.1123 38.6929 66.5221 38.0366L64.4683 43.013C66.8351 43.9897 69.4885 44.4413 72.3727 44.4413V39.0578ZM77.0009 38.1968C75.7291 38.7487 74.2039 39.0578 72.3727 39.0578V44.4413C74.8124 44.4413 77.087 44.0281 79.1441 43.1354L77.0009 38.1968ZM79.81 36.0147C79.1793 36.8766 78.2663 37.6235 76.9621 38.214L79.1829 43.1182C81.2075 42.2014 82.9011 40.9069 84.1546 39.1937L79.81 36.0147ZM80.7508 33.1292C80.7508 34.2277 80.4428 35.1572 79.8166 36.0057L84.148 39.2027C85.4688 37.4133 86.1344 35.3595 86.1344 33.1292H80.7508ZM80.5665 32.0091C80.6718 32.2724 80.7508 32.6322 80.7508 33.1292H86.1344C86.1344 32.0559 85.9621 31.0025 85.565 30.0097L80.5665 32.0091ZM79.9639 31.0003C80.2232 31.2942 80.4151 31.6127 80.5503 31.9676L85.5812 30.0511C85.2139 29.0871 84.6835 28.2123 84.0007 27.4384L79.9639 31.0003ZM78.1877 29.7898C79.0444 30.2182 79.6359 30.6597 80.0352 31.078L83.9294 27.3607C83.0097 26.3972 81.874 25.614 80.5953 24.9746L78.1877 29.7898ZM74.8909 28.5594C76.2124 28.9328 77.3038 29.3479 78.1877 29.7898L80.5953 24.9746C79.3436 24.3488 77.9228 23.8218 76.355 23.3787L74.8909 28.5594ZM71.8392 27.6862C72.5891 27.9248 73.6251 28.22 74.9255 28.5689L76.3205 23.3692C75.0457 23.0272 74.1033 22.7571 73.4715 22.5561L71.8392 27.6862ZM69.9349 26.8618C70.398 27.1191 71.0237 27.38 71.6971 27.6366L73.6136 22.6057C72.968 22.3598 72.6515 22.2125 72.5494 22.1557L69.9349 26.8618ZM68.2058 25.323C68.7125 26.1336 69.4354 26.6443 70.1283 26.9592L72.356 22.0583C72.3579 22.0591 72.5784 22.1616 72.771 22.4697L68.2058 25.323ZM67.5611 23.0956C67.5611 23.9076 67.795 24.6656 68.2058 25.323L72.7711 22.4698C72.814 22.5384 72.86 22.632 72.8942 22.7482C72.9286 22.8653 72.9447 22.9839 72.9447 23.0956H67.5611ZM67.9866 21.2794C67.6973 21.858 67.5611 22.4766 67.5611 23.0956H72.9447C72.9447 23.2749 72.9027 23.4852 72.8018 23.687L67.9866 21.2794ZM69.325 19.7724C68.7771 20.1378 68.306 20.6407 67.9866 21.2794L72.8018 23.6869C72.6709 23.9488 72.4825 24.1377 72.3113 24.2518L69.325 19.7724ZM70.9408 19.1018C70.4201 19.2175 69.8551 19.4191 69.3251 19.7724L72.3113 24.2518C72.1581 24.354 72.0642 24.3671 72.1087 24.3572L70.9408 19.1018ZM72.5611 18.9435C72.0296 18.9435 71.4754 18.983 70.9408 19.1018L72.1087 24.3572C72.1394 24.3503 72.2761 24.3271 72.5611 24.3271V18.9435ZM75.626 19.5389C74.6347 19.1671 73.6058 18.9435 72.5611 18.9435V24.3271C72.8354 24.3271 73.2197 24.3861 73.7357 24.5796L75.626 19.5389ZM78.2171 20.731C77.364 20.2269 76.4682 19.8176 75.5321 19.5056L73.8297 24.6129C74.4009 24.8033 74.9497 25.0535 75.4784 25.3659L78.2171 20.731ZM80.5129 22.349C79.8178 21.7357 79.0315 21.1908 78.1723 20.7051L75.5232 25.3918C76.1086 25.7226 76.5784 26.057 76.9511 26.3858L80.5129 22.349ZM81.259 17.5673L76.7368 22.5605L80.7271 26.1744L85.2493 21.1811L81.259 17.5673ZM79.0214 19.8417C79.9686 20.2769 80.7888 20.8028 81.4966 21.413L85.0117 17.3354C83.8981 16.3754 82.6457 15.5823 81.269 14.9498L79.0214 19.8417ZM75.9069 18.7559C77.0188 18.9942 78.0269 19.3461 78.9414 19.8033L81.349 14.9881C80.0023 14.3148 78.5609 13.8189 77.0349 13.4919L75.9069 18.7559ZM72.3256 18.3446C73.6106 18.3446 74.7764 18.4813 75.8331 18.739L77.1087 13.5088C75.5903 13.1384 73.9925 12.961 72.3256 12.961V18.3446ZM69.2364 18.7963C70.2401 18.4952 71.2671 18.3446 72.3256 18.3446V12.961C70.7461 12.961 69.1979 13.1873 67.6894 13.6398L69.2364 18.7963ZM66.6423 20.0055C67.3745 19.4791 68.2119 19.0788 69.1766 18.8135L67.7491 13.6227C66.2016 14.0482 64.7778 14.7157 63.5002 15.6339L66.6423 20.0055ZM65.0438 21.668C65.3926 21.0672 65.892 20.522 66.5962 20.0378L63.5463 15.6016C62.2407 16.4992 61.1698 17.6184 60.3881 18.9647L65.0438 21.668ZM64.5598 23.6608C64.5598 22.8231 64.7436 22.1848 65.0438 21.6679L60.3881 18.9647C59.5577 20.3949 59.1763 21.9862 59.1763 23.6608H64.5598ZM64.9074 25.474C64.6858 24.9568 64.5598 24.3633 64.5598 23.6608H59.1763C59.1763 25.031 59.4271 26.3532 59.9592 27.5947L64.9074 25.474ZM65.9406 26.8483C65.4804 26.409 65.1243 25.9183 64.8586 25.3666L60.008 27.702C60.5589 28.8461 61.3019 29.8628 62.2234 30.7425L65.9406 26.8483ZM67.8943 28.1162C67.0511 27.7074 66.3974 27.2644 65.897 26.8076L62.267 30.7832C63.2113 31.6454 64.3162 32.3643 65.5456 32.9604L67.8943 28.1162ZM70.9349 29.1591C69.736 28.8451 68.7067 28.4846 67.8338 28.0878L65.6061 32.9888C66.8058 33.5342 68.1319 33.9901 69.5709 34.367L70.9349 29.1591ZM73.6859 29.929C72.9298 29.6644 71.9786 29.4038 70.8694 29.1429L69.6364 34.3833C70.6627 34.6248 71.4073 34.8353 71.9074 35.0103L73.6859 29.929ZM75.303 30.481C74.835 30.2729 74.2073 30.0732 73.5361 29.8815L72.0572 35.0579C72.7049 35.2429 73.0194 35.3573 73.1166 35.4005L75.303 30.481ZM77.7024 34.1655C77.7024 33.4268 77.5101 32.6691 77.0634 31.9858C76.6279 31.3199 76.0439 30.866 75.4693 30.5618L72.9504 35.3197C72.9096 35.2981 72.726 35.1896 72.5575 34.932C72.3777 34.657 72.3188 34.3703 72.3188 34.1655H77.7024ZM77.0619 36.271C77.4729 35.6545 77.7024 34.9335 77.7024 34.1655H72.3188C72.3188 33.8372 72.4228 33.5244 72.5825 33.2847L77.0619 36.271ZM76.1215 37.3168C76.4681 37.028 76.8382 36.6498 77.1304 36.1627L72.514 33.393C72.5681 33.3028 72.617 33.2435 72.6448 33.2127C72.6725 33.1819 72.6858 33.1721 72.675 33.1811L76.1215 37.3168ZM74.3227 38.1592C74.8426 38.0437 75.4924 37.8207 76.0798 37.3509L72.7167 33.147C72.8593 33.0329 72.9831 32.9706 73.0553 32.9397C73.1271 32.9089 73.1657 32.9015 73.1548 32.9039L74.3227 38.1592ZM72.7966 38.3175C73.302 38.3175 73.8158 38.2719 74.3227 38.1592L73.1548 32.9039C73.0965 32.9168 72.9821 32.934 72.7966 32.934V38.3175ZM68.5352 37.5136C70.0002 38.0139 71.4354 38.3175 72.7966 38.3175V32.934C72.2108 32.934 71.385 32.798 70.2748 32.4189L68.5352 37.5136ZM64.2058 34.9353C65.4721 36.0829 66.9135 36.9461 68.5158 37.5069L70.2942 32.4256C69.3842 32.1071 68.5645 31.62 67.8209 30.9462L64.2058 34.9353ZM62.6367 39.4072L67.7713 34.9792L64.2554 30.9023L59.1209 35.3302L62.6367 39.4072ZM66.5221 38.0366C64.8361 37.3408 63.6851 36.5101 62.9261 35.621L58.8315 39.1164C60.2708 40.8024 62.1974 42.0758 64.4683 43.013L66.5221 38.0366ZM96.5359 39.0107C94.9688 39.0107 93.62 38.6043 92.4136 37.8075L89.4469 42.2999C91.5693 43.7015 93.9576 44.3942 96.5359 44.3942V39.0107ZM98.8408 38.6777C98.2152 38.8862 97.4565 39.0107 96.5359 39.0107V44.3942C97.9391 44.3942 99.2844 44.2046 100.543 43.785L98.8408 38.6777ZM100.757 37.6809C100.192 38.0877 99.5418 38.4285 98.7918 38.6946L100.592 43.7682C101.789 43.3434 102.898 42.7734 103.903 42.0498L100.757 37.6809ZM101.629 36.8635C101.36 37.1687 101.052 37.4552 100.701 37.7222L103.959 42.0084C104.584 41.5333 105.155 41.0048 105.669 40.4222L101.629 36.8635ZM106.341 41.2785V38.6428H100.957V41.2785H106.341ZM112.458 38.5867H103.649V43.9703H112.458V38.5867ZM109.766 16.171V41.2785H115.149V16.171H109.766ZM103.837 18.8628H112.458V13.4792H103.837V18.8628ZM106.529 18.9003V16.171H101.146V18.9003H106.529ZM100.71 19.5652C101.101 19.8882 101.451 20.2381 101.763 20.6154L105.912 17.1853C105.379 16.541 104.787 15.9507 104.138 15.4147L100.71 19.5652ZM99.054 18.6857C99.7333 18.9048 100.273 19.2045 100.71 19.5652L104.138 15.4147C103.13 14.582 101.975 13.971 100.707 13.5621L99.054 18.6857ZM96.6772 18.3446C97.5961 18.3446 98.381 18.4686 99.054 18.6857L100.707 13.5621C99.4327 13.1511 98.0822 12.961 96.6772 12.961V18.3446ZM92.4427 19.5753C93.6262 18.7714 95.0061 18.3446 96.6772 18.3446V12.961C94.0145 12.961 91.5631 13.6648 89.4178 15.122L92.4427 19.5753ZM89.4435 23.0904C90.1931 21.5412 91.1872 20.4047 92.4136 19.5948L89.4469 15.1024C87.3445 16.4908 85.7321 18.4006 84.5974 20.7455L89.4435 23.0904ZM88.299 28.7012C88.299 26.4555 88.7088 24.6087 89.4435 23.0903L84.5974 20.7455C83.4478 23.1213 82.9155 25.7966 82.9155 28.7012H88.299ZM89.4507 34.2801C88.7043 32.7126 88.299 30.8718 88.299 28.7012H82.9155C82.9155 31.5553 83.4523 34.2052 84.5901 36.5946L89.4507 34.2801ZM92.4624 37.8406C91.2363 36.9918 90.2191 35.8157 89.428 34.2335L84.6128 36.6411C85.7688 38.9531 87.3581 40.8546 89.3981 42.2669L92.4624 37.8406ZM99.0325 37.187C100.437 37.187 101.805 36.8762 103.023 36.135L100.224 31.5364C99.9967 31.6746 99.6376 31.8035 99.0325 31.8035V37.187ZM95.0421 36.1351C96.2596 36.8762 97.6277 37.187 99.0325 37.187V31.8035C98.4274 31.8035 98.0683 31.6746 97.8412 31.5364L95.0421 36.1351ZM92.3659 32.8705C92.9149 34.1514 93.7524 35.26 94.9253 36.0598L97.958 31.6117C97.7492 31.4693 97.5189 31.2276 97.3142 30.7498L92.3659 32.8705ZM91.583 28.7012C91.583 30.1718 91.8147 31.5843 92.3659 32.8705L97.3142 30.7498C97.1117 30.2775 96.9665 29.6173 96.9665 28.7012H91.583ZM92.3659 24.4847C91.8113 25.7788 91.583 27.2099 91.583 28.7012H96.9665C96.9665 27.7429 97.1151 27.07 97.3142 26.6054L92.3659 24.4847ZM94.9965 21.2957C93.7756 22.0726 92.9193 23.1935 92.3659 24.4847L97.3142 26.6054C97.5145 26.1381 97.7259 25.94 97.8868 25.8376L94.9965 21.2957ZM99.0325 20.1683C97.5936 20.1683 96.1993 20.511 94.9712 21.312L97.9121 25.8213C98.1285 25.6801 98.4615 25.5518 99.0325 25.5518V20.1683ZM103.094 21.312C101.866 20.511 100.471 20.1683 99.0325 20.1683V25.5518C99.6035 25.5518 99.9364 25.6801 100.153 25.8213L103.094 21.312ZM105.746 24.4847C105.179 23.1611 104.285 22.0356 103.023 21.2673L100.224 25.8659C100.406 25.977 100.611 26.1704 100.798 26.6054L105.746 24.4847ZM106.576 28.7012C106.576 27.1848 106.324 25.7266 105.713 24.4115L100.831 26.6786C101.036 27.1221 101.193 27.7681 101.193 28.7012H106.576ZM105.713 32.9437C106.32 31.637 106.576 30.1977 106.576 28.7012H101.193C101.193 29.5913 101.04 30.2247 100.831 30.6766L105.713 32.9437ZM103.094 36.0904C104.309 35.2977 105.184 34.1828 105.746 32.8705L100.798 30.7498C100.607 31.1962 100.382 31.4317 100.153 31.5811L103.094 36.0904ZM130.683 49.4211C128.78 49.4211 126.885 49.1459 124.989 48.5884L123.47 53.7531C125.845 54.4518 128.252 54.8046 130.683 54.8046V49.4211ZM135.584 48.6787C134.227 49.156 132.606 49.4211 130.683 49.4211V54.8046C133.094 54.8046 135.335 54.473 137.37 53.757L135.584 48.6787ZM139.007 46.72C138.132 47.5489 137.029 48.205 135.64 48.6596L137.314 53.7761C139.38 53.1002 141.197 52.0605 142.709 50.6282L139.007 46.72ZM141.125 43.5625C140.637 44.8298 139.938 45.8597 139.032 46.6962L142.684 50.6521C144.227 49.2275 145.381 47.4938 146.149 45.4951L141.125 43.5625ZM141.887 38.9703C141.887 40.8108 141.612 42.3188 141.131 43.5461L146.143 45.5115C146.918 43.5356 147.271 41.3379 147.271 38.9703H141.887ZM141.887 16.171V38.9703H147.271V16.171H141.887ZM136.383 18.8628H144.579V13.4792H136.383V18.8628ZM138.888 18.7451L139.067 16.374L133.699 15.968L133.519 18.3391L138.888 18.7451ZM133.906 20.076C134.039 20.1871 134.157 20.2973 134.262 20.4061L138.145 16.678C137.896 16.4183 137.631 16.1726 137.352 15.9403L133.906 20.076ZM132.529 19.1833C133.063 19.4281 133.493 19.711 133.841 20.02L137.417 15.9963C136.634 15.3003 135.745 14.7353 134.772 14.2893L132.529 19.1833ZM130.711 18.5631C131.377 18.711 131.966 18.9144 132.489 19.1646L134.812 14.3079C133.891 13.8672 132.91 13.5368 131.879 13.3078L130.711 18.5631ZM128.61 18.3446C129.372 18.3446 130.071 18.4207 130.711 18.5631L131.879 13.3078C130.824 13.0733 129.732 12.961 128.61 12.961V18.3446ZM124.233 19.5603C125.455 18.7686 126.884 18.3446 128.61 18.3446V12.961C125.94 12.961 123.475 13.6362 121.305 15.0427L124.233 19.5603ZM121.11 23.1054C121.919 21.5385 122.963 20.3834 124.233 19.5603L121.305 15.0427C119.183 16.4179 117.527 18.309 116.326 20.6362L121.11 23.1054ZM119.949 28.5599C119.949 26.3625 120.368 24.5646 121.118 23.0903L116.318 20.6513C115.121 23.0083 114.566 25.6698 114.566 28.5599H119.949ZM121.122 33.666C120.373 32.3081 119.949 30.6356 119.949 28.5599H114.566C114.566 31.3832 115.148 33.9817 116.408 36.2666L121.122 33.666ZM124.248 36.9448C122.942 36.161 121.905 35.0858 121.122 33.666L116.408 36.2666C117.635 38.4896 119.33 40.2722 121.478 41.5611L124.248 36.9448ZM128.846 38.0686C126.997 38.0686 125.481 37.6619 124.217 36.9263L121.51 41.5796C123.7 42.8538 126.173 43.4521 128.846 43.4521V38.0686ZM131.858 37.5334C130.913 37.8877 129.915 38.0686 128.846 38.0686V43.4521C130.541 43.4521 132.18 43.1619 133.748 42.5741L131.858 37.5334ZM133.983 36.2801C133.45 36.7539 132.746 37.1862 131.824 37.5461L133.781 42.5613C135.201 42.0072 136.476 41.2658 137.557 40.306L133.983 36.2801ZM138.462 38.9703V38.293H133.079V38.9703H138.462ZM137.437 43.633C138.182 42.2413 138.462 40.6337 138.462 38.9703H133.079C133.079 40.0705 132.888 40.7239 132.691 41.0908L137.437 43.633ZM133.985 46.7756C135.505 46.1382 136.722 45.0653 137.471 43.5657L132.656 41.1581C132.527 41.4172 132.33 41.6318 131.903 41.8109L133.985 46.7756ZM129.27 47.6445C131.007 47.6445 132.661 47.396 134.082 46.7325L131.806 41.854C131.343 42.0699 130.547 42.261 129.27 42.261V47.6445ZM126.095 47.364C127.118 47.5536 128.178 47.6445 129.27 47.6445V42.261C128.477 42.261 127.747 42.1949 127.075 42.0705L126.095 47.364ZM123.051 46.4274C124.027 46.857 125.043 47.1693 126.095 47.364L127.075 42.0705C126.43 41.9511 125.813 41.761 125.219 41.4997L123.051 46.4274ZM120.523 45.1039C121.344 45.6262 122.203 46.0747 123.1 46.4482L125.17 41.4788C124.56 41.2243 123.975 40.9191 123.413 40.562L120.523 45.1039ZM121.412 50.0117L124.38 44.0292L119.557 41.6368L116.589 47.6193L121.412 50.0117ZM124.954 48.5783C123.028 48.0403 121.599 47.3701 120.575 46.632L117.426 50.999C119.103 52.2079 121.16 53.1079 123.505 53.7632L124.954 48.5783ZM130.918 37.0457C132.388 37.0457 133.817 36.7179 135.077 35.9299L132.224 31.3647C131.977 31.5189 131.584 31.6621 130.918 31.6621V37.0457ZM126.76 35.9299C128.02 36.7179 129.449 37.0457 130.918 37.0457V31.6621C130.253 31.6621 129.86 31.5189 129.613 31.3647L126.76 35.9299ZM124.018 32.8366C124.634 34.1148 125.549 35.173 126.76 35.9299L129.613 31.3647C129.317 31.1795 129.07 30.9187 128.869 30.5011L124.018 32.8366ZM123.186 28.607C123.186 30.0734 123.417 31.4866 123.984 32.7621L128.903 30.5756C128.716 30.1553 128.57 29.5272 128.57 28.607H123.186ZM123.984 24.4518C123.417 25.7274 123.186 27.1405 123.186 28.607H128.57C128.57 27.6867 128.716 27.0586 128.903 26.6383L123.984 24.4518ZM126.83 21.2415C125.549 21.9887 124.615 23.0913 124.002 24.4116L128.885 26.6786C129.088 26.2402 129.316 26.0239 129.543 25.8917L126.83 21.2415ZM130.918 20.1683C129.449 20.1683 128.02 20.4961 126.76 21.284L129.613 25.8492C129.86 25.6951 130.253 25.5518 130.918 25.5518V20.1683ZM135.077 21.284C133.817 20.4961 132.388 20.1683 130.918 20.1683V25.5518C131.584 25.5518 131.977 25.6951 132.224 25.8493L135.077 21.284ZM137.835 24.4116C137.222 23.0913 136.288 21.9887 135.007 21.2415L132.294 25.8917C132.521 26.0239 132.749 26.2402 132.952 26.6786L137.835 24.4116ZM138.698 28.607C138.698 27.1144 138.443 25.6737 137.819 24.3774L132.968 26.7128C133.161 27.1123 133.314 27.7128 133.314 28.607H138.698ZM137.819 32.8366C138.443 31.5403 138.698 30.0995 138.698 28.607H133.314C133.314 29.5011 133.161 30.1017 132.968 30.5011L137.819 32.8366ZM135.077 35.9299C136.288 35.173 137.203 34.1148 137.819 32.8366L132.968 30.5011C132.767 30.9187 132.52 31.1795 132.224 31.3647L135.077 35.9299ZM153.948 41.2785V16.171H148.564V41.2785H153.948ZM160.017 38.5867H151.256V43.9703H160.017V38.5867ZM157.326 16.171V41.2785H162.709V16.171H157.326ZM151.256 18.8628H160.017V13.4792H151.256V18.8628ZM155.637 8.7215C154.408 8.7215 153.858 8.44258 153.624 8.24983L150.207 12.4098C151.731 13.6617 153.662 14.105 155.637 14.105V8.7215ZM157.553 8.19685C157.255 8.45381 156.715 8.7215 155.637 8.7215V14.105C157.636 14.105 159.545 13.5876 161.068 12.2744L157.553 8.19685ZM157.985 7.17373C157.985 7.68675 157.841 7.94863 157.553 8.19684L161.068 12.2744C162.602 10.9524 163.369 9.17304 163.369 7.17373H157.985ZM157.638 6.12663C157.781 6.23963 157.985 6.44053 157.985 7.17373H163.369C163.369 5.14339 162.662 3.24021 160.984 1.90863L157.638 6.12663ZM155.637 5.57886C156.794 5.57886 157.318 5.85429 157.559 6.06138L161.063 1.97388C159.546 0.673577 157.62 0.195312 155.637 0.195312V5.57886ZM153.712 6.11606C154.002 5.85652 154.536 5.57886 155.637 5.57886V0.195312C153.597 0.195312 151.65 0.734152 150.118 2.10763L153.712 6.11606ZM153.288 7.17373C153.288 6.62754 153.442 6.35748 153.708 6.11974L150.122 2.10394C148.63 3.43641 147.904 5.2076 147.904 7.17373H153.288ZM153.667 8.28609C153.486 8.13088 153.288 7.88281 153.288 7.17373H147.904C147.904 9.1654 148.586 11.0214 150.163 12.3736L153.667 8.28609ZM9.72943 0.556954C4.52625 0.556954 0.308228 4.77496 0.308228 9.97815H5.69177C5.69177 7.74822 7.49949 5.9405 9.72943 5.9405V0.556954ZM49.5131 0.556954H9.72943V5.9405H49.5131V0.556954ZM58.9343 9.97816C58.9343 4.77497 54.7163 0.556954 49.5131 0.556954V5.9405C51.7431 5.9405 53.5508 7.74822 53.5508 9.97816H58.9343ZM58.9343 48.2706V9.97816H53.5508V48.2706H58.9343ZM49.5131 57.6918C54.7163 57.6918 58.9343 53.4738 58.9343 48.2706H53.5508C53.5508 50.5005 51.7431 52.3083 49.5131 52.3083V57.6918ZM9.72943 57.6918H49.5131V52.3083H9.72943V57.6918ZM0.308228 48.2706C0.308228 53.4738 4.52624 57.6918 9.72943 57.6918V52.3083C7.49949 52.3083 5.69177 50.5005 5.69177 48.2706H0.308228ZM0.308228 9.97815V48.2706H5.69177V9.97815H0.308228ZM21.8063 47.6754C23.948 48.2925 26.3099 48.5815 28.8638 48.5815V43.1979C26.707 43.1979 24.8608 42.953 23.2968 42.5023L21.8063 47.6754ZM16.1397 44.9744C17.819 46.1685 19.7127 47.0618 21.7945 47.672L23.3087 42.5058C21.7476 42.0482 20.4067 41.4027 19.2596 40.587L16.1397 44.9744ZM11.8906 40.947C13.1337 42.4742 14.543 43.8133 16.1164 44.9576L19.2829 40.6038C18.0927 39.7382 17.0211 38.722 16.0659 37.5485L11.8906 40.947ZM17.4273 31.2924L11.963 37.4632L15.9935 41.0322L21.4578 34.8613L17.4273 31.2924ZM25.3265 34.689C24.2441 34.2397 22.9754 33.2547 21.5761 31.4356L17.309 34.7181C19.0501 36.9815 21.016 38.7287 23.2625 39.6612L25.3265 34.689ZM29.1464 35.4725C27.9599 35.4725 26.6787 35.2244 25.286 34.6726L23.3029 39.6776C25.2391 40.4447 27.1925 40.8561 29.1464 40.8561V35.4725ZM30.4467 35.3482C30.1057 35.424 29.6773 35.4725 29.1464 35.4725V40.8561C29.9973 40.8561 30.825 40.779 31.6146 40.6035L30.4467 35.3482ZM30.3017 35.4686C30.3865 35.3744 30.455 35.3342 30.4653 35.3284C30.47 35.3258 30.4613 35.3311 30.4353 35.3414C30.4092 35.3517 30.3684 35.3661 30.3102 35.3823L31.7511 40.5694C32.6255 40.3266 33.5692 39.8856 34.3033 39.07L30.3017 35.4686ZM30.0818 35.9974C30.0818 35.9649 30.0876 35.8761 30.1316 35.7573C30.1768 35.6354 30.2436 35.5325 30.3108 35.4586L34.2943 39.08C35.0948 38.1994 35.4653 37.1139 35.4653 35.9974H30.0818ZM30.2948 36.5484C30.2246 36.4606 30.1646 36.3529 30.1257 36.2363C30.0878 36.1226 30.0818 36.0362 30.0818 35.9974H35.4653C35.4653 35.0073 35.168 34.022 34.4986 33.1853L30.2948 36.5484ZM30.1566 36.4737C30.3237 36.5572 30.3348 36.5984 30.2948 36.5484L34.4986 33.1853C33.9562 32.5073 33.2764 32.0146 32.5642 31.6585L30.1566 36.4737ZM29.0042 35.9449C29.4034 36.0858 29.7407 36.2408 30.0249 36.4032L32.6959 31.729C32.1007 31.3889 31.4646 31.1042 30.796 30.8683L29.0042 35.9449ZM27.8307 35.6334C28.2128 35.7009 28.6036 35.8035 29.0042 35.9449L30.796 30.8683C30.1289 30.6328 29.452 30.4528 28.7663 30.3318L27.8307 35.6334ZM26.0911 35.2172C26.6064 35.346 27.1367 35.4745 27.682 35.6029L28.915 30.3624C28.3926 30.2395 27.8865 30.1168 27.3969 29.9944L26.0911 35.2172ZM20.7782 33.5018C22.3678 34.2243 24.1715 34.7953 26.1648 35.2345L27.3232 29.9771C25.6108 29.5998 24.1799 29.1344 23.0059 28.6008L20.7782 33.5018ZM16.6055 30.8381C17.788 31.9023 19.1938 32.7816 20.7782 33.5018L23.0059 28.6008C21.8269 28.0648 20.9087 27.4681 20.2069 26.8365L16.6055 30.8381ZM13.8489 26.8578C14.466 28.3391 15.3706 29.648 16.5365 30.7738L20.2759 26.9008C19.6205 26.268 19.1432 25.5671 18.8183 24.7872L13.8489 26.8578ZM12.9823 22.0069C12.9823 23.6997 13.246 25.3097 13.8248 26.7981L18.8423 24.8469C18.5418 24.0742 18.3659 23.1406 18.3659 22.0069H12.9823ZM14.4099 16.4504C13.4522 18.1576 12.9823 20.0272 12.9823 22.0069H18.3659C18.3659 20.9091 18.6182 19.9523 19.1051 19.0843L14.4099 16.4504ZM17.998 12.3301C16.5178 13.4597 15.3149 14.8372 14.4099 16.4504L19.1051 19.0843C19.6448 18.1224 20.3574 17.3017 21.264 16.6098L17.998 12.3301ZM22.9413 9.77633C21.102 10.3394 19.4337 11.1962 17.963 12.3572L21.2989 16.5827C22.215 15.8595 23.2789 15.3031 24.5171 14.9241L22.9413 9.77633ZM28.6282 8.90473C26.662 8.90473 24.7518 9.19674 22.9088 9.78649L24.5496 14.9139C25.847 14.4987 27.2028 14.2883 28.6282 14.2883V8.90473ZM35.3097 9.71678C33.3637 9.15544 31.1189 8.90473 28.6282 8.90473V14.2883C30.7854 14.2883 32.4975 14.5086 33.8175 14.8894L35.3097 9.71678ZM40.306 12.1031C38.8718 10.9968 37.1661 10.2162 35.2634 9.70388L33.8638 14.9023C35.2271 15.2693 36.2535 15.7762 37.0177 16.3657L40.306 12.1031ZM43.7646 15.6261C42.7871 14.2727 41.6215 13.0895 40.2769 12.081L37.0468 16.3879C37.9632 17.0752 38.7447 17.8705 39.4002 18.7781L43.7646 15.6261ZM37.8942 24.5081L43.4527 19.138L39.7121 15.2662L34.1536 20.6363L37.8942 24.5081ZM32.4721 23.0904C33.0186 23.4183 33.5406 23.8445 34.0361 24.3872L38.0117 20.7572C37.1882 19.8553 36.2656 19.0882 35.2419 18.474L32.4721 23.0904ZM30.8019 22.3451C31.349 22.4924 31.8904 22.7273 32.4304 23.0648L35.2837 18.4996C34.3162 17.8949 33.2874 17.439 32.2015 17.1466L30.8019 22.3451ZM29.0051 22.0608C29.5826 22.0608 30.1481 22.1457 30.7101 22.3186L32.2933 17.1731C31.2223 16.8436 30.1234 16.6772 29.0051 16.6772V22.0608ZM27.6175 22.2077C27.9395 22.1229 28.3917 22.0608 29.0051 22.0608V16.6772C28.0483 16.6772 27.1187 16.7721 26.2474 17.0014L27.6175 22.2077ZM27.5168 22.2145C27.4659 22.2654 27.4344 22.2799 27.4498 22.2717C27.4674 22.2623 27.5289 22.2325 27.6529 22.1981L26.212 17.011C25.3385 17.2536 24.4411 17.6767 23.7101 18.4078L27.5168 22.2145ZM27.8342 21.4888C27.8342 21.5168 27.8296 21.6417 27.7594 21.8172C27.6849 22.0034 27.5638 22.1772 27.4142 22.3119L23.8128 18.3103C22.824 19.2002 22.4506 20.3809 22.4506 21.4888H27.8342ZM27.5639 20.763C27.5947 20.7938 27.6703 20.8802 27.7358 21.0288C27.8036 21.1829 27.8342 21.345 27.8342 21.4888H22.4506C22.4506 22.7248 22.9684 23.781 23.7572 24.5698L27.5639 20.763ZM28.0044 20.9782C27.6935 20.8502 27.5382 20.7355 27.4713 20.6747L23.8499 24.6582C24.4738 25.2254 25.1978 25.6446 25.9547 25.9562L28.0044 20.9782ZM29.3604 21.4293C28.8716 21.3007 28.4204 21.1495 28.0044 20.9782L25.9546 25.9562C26.6064 26.2246 27.2858 26.4502 27.9903 26.6356L29.3604 21.4293ZM30.8672 21.7166C30.3776 21.6248 29.8232 21.517 29.2033 21.393L28.1474 26.672C28.7836 26.7992 29.3598 26.9113 29.8751 27.0079L30.8672 21.7166ZM36.0815 23.2291C34.4941 22.5941 32.763 22.0955 30.8991 21.7227L29.8433 27.0017C31.4338 27.3198 32.8431 27.732 34.0821 28.2276L36.0815 23.2291ZM40.5242 25.693C39.2063 24.6465 37.6928 23.8235 36.0149 23.2034L34.1487 28.2532C35.3599 28.7008 36.3587 29.2597 37.1763 29.9089L40.5242 25.693ZM43.7324 29.6634C42.9802 28.0755 41.8873 26.7348 40.4854 25.6627L37.2151 29.9392C37.9486 30.5001 38.4888 31.1693 38.8671 31.9681L43.7324 29.6634ZM44.8394 35.0082C44.8394 33.0914 44.5007 31.2854 43.7324 29.6635L38.8671 31.9681C39.2293 32.7328 39.4559 33.7217 39.4559 35.0082H44.8394ZM42.531 42.5788C44.1143 40.4121 44.8394 37.8373 44.8394 35.0082H39.4559C39.4559 36.8897 38.9876 38.3032 38.1843 39.4025L42.531 42.5788ZM36.6462 47.145C39.0608 46.1264 41.0571 44.6104 42.5364 42.5713L38.1789 39.41C37.3343 40.5741 36.1588 41.5076 34.5536 42.1848L36.6462 47.145ZM28.8638 48.5815C31.6681 48.5815 34.2712 48.1253 36.6268 47.1531L34.5731 42.1767C32.9717 42.8376 31.0841 43.1979 28.8638 43.1979V48.5815Z" fill="#B4DBD1" fill-opacity="0.85" mask="url(#path-1-outside-1_14_3)"/>
</svg>
