<svg xmlns="http://www.w3.org/2000/svg" enable-background="new 0 0 1000 700" viewBox="0 0 1000 700" id="Poormanonthestreet"><g fill="#000000" class="color000000 svgShape"><ellipse cx="410.693" cy="560.478" fill="#eaf3f4" rx="225.439" ry="31.372" class="coloreaf2f4 svgShape"></ellipse><ellipse cx="737.954" cy="518.515" fill="#eaf3f4" rx="225.439" ry="31.372" class="coloreaf2f4 svgShape"></ellipse><ellipse cx="225.4" cy="465.689" fill="#eaf3f4" rx="156.031" ry="21.713" class="coloreaf2f4 svgShape"></ellipse><g fill="#000000" class="color000000 svgShape"><polygon fill="#c8dcde" points="310.971 461.789 109.082 432.6 88.183 356.206 290.073 385.396" class="colorc8d4de svgShape"></polygon><g fill="#000000" class="color000000 svgShape"><path fill="#225d62" d="M310.975,464.471c-0.127,0-0.257-0.01-0.387-0.029l-201.892-29.189
				c-1.054-0.153-1.921-0.916-2.201-1.947l-20.897-76.396c-0.239-0.869-0.021-1.804,0.576-2.481c0.6-0.675,1.482-1.007,2.393-0.877
				l201.889,29.189c1.054,0.153,1.921,0.916,2.201,1.947l10.586,38.701c0.389,1.427-0.452,2.902-1.879,3.291
				c-1.407,0.387-2.896-0.449-3.291-1.879l-10.122-37.007L91.848,359.442l19.353,70.759l200.155,28.938
				c1.464,0.213,2.481,1.57,2.268,3.036C313.433,463.508,312.286,464.471,310.975,464.471z" class="color262262 svgShape"></path></g><polygon fill="#ffffff" points="241.176 481.082 39.286 451.892 88.183 356.206 290.073 385.396" class="colorffffff svgShape"></polygon><polygon fill="#eaf3f4" points="239.197 478.181 58.866 452.108 102.541 366.64 282.872 392.712" class="coloreaf2f4 svgShape"></polygon><g fill="#000000" class="color000000 svgShape"><path fill="#225d62" d="M241.177,483.762c-0.127,0-0.254-0.01-0.384-0.029l-201.89-29.189
				c-0.855-0.125-1.599-0.654-1.996-1.422c-0.397-0.768-0.4-1.679-0.007-2.45l48.898-95.686c0.519-1.023,1.622-1.594,2.769-1.433
				l201.889,29.189c0.856,0.125,1.599,0.654,1.996,1.422c0.397,0.768,0.4,1.679,0.005,2.45l-48.896,95.686
				C243.1,483.207,242.174,483.762,241.177,483.762z M43.377,449.776l196.287,28.377l46.318-90.644L89.697,359.133L43.377,449.776z" class="color262262 svgShape"></path></g><g fill="#000000" class="color000000 svgShape"><path fill="#225d62" d="M106.14 381.406l-6.143 14.897 16.742 2.803 6.14-14.894 4.516.755-14.679 35.602-4.516-.755 6.883-16.693-16.742-2.803-6.883 16.691-4.469-.747 14.682-35.602L106.14 381.406zM145.267 408.179l-13.457-2.255-5.292 12.836 14.993 2.512-1.591 3.854-19.46-3.26 14.679-35.603 18.691 3.133-1.588 3.854-14.225-2.383-4.64 11.253 13.457 2.253L145.267 408.179zM160.398 390.495l4.464.747-13.088 31.748 14.791 2.479-1.591 3.854-19.257-3.226L160.398 390.495zM184.451 394.974c2.31-.005 5.263.151 8.86.753 4.417.74 7.218 2.336 8.487 4.583 1.202 2.009 1.266 4.786-.042 7.957-1.329 3.221-3.296 5.601-5.808 7.158-3.426 2.193-7.825 2.868-12.188 2.136-1.337-.223-2.549-.483-3.467-.919l-5.881 14.261-4.466-.747L184.451 394.974zM181.84 412.892c.867.426 2.055.74 3.545.991 5.39.903 9.79-1.243 11.816-6.156 1.939-4.7-.361-7.513-5.292-8.339-1.952-.327-3.506-.418-4.363-.337L181.84 412.892z" class="color262262 svgShape"></path></g></g><g fill="#000000" class="color000000 svgShape"><g fill="#000000" class="color000000 svgShape"><path fill="#39cdd9" d="M655.924,408.998c1.331,104.206,46.544,180.804-85.56,133.954
				c-46.548-16.508-80.847-23.524-58.838-154.432c17.28-102.782,37.51-172.518,86.899-172.518c7.951,0,15.142,2.128,21.51,6.121
				C653.124,242.934,654.807,321.558,655.924,408.998z" class="colord9ab39 svgShape"></path><g fill="#000000" class="color000000 svgShape"><path fill="#225d62" d="M630.883,559.714c-8.03,0-17.581-1.394-28.86-4.165c-1.435-0.353-2.315-1.806-1.962-3.244
					c0.353-1.435,1.809-2.307,3.244-1.962c24.199,5.951,40.079,5.232,48.558-2.188c13.065-11.438,10.007-39.516,6.135-75.067
					c-2.092-19.208-4.461-40.98-4.755-64.055c-1.03-80.714-2.097-164.177-34.733-184.638c-6.045-3.792-12.803-5.712-20.088-5.712
					c-46.324,0-66.583,65.155-84.257,170.281c-20.825,123.866,8.149,134.123,52.005,149.653l5.095,1.811
					c1.394,0.498,2.118,2.035,1.619,3.426c-0.498,1.396-2.035,2.115-3.426,1.62l-5.079-1.806
					c-44.743-15.842-77.07-27.29-55.498-155.591c18.136-107.887,39.443-174.755,89.541-174.755c8.31,0,16.026,2.198,22.935,6.532
					c35.112,22.013,36.147,103.179,37.243,189.112c0.293,22.818,2.647,44.452,4.726,63.541c4.041,37.1,7.231,66.406-7.934,79.681
					C649.65,557.214,641.635,559.711,630.883,559.714z" class="color262262 svgShape"></path></g></g><g fill="#000000" class="color000000 svgShape"><g fill="#000000" class="color000000 svgShape"><path fill="#ffffff" d="M329.942,228.707c-0.02-0.022-1.725-3.665-1.741-3.69c-1.545-2.303-3.049-4.335-4.012-5.64
					l-24.356-9.483c-15.691-3.341-30.385-15.764-30.385-15.764c-2.225-1.083-11.32-0.679-13.031,8.307
					c-1.156,6.071,0.362,13.793,4.286,19.89c1.577,2.451,10.46,11.188,13.079,12.467c8.865,4.331,37.316,16.806,37.366,16.851
					c8.499,7.699,21.471,16.966,21.471,16.966l14.218-29.756L329.942,228.707z" class="colorffffff svgShape"></path><path fill="#44ddea" d="M344.4,246.274c-6.73-3.562-13.125-7.524-19.133-11.597c-1.721-2.889-3.904-6.433-6.092-9.922
					l-14.946-12.58c0.101,1.636-4.871,3.575-6.338,2.844l-17.334-4.16l-14.381-9.941c-2.225-1.083-8.626-5.383-9.758,1.52
					c-1.259,7.682,0.708,16.396,4.286,19.89c10.414,10.172,23.794,18.236,50.786,29.891c5.596,4.663,12.74,10.653,21.129,16.393
					C331.771,269.81,344.4,246.274,344.4,246.274z" class="colorea5444 svgShape"></path><g fill="#000000" class="color000000 svgShape"><path fill="#225d62" d="M346.835,241.537c-0.434,0-0.872-0.106-1.28-0.327c-1.565-0.854-2.876-1.523-4.09-2.144
						c-3.758-1.921-6.727-3.439-13.125-8.212c-0.327-0.244-0.592-0.558-0.779-0.919c-2.253-4.355-3.958-6.841-5.331-8.7
						c-0.877-1.189-0.625-2.868,0.566-3.748c1.189-0.875,2.868-0.628,3.748,0.566c1.435,1.944,3.205,4.516,5.489,8.868
						c5.692,4.212,8.3,5.546,11.871,7.371c1.251,0.641,2.603,1.331,4.215,2.209c1.3,0.708,1.78,2.336,1.072,3.636
						C348.703,241.031,347.784,241.537,346.835,241.537z" class="color262262 svgShape"></path></g><g fill="#000000" class="color000000 svgShape"><path fill="#225d62" d="M310.033,254.129c-0.343,0-0.688-0.065-1.025-0.205c-7.581-3.135-27.105-11.78-33.303-14.819
						c-6.07-2.977-13.924-11.489-17.017-15.009c-6.647-7.568-6.112-15.818-4.902-22.161c1.041-5.471,4.311-8.147,6.87-9.429
						c3.711-1.858,7.905-1.788,9.969-0.784c0.112,0.054,0.223,0.119,0.327,0.189l13.781,9.333l19.057,6.636
						c1.399,0.485,2.139,2.014,1.651,3.41c-0.485,1.401-2.024,2.136-3.41,1.651l-19.39-6.75c-0.221-0.075-0.431-0.182-0.623-0.311
						l-13.843-9.374c-0.737-0.221-3.143-0.278-5.331,0.903c-2.027,1.093-3.304,2.954-3.794,5.528
						c-1.093,5.741-1.404,11.848,3.667,17.622c2.248,2.556,10,11.111,15.351,13.734c6.125,3.005,25.468,11.567,32.992,14.679
						c1.368,0.566,2.017,2.133,1.451,3.501C312.083,253.504,311.084,254.129,310.033,254.129z" class="color262262 svgShape"></path></g><g fill="#000000" class="color000000 svgShape"><path fill="#c8dcde" d="M244.067,162.543v55.602c0,3.65,12.876,6.609,28.76,6.609c15.884,0,28.76-2.959,28.76-6.609
						v-55.602H244.067z" class="colorc8d4de svgShape"></path><path fill="#ffffff" d="M255.083,162.543h-11.015v55.603c0,2.11,4.317,3.984,11.015,5.194V162.543z" class="colorffffff svgShape"></path><g fill="#000000" class="color000000 svgShape"><path fill="#225d62" d="M272.827,227.434c-5.25,0-31.44-0.449-31.44-9.289v-55.602c0-1.479,1.202-2.681,2.681-2.681
							h57.52c1.479,0,2.681,1.202,2.681,2.681v55.602C304.269,226.985,278.077,227.434,272.827,227.434z M246.749,217.805
							c1.492,1.523,10.462,4.267,26.078,4.267c15.618,0,24.588-2.743,26.08-4.267v-52.581h-52.158V217.805z" class="color262262 svgShape"></path></g><ellipse cx="272.827" cy="161.746" fill="#2cb1bc" rx="28.76" ry="6.609" class="color7c8b99 svgShape"></ellipse><g fill="#000000" class="color000000 svgShape"><path fill="#225d62" d="M272.827,171.035c-5.25,0-31.44-0.449-31.44-9.289c0-8.842,26.189-9.291,31.44-9.291
							c5.25,0,31.442,0.449,31.442,9.291C304.269,170.586,278.077,171.035,272.827,171.035z M247.175,161.747
							c2.364,1.557,11.136,3.927,25.652,3.927c14.516,0,23.29-2.37,25.655-3.927c-2.364-1.56-11.137-3.929-25.655-3.929
							C258.309,157.817,249.536,160.187,247.175,161.747z M299.026,162.224h0.026H299.026z" class="color262262 svgShape"></path></g></g><path fill="#ffffff" d="M299.833,209.894l24.356,9.483c-2.801-3.796-6.168-8.439-7.689-10.841
					c-2.712-4.282-10.708-9.673-11.433-10.157c-0.039-0.026-0.074-0.044-0.116-0.063l-10.24-5.96
					c-6.494-3.504-7.366,4.596-4.697,7.034l10.532,9.473C301.098,209.359,300.139,209.96,299.833,209.894z" class="colorffffff svgShape"></path><path fill="#44ddea" d="M309.939,210.606c-3.832-5.088-19.866-15.451-19.866-15.451s0.872,5.098,1.425,5.61
					c0,0,12.614,9.527,12.73,11.409l14.946,12.58C315.238,218.482,311.281,212.388,309.939,210.606z" class="colorea5444 svgShape"></path><g fill="#000000" class="color000000 svgShape"><path fill="#225d62" d="M324.39,222.326c-0.823,0-1.632-0.376-2.157-1.087c-2.51-3.395-5.44-7.594-7.251-10.192
						l-0.677-0.976c-2.985-4.267-6.133-6.361-10.114-9.014l-1.152-0.771l-9.675-5.614c-1.373-0.74-1.767-0.119-1.9,0.086
						c-0.446,0.703-0.441,2.164,0.965,3.205l12.219,10.407c1.126,0.96,1.261,2.652,0.301,3.779c-0.96,1.126-2.65,1.259-3.779,0.301
						l-12.073-10.293c-3.641-2.689-3.999-7.368-2.157-10.27c1.588-2.505,4.996-4.069,9.039-1.892l11.181,6.6
						c4.101,2.728,7.973,5.307,11.536,10.405l0.683,0.978c1.791,2.569,4.685,6.719,7.163,10.072c0.88,1.191,0.628,2.868-0.56,3.748
						C325.501,222.155,324.943,222.326,324.39,222.326z" class="color262262 svgShape"></path></g></g><g fill="#000000" class="color000000 svgShape"><path fill="#ffffff" d="M552.517,307.049c-17.746,13.105-32.384,22.162-54.148,28.947
					c-19.612,6.115-35.449,10.238-55.974,8.815c-55.018-3.813-103.071-30.71-131.464-76.539c-1.348-2.175-5.675-8.445-7.139-10.864
					c13.735-12.192,24.306-22.964,39.179-32.945c6.851,11.064,12.955,21.655,22.27,31.064
					c31.348,31.664,74.146,47.46,116.552,29.533c20.786-8.787,34.013-29.798,57.555-28.724
					C566.581,257.58,574.07,291.133,552.517,307.049z" class="colorffffff svgShape"></path><path fill="#c8dcde" d="M542.853,309.512c-17.746,13.105-28.152,21.363-49.916,28.148
					c-19.612,6.115-43.587,7.277-64.102,5.717c-68.698-5.226-116.608-88.51-118.072-90.928
					c13.735-12.192,17.336-18.004,32.209-27.985c6.851,11.064,12.955,21.655,22.27,31.064
					c31.348,31.664,67.14,57.547,119.634,37.395c21.068-8.088,30.836-30.019,54.378-28.944
					C566.486,265.221,564.405,293.596,542.853,309.512z" class="colorc8d4de svgShape"></path><g fill="#000000" class="color000000 svgShape"><path fill="#225d62" d="M451.259,347.804c-2.925,0-5.93-0.104-9.047-0.319c-46.824-3.247-89.58-23.565-117.3-55.747
						c-9.501-11.027-22.823-32.005-23.384-32.893c-0.667-1.051-0.522-2.421,0.35-3.312c9.229-9.418,22.148-20.285,39.493-33.217
						c0.597-0.449,1.36-0.633,2.102-0.483c0.737,0.14,1.383,0.581,1.778,1.22l2.118,3.436c5.987,9.74,11.645,18.938,19.776,27.155
						c34.141,34.484,75.552,45.034,113.604,28.948c7.495-3.169,14.145-8.121,20.576-12.912c11.048-8.227,22.46-16.724,38.143-16.021
						c12.979,0.592,23.295,8.367,26.921,20.293c3.953,12.987-0.869,26.825-12.281,35.255
						c-16.374,12.091-31.266,21.214-54.867,29.324C482.743,344.197,468.458,347.804,451.259,347.804z M307.207,257.773
						c3.48,5.385,14.1,21.57,21.764,30.466c26.794,31.105,68.205,50.751,113.609,53.899c20.578,1.425,36.254-2.266,54.917-8.679
						c23.057-7.921,37.051-16.472,53.43-28.566c9.561-7.059,13.618-18.595,10.337-29.382c-2.992-9.839-11.232-16.005-22.039-16.501
						c-13.836-0.581-23.931,6.95-34.697,14.967c-6.688,4.98-13.602,10.129-21.692,13.55c-39.586,16.732-84.262,5.476-119.501-30.116
						c-8.564-8.653-14.378-18.105-20.531-28.115l-0.573-0.929C327.196,239.681,315.696,249.333,307.207,257.773z" class="color262262 svgShape"></path></g></g></g><g fill="#000000" class="color000000 svgShape"><path fill="#ffffff" d="M603.163,242.858c-31.254-1.355-64.653,2.65-75.649,22.418
				c-13.932,25.047-13.376,52.893-8.812,70.898c3.439,13.567,19.034,62.464,27.422,88.476l0,0
				c-0.904,25.721,22.589,60.262,48.314,61.027c11.107,0.33,24.111-0.037,38.913-1.657c43.199-4.728,56.123-16.344,56.123-16.344
				s-9.945-37.887-19.024-74.723c-8.604-34.91-1.679-98.585-8.109-115.552C653.344,253.661,634.98,244.237,603.163,242.858z" class="colorffffff svgShape"></path><path fill="#c8dcde" d="M610.42,243.609c-36.326-7.967-68.228,6.011-76.243,27.112
				c-9.524,25.074-10.97,40.772-6.406,58.776c3.439,13.567,19.156,66.601,27.544,92.614l-0.488,25.198
				c-0.217,11.2,11.08,33.913,22.125,35.784c10.303,1.745,25.647,2.869,48.052,1.656c43.393-2.35,64.47-17.073,64.47-17.073
				s-11.152-46.379-20.232-83.215c-8.604-34.909-5.115-90.797-7.287-108.568C658.923,251.085,641.529,250.432,610.42,243.609z" class="colorc8d4de svgShape"></path><g fill="#000000" class="color000000 svgShape"><path fill="#225d62" d="M601.984,488.465c-16.335,0-29.171-1.516-38.213-3.133
					c-11.531-2.061-21.564-25.483-21.222-35.247l0.882-25.058c-5.647-17.516-23.547-73.279-27.329-88.194
					c-3.849-15.19-7.246-38.992,7.612-70.213c10.677-22.434,48.813-29.41,79.707-26.431c44.478,4.313,59.614,10.267,61.592,37.014
					c0.35,4.742,0.477,12.424,0.641,22.154c0.446,26.88,1.124,67.504,7.399,92.953c1.054,4.282,7.991,31.463,13.054,51.312
					c2.977,11.666,5.427,21.263,5.964,23.399c0.244,0.963-0.067,1.983-0.807,2.647c-0.553,0.498-14.067,12.247-57.624,17.012
					C621.971,487.961,611.395,488.465,601.984,488.465z M589.773,244.895c-26.444,0-53.385,7.571-61.221,24.03
					c-14.111,29.657-10.898,52.207-7.254,66.59c3.776,14.895,21.91,71.361,27.378,88.313c0.093,0.296,0.138,0.607,0.127,0.916
					l-0.898,25.527c-0.324,9.164,9.67,28.51,16.81,29.786c13.901,2.484,37.045,4.721,68.345,1.298
					c34.414-3.766,49.251-12.009,53.375-14.765c-0.958-3.763-3.057-11.995-5.52-21.645c-5.349-20.962-12.006-47.05-13.067-51.353
					c-6.418-26.039-7.101-67.024-7.552-94.147c-0.161-9.642-0.288-17.259-0.628-21.847c-1.609-21.759-12.219-27.754-56.764-32.073
					C598.605,245.108,594.193,244.895,589.773,244.895z" class="color262262 svgShape"></path></g><g fill="#000000" class="color000000 svgShape"><path fill="#225d62" d="M595.743,478.717c-1.191,0-2.279-0.802-2.593-2.009c-1.225-4.729-30.051-116.099-33.651-141.852
					c-3.618-25.901-0.164-64.657-0.013-66.294c0.132-1.472,1.464-2.559,2.909-2.424c1.474,0.132,2.562,1.438,2.427,2.909
					c-0.036,0.397-3.548,39.783-0.013,65.067c3.556,25.45,33.23,140.095,33.531,141.25c0.371,1.433-0.49,2.894-1.923,3.268
					C596.192,478.688,595.966,478.717,595.743,478.717z" class="color262262 svgShape"></path></g></g><g fill="#000000" class="color000000 svgShape"><g fill="#000000" class="color000000 svgShape"><path fill="#44ddea" d="M586.478,196.821l10.263,43.331c1.581,3.854-11.249,27.32-30.204,29.799
					c-18.954,2.479-14.022-14.766-14.157-17.653l-8.526-35.178L586.478,196.821z" class="colorea5444 svgShape"></path><g fill="#000000" class="color000000 svgShape"><path fill="#c8dcde" d="M562.154,268.806c0,0-14.124,2.85-16.754-14.063c0,0-24.26-50.95-25.591-70.68l22.86,37.203
						C542.67,221.266,557.58,259.977,562.154,268.806z" class="colorc8d4de svgShape"></path></g><g fill="#000000" class="color000000 svgShape"><g fill="#000000" class="color000000 svgShape"><path fill="#225d62" d="M559.888,271.663c-2.468,0-6.19-0.488-9.618-2.878c-3.924-2.733-6.428-7.168-7.448-13.189
							c-2.58-5.009-25.704-50.484-25.693-71.535c0.003-1.199,0.799-2.25,1.952-2.577c1.155-0.319,2.385,0.156,3.013,1.176
							l22.859,37.201c0.086,0.14,0.158,0.288,0.218,0.441c0.148,0.384,14.91,38.673,19.363,47.271c0.387,0.747,0.4,1.633,0.036,2.39
							c-0.363,0.76-1.062,1.303-1.887,1.469C562.577,271.456,561.5,271.663,559.888,271.663z M524.45,196.737
							c5.904,23.083,23.116,56.37,23.327,56.772c0.135,0.257,0.226,0.535,0.27,0.823c0.74,4.742,2.517,8.126,5.289,10.057
							c1.526,1.064,3.174,1.56,4.599,1.773c-5.564-12.356-16.472-40.58-17.677-43.702L524.45,196.737z" class="color262262 svgShape"></path></g></g><g fill="#000000" class="color000000 svgShape"><path fill="#24575b" d="M522.196,170.265c0.424,22.155,18.422,51.855,38.729,51.466
						c20.308-0.389,35.236-30.72,34.811-52.875s-10.471-46.245-38.827-44.304C525.155,126.726,521.772,148.111,522.196,170.265z" class="color24325b svgShape"></path><g fill="#000000" class="color000000 svgShape"><path fill="#225d62" d="M557.589,225.524c-10.913,0-22.273-6.712-31.245-18.492
							c-8.313-10.908-13.407-24.419-13.631-36.134l0,0c-0.464-24.069,4.171-46.666,40.902-49.028
							c12.74-0.825,23.189,2.442,31.068,9.688c12.258,11.277,14.383,28.45,14.56,37.681c0.228,11.863-3.929,25.522-11.126,36.537
							c-8.178,12.517-18.839,19.53-30.017,19.743C557.929,225.524,557.76,225.524,557.589,225.524z M557.355,127.104
							c-1.108,0-2.242,0.039-3.397,0.112c-30.544,1.967-36.376,18.131-35.888,43.578l0,0c0.2,10.462,5.004,23.103,12.535,32.992
							c8.064,10.586,18.092,16.657,27.391,16.376c12.618-0.241,21.476-10.955,25.634-17.318c6.532-9.997,10.462-22.833,10.257-33.5
							c-0.161-8.378-2.04-23.913-12.831-33.84C574.991,129.923,567.028,127.104,557.355,127.104z" class="color262262 svgShape"></path></g></g><g fill="#000000" class="color000000 svgShape"><g fill="#000000" class="color000000 svgShape"><path fill="#ffffff" d="M519.047,198.347c-6.784-24.518-6.553-48.324,16.211-53.832
							c13.044-3.156,34.192-5.311,36.581,12.727c3.612,5.141,7.416,8.48,6.782,20.92c1.887-1.936,4.219-3.066,6.723-2.995
							c5.957,0.171,10.593,7.019,10.356,15.297c-0.209,7.303-4.144,13.271-9.157,14.46c-4.666,14.846-15.979,27.009-27.528,30.204
							C541.223,240.051,525.83,222.865,519.047,198.347z" class="colorffffff svgShape"></path><path fill="#44ddea" d="M527.773,198.836c-6.784-24.518-4.257-50.16,11.552-54.222
							c13.044-3.157,27.91-1.297,33.458,12.223c3.612,5.141,7.415,8.48,6.782,20.92c1.887-1.936,20.482-4.603,14.989,20.482
							c-0.524,2.395-7.068,6.281-7.068,6.281c-4.666,14.846-13.428,25.997-24.933,29.346
							C546.919,235.277,534.556,223.354,527.773,198.836z" class="colorea5444 svgShape"></path><g fill="#000000" class="color000000 svgShape"><path fill="#225d62" d="M552.886,238.664c-7.005,0-13.768-3.034-19.854-8.967
								c-7.145-6.966-13.031-17.848-16.568-30.638c-5.473-19.779-5.292-34.837,0.54-44.754c3.701-6.291,9.629-10.462,17.622-12.398
								c9.974-2.414,23.674-4.049,32.273,1.848c4.106,2.813,6.626,7.002,7.498,12.458c0.298,0.418,0.599,0.825,0.898,1.228
								c2.738,3.711,5.556,7.526,6.011,15.761c1.326-0.506,2.72-0.75,4.114-0.714c3.768,0.109,7.192,2.162,9.644,5.785
								c2.268,3.35,3.447,7.708,3.314,12.268c-0.221,7.812-4.14,14.35-9.717,16.522c-5.152,15.024-16.638,27.248-28.932,30.648
								C557.433,238.347,555.147,238.664,552.886,238.664z M551.031,145.077c-4.407,0-9.509,0.677-15.144,2.043
								c-6.621,1.601-11.284,4.84-14.264,9.904c-5.069,8.616-5.066,22.281,0.005,40.609l0,0
								c3.291,11.889,8.668,21.912,15.144,28.227c4.612,4.495,12.084,9.294,21.528,6.688c10.802-2.99,21.365-14.677,25.686-28.426
								c0.283-0.901,1.02-1.586,1.939-1.804c3.877-0.919,6.927-6.047,7.096-11.928c0.099-3.447-0.753-6.683-2.395-9.109
								c-1.459-2.157-3.363-3.377-5.359-3.434c-2.04-0.013-3.727,1.158-4.729,2.188c-0.776,0.802-1.97,1.025-2.992,0.584
								c-1.02-0.446-1.658-1.479-1.601-2.593c0.511-9.989-1.905-13.259-4.96-17.399c-0.444-0.602-0.893-1.209-1.339-1.843
								c-0.247-0.353-0.408-0.763-0.465-1.191c-0.566-4.272-2.302-7.352-5.31-9.416
								C560.859,146.113,556.478,145.077,551.031,145.077z" class="color262262 svgShape"></path></g><g fill="#000000" class="color000000 svgShape"><path fill="#225d62" d="M584.702,207.829c-0.099,0-0.195-0.003-0.293-0.005c-1.78-0.055-3.488-0.543-5.084-1.451
								c-1.285-0.732-1.734-2.367-1.002-3.654c0.732-1.285,2.37-1.734,3.654-1.002c0.828,0.47,1.697,0.722,2.59,0.75
								c4.43-0.003,8.261-5.409,8.453-12.079c0.099-3.447-0.753-6.683-2.395-9.109c-1.459-2.157-3.363-3.377-5.359-3.434
								c-0.047,0-0.094-0.003-0.143-0.003c-2.94,0-5.785,2.569-7.277,6.589c-0.514,1.386-2.058,2.094-3.444,1.581
								c-1.388-0.514-2.094-2.055-1.581-3.444c2.325-6.275,7.311-10.236,12.598-10.08c3.768,0.109,7.192,2.162,9.644,5.785
								c2.268,3.35,3.447,7.708,3.314,12.268C598.102,200.152,591.998,207.829,584.702,207.829z" class="color262262 svgShape"></path></g></g><path fill="#ffffff" d="M560.071,214.205c0,0-15.372-0.844-27.904,4.991c0,0,0.215-10.625,11.443-12.558
						C552.915,205.035,557.421,209.834,560.071,214.205z" class="colorffffff svgShape"></path><g fill="#000000" class="color000000 svgShape"><g fill="#000000" class="color000000 svgShape"><path fill="#225d62" d="M562.686,175.512c-8.578,0-18.144-3.026-18.577-3.166c-1.409-0.449-2.185-1.957-1.734-3.366
								c0.449-1.409,1.965-2.185,3.366-1.739c0.106,0.034,10.55,3.312,18.512,2.868c1.461-0.07,2.746,1.046,2.829,2.523
								c0.083,1.479-1.046,2.743-2.523,2.829C563.942,175.494,563.317,175.512,562.686,175.512z" class="color262262 svgShape"></path></g><g fill="#000000" class="color000000 svgShape"><path fill="#225d62" d="M519.217,178.826c-1.311,0-2.458-0.963-2.65-2.299c-0.21-1.464,0.805-2.824,2.271-3.034
								c3.623-0.522,8.736-3.579,10.402-4.713c1.222-0.838,2.886-0.522,3.722,0.706c0.833,1.222,0.519,2.889-0.706,3.722
								c-0.286,0.195-7.075,4.788-12.655,5.59C519.472,178.816,519.345,178.826,519.217,178.826z" class="color262262 svgShape"></path></g><path fill="#225d62" d="M534.36 187.778c.332 3.298-1.443 6.177-3.966 6.431-2.523.254-4.837-2.213-5.169-5.511-.332-3.298 1.443-6.177 3.966-6.431C531.714 182.013 534.028 184.48 534.36 187.778zM556.538 185.543c.349 3.461-1.515 6.483-4.162 6.75-2.648.267-5.077-2.323-5.426-5.784s1.515-6.483 4.162-6.75C553.76 179.493 556.19 182.082 556.538 185.543z" class="color262262 svgShape"></path></g></g></g><g fill="#000000" class="color000000 svgShape"><path fill="#ffffff" d="M551.561,158.939c21.468-1.105,39.318,0.231,42.301,3.003l-0.508-9.879
					c-1.203-23.38-17.87-41.526-37.227-40.53l-13.976,0.719c-19.356,0.996-34.072,20.757-32.869,44.137l0.508,9.879
					C512.475,163.206,530.093,160.044,551.561,158.939z" class="colorffffff svgShape"></path><path fill="#2cb1bc" d="M551.561,158.939c21.468-1.105,39.318,0.231,42.301,3.003l-0.508-9.879
					c-1.203-23.38-15.499-38.944-34.856-37.948c0,0-12.398,1.531-15.871,1.982c-10.853,1.41-25.78,20.179-23.671,46.168
					C518.956,162.265,530.093,160.044,551.561,158.939z" class="color7c8b99 svgShape"></path><g fill="#000000" class="color000000 svgShape"><path fill="#225d62" d="M510.069,166.514c-0.003,0-0.005,0-0.008,0c-1.368-0.005-2.512-1.038-2.658-2.401l-0.786-7.443
						c-0.625-12.071,2.66-23.506,9.242-32.343c6.693-8.99,15.982-14.227,26.156-14.749l13.976-0.721
						c20.827-1.056,38.764,18.25,40.04,43.069l0.509,9.878c0.065,1.274-0.776,2.416-2.011,2.733
						c-0.927,0.239-1.889-0.042-2.543-0.685c-0.841-0.421-7.314-2.961-39.828-2.276c-32.345,0.69-38.867,3.283-39.963,3.89
						C511.701,166.107,510.928,166.514,510.069,166.514z M512.719,164.241c0,0-0.003,0.003-0.003,0.005
						C512.716,164.243,512.719,164.241,512.719,164.241z M512.719,164.233c0,0,0,0.003,0,0.005
						C512.719,164.236,512.719,164.233,512.719,164.233z M512.727,164.168c-0.003,0.021-0.005,0.041-0.008,0.062
						C512.721,164.21,512.724,164.189,512.727,164.168z M512.729,164.16c0,0.003,0,0.005-0.003,0.008
						C512.729,164.165,512.729,164.163,512.729,164.16z M512.729,164.152c0,0.003,0,0.005,0,0.008
						C512.729,164.158,512.729,164.155,512.729,164.152z M512.732,164.145c-0.003,0.003-0.003,0.005-0.003,0.008
						C512.729,164.15,512.729,164.147,512.732,164.145z M512.732,164.137c0,0.003,0,0.005,0,0.008
						C512.732,164.142,512.732,164.139,512.732,164.137z M512.732,164.129c0,0.003,0,0.005,0,0.005S512.732,164.132,512.732,164.129
						z M591.476,163.158c0,0,0,0.003,0.003,0.003C591.476,163.161,591.476,163.158,591.476,163.158z M591.473,163.153l0.003,0.003
						L591.473,163.153z M591.471,163.148c0,0,0,0.003,0.003,0.003C591.471,163.151,591.471,163.148,591.471,163.148z
						 M591.468,163.14c0,0.003,0,0.005,0.003,0.005C591.468,163.145,591.468,163.143,591.468,163.14z M591.466,163.135
						c0,0.003,0,0.005,0.003,0.005C591.466,163.14,591.466,163.138,591.466,163.135z M591.463,163.13c0,0.003,0,0.003,0.003,0.005
						C591.463,163.133,591.463,163.133,591.463,163.13z M591.458,163.12c0,0.003,0.003,0.008,0.005,0.01
						C591.461,163.127,591.458,163.122,591.458,163.12z M591.455,163.114c0,0,0,0.003,0,0.005
						C591.455,163.117,591.455,163.114,591.455,163.114z M591.45,163.109c0.003,0,0.003,0.003,0.003,0.005
						C591.453,163.112,591.453,163.109,591.45,163.109z M557.641,114.175c-0.459,0-0.914,0.01-1.375,0.034l-13.976,0.722
						c-8.549,0.439-16.41,4.913-22.133,12.598c-5.837,7.838-8.749,18.04-8.199,28.725l0.369,3.478
						c5.284-1.562,16.356-3.016,39.716-3.511c22.693-0.483,33.604,0.516,38.932,1.741l-0.296-5.759
						C589.581,130.901,574.9,114.175,557.641,114.175z" class="color262262 svgShape"></path></g><g fill="#000000" class="color000000 svgShape"><path fill="#2cb1bc" d="M503.761,163.136c0.616-5.574,7.235-6.975,10.416-7.648c7.434-1.573,20.147-2.561,37.788-2.938
						c43.96-0.938,46.157,3.617,47.612,6.63c1.525,3.155,0.203,6.95-2.953,8.477c-2.198,1.062-4.703,0.747-6.537-0.611
						c-1.523-0.495-9.346-2.412-37.852-1.803c-28.214,0.602-36.093,2.651-37.919,3.308c-1.298,1.168-3.071,1.799-4.945,1.592
						c-0.747-0.083-1.449-0.292-2.088-0.604C504.945,168.396,503.458,165.874,503.761,163.136z M516.187,165.531
						c0.085-0.305,0.149-0.631,0.189-0.979C516.338,164.887,516.274,165.214,516.187,165.531z M516.376,164.55
						c0-0.003,0.001-0.006,0.001-0.009C516.377,164.544,516.376,164.547,516.376,164.55z M588.497,165.333
						c-0.125-0.198-0.24-0.405-0.345-0.62C588.262,164.937,588.377,165.144,588.497,165.333z M588.152,164.71
						c-0.001-0.002-0.003-0.004-0.004-0.006C588.149,164.706,588.151,164.708,588.152,164.71z" class="color7c8b99 svgShape"></path><path fill="#ffffff" d="M514.177,155.488c0.916-0.194,1.914-0.379,2.989-0.555c-0.77,4.5,0.231,8.624,2.162,12.496
						c-2.9,0.465-4.353,0.883-5.011,1.12c-1.298,1.168-3.071,1.799-4.945,1.592c-0.747-0.083-1.449-0.292-2.088-0.604
						c-2.34-1.142-3.826-3.664-3.523-6.402C504.377,157.561,510.997,156.161,514.177,155.488z" class="colorffffff svgShape"></path><g fill="#000000" class="color000000 svgShape"><path fill="#225d62" d="M510.064,172.86c-0.327,0-0.654-0.018-0.981-0.055c-1.041-0.114-2.04-0.405-2.974-0.859
							c-3.415-1.669-5.429-5.328-5.009-9.107c0.828-7.5,9.024-9.231,12.525-9.971c7.581-1.609,20.464-2.616,38.283-2.995
							c45.659-0.965,48.018,3.867,50.084,8.142c2.162,4.482,0.278,9.888-4.199,12.055c-2.873,1.386-6.231,1.165-8.881-0.579
							c-1.975-0.535-10.184-2.136-36.617-1.57c-26.303,0.563-34.577,2.396-36.654,3.016
							C514.048,172.182,512.08,172.86,510.064,172.86z M562.98,155.105c-3.314,0-6.953,0.039-10.957,0.125
							c-17.485,0.374-30.03,1.342-37.289,2.881c-4.106,0.867-7.952,2.113-8.308,5.318v0.003c-0.169,1.534,0.649,3.021,2.035,3.698
							c0.379,0.184,0.786,0.304,1.209,0.35c1.03,0.096,2.079-0.221,2.855-0.921c0.26-0.234,0.561-0.413,0.888-0.532
							c2.344-0.841,10.817-2.865,38.769-3.462c27.778-0.615,36.34,1.155,38.735,1.934c0.275,0.091,0.535,0.223,0.766,0.395
							c1.098,0.81,2.546,0.95,3.776,0.353c1.822-0.882,2.588-3.078,1.708-4.9C596.379,158.715,594.632,155.105,562.98,155.105z
							 M503.762,163.135h0.026H503.762z" class="color262262 svgShape"></path></g></g></g><g fill="#000000" class="color000000 svgShape"><path fill="#c8dcde" d="M565.481,268.539c0,0,21.285-25.461,17.901-71.891c-3.383-46.43-9.606-70.232-33.784-85.022
					c0,0,37.371-8.76,56.474,29.527c19.103,38.288,19.391,66.787,11.67,88.084c-3.846,10.609-22.97,25.729-29.273,29.742
					C576.344,266.699,565.481,268.539,565.481,268.539z" class="colorc8d4de svgShape"></path><g fill="#000000" class="color000000 svgShape"><path fill="#225d62" d="M565.481,271.219c-0.947,0-1.837-0.506-2.32-1.344c-0.561-0.971-0.454-2.19,0.262-3.052
						c0.205-0.247,20.542-25.299,17.285-69.98c-3.254-44.707-8.951-68.519-32.509-82.93c-0.927-0.568-1.42-1.638-1.246-2.712
						c0.171-1.072,0.976-1.936,2.032-2.183c0.4-0.091,39.664-8.79,59.484,30.939c0.662,1.324,0.122,2.933-1.202,3.594
						c-1.326,0.662-2.933,0.122-3.594-1.202c-13.291-26.638-35.564-29.381-46.708-28.92c20.581,15.826,25.977,40.321,29.088,83.024
						c2.497,34.253-8.017,57.227-14.243,67.572c4.049-1.381,9.504-3.667,15.221-7.306c6.621-4.217,24.733-18.855,28.19-28.395
						c6.317-17.422,6.065-37.427-0.745-59.458c-0.436-1.414,0.356-2.915,1.77-3.353c1.422-0.426,2.917,0.358,3.353,1.77
						c7.16,23.171,7.384,44.323,0.662,62.869c-4.181,11.528-23.994,27.041-30.352,31.089c-12.444,7.918-23.516,9.862-23.983,9.94
						C565.78,271.206,565.629,271.219,565.481,271.219z" class="color262262 svgShape"></path></g></g></g><g fill="#000000" class="color000000 svgShape"><g fill="#000000" class="color000000 svgShape"><path fill="#2cb1bc" d="M357.436,475.968l-43.473-14.178l-53.986,58.525l44.542,25.081
					c8.292-1.502,13.796-9.441,12.293-17.733l-0.95-5.246C315.326,519.46,357.436,475.968,357.436,475.968z" class="color7c8b99 svgShape"></path><g fill="#000000" class="color000000 svgShape"><path fill="#225d62" d="M304.518,548.076c-0.457,0-0.911-0.119-1.316-0.345l-44.541-25.081
						c-0.714-0.402-1.204-1.108-1.331-1.918c-0.127-0.81,0.122-1.632,0.677-2.234l53.985-58.524c0.714-0.771,1.809-1.051,2.8-0.732
						l43.474,14.178c0.88,0.288,1.547,1.007,1.77,1.902c0.223,0.898-0.031,1.845-0.675,2.51
						c-18.214,18.813-38.242,40.448-40.741,44.787l0.828,4.565c1.765,9.733-4.721,19.083-14.453,20.848
						C304.837,548.061,304.676,548.076,304.518,548.076z M264.244,519.642l40.7,22.919c6.317-1.63,10.412-7.903,9.232-14.422
						l-0.95-5.245c-0.285-1.575-0.758-4.184,39.306-45.706l-37.764-12.317L264.244,519.642z" class="color262262 svgShape"></path></g></g><g fill="#000000" class="color000000 svgShape"><path fill="#225d62" d="M261.96,515.356L261.96,515.356l43.825,0.052c7.232,0.009,13.088,5.878,13.079,13.11
					l-0.012,10.556c-0.011,9.103-7.467,16.542-16.57,16.531l-103.935-0.123c-9.07-0.011-15.842-11.834-10.657-19.276
					C193.294,528.165,253.413,520.338,261.96,515.356z" class="color262262 svgShape"></path><g fill="#000000" class="color000000 svgShape"><path fill="#c8dcde" d="M256.225,532.808c-1.477,0-2.676-1.197-2.681-2.676l-0.023-11.611
						c-0.003-1.479,1.196-2.681,2.676-2.686c0.003,0,0.003,0,0.005,0c1.477,0,2.676,1.196,2.681,2.676l0.023,11.611
						c0.003,1.479-1.196,2.681-2.676,2.686C256.227,532.808,256.227,532.808,256.225,532.808z" class="colorc8d4de svgShape"></path></g><g fill="#000000" class="color000000 svgShape"><path fill="#c8dcde" d="M244.797,534.036c-1.471,0-2.671-1.189-2.681-2.663l-0.083-11.967
						c-0.008-1.479,1.183-2.689,2.663-2.699c0.005,0,0.013,0,0.018,0c1.471,0,2.671,1.189,2.681,2.663l0.083,11.967
						c0.008,1.479-1.184,2.689-2.663,2.699C244.81,534.036,244.803,534.036,244.797,534.036z" class="colorc8d4de svgShape"></path></g><g fill="#000000" class="color000000 svgShape"><path fill="#c8dcde" d="M233.679,535.315c-0.003,0-0.005,0-0.008,0c-1.479-0.005-2.676-1.209-2.673-2.689l0.031-11.295
						c0.005-1.477,1.204-2.673,2.681-2.673c0.003,0,0.005,0,0.008,0c1.479,0.005,2.676,1.209,2.673,2.689l-0.031,11.295
						C236.355,534.119,235.156,535.315,233.679,535.315z" class="colorc8d4de svgShape"></path></g><g fill="#000000" class="color000000 svgShape"><path fill="#c8dcde" d="M221.341,536.25c-0.005,0-0.013,0-0.021,0c-1.479-0.013-2.671-1.22-2.66-2.702l0.081-11.017
						c0.013-1.472,1.209-2.66,2.681-2.66c0.005,0,0.013,0,0.021,0c1.479,0.013,2.671,1.22,2.66,2.702l-0.08,11.017
						C224.009,535.061,222.813,536.25,221.341,536.25z" class="colorc8d4de svgShape"></path></g></g><g fill="#000000" class="color000000 svgShape"><path fill="#ffffff" d="M266.565,485.638l143.993-163.753c0.198-0.277,0.369-0.566,0.576-0.839h0
					c12.957-17.134,37.624-19.919,54.076-6.106l156.113,131.08l7.252,47.577c0,0-31.532,22.2-58.996,19.066
					c-11.937-1.362-21.874-9.944-30.819-17.965l-98.11-98.3L319.102,532.817L266.565,485.638z" class="colorffffff svgShape"></path><path fill="#24575b" d="M272.827,491.315l144.569-164.591c17.592-19.202,31.897-12.229,48.348,1.584L617.967,450.88
					l10.608,42.717c0,0-31.532,22.2-58.996,19.066c-11.937-1.362-21.874-9.944-30.819-17.965l-98.167-97.688L319.102,532.817
					L272.827,491.315z" class="color24325b svgShape"></path><g fill="#000000" class="color000000 svgShape"><path fill="#225d62" d="M319.101,535.497c-0.659,0-1.298-0.244-1.791-0.688l-52.537-47.177
						c-1.093-0.981-1.191-2.66-0.221-3.763l144.032-163.847c0.132-0.197,0.265-0.395,0.408-0.587
						c6.719-8.884,16.509-14.461,27.567-15.709c11.066-1.248,21.847,2.004,30.373,9.161l156.116,131.081
						c0.498,0.42,0.828,1.004,0.927,1.648l7.251,47.577c0.153,1.007-0.275,2.011-1.108,2.595
						c-1.321,0.932-32.706,22.758-60.842,19.537c-13.205-1.505-24.243-11.404-32.304-18.632l-96.211-96.392L321.102,534.599
						c-0.475,0.532-1.139,0.854-1.853,0.893C319.2,535.494,319.15,535.497,319.101,535.497z M270.327,485.415l48.563,43.609
						l119.758-134.408c0.49-0.55,1.189-0.875,1.926-0.895c0.747,0.026,1.451,0.262,1.972,0.786l98.11,98.3
						c9.647,8.642,18.585,15.982,29.226,17.194c22.987,2.639,49.537-13.602,55.786-17.682l-6.841-44.896l-155.342-130.43
						c-7.386-6.203-16.734-9.011-26.324-7.942c-9.587,1.082-18.071,5.917-23.89,13.612l-0.548,0.797L270.327,485.415z
						 M326.861,417.068h0.026H326.861z" class="color262262 svgShape"></path></g></g></g><g fill="#000000" class="color000000 svgShape"><g fill="#000000" class="color000000 svgShape"><path fill="#2cb1bc" d="M401.842,499.49l-43.473-14.178l-53.986,58.525l44.542,25.081
					c8.292-1.502,13.796-9.442,12.293-17.733l-0.95-5.246C359.732,542.982,401.842,499.49,401.842,499.49z" class="color7c8b99 svgShape"></path><g fill="#000000" class="color000000 svgShape"><path fill="#225d62" d="M348.924,571.598c-0.457,0-0.911-0.119-1.316-0.345l-44.541-25.081
						c-0.714-0.402-1.204-1.108-1.331-1.918s0.122-1.633,0.677-2.235l53.985-58.524c0.711-0.773,1.806-1.051,2.8-0.732
						l43.474,14.178c0.88,0.288,1.547,1.007,1.77,1.902c0.223,0.898-0.031,1.845-0.675,2.51
						c-18.214,18.813-38.242,40.448-40.741,44.787l0.828,4.568c0.854,4.713-0.179,9.478-2.909,13.415
						c-2.73,3.94-6.831,6.576-11.544,7.43C349.243,571.582,349.082,571.598,348.924,571.598z M308.65,543.164l40.702,22.919
						c2.922-0.75,5.453-2.507,7.189-5.011c1.915-2.761,2.639-6.102,2.04-9.408l-0.95-5.248c-0.285-1.575-0.758-4.184,39.306-45.706
						l-37.764-12.317L308.65,543.164z" class="color262262 svgShape"></path></g></g><g fill="#000000" class="color000000 svgShape"><path fill="#225d62" d="M305.781,538.92L305.781,538.92l43.825,0.052c7.232,0.008,13.088,5.878,13.079,13.11
					l-0.013,10.556c-0.011,9.103-7.467,16.542-16.57,16.531l-103.935-0.123c-9.07-0.011-15.842-11.834-10.657-19.275
					C237.115,551.73,297.234,543.902,305.781,538.92z" class="color262262 svgShape"></path><g fill="#000000" class="color000000 svgShape"><path fill="#c8dcde" d="M300.044,556.374c-1.477,0-2.678-1.199-2.681-2.676l-0.021-11.614
						c-0.003-1.479,1.196-2.683,2.676-2.686c0.003,0,0.003,0,0.005,0c1.477,0,2.678,1.196,2.681,2.676l0.021,11.614
						c0.003,1.479-1.196,2.684-2.676,2.686C300.046,556.374,300.046,556.374,300.044,556.374z" class="colorc8d4de svgShape"></path></g><g fill="#000000" class="color000000 svgShape"><path fill="#c8dcde" d="M288.619,557.601c-1.471,0-2.671-1.189-2.681-2.663l-0.083-11.97
						c-0.008-1.479,1.184-2.689,2.663-2.699c0.005,0,0.013,0,0.018,0c1.471,0,2.671,1.189,2.681,2.663l0.083,11.969
						c0.008,1.479-1.184,2.689-2.663,2.699C288.632,557.601,288.624,557.601,288.619,557.601z" class="colorc8d4de svgShape"></path></g><g fill="#000000" class="color000000 svgShape"><path fill="#c8dcde" d="M277.498,558.878c-0.003,0-0.005,0-0.008,0c-1.479-0.005-2.676-1.209-2.673-2.689l0.034-11.292
						c0.005-1.477,1.204-2.673,2.681-2.673c0.003,0,0.005,0,0.008,0c1.479,0.005,2.676,1.209,2.673,2.689l-0.034,11.292
						C280.174,557.682,278.975,558.878,277.498,558.878z" class="colorc8d4de svgShape"></path></g><g fill="#000000" class="color000000 svgShape"><path fill="#c8dcde" d="M265.16,559.815c-0.005,0-0.013,0-0.021,0c-1.479-0.013-2.671-1.22-2.66-2.702l0.08-11.017
						c0.013-1.472,1.209-2.66,2.681-2.66c0.005,0,0.013,0,0.021,0c1.479,0.013,2.671,1.22,2.66,2.702l-0.08,11.017
						C267.828,558.626,266.632,559.815,265.16,559.815z" class="colorc8d4de svgShape"></path></g></g><g fill="#000000" class="color000000 svgShape"><path fill="#ffffff" d="M310.971,509.16l143.993-163.753c0.198-0.277,0.369-0.566,0.576-0.839h0
					c12.957-17.134,37.624-19.919,54.076-6.106l169.671,135.634l-1.275,11.258c-4.42,27.91-27.483,49.585-55.702,51.059
					c-2.792,0.146-5.579,0.086-8.326-0.228c-11.937-1.362-21.874-9.944-30.819-17.965l-98.11-98.3L363.508,556.339L310.971,509.16z" class="colorffffff svgShape"></path><path fill="#24575b" d="M317.389,515.345l143.796-165.569c17.592-19.202,39.097-19.436,55.549-5.623l162.553,129.944
					l-0.124,14.427c-4.862,22.493-21.952,40.595-44.322,45.993c-6.834,1.649-13.973,2.455-20.856,1.67
					c-11.937-1.362-21.874-9.944-30.819-17.965l-98.168-97.688L363.508,556.339L317.389,515.345z" class="color24325b svgShape"></path><g fill="#000000" class="color000000 svgShape"><path fill="#225d62" d="M363.509,559.021c-0.638,0-1.28-0.228-1.791-0.688l-52.539-47.18
						c-1.093-0.981-1.191-2.66-0.221-3.763l144.016-163.824c0.135-0.202,0.27-0.402,0.415-0.599
						c6.727-8.894,16.517-14.471,27.578-15.72c11.059-1.243,21.845,2.006,30.37,9.164l169.624,135.592
						c0.719,0.576,1.093,1.482,0.989,2.396l-1.277,11.258c-4.669,29.491-29.148,51.914-58.223,53.432
						c-3.029,0.161-5.985,0.078-8.77-0.241c-13.205-1.505-24.243-11.404-32.304-18.632l-96.211-96.392L456.6,455.886
						c-0.986,1.106-2.678,1.199-3.784,0.218c-1.106-0.984-1.202-2.678-0.218-3.784l30.456-34.183
						c0.491-0.55,1.189-0.875,1.926-0.895c0.75,0.018,1.451,0.262,1.972,0.786l98.11,98.3c9.647,8.642,18.585,15.982,29.226,17.194
						c2.494,0.285,5.157,0.358,7.882,0.215c26.563-1.388,48.935-21.912,53.194-48.802l1.095-9.67L507.941,340.558
						c-7.438-6.247-16.781-9.073-26.374-7.986c-9.587,1.082-18.071,5.917-23.89,13.612l-0.527,0.776
						c-0.055,0.075-0.112,0.148-0.174,0.218L314.733,508.936l50.567,45.41c1.1,0.989,1.191,2.684,0.202,3.784
						C364.973,558.72,364.244,559.021,363.509,559.021z" class="color262262 svgShape"></path></g></g></g><path fill="#2cb1bc" d="M590.329,332.355l2.668,1.291c0.348,0.168,0.735,0.237,1.12,0.199l6.73-0.663
			c1.243-0.123,4.361,1.483,3.872,2.632c-0.451,1.059-2.633,2.58-2.793,3.658c-0.171,1.155,5.79,8.309,0.869,7.928
			c-4.143-0.321-2.269,5.124-7.296,5.091c-6.814-0.045-3.35-6.888-6.466-7.134c-5.999-0.475-5.421-5.752-6.524-8.501
			c-1.339-3.338,1.139-6.301,3.013-6.93C588.886,328.793,589.193,331.805,590.329,332.355z" class="color7c8b99 svgShape"></path><g fill="#000000" class="color000000 svgShape"><g fill="#000000" class="color000000 svgShape"><path fill="#ffffff" d="M486.77,354.8c0,0-30.53-15.239-40.956-16.702c-2.257-0.317-14.41,3.512-16.565,7.088
					c-4.07,6.756-5.86,19.407-4.774,23.954c1.743,7.298,8.352,4.944,9.14,0.094c6.991,1.529,22.801,3.518,25.584,7.92
					c5.001,7.908,19.622,10.01,19.622,10.01L486.77,354.8z" class="colorffffff svgShape"></path><path fill="#44ddea" d="M482.775,362.453c0,0-27.83-14.258-38.256-15.721c-2.257-0.317-12.775,3.749-14.929,7.325
					c-4.07,6.756-5.379,11.892-4.292,16.439c1.743,7.298,6.765-1.611,11.012-0.779c6.991,1.529,20.108,3.035,22.892,7.437
					c5.001,7.908,20.443,11.366,20.443,11.366L482.775,362.453z" class="colorea5444 svgShape"></path><g fill="#000000" class="color000000 svgShape"><path fill="#225d62" d="M478.827,389.846c-0.127,0-0.254-0.01-0.384-0.029c-0.646-0.093-15.909-2.38-21.507-11.23
						c-1.612-2.549-13.244-4.71-18.834-5.749c-0.968-0.179-1.889-0.35-2.746-0.516c-1.29,2.388-3.662,4.041-6.255,4.134
						c-2.634,0.093-6.016-1.604-7.23-6.693c-1.321-5.533,0.807-18.865,5.084-25.961c2.806-4.656,16.081-8.801,19.234-8.359
						c10.734,1.508,40.518,16.33,41.779,16.96c1.121,0.561,1.705,1.822,1.407,3.036l-7.947,32.363
						C481.129,389.015,480.041,389.846,478.827,389.846z M433.616,366.553c0.192,0,0.384,0.021,0.574,0.062
						c1.35,0.296,3.034,0.61,4.89,0.955c11.061,2.053,19.735,3.961,22.387,8.152c2.951,4.669,10.695,7.28,15.362,8.336l6.826-27.803
						c-6.805-3.322-29.799-14.321-38.213-15.502c-0.018-0.003-0.039-0.003-0.057-0.003c-2.24,0-12.465,3.535-13.838,5.819
						c-3.701,6.143-5.398,18.024-4.464,21.948c0.301,1.256,0.927,2.585,1.791,2.585c0.01,0,0.021,0,0.031-0.003
						c0.823-0.029,1.85-0.96,2.068-2.297c0.117-0.727,0.529-1.373,1.139-1.786C432.558,366.714,433.084,366.553,433.616,366.553z" class="color262262 svgShape"></path></g></g><g fill="#000000" class="color000000 svgShape"><path fill="#ffffff" d="M596.481,418.55c-40.46,14.751-108.635-14.19-127.516-27.826l16.218-45.781l-0.111-0.093
					c1.429,1.184,78.138,42.4,105.101,21.021c16.199-12.846,24.521-62.053,25.046-91.265c0.246-13.681,11.536-24.573,25.218-24.328
					c13.681,0.246,24.574,11.536,24.328,25.218c-0.017,0.942-0.47,23.379-5.278,49.388c-7.082,38.305-20.042,65.157-38.522,79.812
					C612.972,411.035,604.742,415.538,596.481,418.55z" class="colorffffff svgShape"></path><path fill="#c8dcde" d="M468.965,390.724l12.92-36.471c1.429,1.184,74.104,45.869,115.437,16.841
					c17.739-12.458,25.336-58.573,27.164-86.447c0.896-13.653,2.268-34.614,15.95-34.368c13.681,0.246,24.574,11.536,24.328,25.218
					c-0.017,0.942,0.398,25.813-4.411,51.822c-7.082,38.305-21.924,61.528-39.39,77.378
					C608.932,415.616,555.306,441.298,468.965,390.724z" class="colorc8d4de svgShape"></path><path fill="#2cb1bc" d="M646.405,370.993l-1.268,2.109c-0.165,0.275-0.252,0.59-0.249,0.911l0.043,5.614
					c0.008,1.037-1.554,3.495-2.467,3.004c-0.841-0.452-1.936-2.371-2.814-2.584c-0.942-0.229-7.305,4.163-6.62,0.123
					c0.577-3.401-4.066-2.261-3.661-6.415c0.549-5.631,5.947-2.252,6.385-4.811c0.843-4.924,5.163-4.05,7.519-4.755
					c2.86-0.856,5.124,1.415,5.504,3.012C649.457,370.067,646.944,370.095,646.405,370.993z" class="color7c8b99 svgShape"></path><g fill="#000000" class="color000000 svgShape"><path fill="#225d62" d="M569.665,424.633c-10.724,0-22.286-1.368-34.637-4.093c-1.446-0.319-2.359-1.749-2.04-3.192
						c0.319-1.446,1.752-2.367,3.192-2.04c22.989,5.069,43.028,5.292,59.578,0.662c6.66-2.434,16.594-6.813,25.001-13.483
						c17.957-14.238,30.591-40.549,37.554-78.199c3.805-20.586,4.005-38.974,3.784-48.101c-0.008-0.402-0.013-0.654-0.01-0.742
						c0.215-12.177-9.517-22.268-21.699-22.488c-12.245-0.156-22.27,9.517-22.491,21.699c-0.548,30.601-8.995,79.785-26.057,93.314
						c-25.748,20.417-89.855-11.087-105.162-19.221l-14.505,40.946c7.007,4.729,17.793,10.184,29.379,14.835
						c1.373,0.55,2.04,2.11,1.487,3.486c-0.55,1.373-2.107,2.04-3.486,1.487c-12.912-5.18-24.933-11.388-32.156-16.605
						c-0.966-0.695-1.355-1.946-0.958-3.068l16.052-45.314c0.06-0.477,0.249-0.939,0.576-1.334c0.945-1.132,2.58-1.337,3.711-0.395
						c5.782,3.81,77.535,40.173,101.728,20.983c14.848-11.772,23.495-59.375,24.032-89.214c0.27-14.967,12.535-26.963,27.448-26.963
						c0.166,0,0.33,0,0.496,0.005c15.136,0.272,27.23,12.808,26.96,27.944l0.013,0.514c0.226,9.335,0.021,28.143-3.875,49.207
						c-7.202,38.961-20.49,66.354-39.49,81.423c-8.969,7.116-19.467,11.749-26.695,14.381
						C588.912,423.447,579.652,424.633,569.665,424.633z" class="color262262 svgShape"></path></g></g></g><path fill="#2cb1bc" d="M601.605 196.419l-1.187-2.715c-.155-.354-.404-.659-.721-.88l-5.543-3.873c-1.024-.715-1.2-2.161-.379-3.101l1.463-1.675c.768-.879.671-2.216-.216-2.975l-.872-.746c-1.189-1.018-.886-2.931.559-3.533 0 0-.249-9.172 3.241-5.682 2.938 2.938 3.355 6.95 4.114 7.875 1.38 1.682 3.342 4.441 4.349 7.401 2.17 6.382-.945 10.353-1.812 10.868l0 0C603.515 198.028 602.11 197.576 601.605 196.419zM543.414 307.843l-1.187-2.716c-.155-.354-.404-.659-.721-.88l-5.543-3.873c-1.024-.715-1.2-2.161-.379-3.101l1.463-1.675c.768-.879.671-2.216-.216-2.975l-.872-.746c-1.189-1.018-.886-2.931.559-3.532 0 0-.249-9.172 3.241-5.682 2.938 2.938 6.766-3.852 9.073.615 5.048 9.77-2.818 12.447-.611 14.661 4.248 4.262 5.01 8.768 4.059 11.573-1.154 3.406-4.963 4.046-6.796 3.305C542.194 311.486 543.919 308.999 543.414 307.843z" class="color7c8b99 svgShape"></path><g fill="#000000" class="color000000 svgShape"><path fill="#ace3e8" d="M829.876,408.998c-82.745-34.52-103.431-42.358-103.431-42.358s-18.553-40.493-47.158-84.932
				c-20.284-31.511-34.791-36.698-45.955-47.615c17.849,33.36,21.691,104.411,22.591,174.905
				c0.867,67.914,18.83,124.275-4.204,141.809c8.183-4.208,23.23-17.12,48.397-29.467c31.029-15.223,111.894,4.175,141.042-17.748
				C870.308,481.67,912.621,443.518,829.876,408.998z" class="colore8d7ac svgShape"></path><g fill="#000000" class="color000000 svgShape"><path fill="#225d62" d="M648.895,556.054c-0.895,0-1.762-0.449-2.268-1.251c-0.742-1.176-0.462-2.72,0.644-3.563
					c14.951-11.383,12.416-43.503,9.203-84.163c-1.391-17.607-2.966-37.565-3.229-58.044c-0.947-74.081-3.657-143.362-26.13-177.047
					c-0.76-1.142-0.537-2.673,0.519-3.55c1.056-0.877,2.6-0.815,3.584,0.148c2.917,2.852,6.358,5.559,10.342,8.692
					c10.524,8.279,24.941,19.618,39.981,42.981c7.41,11.513,14.793,23.765,21.941,36.412c0.729,1.287,0.275,2.922-1.015,3.652
					c-1.285,0.729-2.922,0.275-3.652-1.015c-7.098-12.559-14.427-24.72-21.78-36.147c-14.44-22.429-27.78-33.01-38.532-41.468
					c16.945,37.627,19.247,100.553,20.098,167.275c0.262,20.303,1.83,40.165,3.216,57.689c2.559,32.389,4.705,59.568-2.193,76.429
					c9.683-6.82,22.891-16.091,39.311-24.149c14.71-7.215,39.163-6.963,65.046-6.701l5.274,0.049
					c1.479,0.016,2.671,1.225,2.658,2.704c-0.013,1.471-1.212,2.658-2.681,2.658c-0.008,0-0.016,0-0.023,0l-5.281-0.052
					c-25.226-0.254-49.064-0.501-62.63,6.154c-16.177,7.936-29.267,17.155-38.826,23.887c-5.211,3.67-9.328,6.566-12.354,8.123
					C649.728,555.958,649.307,556.054,648.895,556.054z" class="color262262 svgShape"></path></g><g fill="#000000" class="color000000 svgShape"><path fill="#225d62" d="M803.577,516.907c-1.386,0-2.561-1.069-2.67-2.476c-0.112-1.474,0.991-2.764,2.468-2.878
					c17.285-1.331,28.779-4.542,36.173-10.101c17.905-13.467,38.159-31.302,35.833-49.838
					c-1.822-14.513-17.479-28.019-46.539-40.142c-81.7-34.087-103.14-42.247-103.348-42.324c-0.659-0.252-1.194-0.75-1.487-1.391
					c-0.039-0.088-4.14-9.013-11.3-22.818c-0.68-1.313-0.169-2.93,1.147-3.613c1.303-0.677,2.93-0.169,3.613,1.147
					c5.85,11.277,9.683,19.345,10.95,22.055c5.087,1.972,30.303,11.881,102.491,41.997c31.396,13.099,47.684,27.63,49.791,44.421
					c2.668,21.269-18.868,40.453-37.928,54.787c-8.248,6.203-20.635,9.751-38.987,11.165
					C803.715,516.904,803.645,516.907,803.577,516.907z" class="color262262 svgShape"></path></g><g fill="#000000" class="color000000 svgShape"><path fill="#225d62" d="M779.099,432.634c-0.501,0-1.007-0.14-1.459-0.433c-19.052-12.385-52.033-61.976-53.43-64.081
					c-0.818-1.233-0.48-2.896,0.755-3.714c1.23-0.815,2.894-0.478,3.714,0.755c0.335,0.506,33.757,50.764,51.883,62.544
					c1.24,0.807,1.594,2.468,0.786,3.709C780.835,432.204,779.976,432.634,779.099,432.634z" class="color262262 svgShape"></path></g><g fill="#000000" class="color000000 svgShape"><path fill="#225d62" d="M707.746,521.197c-1.082,0-2.1-0.662-2.507-1.734c-0.524-1.383,0.174-2.93,1.56-3.454
					c2.17-0.82,4.89-1.949,8.022-3.252c14.126-5.863,35.473-14.723,54.242-15.896c1.461-0.062,2.746,1.03,2.842,2.51
					c0.091,1.477-1.03,2.749-2.51,2.842c-17.874,1.116-38.722,9.769-52.519,15.497c-3.195,1.326-5.969,2.476-8.183,3.314
					C708.382,521.14,708.062,521.197,707.746,521.197z" class="color262262 svgShape"></path></g><g fill="#000000" class="color000000 svgShape"><path fill="#225d62" d="M673.791,523.372c-0.145,0-0.293-0.013-0.444-0.039c-1.459-0.241-2.445-1.622-2.201-3.083
					c0.036-0.221,3.662-22.509,2.289-58.355c-0.586-15.328-2.754-28.11-4.848-40.471c-2.883-17.007-5.863-34.593-4.804-58.919
					c2.11-48.514-9.369-87.48-9.486-87.869c-0.426-1.417,0.379-2.909,1.799-3.335c1.407-0.433,2.909,0.379,3.335,1.798
					c0.119,0.395,11.858,40.23,9.709,89.639c-1.035,23.757,1.765,40.287,4.731,57.79c2.123,12.527,4.319,25.486,4.921,41.159
					c1.396,36.451-2.206,58.524-2.362,59.445C676.213,522.443,675.079,523.372,673.791,523.372z" class="color262262 svgShape"></path></g></g></g></g></svg>