<svg xmlns="http://www.w3.org/2000/svg" enable-background="new 0 0 1500 1500" viewBox="0 0 1500 1500" id="TeamCoordinationForSolvingPuzzle"><path d="M1157.9608154,251.3959808H890.5030518c-4.800354,0-8.6920776,3.8917084-8.6920776,8.6920929v68.0697937
			c0,2.2191467-1.8033447,4.0131531-4.0224609,4.0014954c-33.1239014-0.1868896-58.9385376,31.6358643-48.8121948,66.2080078
			c6.2720337,21.4136963,26.5108032,35.707428,48.8238525,35.6980896c2.2051392,0,4.0108643,1.8033447,4.0108643,4.0085144
			v63.3978577c0,2.2191467-1.798645,4.0201416-4.0202026,4.0201416h-83.6879883
			c-3.2727051,0.4111328-4.8027344,2.2612305-4.5878296,5.5502625c0.5162354,2.6793213,0.777832,5.3493042,0.777832,7.9329224
			c0,22.946106-18.6525879,41.6126709-41.5800171,41.6126709s-41.5800171-18.6665649-41.5800171-41.6126709
			c0-2.5929565,0.2615967-5.2606201,0.777832-7.9329224c0.2149048-3.2913513-1.3128052-5.141449-4.5878296-5.5525513h-83.6903076
			c-2.2191162,0-4.0178223-1.7987061-4.0201416-4.0178528l-0.0140381-63.4025269
			c0-2.2238464,1.8103638-4.0131836,4.0342407-4.0014954c28.1132202,0.1541748,51.0266113-22.8246155,51.0266113-50.9542236
			c0-28.094574-22.8456421-50.9519043-50.9238892-50.9519043h-0.0420532c-2.2541504,0-4.097229-1.8430786-4.097229-4.0949402
			l0.0139771-63.3137512c0-2.2191772,1.8010254-4.0178528,4.0202026-4.0178528h166.6190796
			c2.5789185,0,4.6695557-2.0906677,4.6695557-4.6695862c0-2.5788879-2.0906372-4.6695709-4.6695557-4.6695709h-446.842804
			c-4.8003845,0-8.6920776,3.8917084-8.6920776,8.6920929v246.0509949c0,4.8003845,3.8916931,8.6920471,8.6920776,8.6920471
			h88.3365479c3.2726746-0.4110718,4.8027344-2.2611694,4.5877991-5.5525513
			c-0.5162354-2.6793213-0.7778625-5.3493042-0.7778625-7.9328918c0-22.946106,18.6526184-41.6104126,41.5800171-41.6104126
			s41.5800476,18.6643066,41.5800476,41.6104126c0,2.592926-0.2616577,5.2605896-0.7778931,7.9328918
			c-0.2148438,3.2913818,1.3128052,5.1414795,4.5878296,5.5549316h83.9075928c2.2191162,0,4.0201416,1.7987061,4.0201416,4.0201416
			v72.9379272c0.4111328,3.2727051,2.2635498,4.800354,5.5549316,4.5855103
			c2.6793823-0.5162354,5.3469849-0.7778931,7.9259033-0.7778931c22.9274292,0,41.5800781,18.666626,41.5800781,41.6127319
			c0,22.9437866-18.6526489,41.6127319-41.5800781,41.6127319c-2.5789185,0-5.246521-0.2616577-7.9259033-0.7778931
			c-3.2937012-0.2148438-5.1437378,1.3128052-5.5549316,4.5855103v81.6276855
			c0.2686768,2.8451538,1.8244019,4.4009399,4.671936,4.6695557h271.2816772c4.800354,0,8.6921387-3.8917236,8.6921387-8.6920776
			v-78.0466309c-0.4111328-3.2750244-2.2635498-4.8027344-5.5596313-4.5855103
			c-2.6676636,0.513916-5.3329468,0.7778931-7.9235229,0.7778931c-22.9274292,0-41.5800171-18.666626-41.5800171-41.6127319
			s18.6525879-41.6104126,41.5800171-41.6104126c2.5905762,0,5.2558594,0.2615967,7.9235229,0.777832
			c3.2960815,0.2172852,5.1484985-1.3104858,5.5596313-4.5854492l0.0280151-72.4987793
			c0-2.2191162,1.8009644-4.0178223,4.0202026-4.0178223h83.699646c3.2750244-0.4111328,4.8050537-2.2612305,4.5877686-5.5549316
			c-0.5162964-2.6723022-0.7778931-5.3399658-0.7778931-7.9328918c0-22.946106,18.6525879-41.6104126,41.5799561-41.6104126
			c22.9274902,0,41.5800781,18.6643066,41.5800781,41.6104126c0,2.585907-0.2617188,5.2559204-0.7779541,7.9328918
			c-0.2149658,3.2890625,1.3151855,5.1414795,4.5877686,5.5525513h88.3366699c4.800293,0,8.6920166-3.8916626,8.6920166-8.6920471
			V260.0880737c-0.0023193-4.8003998-3.8939209-8.6921082-8.6920166-8.6921082L1157.9608154,251.3959808z" fill="#2cb1bc" class="color000000 svgShape"></path><circle cx="832.184" cy="255.827" r="11.687" fill="#2cb1bc" class="color000000 svgShape"></circle><path d="M797.0787964 1044.756958l-47.0788574-33.0631104-47.0788574 33.0631104c-3.9991455 1.7028809-6.4519043.4298096-7.3582764-3.8215332v-46.5977173c0-1.5206909.7405396-2.9456177 1.9855957-3.8215942l49.7652588-34.9529419c1.609436-1.1306152 3.7608643-1.1306152 5.3726807 0l49.7652588 34.9506226c1.2450562.8759766 1.9855957 2.3008423 1.9855957 3.8215942v46.5975952c-.4929199 3.0111084-2.7540894 5.8330078-7.3582764 3.8239746H797.0787964zM799.7651367 940.7321167c-.9437256 0-1.8851318-.2850342-2.6863403-.8479614l-47.0788574-33.0631104-47.0788574 33.0631104c-3.9991455 1.7029419-6.4519043.4298096-7.3582764-3.8215942v-46.5976562c0-1.5206909.7405396-2.9456177 1.9855957-3.8215942l49.7652588-34.9482422c1.6118164-1.1306152 3.7584839-1.1306152 5.3726807 0l49.7652588 34.9482422c1.2450562.8759766 1.9855957 2.3009033 1.9855957 3.8215942v46.5976562c-.4929199 3.008667-2.0509644 4.5644531-4.671936 4.6695557H799.7651367zM752.6862793 897.2926636l42.4069214 29.7810669v-35.1864624l-45.0933228-31.6662598-45.0932617 31.6685791v35.1865234l42.4069214-29.7811279c2.3219604-1.5487061 4.5667725-.567627 5.3726807-.0023193H752.6862793zM797.0787964 1149.7442627l-47.0788574-33.0655518-47.0788574 33.0655518c-3.9991455 1.7028809-6.4519043.4296875-7.3582764-3.8216553v-46.5999756c0-1.520752.7405396-2.9456787 1.9855957-3.8216553l49.7652588-34.9482422c1.6118164-1.1306152 3.7584839-1.1306152 5.3726807 0l49.7652588 34.9482422c1.2450562.8759766 1.9855957 2.3009033 1.9855957 3.8216553v46.5999756c-.4929199 3.0111084-2.609314 5.6086426-7.3582764 3.8216553H797.0787964zM752.6862793 1107.15271l42.4069824 29.7834473v-35.1888428L750 1070.0810547l-45.0933228 31.6685791v35.1888428l42.4069214-29.7834473C749.6355591 1105.8609619 751.8803711 1106.5874023 752.6862793 1107.15271zM797.0787964 1254.7197266l-47.0788574-33.0654297-47.0788574 33.0654297c-3.9991455 1.7030029-6.4519043.4298096-7.3582764-3.8215332v-46.5976562c0-1.520752.7405396-2.9456787 1.9855957-3.8216553l49.7652588-34.9505615c1.609436-1.1306152 3.7608643-1.1306152 5.3726807 0l49.7652588 34.9505615c1.2450562.8759766 1.9855957 2.3009033 1.9855957 3.8216553v46.5976562c-.4929199 3.0109863-3.7025146 5.6179199-7.3582764 3.8215332H797.0787964zM549.8084717 822.5584106c-11.581665.1401978-18.1737671 5.7418213-19.7762451 16.8095703v-65.9767456c29.9563599 2.5041504 55.0608521-21.3132324 55.0608521-50.774353s-25.1395874-53.2668457-55.0608521-50.774353V595.571228c0-2.5789185-2.0930176-4.6695557-4.671875-4.6695557h-87.0471191c.1168213-1.3922119.1775208-2.7798462.1775208-4.1463013 0-28.0946045-22.8456421-50.9519043-50.9238586-50.9519043s-50.9238586 22.8549805-50.9238586 50.9519043c0 1.3712158.0584106 2.7540894.1752014 4.1463013h-87.0003662c-2.5788879 0-4.6719055 2.0906982-4.6719055 4.6695557v235.6022339c-.7124786-1.270752-1.5627594-2.4901123-2.6139374-3.5950317-2.4550934-2.5741577-6.9541473-5.5268555-14.4128571-5.0222778-13.6373138.9320068-24.7331085 12.6445312-24.7331085 26.1136475v20.0751953c0 13.7821045 11.4648743 25.0321045 25.7142181 25.4362183v68.5276489c0 37.5084839 21.2011414 70.1207275 52.2062988 86.4724121 8.0707397 47.0438232 35.8312378 85.3933105 72.2791748 101.6164551l-7.6853027 74.5357666c-6.8513794-9.8857422-18.2648621-16.3820801-31.178009-16.3820801h-.1752014c-20.9091492 0-37.9172668 17.0010986-37.9172668 37.8985596v3.9710693c0 2.5789795 2.0930176 4.6695557 4.671936 4.6695557h66.6681824c2.335968 0 4.407959-1.8664551 4.6462402-4.1906738l10.002533-97.0308838c9.5237122 3.1628418 19.5286255 4.8843994 29.8652039 4.8843994 10.334259 0 20.3415222-1.7215576 29.8652344-4.8843994l10.0048828 97.0308838c.2406006 2.3242188 2.3125916 4.1906738 4.6462097 4.1906738h66.6682129c2.5788879 0 4.6719055-2.0905762 4.6719055-4.6695557v-3.9710693c0-20.897583-17.010437-37.8985596-37.9195862-37.8985596h-.1752014c-12.9154968 0-24.3289795 6.4986572-31.178009 16.3820801l-7.6853027-74.5357666c37.6252747-16.74646 65.9884644-57.0720215 72.9939575-106.2019043 26.7187195-17.4309082 44.4462585-47.6044312 44.4462585-81.8869019v-68.5276489c14.2493896-.4041138 25.7142334-11.6517334 25.7142334-25.4362183v-20.0751953c.0023193-13.4691162-11.0911255-25.1816406-24.7284546-26.1113281L549.8084717 822.5584106zM342.1746216 600.236084c3.2749939-.4111328 4.8050537-2.2612305 4.5877991-5.5549316-.5162354-2.6723022-.7778625-5.3399658-.7778625-7.930603 0-22.9437866 18.6526184-41.6127319 41.5800171-41.6127319 22.9274292 0 41.5800476 18.666626 41.5800476 41.6127319 0 2.5859375-.2616272 5.2559204-.7778931 7.9329224-.2149048 3.2890015 1.315155 5.1414185 4.5878296 5.5525513h87.7315369v76.9580688c.4111328 3.2750244 2.2635498 4.8027344 5.5595703 4.5855103 2.6653442-.5162354 5.3306885-.7778931 7.923584-.7778931 22.9274292 0 41.5800171 18.666626 41.5800171 41.6127319s-18.6525879 41.6127319-41.5800171 41.6127319c-2.5835571 0-5.2489014-.2616577-7.923584-.7802124-3.2960205-.2172241-5.1484375 1.3104858-5.5595703 4.5854492v71.0878906c-4.1953735.2429199-7.3325806 2.2004395-9.4115906 5.8702393H266.6507874c-2.6396179-4.5083618-6.6925049-6.4472656-12.1609802-5.8165283V600.2360229L342.1746216 600.236084zM392.4864502 1149.8166504c-57.4785461 0-104.2420654-57.8405762-104.2420654-128.9378052 0-18.2554932 3.1021423-35.6256714 8.6593933-51.3793335 1.1306152.0350342 2.3429565.0560303 3.6627808.0560303 25.651123 0 84.304657-7.6105347 125.5296326-70.6976929 41.0310974 17.3397827 70.6299744 65.4698486 70.6299744 122.0209961C496.7261658 1091.9736328 449.9649963 1149.8166504 392.4864502 1149.8166504zM539.4812012 962.7064819c0 28.1740112-13.2495728 53.269104-33.787323 69.4502563.2476196-3.7210693.3784485-7.4820557.3784485-11.2779541 0-76.2456665-50.9542236-138.2745972-113.585907-138.2745972s-113.5858765 62.0289307-113.5858765 138.2745972c0 5.5782471.2733154 11.0817871.8035583 16.4871826-24.7377777-15.6438599-41.2599945-43.2128296-41.2599945-74.6594849v-68.0627441c15.9499207-2.7260132 25.550705-13.555603 28.8023529-32.4884644.6633911-2.8709106 1.0301514-5.4708252 1.1329346-7.8254395h241.1641541c.1027832 2.3546143.4695129 4.9522095 1.1329346 7.8254395 3.2516174 18.9352417 12.8547668 29.7647705 28.804657 32.4884644L539.4812012 962.7064819z" fill="#2cb1bc" class="color000000 svgShape"></path><path d="M417.6283264,998.4816284c-6.5359802-0.7545166-4.3051758-7.0803223-3.2306213-8.0450439
								c9.8507385-8.8649902,24.5695801-9.1663208,34.142334,0c1.8640747,1.784668,1.9294739,4.739624,0.1448059,6.6036987
								c-1.7823181,1.8617554-4.7396545,1.9295044-6.6060791,0.1448975c-5.9520264-5.6950684-15.2724915-5.6950684-21.2198486,0
								c-0.9063416,0.8642578-2.0696411,1.2964478-3.2306213,1.2964478H417.6283264z" fill="#2cb1bc" class="color000000 svgShape"></path><ellipse cx="432.901" cy="1032.451" rx="8.141" ry="8.281" fill="#2cb1bc" class="color000000 svgShape"></ellipse><path d="M363.8919983 998.4816284c-1.1609802 0-2.3242798-.4321899-3.228302-1.2988281-5.9496765-5.6950073-15.2701416-5.692749-21.2198486 0-1.8640747 1.784729-4.8214111 1.7169189-6.6060791-.1448364-1.784668-1.8641357-1.7192688-4.8190308.1448364-6.6037598 9.5727539-9.1685791 24.6373291-9.2340088 34.142334 0C369.9210815 993.1532593 368.1948242 997.8789673 363.8919983 998.4816284zM432.9008179 1007.0780029c-10.9322815 0-20.2247009 7.1549683-23.6258545 17.0805664-10.5561829-6.2650757-23.6118469-6.2744141-34.1703796-.0163574-3.4034729-9.9161377-12.693573-17.0641479-23.618866-17.0641479-13.7984924 0-25.0250854 11.3830566-25.0250854 25.3731079 0 13.9901123 11.226593 25.3731689 25.0250854 25.3731689 13.0697021 0 23.815094-10.2150879 24.9176636-23.1820068 9.1592712-7.795166 22.4251709-7.7927246 31.5821533 0 1.1025696 12.9669189 11.8479614 23.1820068 24.9153137 23.1820068 13.7984924 0 25.0250854-11.3830566 25.0250854-25.3731689 0-13.9900513-11.226593-25.3731079-25.0250854-25.3731079L432.9008179 1007.0780029zM351.4857178 1048.4804688c-8.6477051 0-15.6812744-7.1900635-15.6812744-16.0292969 0-8.8392944 7.0335693-16.0293579 15.6812744-16.0293579s15.6812744 7.1900635 15.6812744 16.0293579C367.1669922 1041.2904053 360.1334229 1048.4804688 351.4857178 1048.4804688zM432.9008179 1048.4804688c-8.6477051 0-15.6812744-7.1900635-15.6812744-16.0292969 0-8.8392944 7.0359192-16.0293579 15.6812744-16.0293579 8.6453857 0 15.6812744 7.1900635 15.6812744 16.0293579C448.5820923 1041.2904053 441.5485229 1048.4804688 432.9008179 1048.4804688z" fill="#2cb1bc" class="color000000 svgShape"></path><ellipse cx="351.486" cy="1032.451" rx="8.141" ry="8.281" fill="#2cb1bc" class="color000000 svgShape"></ellipse><g fill="#2cb1bc" class="color000000 svgShape"><path d="M392.194458,1105.7231445c-15.3799438,0-27.8913269-12.6912842-27.8913269-28.2884521
							c0-2.5788574,2.0930176-4.671875,4.6719055-4.671875s4.6719055,2.0930176,4.6719055,4.671875
							c0,10.4464111,8.3206787,18.9445801,18.5475159,18.9445801s18.5474854-8.5006104,18.5474854-18.9445801
							c0-2.5788574,2.0930481-4.671875,4.671936-4.671875s4.6719055,2.0930176,4.6719055,4.671875
							C420.0857849,1093.0318604,407.572052,1105.7231445,392.194458,1105.7231445z" fill="#2cb1bc" class="color000000 svgShape"></path></g><g fill="#2cb1bc" class="color000000 svgShape"><path d="M1271.8830566,822.9251099c-12.4904785-0.1260986-17.2277832,5.2092285-19.3183594,14.4689331
			c-0.0467529,0.2056274-0.3433838,0.1798706-0.3433838-0.0303345v-70.4080811c0-2.5812378-2.0906982-4.671936-4.6719971-4.671936
			c-2.5811768,0-4.671875,2.0906982-4.671875,4.671936v72.3702393c0,0.0911255-0.0723877,0.1611938-0.1635742,0.1681519
			c-3.982666,0.2359619-7.0218506,2.041626-9.1195068,5.4171143c-0.0303955,0.0490723-0.0841064,0.0817871-0.1424561,0.0817871
			h-244.831665c-0.0583496,0-0.1121216-0.0303955-0.1425171-0.0794067
			c-2.6209717-4.1113281-6.4915771-5.9099731-11.6073608-5.4008179c-0.1004028,0.0093384-0.1915283-0.0654297-0.1915283-0.1681519
			v-71.3120728c0-1.3922119-0.6237183-2.7144165-1.6982422-3.6020508c-1.0744629-0.8876953-2.4901123-1.2473755-3.8613281-0.9834595
			c-2.6746826,0.5185547-5.3400269,0.7802124-7.923584,0.7802124c-22.9274292,0-41.5800171-18.666626-41.5800171-41.6127319
			c0-22.9437866,18.6525879-41.6127319,41.5800171-41.6127319c2.5905762,0,5.2559204,0.2616577,7.923584,0.7778931
			c1.3712158,0.2639771,2.7844238-0.0958252,3.8613281-0.9834595c1.0745239-0.8876953,1.6982422-2.2098389,1.6982422-3.6020508
			v-76.7828979c0-0.0981445,0.0794067-0.1751709,0.1752319-0.1751709h87.5563354
			c1.3945312,0,2.7143555-0.6213989,3.6020508-1.6959229c0.8875732-1.0745239,1.2497559-2.4901123,0.9857178-3.8566895
			c-0.5162354-2.677002-0.777832-5.3446655-0.777832-7.9328613c0-22.946106,18.6524658-41.6127319,41.5799561-41.6127319
			c22.9273682,0,41.5799561,18.666626,41.5799561,41.6127319c0,2.5928955-0.2615967,5.2582397-0.777832,7.9328613
			c-0.2640381,1.3665771,0.0980225,2.7844849,0.9857178,3.8566895c0.8876953,1.0745239,2.2075195,1.6959229,3.6020508,1.6959229
			h87.5096436c0.0980225,0,0.1751709,0.0794067,0.1751709,0.1751709v70.3800049c0,2.5812378,2.0906982,4.671936,4.6719971,4.671936
			c2.5811768,0,4.671875-2.0906982,4.671875-4.671936v-75.0472412c0-2.6746826-2.1700439-4.8447876-4.8448486-4.8447876h-86.6381836
			c-0.1004639,0-0.1799316-0.0864258-0.1729736-0.1868896c0.1075439-1.3291626,0.1612549-2.6513062,0.1612549-3.9594727
			c0-28.0945435-22.8432617-50.9519043-50.9238281-50.9519043s-50.9238281,22.8550415-50.9238281,50.9519043
			c0,1.3058472,0.0537109,2.6303101,0.1611328,3.9594727c0.0070801,0.1004639-0.0700684,0.1868896-0.1728516,0.1868896h-86.6826782
			c-2.677002,0-4.8471069,2.170105-4.8471069,4.8471069v75.9068604c0,0.1004639-0.0864258,0.1798706-0.1868896,0.1705322
			c-29.8137817-2.3733521-54.8739014,21.3880615-54.8739014,50.7907104s24.9923706,53.1734009,54.8739014,50.7907104
			c0.1004639-0.007019,0.1868896,0.0700684,0.1868896,0.1705322v57.5392456c0,0.1775513-0.2243042,0.2289429-0.3154297,0.0748291
			c-3.3497314-5.7722168-8.9606934-8.5286255-16.8282471-8.2646484
			c-13.6349487,0.9320068-24.7307739,12.6469116-24.7307739,26.1113892v20.0751953
			c0,13.7307129,11.3760986,24.947998,25.5484009,25.4315186c0.0934448,0.0023804,0.1658936,0.0770874,0.1658936,0.1705322
			v68.3616943c0,37.4711304,21.1777954,70.022644,52.1245117,86.3953247c0.0466919,0.0256348,0.0794067,0.0700684,0.0887451,0.12146
			c8.0730591,46.9760742,35.7775879,85.2741699,72.1577148,101.5230713c0.067749,0.0303955,0.1098633,0.1004639,0.1004639,0.1751709
			l-7.6245117,73.9610596c-0.0163574,0.1588135-0.2149658,0.2102051-0.3083496,0.0794678
			c-6.8770752-9.6755371-18.1644287-16.0107422-30.9163818-16.0107422c-21.0376587,0-38.0947876,17.0548096-38.0947876,38.0948486
			v3.5997314c0,2.677002,2.1700439,4.8447266,4.8447876,4.8447266h66.4953613c2.3382568,0,4.4033203-1.8664551,4.6462402-4.1906738
			l9.9815674-96.8183594c0.0117188-0.1098633,0.12146-0.1799316,0.2265625-0.1472168
			c9.4628906,3.1208496,19.4000244,4.8167725,29.6619873,4.8167725c10.2618408,0,20.1989746-1.6959229,29.6618652-4.8167725
			c0.1052246-0.0350342,0.2149658,0.0350342,0.2265625,0.1472168l9.9815674,96.8183594
			c0.243042,2.3242188,2.3103027,4.1906738,4.6462402,4.1906738h66.493042c2.677002,0,4.847168-2.1700439,4.847168-4.847168
			v-3.6184082c0-21.0283203-17.0455322-38.0737305-38.0738525-38.0737305h-0.0186768
			c-12.7519531,0-24.0393066,6.335083-30.9162598,16.0106201c-0.0935059,0.1308594-0.2919922,0.0794678-0.3083496-0.0794678
			l-7.6246338-73.9609375c-0.006958-0.0748291,0.0327148-0.1448975,0.1004639-0.175293
			c37.5482178-16.7697754,65.8482666-57.02771,72.8677979-106.0710449c0.0070801-0.0490723,0.0351562-0.0911865,0.0748291-0.1168213
			c26.6812744-17.4378662,44.3831787-47.5927124,44.3831787-81.8495483v-68.3618164
			c0-0.0934448,0.0723877-0.1658936,0.1658936-0.1705322c14.1722412-0.4859009,25.5483398-11.703125,25.5483398-25.4315186
			v-20.0751953c0-13.4668579-11.0957031-25.1816406-24.7307129-26.1136475L1271.8830566,822.9251099z M1114.5587158,1150.1833496
			c-57.4785156,0-104.2421265-57.8405762-104.2421265-128.9378052c0-18.2088013,3.0858154-35.5345459,8.6149902-51.2554932
			c0.0256348-0.0724487,0.0911255-0.1191406,0.1681519-0.1167603c1.0979004,0.0303345,2.2728882,0.0513916,3.5390015,0.0513916
			c25.6348267,0,84.2276001-7.6035767,125.447937-70.5715942c0.0466309-0.0724487,0.1401367-0.1004639,0.2171631-0.067749
			c40.9610596,17.388855,70.4945068,65.4745483,70.4945068,121.9626465
			c0.0024414,71.0924683-46.7611084,128.9354858-104.239624,128.9354858V1150.1833496z M1261.5557861,963.0731812
			c0,28.0408325-13.109375,53.0449219-33.4790039,69.2377319c-0.1190186,0.0957031-0.2966309,0.0023193-0.2872314-0.1495361
			c0.2336426-3.6019287,0.3551025-7.2414551,0.3551025-10.9158936c0-76.2456665-50.9542236-138.2745972-113.5859375-138.2745972
			s-113.5858765,62.0289307-113.5858765,138.2745972c0,5.4777832,0.2639771,10.8831787,0.7755127,16.1975098
			c0.0140991,0.1470947-0.1470947,0.2452393-0.2709351,0.1658936
			c-24.5812988-15.6835938-40.9586792-43.2011719-40.9586792-74.5333862v-67.9156494
			c0-0.0841064,0.06073-0.1541748,0.1448975-0.1681519c15.8657837-2.7657471,25.4175415-13.5882568,28.6598511-32.4674072
			c0.6844482-2.9620361,1.0395508-5.6203613,1.1259155-8.0310059c0.0023804-0.0934448,0.0770874-0.1611938,0.1705322-0.1611938
			h240.8347778c0.0935059,0,0.1682129,0.067749,0.1705322,0.1611938c0.0864258,2.4107056,0.4415283,5.0690308,1.1282959,8.0310059
			c3.2423096,18.8791504,12.7939453,29.7016602,28.6574707,32.4674072c0.0817871,0.0140381,0.1448975,0.0841064,0.1448975,0.1681519
			L1261.5557861,963.0731812z" fill="#2cb1bc" class="color000000 svgShape"></path><path d="M1167.3817139,998.8483887c-1.1610107,0-2.3243408-0.4321289-3.2282715-1.2988281
								c-5.949707-5.6950073-15.2701416-5.692749-21.2198486,0c-1.8641357,1.784729-4.8214111,1.7169189-6.6062012-0.1448364
								c-1.784668-1.8640747-1.7192383-4.8190308,0.1448975-6.6037598c9.5727539-9.1685791,24.3640137-8.9420166,34.142334,0
								C1173.927002,993.8354492,1171.8339844,999.2851562,1167.3817139,998.8483887z" fill="#2cb1bc" class="color000000 svgShape"></path><ellipse cx="1154.975" cy="1032.818" rx="8.141" ry="8.281" fill="#2cb1bc" class="color000000 svgShape"></ellipse><path d="M1058.2878418 998.8483887c-4.3215332.8269043-6.7556152-4.7209473-3.2305908-8.0450439 9.6405029-9.0938721 24.5695801-9.1663208 34.142334 0 1.8640137 1.784668 1.9294434 4.739624.1447754 6.6037598-1.7823486 1.8617554-4.739624 1.9271851-6.6060791.1448364-5.9520264-5.6950073-15.2724609-5.6950073-21.2197266 0C1060.6121826 998.4162598 1059.4488525 998.8483887 1058.2878418 998.8483887L1058.2878418 998.8483887zM1154.9753418 1007.4447021c-10.9182129 0-20.2012939 7.1386719-23.6118164 17.0454102-10.560791-6.2579346-23.6258545-6.2463379-34.1867676.0117188-3.4057617-9.911499-12.6934814-17.0571289-23.6164551-17.0571289-13.798584 0-25.0251465 11.3830566-25.0251465 25.3731689 0 13.9899902 11.2265625 25.3731689 25.0251465 25.3731689 13.0697021 0 23.8127441-10.2150879 24.9154053-23.1821289 9.1591797-7.7950439 22.4227295-7.7950439 31.5843506 0 1.1025391 12.9669189 11.8457031 23.1821289 24.9154053 23.1821289 13.798584 0 25.0251465-11.3831787 25.0251465-25.3731689 0-13.9901123-11.2265625-25.3731689-25.0251465-25.3731689H1154.9753418zM1073.5603027 1048.847168c-8.6477051 0-15.6812744-7.1900635-15.6812744-16.0292969 0-8.8392944 7.0358887-16.0293579 15.6812744-16.0293579s15.6812744 7.1900635 15.6812744 16.0293579C1089.2415771 1041.6571045 1082.2081299 1048.847168 1073.5603027 1048.847168zM1154.9753418 1048.847168c-8.6477051 0-15.6812744-7.1900635-15.6812744-16.0292969 0-8.8392944 7.0335693-16.0293579 15.6812744-16.0293579 8.6478271 0 15.6813965 7.1900635 15.6813965 16.0293579C1170.6567383 1041.6571045 1163.6208496 1048.847168 1154.9753418 1048.847168z" fill="#2cb1bc" class="color000000 svgShape"></path><ellipse cx="1073.56" cy="1032.818" rx="8.141" ry="8.281" fill="#2cb1bc" class="color000000 svgShape"></ellipse><g fill="#2cb1bc" class="color000000 svgShape"><path d="M1114.2667236,1106.0898438c-15.3800049,0-27.8913574-12.6912842-27.8913574-28.2884521
							c0-2.5788574,2.0930176-4.671875,4.671875-4.671875s4.671875,2.0930176,4.671875,4.671875
							c0,10.4464111,8.3208008,18.9445801,18.5476074,18.9445801c10.2266846,0,18.5474854-8.5006104,18.5474854-18.9445801
							c0-2.5788574,2.0930176-4.671875,4.671875-4.671875s4.671875,2.0930176,4.671875,4.671875
							C1142.1604004,1093.401001,1129.6466064,1106.0898438,1114.2667236,1106.0898438z" fill="#2cb1bc" class="color000000 svgShape"></path></g><circle cx="1247.257" cy="719.706" r="11.687" fill="#2cb1bc" class="color000000 svgShape"></circle></g></svg>